%TF.GenerationSoftware,KiCad,Pcbnew,10.0.6*%
%TF.CreationDate,2026-09-27T16:00:07-04:00*%
%TF.ProjectId,atlas_drive,61746c61-735f-4647-9269-76652e6b6963,rev?*%
%TF.SameCoordinates,Original*%
%TF.FileFunction,Soldermask,Top*%
%TF.FilePolarity,Negative*%
%FSLAX46Y46*%
G04 Gerber Fmt 4.6, Leading zero omitted, Abs format (unit mm)*
G04 Created by KiCad (PCBNEW 10.0.6) date 2026-09-27 16:00:07*
%MOMM*%
%LPD*%
G01*
G04 APERTURE LIST*
G04 Aperture macros list*
%AMRoundRect*
0 Rectangle with rounded corners*
0 $1 Rounding radius*
0 $2 $3 $4 $5 $6 $7 $8 $9 X,Y pos of 4 corners*
0 Add a 4 corners polygon primitive as box body*
4,1,4,$2,$3,$4,$5,$6,$7,$8,$9,$2,$3,0*
0 Add four circle primitives for the rounded corners*
1,1,$1+$1,$2,$3*
1,1,$1+$1,$4,$5*
1,1,$1+$1,$6,$7*
1,1,$1+$1,$8,$9*
0 Add four rect primitives between the rounded corners*
20,1,$1+$1,$2,$3,$4,$5,0*
20,1,$1+$1,$4,$5,$6,$7,0*
20,1,$1+$1,$6,$7,$8,$9,0*
20,1,$1+$1,$8,$9,$2,$3,0*%
%AMFreePoly0*
4,1,17,2.675000,1.605000,1.875000,1.605000,1.875000,0.935000,2.675000,0.935000,2.675000,0.335000,1.875000,0.335000,1.875000,-0.335000,2.675000,-0.335000,2.675000,-0.935000,1.875000,-0.935000,1.875000,-1.605000,2.675000,-1.605000,2.675000,-2.205000,-1.875000,-2.205000,-1.875000,2.205000,2.675000,2.205000,2.675000,1.605000,2.675000,1.605000,$1*%
%AMFreePoly1*
4,1,23,0.500000,-0.750000,0.000000,-0.750000,0.000000,-0.745722,-0.065263,-0.745722,-0.191342,-0.711940,-0.304381,-0.646677,-0.396677,-0.554381,-0.461940,-0.441342,-0.495722,-0.315263,-0.495722,-0.250000,-0.500000,-0.250000,-0.500000,0.250000,-0.495722,0.250000,-0.495722,0.315263,-0.461940,0.441342,-0.396677,0.554381,-0.304381,0.646677,-0.191342,0.711940,-0.065263,0.745722,0.000000,0.745722,
0.000000,0.750000,0.500000,0.750000,0.500000,-0.750000,0.500000,-0.750000,$1*%
%AMFreePoly2*
4,1,23,0.000000,0.745722,0.065263,0.745722,0.191342,0.711940,0.304381,0.646677,0.396677,0.554381,0.461940,0.441342,0.495722,0.315263,0.495722,0.250000,0.500000,0.250000,0.500000,-0.250000,0.495722,-0.250000,0.495722,-0.315263,0.461940,-0.441342,0.396677,-0.554381,0.304381,-0.646677,0.191342,-0.711940,0.065263,-0.745722,0.000000,-0.745722,0.000000,-0.750000,-0.500000,-0.750000,
-0.500000,0.750000,0.000000,0.750000,0.000000,0.745722,0.000000,0.745722,$1*%
%AMFreePoly3*
4,1,122,0.608000,0.599000,0.610000,0.599000,0.613000,0.598000,0.615000,0.598000,0.618000,0.597000,0.620000,0.596000,0.623000,0.595000,0.625000,0.593000,0.627000,0.592000,0.629000,0.590000,0.631000,0.589000,0.639000,0.581000,0.640000,0.579000,0.642000,0.577000,0.643000,0.575000,0.645000,0.573000,0.646000,0.570000,0.647000,0.568000,0.648000,0.565000,0.648000,0.563000,
0.649000,0.560000,0.649000,0.558000,0.650000,0.555000,0.650000,-0.055000,0.649000,-0.058000,0.649000,-0.060000,0.648000,-0.063000,0.648000,-0.065000,0.647000,-0.068000,0.646000,-0.070000,0.645000,-0.073000,0.643000,-0.075000,0.642000,-0.077000,0.640000,-0.079000,0.639000,-0.081000,0.631000,-0.089000,0.629000,-0.090000,0.627000,-0.092000,0.625000,-0.093000,0.623000,-0.095000,
0.620000,-0.096000,0.618000,-0.097000,0.615000,-0.098000,0.613000,-0.098000,0.610000,-0.099000,0.608000,-0.099000,0.605000,-0.100000,-0.255000,-0.100000,-0.258000,-0.099000,-0.260000,-0.099000,-0.263000,-0.098000,-0.265000,-0.098000,-0.268000,-0.097000,-0.270000,-0.096000,-0.273000,-0.095000,-0.275000,-0.093000,-0.277000,-0.092000,-0.279000,-0.090000,-0.281000,-0.089000,-0.289000,-0.081000,
-0.290000,-0.079000,-0.292000,-0.077000,-0.293000,-0.075000,-0.295000,-0.073000,-0.296000,-0.070000,-0.297000,-0.068000,-0.298000,-0.065000,-0.298000,-0.063000,-0.299000,-0.060000,-0.299000,-0.058000,-0.300000,-0.055000,-0.300000,0.055000,-0.299000,0.058000,-0.299000,0.060000,-0.298000,0.063000,-0.298000,0.065000,-0.297000,0.068000,-0.296000,0.070000,-0.295000,0.073000,-0.293000,0.075000,
-0.292000,0.077000,-0.290000,0.079000,-0.289000,0.081000,-0.281000,0.089000,-0.279000,0.090000,-0.277000,0.092000,-0.275000,0.093000,-0.273000,0.095000,-0.270000,0.096000,-0.268000,0.097000,-0.265000,0.098000,-0.263000,0.098000,-0.260000,0.099000,-0.258000,0.099000,-0.255000,0.100000,0.450000,0.100000,0.450000,0.555000,0.451000,0.558000,0.451000,0.560000,0.452000,0.563000,
0.452000,0.565000,0.453000,0.568000,0.454000,0.570000,0.455000,0.573000,0.457000,0.575000,0.458000,0.577000,0.460000,0.579000,0.461000,0.581000,0.469000,0.589000,0.471000,0.590000,0.473000,0.592000,0.475000,0.593000,0.477000,0.595000,0.480000,0.596000,0.482000,0.597000,0.485000,0.598000,0.487000,0.598000,0.490000,0.599000,0.492000,0.599000,0.495000,0.600000,
0.605000,0.600000,0.608000,0.599000,0.608000,0.599000,$1*%
%AMFreePoly4*
4,1,122,0.058000,0.349000,0.060000,0.349000,0.063000,0.348000,0.065000,0.348000,0.068000,0.347000,0.070000,0.346000,0.073000,0.345000,0.075000,0.343000,0.077000,0.342000,0.079000,0.340000,0.081000,0.339000,0.089000,0.331000,0.090000,0.329000,0.092000,0.327000,0.093000,0.325000,0.095000,0.323000,0.096000,0.320000,0.097000,0.318000,0.098000,0.315000,0.098000,0.313000,
0.099000,0.310000,0.099000,0.308000,0.100000,0.305000,0.100000,-0.305000,0.099000,-0.308000,0.099000,-0.310000,0.098000,-0.313000,0.098000,-0.315000,0.097000,-0.318000,0.096000,-0.320000,0.095000,-0.323000,0.093000,-0.325000,0.092000,-0.327000,0.090000,-0.329000,0.089000,-0.331000,0.081000,-0.339000,0.079000,-0.340000,0.077000,-0.342000,0.075000,-0.343000,0.073000,-0.345000,
0.070000,-0.346000,0.068000,-0.347000,0.065000,-0.348000,0.063000,-0.348000,0.060000,-0.349000,0.058000,-0.349000,0.055000,-0.350000,-0.055000,-0.350000,-0.058000,-0.349000,-0.060000,-0.349000,-0.063000,-0.348000,-0.065000,-0.348000,-0.068000,-0.347000,-0.070000,-0.346000,-0.073000,-0.345000,-0.075000,-0.343000,-0.077000,-0.342000,-0.079000,-0.340000,-0.081000,-0.339000,-0.089000,-0.331000,
-0.090000,-0.329000,-0.092000,-0.327000,-0.093000,-0.325000,-0.095000,-0.323000,-0.096000,-0.320000,-0.097000,-0.318000,-0.098000,-0.315000,-0.098000,-0.313000,-0.099000,-0.310000,-0.099000,-0.308000,-0.100000,-0.305000,-0.100000,0.150000,-0.755000,0.150000,-0.758000,0.151000,-0.760000,0.151000,-0.763000,0.152000,-0.765000,0.152000,-0.768000,0.153000,-0.770000,0.154000,-0.773000,0.155000,
-0.775000,0.157000,-0.777000,0.158000,-0.779000,0.160000,-0.781000,0.161000,-0.789000,0.169000,-0.790000,0.171000,-0.792000,0.173000,-0.793000,0.175000,-0.795000,0.177000,-0.796000,0.180000,-0.797000,0.182000,-0.798000,0.185000,-0.798000,0.187000,-0.799000,0.190000,-0.799000,0.192000,-0.800000,0.195000,-0.800000,0.305000,-0.799000,0.308000,-0.799000,0.310000,-0.798000,0.313000,
-0.798000,0.315000,-0.797000,0.318000,-0.796000,0.320000,-0.795000,0.323000,-0.793000,0.325000,-0.792000,0.327000,-0.790000,0.329000,-0.789000,0.331000,-0.781000,0.339000,-0.779000,0.340000,-0.777000,0.342000,-0.775000,0.343000,-0.773000,0.345000,-0.770000,0.346000,-0.768000,0.347000,-0.765000,0.348000,-0.763000,0.348000,-0.760000,0.349000,-0.758000,0.349000,-0.755000,0.350000,
0.055000,0.350000,0.058000,0.349000,0.058000,0.349000,$1*%
%AMFreePoly5*
4,1,122,0.308000,0.099000,0.310000,0.099000,0.313000,0.098000,0.315000,0.098000,0.318000,0.097000,0.320000,0.096000,0.323000,0.095000,0.325000,0.093000,0.327000,0.092000,0.329000,0.090000,0.331000,0.089000,0.339000,0.081000,0.340000,0.079000,0.342000,0.077000,0.343000,0.075000,0.345000,0.073000,0.346000,0.070000,0.347000,0.068000,0.348000,0.065000,0.348000,0.063000,
0.349000,0.060000,0.349000,0.058000,0.350000,0.055000,0.350000,-0.055000,0.349000,-0.058000,0.349000,-0.060000,0.348000,-0.063000,0.348000,-0.065000,0.347000,-0.068000,0.346000,-0.070000,0.345000,-0.073000,0.343000,-0.075000,0.342000,-0.077000,0.340000,-0.079000,0.339000,-0.081000,0.331000,-0.089000,0.329000,-0.090000,0.327000,-0.092000,0.325000,-0.093000,0.323000,-0.095000,
0.320000,-0.096000,0.318000,-0.097000,0.315000,-0.098000,0.313000,-0.098000,0.310000,-0.099000,0.308000,-0.099000,0.305000,-0.100000,-0.350000,-0.100000,-0.350000,-0.555000,-0.351000,-0.558000,-0.351000,-0.560000,-0.352000,-0.563000,-0.352000,-0.565000,-0.353000,-0.568000,-0.354000,-0.570000,-0.355000,-0.573000,-0.357000,-0.575000,-0.358000,-0.577000,-0.360000,-0.579000,-0.361000,-0.581000,
-0.369000,-0.589000,-0.371000,-0.590000,-0.373000,-0.592000,-0.375000,-0.593000,-0.377000,-0.595000,-0.380000,-0.596000,-0.382000,-0.597000,-0.385000,-0.598000,-0.387000,-0.598000,-0.390000,-0.599000,-0.392000,-0.599000,-0.395000,-0.600000,-0.505000,-0.600000,-0.508000,-0.599000,-0.510000,-0.599000,-0.513000,-0.598000,-0.515000,-0.598000,-0.518000,-0.597000,-0.520000,-0.596000,-0.523000,-0.595000,
-0.525000,-0.593000,-0.527000,-0.592000,-0.529000,-0.590000,-0.531000,-0.589000,-0.539000,-0.581000,-0.540000,-0.579000,-0.542000,-0.577000,-0.543000,-0.575000,-0.545000,-0.573000,-0.546000,-0.570000,-0.547000,-0.568000,-0.548000,-0.565000,-0.548000,-0.563000,-0.549000,-0.560000,-0.549000,-0.558000,-0.550000,-0.555000,-0.550000,0.055000,-0.549000,0.058000,-0.549000,0.060000,-0.548000,0.063000,
-0.548000,0.065000,-0.547000,0.068000,-0.546000,0.070000,-0.545000,0.073000,-0.543000,0.075000,-0.542000,0.077000,-0.540000,0.079000,-0.539000,0.081000,-0.531000,0.089000,-0.529000,0.090000,-0.527000,0.092000,-0.525000,0.093000,-0.523000,0.095000,-0.520000,0.096000,-0.518000,0.097000,-0.515000,0.098000,-0.513000,0.098000,-0.510000,0.099000,-0.508000,0.099000,-0.505000,0.100000,
0.305000,0.100000,0.308000,0.099000,0.308000,0.099000,$1*%
%AMFreePoly6*
4,1,122,-0.454500,0.599000,-0.452500,0.599000,-0.449500,0.598000,-0.447500,0.598000,-0.444500,0.597000,-0.442500,0.596000,-0.439500,0.595000,-0.437500,0.593000,-0.435500,0.592000,-0.433500,0.590000,-0.431500,0.589000,-0.423500,0.581000,-0.422500,0.579000,-0.420500,0.577000,-0.419500,0.575000,-0.417500,0.573000,-0.416500,0.570000,-0.415500,0.568000,-0.414500,0.565000,-0.414500,0.563000,
-0.413500,0.560000,-0.413500,0.558000,-0.412500,0.555000,-0.412500,0.100000,0.292500,0.100000,0.295500,0.099000,0.297500,0.099000,0.300500,0.098000,0.302500,0.098000,0.305500,0.097000,0.307500,0.096000,0.310500,0.095000,0.312500,0.093000,0.314500,0.092000,0.316500,0.090000,0.318500,0.089000,0.326500,0.081000,0.327500,0.079000,0.329500,0.077000,0.330500,0.075000,
0.332500,0.073000,0.333500,0.070000,0.334500,0.068000,0.335500,0.065000,0.335500,0.063000,0.336500,0.060000,0.336500,0.058000,0.337500,0.055000,0.337500,-0.055000,0.336500,-0.058000,0.336500,-0.060000,0.335500,-0.063000,0.335500,-0.065000,0.334500,-0.068000,0.333500,-0.070000,0.332500,-0.073000,0.330500,-0.075000,0.329500,-0.077000,0.327500,-0.079000,0.326500,-0.081000,
0.318500,-0.089000,0.316500,-0.090000,0.314500,-0.092000,0.312500,-0.093000,0.310500,-0.095000,0.307500,-0.096000,0.305500,-0.097000,0.302500,-0.098000,0.300500,-0.098000,0.297500,-0.099000,0.295500,-0.099000,0.292500,-0.100000,-0.567500,-0.100000,-0.570500,-0.099000,-0.572500,-0.099000,-0.575500,-0.098000,-0.577500,-0.098000,-0.580500,-0.097000,-0.582500,-0.096000,-0.585500,-0.095000,
-0.587500,-0.093000,-0.589500,-0.092000,-0.591500,-0.090000,-0.593500,-0.089000,-0.601500,-0.081000,-0.602500,-0.079000,-0.604500,-0.077000,-0.605500,-0.075000,-0.607500,-0.073000,-0.608500,-0.070000,-0.609500,-0.068000,-0.610500,-0.065000,-0.610500,-0.063000,-0.611500,-0.060000,-0.611500,-0.058000,-0.612500,-0.055000,-0.612500,0.555000,-0.611500,0.558000,-0.611500,0.560000,-0.610500,0.563000,
-0.610500,0.565000,-0.609500,0.568000,-0.608500,0.570000,-0.607500,0.573000,-0.605500,0.575000,-0.604500,0.577000,-0.602500,0.579000,-0.601500,0.581000,-0.593500,0.589000,-0.591500,0.590000,-0.589500,0.592000,-0.587500,0.593000,-0.585500,0.595000,-0.582500,0.596000,-0.580500,0.597000,-0.577500,0.598000,-0.575500,0.598000,-0.572500,0.599000,-0.570500,0.599000,-0.567500,0.600000,
-0.457500,0.600000,-0.454500,0.599000,-0.454500,0.599000,$1*%
G04 Aperture macros list end*
%ADD10C,0.100000*%
%ADD11FreePoly0,90.000000*%
%ADD12RoundRect,0.125000X0.125000X-0.300000X0.125000X0.300000X-0.125000X0.300000X-0.125000X-0.300000X0*%
%ADD13RoundRect,0.135000X-0.135000X-0.185000X0.135000X-0.185000X0.135000X0.185000X-0.135000X0.185000X0*%
%ADD14RoundRect,0.140000X0.170000X-0.140000X0.170000X0.140000X-0.170000X0.140000X-0.170000X-0.140000X0*%
%ADD15RoundRect,0.250000X-0.250000X-0.475000X0.250000X-0.475000X0.250000X0.475000X-0.250000X0.475000X0*%
%ADD16RoundRect,0.225000X0.225000X0.250000X-0.225000X0.250000X-0.225000X-0.250000X0.225000X-0.250000X0*%
%ADD17RoundRect,0.135000X0.185000X-0.135000X0.185000X0.135000X-0.185000X0.135000X-0.185000X-0.135000X0*%
%ADD18RoundRect,0.140000X-0.140000X-0.170000X0.140000X-0.170000X0.140000X0.170000X-0.140000X0.170000X0*%
%ADD19RoundRect,0.218750X0.256250X-0.218750X0.256250X0.218750X-0.256250X0.218750X-0.256250X-0.218750X0*%
%ADD20FreePoly0,270.000000*%
%ADD21RoundRect,0.125000X-0.125000X0.300000X-0.125000X-0.300000X0.125000X-0.300000X0.125000X0.300000X0*%
%ADD22FreePoly1,0.000000*%
%ADD23FreePoly2,0.000000*%
%ADD24C,0.800000*%
%ADD25C,6.400000*%
%ADD26RoundRect,0.225000X0.250000X-0.225000X0.250000X0.225000X-0.250000X0.225000X-0.250000X-0.225000X0*%
%ADD27RoundRect,0.150000X-0.587500X-0.150000X0.587500X-0.150000X0.587500X0.150000X-0.587500X0.150000X0*%
%ADD28RoundRect,0.250000X-0.475000X0.250000X-0.475000X-0.250000X0.475000X-0.250000X0.475000X0.250000X0*%
%ADD29RoundRect,0.062500X0.375000X0.062500X-0.375000X0.062500X-0.375000X-0.062500X0.375000X-0.062500X0*%
%ADD30RoundRect,0.062500X0.062500X0.375000X-0.062500X0.375000X-0.062500X-0.375000X0.062500X-0.375000X0*%
%ADD31R,5.150000X5.150000*%
%ADD32RoundRect,0.250000X-1.750000X-1.000000X1.750000X-1.000000X1.750000X1.000000X-1.750000X1.000000X0*%
%ADD33RoundRect,0.250000X1.100000X-0.325000X1.100000X0.325000X-1.100000X0.325000X-1.100000X-0.325000X0*%
%ADD34RoundRect,0.150000X0.150000X-0.587500X0.150000X0.587500X-0.150000X0.587500X-0.150000X-0.587500X0*%
%ADD35RoundRect,0.140000X0.140000X0.170000X-0.140000X0.170000X-0.140000X-0.170000X0.140000X-0.170000X0*%
%ADD36RoundRect,0.250000X0.625000X-0.350000X0.625000X0.350000X-0.625000X0.350000X-0.625000X-0.350000X0*%
%ADD37O,1.750000X1.200000*%
%ADD38RoundRect,0.087500X-0.425000X-0.087500X0.425000X-0.087500X0.425000X0.087500X-0.425000X0.087500X0*%
%ADD39RoundRect,0.250000X0.250000X0.475000X-0.250000X0.475000X-0.250000X-0.475000X0.250000X-0.475000X0*%
%ADD40RoundRect,0.250000X-0.450000X-0.350000X0.450000X-0.350000X0.450000X0.350000X-0.450000X0.350000X0*%
%ADD41RoundRect,0.250000X0.600000X0.725000X-0.600000X0.725000X-0.600000X-0.725000X0.600000X-0.725000X0*%
%ADD42O,1.700000X1.950000*%
%ADD43C,0.900000*%
%ADD44RoundRect,0.560000X-3.940000X-2.940000X3.940000X-2.940000X3.940000X2.940000X-3.940000X2.940000X0*%
%ADD45RoundRect,0.100000X0.100000X-0.637500X0.100000X0.637500X-0.100000X0.637500X-0.100000X-0.637500X0*%
%ADD46RoundRect,0.093750X-0.093750X-0.106250X0.093750X-0.106250X0.093750X0.106250X-0.093750X0.106250X0*%
%ADD47R,1.000000X1.600000*%
%ADD48RoundRect,0.150000X-0.825000X-0.150000X0.825000X-0.150000X0.825000X0.150000X-0.825000X0.150000X0*%
%ADD49RoundRect,0.250000X0.475000X-0.250000X0.475000X0.250000X-0.475000X0.250000X-0.475000X-0.250000X0*%
%ADD50RoundRect,0.087500X-0.662500X-0.087500X0.662500X-0.087500X0.662500X0.087500X-0.662500X0.087500X0*%
%ADD51RoundRect,0.087500X0.087500X-0.425000X0.087500X0.425000X-0.087500X0.425000X-0.087500X-0.425000X0*%
%ADD52C,1.000000*%
%ADD53FreePoly3,0.000000*%
%ADD54RoundRect,0.050000X-0.250000X-0.050000X0.250000X-0.050000X0.250000X0.050000X-0.250000X0.050000X0*%
%ADD55FreePoly4,0.000000*%
%ADD56RoundRect,0.050000X-0.050000X-0.250000X0.050000X-0.250000X0.050000X0.250000X-0.050000X0.250000X0*%
%ADD57FreePoly5,0.000000*%
%ADD58RoundRect,0.050000X-0.300000X-0.050000X0.300000X-0.050000X0.300000X0.050000X-0.300000X0.050000X0*%
%ADD59RoundRect,0.050000X-0.275000X-0.050000X0.275000X-0.050000X0.275000X0.050000X-0.275000X0.050000X0*%
%ADD60RoundRect,0.050000X-0.290000X-0.050000X0.290000X-0.050000X0.290000X0.050000X-0.290000X0.050000X0*%
%ADD61FreePoly6,0.000000*%
%ADD62RoundRect,0.050000X-0.050000X-0.450000X0.050000X-0.450000X0.050000X0.450000X-0.050000X0.450000X0*%
%ADD63RoundRect,0.050000X-0.050000X-0.425000X0.050000X-0.425000X0.050000X0.425000X-0.050000X0.425000X0*%
%ADD64RoundRect,0.218750X-0.218750X-0.256250X0.218750X-0.256250X0.218750X0.256250X-0.218750X0.256250X0*%
%ADD65RoundRect,0.135000X0.135000X0.185000X-0.135000X0.185000X-0.135000X-0.185000X0.135000X-0.185000X0*%
%ADD66RoundRect,0.250000X-1.100000X0.325000X-1.100000X-0.325000X1.100000X-0.325000X1.100000X0.325000X0*%
%ADD67R,0.800000X1.000000*%
%ADD68R,1.500000X0.700000*%
%ADD69RoundRect,0.225000X-0.225000X-0.250000X0.225000X-0.250000X0.225000X0.250000X-0.225000X0.250000X0*%
%ADD70RoundRect,0.250000X-0.650000X0.325000X-0.650000X-0.325000X0.650000X-0.325000X0.650000X0.325000X0*%
%ADD71RoundRect,0.250000X-0.362500X-1.425000X0.362500X-1.425000X0.362500X1.425000X-0.362500X1.425000X0*%
%ADD72RoundRect,0.050000X0.050000X-0.225000X0.050000X0.225000X-0.050000X0.225000X-0.050000X-0.225000X0*%
%ADD73RoundRect,0.050000X0.225000X0.050000X-0.225000X0.050000X-0.225000X-0.050000X0.225000X-0.050000X0*%
%ADD74RoundRect,0.250000X-1.075000X1.110000X-1.075000X-1.110000X1.075000X-1.110000X1.075000X1.110000X0*%
%ADD75RoundRect,0.250000X-1.075000X0.515000X-1.075000X-0.515000X1.075000X-0.515000X1.075000X0.515000X0*%
%ADD76R,1.500000X3.600000*%
%ADD77RoundRect,0.147500X-0.147500X-0.172500X0.147500X-0.172500X0.147500X0.172500X-0.147500X0.172500X0*%
%ADD78R,1.000000X0.900000*%
%ADD79RoundRect,0.250000X0.350000X-0.450000X0.350000X0.450000X-0.350000X0.450000X-0.350000X-0.450000X0*%
%ADD80RoundRect,0.140000X-0.170000X0.140000X-0.170000X-0.140000X0.170000X-0.140000X0.170000X0.140000X0*%
%ADD81RoundRect,0.249998X-3.250002X-3.250002X3.250002X-3.250002X3.250002X3.250002X-3.250002X3.250002X0*%
%ADD82RoundRect,0.135000X-0.185000X0.135000X-0.185000X-0.135000X0.185000X-0.135000X0.185000X0.135000X0*%
%ADD83C,1.100000*%
%ADD84R,1.730000X2.030000*%
%ADD85O,1.730000X2.030000*%
%ADD86RoundRect,0.250000X0.615000X-0.265000X0.615000X0.265000X-0.615000X0.265000X-0.615000X-0.265000X0*%
%ADD87O,1.730000X1.030000*%
%ADD88RoundRect,0.250000X-0.300000X-0.300000X0.300000X-0.300000X0.300000X0.300000X-0.300000X0.300000X0*%
%ADD89RoundRect,0.087500X-0.225000X-0.087500X0.225000X-0.087500X0.225000X0.087500X-0.225000X0.087500X0*%
%ADD90RoundRect,0.087500X-0.087500X-0.225000X0.087500X-0.225000X0.087500X0.225000X-0.087500X0.225000X0*%
%ADD91RoundRect,0.200000X-0.200000X-0.275000X0.200000X-0.275000X0.200000X0.275000X-0.200000X0.275000X0*%
%ADD92R,1.050000X0.450000*%
%ADD93R,3.400000X5.000000*%
%ADD94R,1.700000X1.700000*%
%ADD95C,1.700000*%
%ADD96RoundRect,0.250001X0.949999X-0.949999X0.949999X0.949999X-0.949999X0.949999X-0.949999X-0.949999X0*%
%ADD97C,2.400000*%
%ADD98RoundRect,0.637500X-2.162500X0.637500X-2.162500X-0.637500X2.162500X-0.637500X2.162500X0.637500X0*%
%ADD99RoundRect,0.225000X-0.225000X1.050000X-0.225000X-1.050000X0.225000X-1.050000X0.225000X1.050000X0*%
%ADD100RoundRect,0.150000X-0.512500X-0.150000X0.512500X-0.150000X0.512500X0.150000X-0.512500X0.150000X0*%
%ADD101RoundRect,0.637500X-0.637500X-2.162500X0.637500X-2.162500X0.637500X2.162500X-0.637500X2.162500X0*%
%ADD102RoundRect,0.225000X-1.050000X-0.225000X1.050000X-0.225000X1.050000X0.225000X-1.050000X0.225000X0*%
%ADD103RoundRect,0.090000X-0.610500X-0.360000X0.610500X-0.360000X0.610500X0.360000X-0.610500X0.360000X0*%
%ADD104RoundRect,0.025000X-0.575000X-0.100000X0.575000X-0.100000X0.575000X0.100000X-0.575000X0.100000X0*%
%ADD105RoundRect,0.100000X-1.550000X-0.400000X1.550000X-0.400000X1.550000X0.400000X-1.550000X0.400000X0*%
%ADD106RoundRect,0.225000X-0.225000X-0.375000X0.225000X-0.375000X0.225000X0.375000X-0.225000X0.375000X0*%
%ADD107RoundRect,0.150000X0.700000X-0.150000X0.700000X0.150000X-0.700000X0.150000X-0.700000X-0.150000X0*%
%ADD108RoundRect,0.250000X1.150000X-0.250000X1.150000X0.250000X-1.150000X0.250000X-1.150000X-0.250000X0*%
%ADD109RoundRect,0.250000X1.500000X1.000000X-1.500000X1.000000X-1.500000X-1.000000X1.500000X-1.000000X0*%
%ADD110RoundRect,0.062500X-0.350000X-0.062500X0.350000X-0.062500X0.350000X0.062500X-0.350000X0.062500X0*%
%ADD111RoundRect,0.062500X-0.062500X-0.350000X0.062500X-0.350000X0.062500X0.350000X-0.062500X0.350000X0*%
%ADD112R,3.700000X3.700000*%
%ADD113RoundRect,0.250000X-0.900000X1.000000X-0.900000X-1.000000X0.900000X-1.000000X0.900000X1.000000X0*%
%ADD114RoundRect,0.250000X-1.000000X1.400000X-1.000000X-1.400000X1.000000X-1.400000X1.000000X1.400000X0*%
%ADD115R,2.400000X0.740000*%
%ADD116RoundRect,0.075000X-0.075000X-0.200000X0.075000X-0.200000X0.075000X0.200000X-0.075000X0.200000X0*%
%ADD117R,2.600000X2.600000*%
%ADD118RoundRect,0.075000X-0.700000X-0.075000X0.700000X-0.075000X0.700000X0.075000X-0.700000X0.075000X0*%
%ADD119RoundRect,0.075000X-0.075000X-0.700000X0.075000X-0.700000X0.075000X0.700000X-0.075000X0.700000X0*%
%ADD120C,0.650000*%
%ADD121RoundRect,0.150000X-0.425000X0.150000X-0.425000X-0.150000X0.425000X-0.150000X0.425000X0.150000X0*%
%ADD122RoundRect,0.075000X-0.500000X0.075000X-0.500000X-0.075000X0.500000X-0.075000X0.500000X0.075000X0*%
%ADD123O,2.100000X1.000000*%
%ADD124O,1.800000X1.000000*%
%ADD125RoundRect,0.225000X-0.250000X0.225000X-0.250000X-0.225000X0.250000X-0.225000X0.250000X0.225000X0*%
%ADD126RoundRect,0.250000X-0.625000X0.350000X-0.625000X-0.350000X0.625000X-0.350000X0.625000X0.350000X0*%
%ADD127RoundRect,0.030000X0.695000X0.120000X-0.695000X0.120000X-0.695000X-0.120000X0.695000X-0.120000X0*%
%ADD128RoundRect,0.112500X0.112500X-0.187500X0.112500X0.187500X-0.112500X0.187500X-0.112500X-0.187500X0*%
G04 APERTURE END LIST*
%TO.C,JP601*%
G36*
X159350000Y-68050000D02*
G01*
X159650000Y-68050000D01*
X159650000Y-69550000D01*
X159350000Y-69550000D01*
X159350000Y-68050000D01*
G37*
D10*
%TO.C,U701*%
X41100000Y-58150000D02*
X41100000Y-58650000D01*
X40650000Y-58650000D01*
X40650000Y-58550000D01*
X41000000Y-58550000D01*
X41000000Y-58250000D01*
X40650000Y-58250000D01*
X40650000Y-58150000D01*
X41100000Y-58150000D01*
G36*
X41100000Y-58650000D02*
G01*
X40650000Y-58650000D01*
X40650000Y-58550000D01*
X41000000Y-58550000D01*
X41000000Y-58250000D01*
X40650000Y-58250000D01*
X40650000Y-58150000D01*
X41100000Y-58150000D01*
X41100000Y-58650000D01*
G37*
X41100000Y-58950000D02*
X41100000Y-59450000D01*
X40650000Y-59450000D01*
X40650000Y-59350000D01*
X41000000Y-59350000D01*
X41000000Y-59050000D01*
X40650000Y-59050000D01*
X40650000Y-58950000D01*
X41100000Y-58950000D01*
G36*
X41100000Y-59450000D02*
G01*
X40650000Y-59450000D01*
X40650000Y-59350000D01*
X41000000Y-59350000D01*
X41000000Y-59050000D01*
X40650000Y-59050000D01*
X40650000Y-58950000D01*
X41100000Y-58950000D01*
X41100000Y-59450000D01*
G37*
X41637500Y-55500000D02*
X42637500Y-55500000D01*
X42637500Y-55050000D01*
X42537500Y-55050000D01*
X42537500Y-55400000D01*
X42187500Y-55400000D01*
X42187500Y-55050000D01*
X42087500Y-55050000D01*
X42087500Y-55400000D01*
X41737500Y-55400000D01*
X41737500Y-55050000D01*
X41637500Y-55050000D01*
X41637500Y-55500000D01*
G36*
X41737500Y-55400000D02*
G01*
X42087500Y-55400000D01*
X42087500Y-55050000D01*
X42187500Y-55050000D01*
X42187500Y-55400000D01*
X42537500Y-55400000D01*
X42537500Y-55050000D01*
X42637500Y-55050000D01*
X42637500Y-55500000D01*
X41637500Y-55500000D01*
X41637500Y-55050000D01*
X41737500Y-55050000D01*
X41737500Y-55400000D01*
G37*
X42962500Y-55500000D02*
X43962500Y-55500000D01*
X43962500Y-55050000D01*
X43862500Y-55050000D01*
X43862500Y-55400000D01*
X43512500Y-55400000D01*
X43512500Y-55050000D01*
X43412500Y-55050000D01*
X43412500Y-55400000D01*
X43062500Y-55400000D01*
X43062500Y-55050000D01*
X42962500Y-55050000D01*
X42962500Y-55500000D01*
G36*
X43062500Y-55400000D02*
G01*
X43412500Y-55400000D01*
X43412500Y-55050000D01*
X43512500Y-55050000D01*
X43512500Y-55400000D01*
X43862500Y-55400000D01*
X43862500Y-55050000D01*
X43962500Y-55050000D01*
X43962500Y-55500000D01*
X42962500Y-55500000D01*
X42962500Y-55050000D01*
X43062500Y-55050000D01*
X43062500Y-55400000D01*
G37*
%TD*%
D11*
%TO.C,Q305*%
X72500000Y-54150000D03*
D12*
X70595000Y-57700000D03*
X71865000Y-57700000D03*
X73135000Y-57700000D03*
X74405000Y-57700000D03*
%TD*%
D13*
%TO.C,R911*%
X147990000Y-86000000D03*
X149010000Y-86000000D03*
%TD*%
D14*
%TO.C,C520*%
X112000000Y-101980000D03*
X112000000Y-101020000D03*
%TD*%
D13*
%TO.C,R704*%
X41990000Y-66500000D03*
X43010000Y-66500000D03*
%TD*%
D15*
%TO.C,C725*%
X50350000Y-39050000D03*
X52250000Y-39050000D03*
%TD*%
D14*
%TO.C,C531*%
X64250000Y-103230000D03*
X64250000Y-102270000D03*
%TD*%
D16*
%TO.C,C718*%
X42225000Y-43400000D03*
X40675000Y-43400000D03*
%TD*%
D17*
%TO.C,R309*%
X83750000Y-50760000D03*
X83750000Y-49740000D03*
%TD*%
D18*
%TO.C,C912*%
X153770000Y-86250000D03*
X154730000Y-86250000D03*
%TD*%
D13*
%TO.C,R912*%
X153990000Y-78000000D03*
X155010000Y-78000000D03*
%TD*%
D18*
%TO.C,C806*%
X143270000Y-54000000D03*
X144230000Y-54000000D03*
%TD*%
D19*
%TO.C,D301*%
X87500000Y-54537500D03*
X87500000Y-52962500D03*
%TD*%
D11*
%TO.C,Q208*%
X114500000Y-47850000D03*
D12*
X112595000Y-51400000D03*
X113865000Y-51400000D03*
X115135000Y-51400000D03*
X116405000Y-51400000D03*
%TD*%
D20*
%TO.C,Q207*%
X114500000Y-41650000D03*
D21*
X116405000Y-38100000D03*
X115135000Y-38100000D03*
X113865000Y-38100000D03*
X112595000Y-38100000D03*
%TD*%
D22*
%TO.C,JP601*%
X158850000Y-68800000D03*
D23*
X160150000Y-68800000D03*
%TD*%
D24*
%TO.C,H1008*%
X161600000Y-75000000D03*
X162302944Y-73302944D03*
X162302944Y-76697056D03*
X164000000Y-72600000D03*
D25*
X164000000Y-75000000D03*
D24*
X164000000Y-77400000D03*
X165697056Y-73302944D03*
X165697056Y-76697056D03*
X166400000Y-75000000D03*
%TD*%
D17*
%TO.C,R907*%
X159000000Y-98760000D03*
X159000000Y-97740000D03*
%TD*%
D18*
%TO.C,C607*%
X118020000Y-108250000D03*
X118980000Y-108250000D03*
%TD*%
D13*
%TO.C,R813*%
X155990000Y-40250000D03*
X157010000Y-40250000D03*
%TD*%
D26*
%TO.C,C503*%
X90600000Y-110675000D03*
X90600000Y-109125000D03*
%TD*%
D27*
%TO.C,Q501*%
X114562500Y-85550000D03*
X114562500Y-87450000D03*
X116437500Y-86500000D03*
%TD*%
D17*
%TO.C,R810*%
X157750000Y-56510000D03*
X157750000Y-55490000D03*
%TD*%
D13*
%TO.C,R617*%
X131240000Y-97750000D03*
X132260000Y-97750000D03*
%TD*%
D28*
%TO.C,C705*%
X41000000Y-62750000D03*
X41000000Y-64650000D03*
%TD*%
D29*
%TO.C,U501*%
X87437500Y-111750000D03*
X87437500Y-111250000D03*
X87437500Y-110750000D03*
X87437500Y-110250000D03*
X87437500Y-109750000D03*
X87437500Y-109250000D03*
X87437500Y-108750000D03*
X87437500Y-108250000D03*
X87437500Y-107750000D03*
X87437500Y-107250000D03*
X87437500Y-106750000D03*
X87437500Y-106250000D03*
D30*
X86750000Y-105562500D03*
X86250000Y-105562500D03*
X85750000Y-105562500D03*
X85250000Y-105562500D03*
X84750000Y-105562500D03*
X84250000Y-105562500D03*
X83750000Y-105562500D03*
X83250000Y-105562500D03*
X82750000Y-105562500D03*
X82250000Y-105562500D03*
X81750000Y-105562500D03*
X81250000Y-105562500D03*
D29*
X80562500Y-106250000D03*
X80562500Y-106750000D03*
X80562500Y-107250000D03*
X80562500Y-107750000D03*
X80562500Y-108250000D03*
X80562500Y-108750000D03*
X80562500Y-109250000D03*
X80562500Y-109750000D03*
X80562500Y-110250000D03*
X80562500Y-110750000D03*
X80562500Y-111250000D03*
X80562500Y-111750000D03*
D30*
X81250000Y-112437500D03*
X81750000Y-112437500D03*
X82250000Y-112437500D03*
X82750000Y-112437500D03*
X83250000Y-112437500D03*
X83750000Y-112437500D03*
X84250000Y-112437500D03*
X84750000Y-112437500D03*
X85250000Y-112437500D03*
X85750000Y-112437500D03*
X86250000Y-112437500D03*
X86750000Y-112437500D03*
D31*
X84000000Y-109000000D03*
%TD*%
D13*
%TO.C,R610*%
X111240000Y-85000000D03*
X112260000Y-85000000D03*
%TD*%
D17*
%TO.C,R534*%
X67500000Y-101260000D03*
X67500000Y-100240000D03*
%TD*%
D32*
%TO.C,C525*%
X49900000Y-66099999D03*
X57900000Y-66099999D03*
%TD*%
D17*
%TO.C,R527*%
X67500000Y-91310000D03*
X67500000Y-90290000D03*
%TD*%
%TO.C,R624*%
X167250000Y-96510000D03*
X167250000Y-95490000D03*
%TD*%
D33*
%TO.C,C902*%
X152300000Y-100375000D03*
X152300000Y-97425000D03*
%TD*%
D13*
%TO.C,R523*%
X116990000Y-104250000D03*
X118010000Y-104250000D03*
%TD*%
D34*
%TO.C,Q506*%
X109300000Y-93687500D03*
X111200000Y-93687500D03*
X110250000Y-91812500D03*
%TD*%
D13*
%TO.C,R622*%
X119490000Y-110250000D03*
X120510000Y-110250000D03*
%TD*%
D26*
%TO.C,C905*%
X142750000Y-104525000D03*
X142750000Y-102975000D03*
%TD*%
D18*
%TO.C,C620*%
X166270000Y-92250000D03*
X167230000Y-92250000D03*
%TD*%
%TO.C,C702*%
X38620000Y-55900000D03*
X39580000Y-55900000D03*
%TD*%
D35*
%TO.C,C505*%
X78880000Y-112100000D03*
X77920000Y-112100000D03*
%TD*%
D36*
%TO.C,J504*%
X33400000Y-106500000D03*
D37*
X33400000Y-104500000D03*
%TD*%
D13*
%TO.C,R702*%
X45740000Y-52500000D03*
X46760000Y-52500000D03*
%TD*%
D38*
%TO.C,U604*%
X163762500Y-93950000D03*
X163762500Y-94600000D03*
X163762500Y-95250000D03*
X165437500Y-95250000D03*
X165437500Y-93950000D03*
%TD*%
D14*
%TO.C,C604*%
X131250000Y-92480000D03*
X131250000Y-91520000D03*
%TD*%
D11*
%TO.C,Q303*%
X60500000Y-54150000D03*
D12*
X58595000Y-57700000D03*
X59865000Y-57700000D03*
X61135000Y-57700000D03*
X62405000Y-57700000D03*
%TD*%
D26*
%TO.C,C807*%
X151500000Y-46525000D03*
X151500000Y-44975000D03*
%TD*%
D32*
%TO.C,C527*%
X75500000Y-66099999D03*
X83500000Y-66099999D03*
%TD*%
D39*
%TO.C,C723*%
X48700000Y-35599999D03*
X46800000Y-35599999D03*
%TD*%
D32*
%TO.C,C528*%
X88300000Y-66099999D03*
X96300000Y-66099999D03*
%TD*%
D13*
%TO.C,R532*%
X31740000Y-110250000D03*
X32760000Y-110250000D03*
%TD*%
%TO.C,R801*%
X110740000Y-66000000D03*
X111760000Y-66000000D03*
%TD*%
%TO.C,R305*%
X77990000Y-42000000D03*
X79010000Y-42000000D03*
%TD*%
D40*
%TO.C,Y801*%
X144900000Y-42350000D03*
X147100000Y-42350000D03*
X147100000Y-40650000D03*
X144900000Y-40650000D03*
%TD*%
D17*
%TO.C,R908*%
X147250000Y-83260000D03*
X147250000Y-82240000D03*
%TD*%
D13*
%TO.C,R606*%
X126490000Y-108500000D03*
X127510000Y-108500000D03*
%TD*%
D17*
%TO.C,R511*%
X100500000Y-91310000D03*
X100500000Y-90290000D03*
%TD*%
%TO.C,R304*%
X76500000Y-42760000D03*
X76500000Y-41740000D03*
%TD*%
D41*
%TO.C,J103*%
X136500000Y-40000000D03*
D42*
X134000000Y-40000000D03*
X131500000Y-40000000D03*
X129000000Y-40000000D03*
X126500000Y-40000000D03*
X124000000Y-40000000D03*
X121500000Y-40000000D03*
%TD*%
D18*
%TO.C,C611*%
X110020000Y-95750000D03*
X110980000Y-95750000D03*
%TD*%
D43*
%TO.C,J503*%
X64300000Y-83600000D03*
X64300000Y-85400000D03*
X65900000Y-83600000D03*
X65900000Y-85400000D03*
X67500000Y-83600000D03*
D44*
X67500000Y-84500000D03*
D43*
X67500000Y-85400000D03*
X69100000Y-83600000D03*
X69100000Y-85400000D03*
X70700000Y-83600000D03*
X70700000Y-85400000D03*
%TD*%
D15*
%TO.C,C715*%
X43300000Y-37800000D03*
X45200000Y-37800000D03*
%TD*%
D45*
%TO.C,U201*%
X83925000Y-46862500D03*
X84575000Y-46862500D03*
X85225000Y-46862500D03*
X85875000Y-46862500D03*
X86525000Y-46862500D03*
X87175000Y-46862500D03*
X87825000Y-46862500D03*
X88475000Y-46862500D03*
X89125000Y-46862500D03*
X89775000Y-46862500D03*
X90425000Y-46862500D03*
X91075000Y-46862500D03*
X91075000Y-41137500D03*
X90425000Y-41137500D03*
X89775000Y-41137500D03*
X89125000Y-41137500D03*
X88475000Y-41137500D03*
X87825000Y-41137500D03*
X87175000Y-41137500D03*
X86525000Y-41137500D03*
X85875000Y-41137500D03*
X85225000Y-41137500D03*
X84575000Y-41137500D03*
X83925000Y-41137500D03*
%TD*%
D46*
%TO.C,U404*%
X104712500Y-116350000D03*
X104712500Y-117000000D03*
X104712500Y-117650000D03*
X106487500Y-117650000D03*
X106487500Y-117000000D03*
X106487500Y-116350000D03*
D47*
X105600000Y-117000000D03*
%TD*%
D14*
%TO.C,C804*%
X151000000Y-49480000D03*
X151000000Y-48520000D03*
%TD*%
D13*
%TO.C,R614*%
X126990000Y-84750000D03*
X128010000Y-84750000D03*
%TD*%
D48*
%TO.C,U603*%
X151525000Y-65095000D03*
X151525000Y-66365000D03*
X151525000Y-67635000D03*
X151525000Y-68905000D03*
X156475000Y-68905000D03*
X156475000Y-67635000D03*
X156475000Y-66365000D03*
X156475000Y-65095000D03*
%TD*%
D49*
%TO.C,C712*%
X40000000Y-40900000D03*
X40000000Y-39000000D03*
%TD*%
D13*
%TO.C,R909*%
X148990000Y-78000000D03*
X150010000Y-78000000D03*
%TD*%
D50*
%TO.C,U802*%
X99900000Y-64000000D03*
X99900000Y-64500000D03*
X99900000Y-65000000D03*
X99900000Y-65500000D03*
X99900000Y-66000000D03*
X104100000Y-66000000D03*
X104100000Y-65500000D03*
X104100000Y-65000000D03*
X104100000Y-64500000D03*
X104100000Y-64000000D03*
%TD*%
D17*
%TO.C,R711*%
X42750000Y-48010000D03*
X42750000Y-46990000D03*
%TD*%
%TO.C,R620*%
X37000000Y-99260000D03*
X37000000Y-98240000D03*
%TD*%
D19*
%TO.C,D703*%
X38500000Y-44537500D03*
X38500000Y-42962500D03*
%TD*%
D26*
%TO.C,C606*%
X109750000Y-104775000D03*
X109750000Y-103225000D03*
%TD*%
D51*
%TO.C,U502*%
X65850000Y-104587500D03*
X66500000Y-104587500D03*
X67150000Y-104587500D03*
X67150000Y-102912500D03*
X65850000Y-102912500D03*
%TD*%
D52*
%TO.C,TP1014*%
X154250000Y-75750000D03*
%TD*%
D24*
%TO.C,H1004*%
X161600000Y-36000000D03*
X162302944Y-34302944D03*
X162302944Y-37697056D03*
X164000000Y-33600000D03*
D25*
X164000000Y-36000000D03*
D24*
X164000000Y-38400000D03*
X165697056Y-34302944D03*
X165697056Y-37697056D03*
X166400000Y-36000000D03*
%TD*%
D15*
%TO.C,C717*%
X43300000Y-33400000D03*
X45200000Y-33400000D03*
%TD*%
D53*
%TO.C,U703*%
X43600000Y-41200000D03*
D54*
X43600000Y-41600000D03*
X43600000Y-42000000D03*
X43600000Y-42400000D03*
X43600000Y-42800000D03*
X43600000Y-43200000D03*
X43600000Y-43600000D03*
X43600000Y-44000000D03*
D55*
X44100000Y-44650000D03*
D56*
X44500000Y-44700000D03*
X44900000Y-44700000D03*
X45300000Y-44700000D03*
X45700000Y-44700000D03*
X46100000Y-44700000D03*
X46500000Y-44700000D03*
D57*
X47350000Y-44400000D03*
D58*
X47350000Y-44000000D03*
D59*
X47375000Y-43600000D03*
D60*
X47362500Y-43200000D03*
D54*
X47400000Y-42800000D03*
X47400000Y-42400000D03*
X47400000Y-42000000D03*
X47400000Y-41600000D03*
D61*
X47362500Y-41200000D03*
D62*
X46400000Y-41100000D03*
X45950000Y-41100000D03*
X45500000Y-41100000D03*
X45050000Y-41100000D03*
D63*
X44600000Y-41075000D03*
%TD*%
D64*
%TO.C,D602*%
X137212500Y-109500000D03*
X138787500Y-109500000D03*
%TD*%
D13*
%TO.C,R505*%
X110690000Y-112700000D03*
X111710000Y-112700000D03*
%TD*%
D11*
%TO.C,Q204*%
X102500000Y-47850000D03*
D12*
X100595000Y-51400000D03*
X101865000Y-51400000D03*
X103135000Y-51400000D03*
X104405000Y-51400000D03*
%TD*%
D65*
%TO.C,R503*%
X109210000Y-110300000D03*
X108190000Y-110300000D03*
%TD*%
D66*
%TO.C,C908*%
X155200000Y-111325000D03*
X155200000Y-114275000D03*
%TD*%
D13*
%TO.C,R602*%
X124490000Y-106250000D03*
X125510000Y-106250000D03*
%TD*%
D67*
%TO.C,SW801*%
X166220000Y-53650000D03*
X168430000Y-53650000D03*
D43*
X167330000Y-51500000D03*
X167330000Y-48500000D03*
D67*
X166220000Y-46350000D03*
X168430000Y-46350000D03*
D68*
X165570000Y-52250000D03*
X165570000Y-49250000D03*
X165570000Y-47750000D03*
%TD*%
D33*
%TO.C,C903*%
X155700000Y-100375000D03*
X155700000Y-97425000D03*
%TD*%
D69*
%TO.C,C609*%
X131475000Y-94750000D03*
X133025000Y-94750000D03*
%TD*%
D13*
%TO.C,R313*%
X68740000Y-103000000D03*
X69760000Y-103000000D03*
%TD*%
D64*
%TO.C,D801*%
X151212500Y-42000000D03*
X152787500Y-42000000D03*
%TD*%
D14*
%TO.C,C507*%
X114500000Y-96980000D03*
X114500000Y-96020000D03*
%TD*%
D70*
%TO.C,C709*%
X49600000Y-54525000D03*
X49600000Y-57475000D03*
%TD*%
D17*
%TO.C,R525*%
X60600000Y-95410000D03*
X60600000Y-94390000D03*
%TD*%
D15*
%TO.C,C913*%
X157300000Y-76750000D03*
X159200000Y-76750000D03*
%TD*%
D24*
%TO.C,H1005*%
X57660000Y-114940000D03*
X58362944Y-113242944D03*
X58362944Y-116637056D03*
X60060000Y-112540000D03*
D25*
X60060000Y-114940000D03*
D24*
X60060000Y-117340000D03*
X61757056Y-113242944D03*
X61757056Y-116637056D03*
X62460000Y-114940000D03*
%TD*%
D17*
%TO.C,R707*%
X49750000Y-47760000D03*
X49750000Y-46740000D03*
%TD*%
D71*
%TO.C,R319*%
X75537500Y-49200000D03*
X81462500Y-49200000D03*
%TD*%
D17*
%TO.C,R306*%
X79000000Y-45760000D03*
X79000000Y-44740000D03*
%TD*%
D64*
%TO.C,D601*%
X133712500Y-109500000D03*
X135287500Y-109500000D03*
%TD*%
D11*
%TO.C,Q304*%
X66500000Y-54150000D03*
D12*
X64595000Y-57700000D03*
X65865000Y-57700000D03*
X67135000Y-57700000D03*
X68405000Y-57700000D03*
%TD*%
D18*
%TO.C,C304*%
X120770000Y-104250000D03*
X121730000Y-104250000D03*
%TD*%
D14*
%TO.C,C805*%
X141000000Y-49480000D03*
X141000000Y-48520000D03*
%TD*%
D52*
%TO.C,TP1018*%
X113750000Y-109250000D03*
%TD*%
D43*
%TO.C,J502*%
X80800000Y-83600000D03*
X80800000Y-85400000D03*
X82400000Y-83600000D03*
X82400000Y-85400000D03*
X84000000Y-83600000D03*
D44*
X84000000Y-84500000D03*
D43*
X84000000Y-85400000D03*
X85600000Y-83600000D03*
X85600000Y-85400000D03*
X87200000Y-83600000D03*
X87200000Y-85400000D03*
%TD*%
D13*
%TO.C,R611*%
X112740000Y-83250000D03*
X113760000Y-83250000D03*
%TD*%
D11*
%TO.C,Q202*%
X96500000Y-47850000D03*
D12*
X94595000Y-51400000D03*
X95865000Y-51400000D03*
X97135000Y-51400000D03*
X98405000Y-51400000D03*
%TD*%
D26*
%TO.C,C614*%
X139250000Y-102525000D03*
X139250000Y-100975000D03*
%TD*%
D13*
%TO.C,R905*%
X144490000Y-103750000D03*
X145510000Y-103750000D03*
%TD*%
D72*
%TO.C,U701*%
X41800000Y-61125000D03*
X42200000Y-61125000D03*
X42600000Y-61125000D03*
X43000000Y-61125000D03*
X43400000Y-61125000D03*
X43800000Y-61125000D03*
D73*
X44725000Y-60600000D03*
X44725000Y-60200000D03*
X44725000Y-59800000D03*
X44725000Y-59400000D03*
X44725000Y-59000000D03*
X44725000Y-58600000D03*
X44725000Y-58200000D03*
X44725000Y-57800000D03*
X44725000Y-57400000D03*
X44725000Y-57000000D03*
X44725000Y-56600000D03*
X44725000Y-56200000D03*
X44725000Y-55800000D03*
X40875000Y-55800000D03*
X40875000Y-56200000D03*
X40875000Y-56600000D03*
X40875000Y-57000000D03*
X40875000Y-57400000D03*
X40875000Y-57800000D03*
X40875000Y-59800000D03*
X40875000Y-60200000D03*
X40875000Y-60600000D03*
D74*
X42800000Y-59165000D03*
D75*
X42800000Y-56640000D03*
%TD*%
D69*
%TO.C,C812*%
X151475000Y-51250000D03*
X153025000Y-51250000D03*
%TD*%
D65*
%TO.C,R501*%
X109210000Y-112700000D03*
X108190000Y-112700000D03*
%TD*%
%TO.C,R518*%
X86110000Y-78000000D03*
X85090000Y-78000000D03*
%TD*%
D76*
%TO.C,L401*%
X71925000Y-115600000D03*
X68875000Y-115600000D03*
%TD*%
D13*
%TO.C,R515*%
X112240000Y-99250000D03*
X113260000Y-99250000D03*
%TD*%
D11*
%TO.C,Q302*%
X54500000Y-54150000D03*
D12*
X52595000Y-57700000D03*
X53865000Y-57700000D03*
X55135000Y-57700000D03*
X56405000Y-57700000D03*
%TD*%
D17*
%TO.C,R530*%
X113000000Y-104510000D03*
X113000000Y-103490000D03*
%TD*%
D20*
%TO.C,Q205*%
X108500000Y-41650000D03*
D21*
X110405000Y-38100000D03*
X109135000Y-38100000D03*
X107865000Y-38100000D03*
X106595000Y-38100000D03*
%TD*%
D24*
%TO.C,H1001*%
X33600000Y-114000000D03*
X34302944Y-112302944D03*
X34302944Y-115697056D03*
X36000000Y-111600000D03*
D25*
X36000000Y-114000000D03*
D24*
X36000000Y-116400000D03*
X37697056Y-112302944D03*
X37697056Y-115697056D03*
X38400000Y-114000000D03*
%TD*%
D17*
%TO.C,R504*%
X69500000Y-101510000D03*
X69500000Y-100490000D03*
%TD*%
D13*
%TO.C,R311*%
X85240000Y-51000000D03*
X86260000Y-51000000D03*
%TD*%
D18*
%TO.C,C616*%
X133770000Y-98000000D03*
X134730000Y-98000000D03*
%TD*%
D77*
%TO.C,D804*%
X157515000Y-42000000D03*
X158485000Y-42000000D03*
%TD*%
D78*
%TO.C,SW401*%
X32100000Y-70350000D03*
X32100000Y-66250000D03*
X33700000Y-70350000D03*
X33700000Y-66250000D03*
%TD*%
D17*
%TO.C,R403*%
X131250000Y-100510000D03*
X131250000Y-99490000D03*
%TD*%
D79*
%TO.C,Y601*%
X115150000Y-93600000D03*
X115150000Y-91400000D03*
X113450000Y-91400000D03*
X113450000Y-93600000D03*
%TD*%
D80*
%TO.C,C408*%
X87600000Y-115120000D03*
X87600000Y-116080000D03*
%TD*%
D81*
%TO.C,J101*%
X64500000Y-34500000D03*
%TD*%
D27*
%TO.C,D603*%
X159062500Y-60550000D03*
X159062500Y-62450000D03*
X160937500Y-61500000D03*
%TD*%
D82*
%TO.C,R516*%
X77100000Y-79390000D03*
X77100000Y-80410000D03*
%TD*%
D26*
%TO.C,C605*%
X124750000Y-87525000D03*
X124750000Y-85975000D03*
%TD*%
D17*
%TO.C,R618*%
X37000000Y-96510000D03*
X37000000Y-95490000D03*
%TD*%
D13*
%TO.C,R609*%
X122740000Y-110250000D03*
X123760000Y-110250000D03*
%TD*%
D83*
%TO.C,J903*%
X46780000Y-113340000D03*
D84*
X41700000Y-115500000D03*
D85*
X44240000Y-115500000D03*
X46780000Y-115500000D03*
X49320000Y-115500000D03*
%TD*%
D18*
%TO.C,C301*%
X76520000Y-44500000D03*
X77480000Y-44500000D03*
%TD*%
D17*
%TO.C,R603*%
X127500000Y-107010000D03*
X127500000Y-105990000D03*
%TD*%
D14*
%TO.C,C406*%
X103000000Y-115730000D03*
X103000000Y-114770000D03*
%TD*%
D17*
%TO.C,R509*%
X93600000Y-95410000D03*
X93600000Y-94390000D03*
%TD*%
D86*
%TO.C,J603*%
X33200000Y-99500000D03*
D87*
X33200000Y-98000000D03*
X33200000Y-96500000D03*
X33200000Y-95000000D03*
X33200000Y-93500000D03*
X33200000Y-92000000D03*
%TD*%
D52*
%TO.C,TP1003*%
X135750000Y-62750000D03*
%TD*%
D70*
%TO.C,C708*%
X47000000Y-54525000D03*
X47000000Y-57475000D03*
%TD*%
D17*
%TO.C,R533*%
X62500000Y-105010000D03*
X62500000Y-103990000D03*
%TD*%
D18*
%TO.C,C815*%
X157520000Y-54000000D03*
X158480000Y-54000000D03*
%TD*%
D81*
%TO.C,J102*%
X76500000Y-34500000D03*
%TD*%
D65*
%TO.C,R407*%
X92910000Y-118400000D03*
X91890000Y-118400000D03*
%TD*%
D39*
%TO.C,C410*%
X66549999Y-116800000D03*
X64649999Y-116800000D03*
%TD*%
D18*
%TO.C,C1004*%
X130270000Y-66000000D03*
X131230000Y-66000000D03*
%TD*%
D88*
%TO.C,D402*%
X74600000Y-115400000D03*
X77400000Y-115400000D03*
%TD*%
D14*
%TO.C,C612*%
X112500000Y-87730000D03*
X112500000Y-86770000D03*
%TD*%
D35*
%TO.C,C506*%
X79330000Y-106750000D03*
X78370000Y-106750000D03*
%TD*%
D18*
%TO.C,C710*%
X39270000Y-66750000D03*
X40230000Y-66750000D03*
%TD*%
D13*
%TO.C,R703*%
X42740000Y-51500000D03*
X43760000Y-51500000D03*
%TD*%
D52*
%TO.C,TP1009*%
X112250000Y-68250000D03*
%TD*%
D64*
%TO.C,FB601*%
X112962500Y-106500000D03*
X114537500Y-106500000D03*
%TD*%
D52*
%TO.C,TP1017*%
X105000000Y-91750000D03*
%TD*%
D89*
%TO.C,U602*%
X134837500Y-100250000D03*
X134837500Y-100750000D03*
X134837500Y-101250000D03*
X134837500Y-101750000D03*
D90*
X135500000Y-101912500D03*
X136000000Y-101912500D03*
X136500000Y-101912500D03*
D89*
X137162500Y-101750000D03*
X137162500Y-101250000D03*
X137162500Y-100750000D03*
X137162500Y-100250000D03*
D90*
X136500000Y-100087500D03*
X136000000Y-100087500D03*
X135500000Y-100087500D03*
%TD*%
D52*
%TO.C,TP1007*%
X55750000Y-43000000D03*
%TD*%
D18*
%TO.C,C617*%
X134770000Y-95250000D03*
X135730000Y-95250000D03*
%TD*%
D11*
%TO.C,Q306*%
X78500000Y-54150000D03*
D12*
X76595000Y-57700000D03*
X77865000Y-57700000D03*
X79135000Y-57700000D03*
X80405000Y-57700000D03*
%TD*%
D18*
%TO.C,C601*%
X112270000Y-89250000D03*
X113230000Y-89250000D03*
%TD*%
D13*
%TO.C,R910*%
X150740000Y-86000000D03*
X151760000Y-86000000D03*
%TD*%
D18*
%TO.C,C703*%
X38620000Y-57100000D03*
X39580000Y-57100000D03*
%TD*%
%TO.C,C501*%
X93220000Y-109000000D03*
X94180000Y-109000000D03*
%TD*%
D65*
%TO.C,R526*%
X69610000Y-78000000D03*
X68590000Y-78000000D03*
%TD*%
D66*
%TO.C,C502*%
X93800000Y-110625000D03*
X93800000Y-113575000D03*
%TD*%
D14*
%TO.C,C610*%
X107500000Y-94480000D03*
X107500000Y-93520000D03*
%TD*%
D17*
%TO.C,R802*%
X140500000Y-46260000D03*
X140500000Y-45240000D03*
%TD*%
D82*
%TO.C,R906*%
X147550000Y-103540000D03*
X147550000Y-104560000D03*
%TD*%
D18*
%TO.C,C532*%
X65020000Y-100750000D03*
X65980000Y-100750000D03*
%TD*%
D24*
%TO.C,H1006*%
X53600000Y-36000000D03*
X54302944Y-34302944D03*
X54302944Y-37697056D03*
X56000000Y-33600000D03*
D25*
X56000000Y-36000000D03*
D24*
X56000000Y-38400000D03*
X57697056Y-34302944D03*
X57697056Y-37697056D03*
X58400000Y-36000000D03*
%TD*%
D91*
%TO.C,R406*%
X77975000Y-118500000D03*
X79625000Y-118500000D03*
%TD*%
D14*
%TO.C,C813*%
X138500000Y-45480000D03*
X138500000Y-44520000D03*
%TD*%
D17*
%TO.C,R605*%
X131750000Y-103010000D03*
X131750000Y-101990000D03*
%TD*%
%TO.C,R308*%
X80750000Y-42260000D03*
X80750000Y-41240000D03*
%TD*%
D92*
%TO.C,U902*%
X149225000Y-79725000D03*
X149225000Y-80375000D03*
X149225000Y-81025000D03*
X149225000Y-81675000D03*
X149225000Y-82325000D03*
X149225000Y-82975000D03*
X149225000Y-83625000D03*
X149225000Y-84275000D03*
X154775000Y-84275000D03*
X154775000Y-83625000D03*
X154775000Y-82975000D03*
X154775000Y-82325000D03*
X154775000Y-81675000D03*
X154775000Y-81025000D03*
X154775000Y-80375000D03*
X154775000Y-79725000D03*
D93*
X152000000Y-82000000D03*
%TD*%
D14*
%TO.C,C530*%
X121500000Y-106730000D03*
X121500000Y-105770000D03*
%TD*%
D70*
%TO.C,C407*%
X89600000Y-115525000D03*
X89600000Y-118475000D03*
%TD*%
D49*
%TO.C,C701*%
X40300000Y-49650000D03*
X40300000Y-47750000D03*
%TD*%
D18*
%TO.C,C714*%
X43870000Y-39700000D03*
X44830000Y-39700000D03*
%TD*%
D17*
%TO.C,R809*%
X152500000Y-40260000D03*
X152500000Y-39240000D03*
%TD*%
%TO.C,R811*%
X160500000Y-55010000D03*
X160500000Y-53990000D03*
%TD*%
D27*
%TO.C,Q511*%
X120062500Y-85300000D03*
X120062500Y-87200000D03*
X121937500Y-86250000D03*
%TD*%
D94*
%TO.C,J901*%
X167200000Y-101000000D03*
D95*
X167200000Y-103540000D03*
X167200000Y-106080000D03*
%TD*%
D96*
%TO.C,J902*%
X166000000Y-84500000D03*
D97*
X166000000Y-81000000D03*
%TD*%
D49*
%TO.C,C713*%
X40700000Y-37350000D03*
X40700000Y-35450000D03*
%TD*%
D17*
%TO.C,R803*%
X152750000Y-49260000D03*
X152750000Y-48240000D03*
%TD*%
D13*
%TO.C,R712*%
X40240000Y-45750000D03*
X41260000Y-45750000D03*
%TD*%
D98*
%TO.C,R301*%
X64350000Y-41475000D03*
D99*
X60300000Y-41475000D03*
X60300000Y-49525000D03*
D98*
X64350000Y-49525000D03*
%TD*%
D24*
%TO.C,H1007*%
X33600000Y-75000000D03*
X34302944Y-73302944D03*
X34302944Y-76697056D03*
X36000000Y-72600000D03*
D25*
X36000000Y-75000000D03*
D24*
X36000000Y-77400000D03*
X37697056Y-73302944D03*
X37697056Y-76697056D03*
X38400000Y-75000000D03*
%TD*%
D17*
%TO.C,R601*%
X126750000Y-87260000D03*
X126750000Y-86240000D03*
%TD*%
D13*
%TO.C,R904*%
X144990000Y-105750000D03*
X146010000Y-105750000D03*
%TD*%
D100*
%TO.C,U1002*%
X127862500Y-62050000D03*
X127862500Y-63000000D03*
X127862500Y-63950000D03*
X130137500Y-63950000D03*
X130137500Y-62050000D03*
%TD*%
D26*
%TO.C,C608*%
X129750000Y-106025000D03*
X129750000Y-104475000D03*
%TD*%
D14*
%TO.C,C811*%
X141750000Y-42230000D03*
X141750000Y-41270000D03*
%TD*%
D13*
%TO.C,R608*%
X121240000Y-108500000D03*
X122260000Y-108500000D03*
%TD*%
D101*
%TO.C,R214*%
X83875000Y-33650000D03*
D102*
X83875000Y-37700000D03*
X91925000Y-37700000D03*
D101*
X91925000Y-33650000D03*
%TD*%
D17*
%TO.C,R705*%
X49750000Y-45010000D03*
X49750000Y-43990000D03*
%TD*%
D103*
%TO.C,U901*%
X149249000Y-102575000D03*
D104*
X149149000Y-103550000D03*
X149149000Y-104200000D03*
X149149000Y-104850000D03*
X149149000Y-105500000D03*
X149149000Y-106150000D03*
X149149000Y-106800000D03*
X149149000Y-107450000D03*
D103*
X149249000Y-108425000D03*
X154751000Y-108425000D03*
D104*
X154851000Y-107450000D03*
X154851000Y-106800000D03*
X154851000Y-106150000D03*
X154851000Y-105500000D03*
X154851000Y-104850000D03*
X154851000Y-104200000D03*
X154851000Y-103550000D03*
D103*
X154751000Y-102575000D03*
D105*
X152000000Y-103250000D03*
X152000000Y-104750000D03*
X152000000Y-106250000D03*
X152000000Y-107750000D03*
%TD*%
D94*
%TO.C,J702*%
X41800000Y-96500000D03*
D95*
X41800000Y-99040000D03*
X41800000Y-101580000D03*
X41800000Y-104120000D03*
%TD*%
D66*
%TO.C,C907*%
X151800000Y-111325000D03*
X151800000Y-114275000D03*
%TD*%
D18*
%TO.C,C602*%
X123270000Y-104500000D03*
X124230000Y-104500000D03*
%TD*%
D17*
%TO.C,R517*%
X77100000Y-94860000D03*
X77100000Y-93840000D03*
%TD*%
D35*
%TO.C,C721*%
X47430000Y-39599999D03*
X46470000Y-39599999D03*
%TD*%
D14*
%TO.C,C513*%
X112750000Y-96980000D03*
X112750000Y-96020000D03*
%TD*%
%TO.C,C904*%
X157200000Y-102880000D03*
X157200000Y-101920000D03*
%TD*%
D24*
%TO.C,H1002*%
X162660000Y-114940000D03*
X163362944Y-113242944D03*
X163362944Y-116637056D03*
X165060000Y-112540000D03*
D25*
X165060000Y-114940000D03*
D24*
X165060000Y-117340000D03*
X166757056Y-113242944D03*
X166757056Y-116637056D03*
X167460000Y-114940000D03*
%TD*%
D14*
%TO.C,C514*%
X114750000Y-103980000D03*
X114750000Y-103020000D03*
%TD*%
D69*
%TO.C,C814*%
X153975000Y-54750000D03*
X155525000Y-54750000D03*
%TD*%
D13*
%TO.C,R706*%
X46740000Y-46750000D03*
X47760000Y-46750000D03*
%TD*%
D26*
%TO.C,C412*%
X108250000Y-116525000D03*
X108250000Y-114975000D03*
%TD*%
D13*
%TO.C,R708*%
X44240000Y-47000000D03*
X45260000Y-47000000D03*
%TD*%
D52*
%TO.C,TP1015*%
X158500000Y-117500000D03*
%TD*%
D106*
%TO.C,D802*%
X125350000Y-51500000D03*
X128650000Y-51500000D03*
%TD*%
D13*
%TO.C,R612*%
X115240000Y-83250000D03*
X116260000Y-83250000D03*
%TD*%
D18*
%TO.C,C529*%
X116520000Y-106250000D03*
X117480000Y-106250000D03*
%TD*%
D52*
%TO.C,TP1001*%
X136000000Y-52500000D03*
%TD*%
D39*
%TO.C,C724*%
X48700000Y-33400000D03*
X46800000Y-33400000D03*
%TD*%
D82*
%TO.C,R524*%
X60600000Y-79390000D03*
X60600000Y-80410000D03*
%TD*%
D107*
%TO.C,J602*%
X168750000Y-67875000D03*
X168750000Y-66625000D03*
X168750000Y-65375000D03*
X168750000Y-64125000D03*
D108*
X165400000Y-69725000D03*
X165400000Y-62275000D03*
%TD*%
D18*
%TO.C,C615*%
X137020000Y-98250000D03*
X137980000Y-98250000D03*
%TD*%
D17*
%TO.C,R621*%
X133000000Y-100510000D03*
X133000000Y-99490000D03*
%TD*%
%TO.C,R709*%
X51500000Y-47260000D03*
X51500000Y-46240000D03*
%TD*%
D18*
%TO.C,C809*%
X141770000Y-43750000D03*
X142730000Y-43750000D03*
%TD*%
D17*
%TO.C,R623*%
X129250000Y-109260000D03*
X129250000Y-108240000D03*
%TD*%
D13*
%TO.C,R807*%
X149740000Y-40000000D03*
X150760000Y-40000000D03*
%TD*%
D18*
%TO.C,C803*%
X146270000Y-54000000D03*
X147230000Y-54000000D03*
%TD*%
D17*
%TO.C,R804*%
X151250000Y-54010000D03*
X151250000Y-52990000D03*
%TD*%
D13*
%TO.C,R710*%
X46490000Y-49000000D03*
X47510000Y-49000000D03*
%TD*%
D17*
%TO.C,R615*%
X159000000Y-66260000D03*
X159000000Y-65240000D03*
%TD*%
D13*
%TO.C,R808*%
X154990000Y-44750000D03*
X156010000Y-44750000D03*
%TD*%
D109*
%TO.C,C910*%
X160750000Y-91800000D03*
X154250000Y-91800000D03*
%TD*%
D17*
%TO.C,R902*%
X159000000Y-102510000D03*
X159000000Y-101490000D03*
%TD*%
%TO.C,R531*%
X119000000Y-106760000D03*
X119000000Y-105740000D03*
%TD*%
D110*
%TO.C,U803*%
X143062500Y-47000000D03*
X143062500Y-47500000D03*
X143062500Y-48000000D03*
X143062500Y-48500000D03*
X143062500Y-49000000D03*
X143062500Y-49500000D03*
X143062500Y-50000000D03*
X143062500Y-50500000D03*
X143062500Y-51000000D03*
D111*
X144000000Y-51937500D03*
X144500000Y-51937500D03*
X145000000Y-51937500D03*
X145500000Y-51937500D03*
X146000000Y-51937500D03*
X146500000Y-51937500D03*
X147000000Y-51937500D03*
X147500000Y-51937500D03*
X148000000Y-51937500D03*
D110*
X148937500Y-51000000D03*
X148937500Y-50500000D03*
X148937500Y-50000000D03*
X148937500Y-49500000D03*
X148937500Y-49000000D03*
X148937500Y-48500000D03*
X148937500Y-48000000D03*
X148937500Y-47500000D03*
X148937500Y-47000000D03*
D111*
X148000000Y-46062500D03*
X147500000Y-46062500D03*
X147000000Y-46062500D03*
X146500000Y-46062500D03*
X146000000Y-46062500D03*
X145500000Y-46062500D03*
X145000000Y-46062500D03*
X144500000Y-46062500D03*
X144000000Y-46062500D03*
D112*
X146000000Y-49000000D03*
%TD*%
D14*
%TO.C,C519*%
X110500000Y-98230000D03*
X110500000Y-97270000D03*
%TD*%
D113*
%TO.C,D901*%
X158500000Y-79850000D03*
X158500000Y-84150000D03*
%TD*%
D24*
%TO.C,H1003*%
X33600000Y-36000000D03*
X34302944Y-34302944D03*
X34302944Y-37697056D03*
X36000000Y-33600000D03*
D25*
X36000000Y-36000000D03*
D24*
X36000000Y-38400000D03*
X37697056Y-34302944D03*
X37697056Y-37697056D03*
X38400000Y-36000000D03*
%TD*%
D49*
%TO.C,C911*%
X146750000Y-80200000D03*
X146750000Y-78300000D03*
%TD*%
D13*
%TO.C,R312*%
X84490000Y-53000000D03*
X85510000Y-53000000D03*
%TD*%
D14*
%TO.C,C810*%
X149250000Y-43230000D03*
X149250000Y-42270000D03*
%TD*%
D65*
%TO.C,R502*%
X109210000Y-111500000D03*
X108190000Y-111500000D03*
%TD*%
D17*
%TO.C,R713*%
X37750000Y-41260000D03*
X37750000Y-40240000D03*
%TD*%
D13*
%TO.C,R513*%
X110690000Y-111500000D03*
X111710000Y-111500000D03*
%TD*%
%TO.C,R901*%
X157490000Y-105000000D03*
X158510000Y-105000000D03*
%TD*%
%TO.C,R521*%
X110690000Y-110300000D03*
X111710000Y-110300000D03*
%TD*%
D17*
%TO.C,R529*%
X110250000Y-101510000D03*
X110250000Y-100490000D03*
%TD*%
D52*
%TO.C,TP1010*%
X111000000Y-117000000D03*
%TD*%
D17*
%TO.C,R806*%
X149500000Y-55010000D03*
X149500000Y-53990000D03*
%TD*%
%TO.C,R619*%
X133000000Y-93010000D03*
X133000000Y-91990000D03*
%TD*%
D15*
%TO.C,C716*%
X43300000Y-35599999D03*
X45200000Y-35599999D03*
%TD*%
D18*
%TO.C,C409*%
X84320000Y-114000000D03*
X85280000Y-114000000D03*
%TD*%
D13*
%TO.C,R613*%
X128240000Y-87750000D03*
X129260000Y-87750000D03*
%TD*%
D114*
%TO.C,D302*%
X53900000Y-75200000D03*
X47100000Y-75200000D03*
%TD*%
D17*
%TO.C,R616*%
X37250000Y-94010000D03*
X37250000Y-92990000D03*
%TD*%
D66*
%TO.C,C906*%
X148400000Y-111325000D03*
X148400000Y-114275000D03*
%TD*%
D20*
%TO.C,Q203*%
X102500000Y-41650000D03*
D21*
X104405000Y-38100000D03*
X103135000Y-38100000D03*
X101865000Y-38100000D03*
X100595000Y-38100000D03*
%TD*%
D52*
%TO.C,TP1013*%
X141250000Y-108750000D03*
%TD*%
D18*
%TO.C,C802*%
X135270000Y-46000000D03*
X136230000Y-46000000D03*
%TD*%
D14*
%TO.C,C808*%
X146000000Y-56480000D03*
X146000000Y-55520000D03*
%TD*%
D17*
%TO.C,R607*%
X132000000Y-106510000D03*
X132000000Y-105490000D03*
%TD*%
D82*
%TO.C,R508*%
X93600000Y-79390000D03*
X93600000Y-80410000D03*
%TD*%
D115*
%TO.C,J601*%
X133550000Y-83960000D03*
X137450000Y-83960000D03*
X133550000Y-85230000D03*
X137450000Y-85230000D03*
X133550000Y-86500000D03*
X137450000Y-86500000D03*
X133550000Y-87770000D03*
X137450000Y-87770000D03*
X133550000Y-89040000D03*
X137450000Y-89040000D03*
%TD*%
D116*
%TO.C,D701*%
X38800000Y-52885000D03*
X39300000Y-52885000D03*
X39800000Y-52885000D03*
X40300000Y-52885000D03*
X40800000Y-52885000D03*
X40800000Y-52115000D03*
X40300000Y-52115000D03*
X39800000Y-52115000D03*
X39300000Y-52115000D03*
X38800000Y-52115000D03*
%TD*%
D33*
%TO.C,C901*%
X148900000Y-100375000D03*
X148900000Y-97425000D03*
%TD*%
D17*
%TO.C,R519*%
X84000000Y-91310000D03*
X84000000Y-90290000D03*
%TD*%
D52*
%TO.C,TP1016*%
X151000000Y-75750000D03*
%TD*%
D17*
%TO.C,R310*%
X83000000Y-54760000D03*
X83000000Y-53740000D03*
%TD*%
D50*
%TO.C,U801*%
X130900000Y-48000000D03*
X130900000Y-48500000D03*
X130900000Y-49000000D03*
X130900000Y-49500000D03*
X130900000Y-50000000D03*
X135100000Y-50000000D03*
X135100000Y-49500000D03*
X135100000Y-49000000D03*
X135100000Y-48500000D03*
X135100000Y-48000000D03*
%TD*%
D66*
%TO.C,C909*%
X144900000Y-109525000D03*
X144900000Y-112475000D03*
%TD*%
D17*
%TO.C,R805*%
X153500000Y-45510000D03*
X153500000Y-44490000D03*
%TD*%
%TO.C,R604*%
X124000000Y-108760000D03*
X124000000Y-107740000D03*
%TD*%
D14*
%TO.C,C619*%
X127250000Y-110980000D03*
X127250000Y-110020000D03*
%TD*%
D20*
%TO.C,Q201*%
X96500000Y-41650000D03*
D21*
X98405000Y-38100000D03*
X97135000Y-38100000D03*
X95865000Y-38100000D03*
X94595000Y-38100000D03*
%TD*%
D13*
%TO.C,R408*%
X91890000Y-116400000D03*
X92910000Y-116400000D03*
%TD*%
D18*
%TO.C,C603*%
X126520000Y-104250000D03*
X127480000Y-104250000D03*
%TD*%
D39*
%TO.C,C722*%
X48700000Y-37800000D03*
X46800000Y-37800000D03*
%TD*%
D110*
%TO.C,U804*%
X155562500Y-48750000D03*
X155562500Y-49250000D03*
X155562500Y-49750000D03*
X155562500Y-50250000D03*
X155562500Y-50750000D03*
X155562500Y-51250000D03*
D111*
X156250000Y-51937500D03*
X156750000Y-51937500D03*
X157250000Y-51937500D03*
X157750000Y-51937500D03*
X158250000Y-51937500D03*
X158750000Y-51937500D03*
D110*
X159437500Y-51250000D03*
X159437500Y-50750000D03*
X159437500Y-50250000D03*
X159437500Y-49750000D03*
X159437500Y-49250000D03*
X159437500Y-48750000D03*
D111*
X158750000Y-48062500D03*
X158250000Y-48062500D03*
X157750000Y-48062500D03*
X157250000Y-48062500D03*
X156750000Y-48062500D03*
X156250000Y-48062500D03*
D117*
X157500000Y-50000000D03*
%TD*%
D118*
%TO.C,U601*%
X117325000Y-92250000D03*
X117325000Y-92750000D03*
X117325000Y-93250000D03*
X117325000Y-93750000D03*
X117325000Y-94250000D03*
X117325000Y-94750000D03*
X117325000Y-95250000D03*
X117325000Y-95750000D03*
X117325000Y-96250000D03*
X117325000Y-96750000D03*
X117325000Y-97250000D03*
X117325000Y-97750000D03*
X117325000Y-98250000D03*
X117325000Y-98750000D03*
X117325000Y-99250000D03*
X117325000Y-99750000D03*
D119*
X119250000Y-101675000D03*
X119750000Y-101675000D03*
X120250000Y-101675000D03*
X120750000Y-101675000D03*
X121250000Y-101675000D03*
X121750000Y-101675000D03*
X122250000Y-101675000D03*
X122750000Y-101675000D03*
X123250000Y-101675000D03*
X123750000Y-101675000D03*
X124250000Y-101675000D03*
X124750000Y-101675000D03*
X125250000Y-101675000D03*
X125750000Y-101675000D03*
X126250000Y-101675000D03*
X126750000Y-101675000D03*
D118*
X128675000Y-99750000D03*
X128675000Y-99250000D03*
X128675000Y-98750000D03*
X128675000Y-98250000D03*
X128675000Y-97750000D03*
X128675000Y-97250000D03*
X128675000Y-96750000D03*
X128675000Y-96250000D03*
X128675000Y-95750000D03*
X128675000Y-95250000D03*
X128675000Y-94750000D03*
X128675000Y-94250000D03*
X128675000Y-93750000D03*
X128675000Y-93250000D03*
X128675000Y-92750000D03*
X128675000Y-92250000D03*
D119*
X126750000Y-90325000D03*
X126250000Y-90325000D03*
X125750000Y-90325000D03*
X125250000Y-90325000D03*
X124750000Y-90325000D03*
X124250000Y-90325000D03*
X123750000Y-90325000D03*
X123250000Y-90325000D03*
X122750000Y-90325000D03*
X122250000Y-90325000D03*
X121750000Y-90325000D03*
X121250000Y-90325000D03*
X120750000Y-90325000D03*
X120250000Y-90325000D03*
X119750000Y-90325000D03*
X119250000Y-90325000D03*
%TD*%
D18*
%TO.C,C613*%
X134020000Y-103750000D03*
X134980000Y-103750000D03*
%TD*%
D120*
%TO.C,J701*%
X35805000Y-49610000D03*
X35805000Y-55390000D03*
D121*
X36880000Y-49300000D03*
X36880000Y-50100000D03*
D122*
X36880000Y-51250000D03*
X36880000Y-52250000D03*
X36880000Y-52750000D03*
X36880000Y-53750000D03*
D121*
X36880000Y-54900000D03*
X36880000Y-55700000D03*
X36880000Y-55700000D03*
X36880000Y-54900000D03*
D122*
X36880000Y-54250000D03*
X36880000Y-53250000D03*
X36880000Y-51750000D03*
X36880000Y-50750000D03*
D121*
X36880000Y-50100000D03*
X36880000Y-49300000D03*
D123*
X36305000Y-48180000D03*
D124*
X32125000Y-48180000D03*
D123*
X36305000Y-56820000D03*
D124*
X32125000Y-56820000D03*
%TD*%
D14*
%TO.C,C801*%
X111000000Y-63230000D03*
X111000000Y-62270000D03*
%TD*%
D125*
%TO.C,C504*%
X90800000Y-112175000D03*
X90800000Y-113725000D03*
%TD*%
D43*
%TO.C,J501*%
X97300000Y-83600000D03*
X97300000Y-85400000D03*
X98900000Y-83600000D03*
X98900000Y-85400000D03*
X100500000Y-83600000D03*
D44*
X100500000Y-84500000D03*
D43*
X100500000Y-85400000D03*
X102100000Y-83600000D03*
X102100000Y-85400000D03*
X103700000Y-83600000D03*
X103700000Y-85400000D03*
%TD*%
D52*
%TO.C,TP1002*%
X132750000Y-62500000D03*
%TD*%
D65*
%TO.C,R510*%
X102610000Y-78000000D03*
X101590000Y-78000000D03*
%TD*%
D125*
%TO.C,C706*%
X43300000Y-62525000D03*
X43300000Y-64075000D03*
%TD*%
D32*
%TO.C,C526*%
X62700000Y-66099999D03*
X70700000Y-66099999D03*
%TD*%
D13*
%TO.C,R701*%
X42990000Y-53250000D03*
X44010000Y-53250000D03*
%TD*%
D17*
%TO.C,R307*%
X81000000Y-45260000D03*
X81000000Y-44240000D03*
%TD*%
D126*
%TO.C,J401*%
X36500000Y-60500000D03*
D37*
X36500000Y-62500000D03*
%TD*%
D11*
%TO.C,Q206*%
X108500000Y-47850000D03*
D12*
X106595000Y-51400000D03*
X107865000Y-51400000D03*
X109135000Y-51400000D03*
X110405000Y-51400000D03*
%TD*%
D17*
%TO.C,R812*%
X158000000Y-46010000D03*
X158000000Y-44990000D03*
%TD*%
D39*
%TO.C,C411*%
X66650000Y-113400000D03*
X64750000Y-113400000D03*
%TD*%
D13*
%TO.C,R903*%
X158740000Y-113000000D03*
X159760000Y-113000000D03*
%TD*%
D94*
%TO.C,J1001*%
X91370000Y-56230000D03*
D95*
X91370000Y-58770000D03*
X93910000Y-56230000D03*
X93910000Y-58770000D03*
X96450000Y-56230000D03*
X96450000Y-58770000D03*
X98990000Y-56230000D03*
X98990000Y-58770000D03*
X101530000Y-56230000D03*
X101530000Y-58770000D03*
X104070000Y-56230000D03*
X104070000Y-58770000D03*
X106610000Y-56230000D03*
X106610000Y-58770000D03*
X109150000Y-56230000D03*
X109150000Y-58770000D03*
X111690000Y-56230000D03*
X111690000Y-58770000D03*
X114230000Y-56230000D03*
X114230000Y-58770000D03*
X116770000Y-56230000D03*
X116770000Y-58770000D03*
X119310000Y-56230000D03*
X119310000Y-58770000D03*
X121850000Y-56230000D03*
X121850000Y-58770000D03*
X124390000Y-56230000D03*
X124390000Y-58770000D03*
X126930000Y-56230000D03*
X126930000Y-58770000D03*
X129470000Y-56230000D03*
X129470000Y-58770000D03*
X132010000Y-56230000D03*
X132010000Y-58770000D03*
X134550000Y-56230000D03*
X134550000Y-58770000D03*
X137090000Y-56230000D03*
X137090000Y-58770000D03*
X139630000Y-56230000D03*
X139630000Y-58770000D03*
%TD*%
D14*
%TO.C,C618*%
X134750000Y-92730000D03*
X134750000Y-91770000D03*
%TD*%
D77*
%TO.C,D803*%
X154515000Y-42000000D03*
X155485000Y-42000000D03*
%TD*%
D35*
%TO.C,C711*%
X42530000Y-41500000D03*
X41570000Y-41500000D03*
%TD*%
D52*
%TO.C,TP1004*%
X133500000Y-65750000D03*
%TD*%
D127*
%TO.C,U301*%
X74200000Y-46450000D03*
X74200000Y-45950000D03*
X74200000Y-45450000D03*
X74200000Y-44950000D03*
X74200000Y-44450000D03*
X74200000Y-43950000D03*
X74200000Y-43450000D03*
X74200000Y-42950000D03*
X74200000Y-42450000D03*
X74200000Y-41950000D03*
X69800000Y-41950000D03*
X69800000Y-42450000D03*
X69800000Y-42950000D03*
X69800000Y-43450000D03*
X69800000Y-43950000D03*
X69800000Y-44950000D03*
X69800000Y-45450000D03*
X69800000Y-45950000D03*
X69800000Y-46450000D03*
%TD*%
D17*
%TO.C,R814*%
X160000000Y-42510000D03*
X160000000Y-41490000D03*
%TD*%
D128*
%TO.C,D501*%
X38250000Y-104300000D03*
X38250000Y-102200000D03*
%TD*%
M02*
