M48
; DRILL file KiCad 10.0.6 date 2026-09-27T16:00:08
; FORMAT={-:-/ absolute / metric / decimal}
; #@! TF.CreationDate,2026-09-27T16:00:08-04:00
; #@! TF.GenerationSoftware,Kicad,Pcbnew,10.0.6
; #@! TF.FileFunction,Plated,1,6,PTH
FMAT,2
METRIC
; #@! TA.AperFunction,Plated,PTH,ComponentDrill
T1C0.200
; #@! TA.AperFunction,Plated,PTH,ViaDrill
T2C0.250
; #@! TA.AperFunction,Plated,PTH,ViaDrill
T3C0.300
; #@! TA.AperFunction,Plated,PTH,ViaDrill
T4C0.400
; #@! TA.AperFunction,Plated,PTH,ComponentDrill
T5C0.500
; #@! TA.AperFunction,Plated,PTH,ComponentDrill
T6C0.600
; #@! TA.AperFunction,Plated,PTH,ComponentDrill
T7C0.730
; #@! TA.AperFunction,Plated,PTH,ComponentDrill
T8C0.750
; #@! TA.AperFunction,Plated,PTH,ComponentDrill
T9C0.950
; #@! TA.AperFunction,Plated,PTH,ComponentDrill
T10C1.000
; #@! TA.AperFunction,Plated,PTH,ComponentDrill
T11C1.020
; #@! TA.AperFunction,Plated,PTH,ComponentDrill
T12C1.200
; #@! TA.AperFunction,Plated,PTH,ComponentDrill
T13C3.200
; #@! TA.AperFunction,Plated,PTH,ComponentDrill
T14C4.400
%
G90
G05
T1
X41.725Y-56.64
X41.725Y-59.165
X42.8Y-56.64
X42.8Y-58.055
X42.8Y-59.165
X42.8Y-60.275
X43.875Y-56.64
X43.875Y-59.165
X82.0Y-107.0
X82.0Y-108.0
X82.0Y-109.0
X82.0Y-110.0
X82.0Y-111.0
X83.0Y-107.0
X83.0Y-108.0
X83.0Y-109.0
X83.0Y-110.0
X83.0Y-111.0
X84.0Y-107.0
X84.0Y-108.0
X84.0Y-109.0
X84.0Y-110.0
X84.0Y-111.0
X85.0Y-107.0
X85.0Y-108.0
X85.0Y-109.0
X85.0Y-110.0
X85.0Y-111.0
X86.0Y-107.0
X86.0Y-108.0
X86.0Y-109.0
X86.0Y-110.0
X86.0Y-111.0
T2
X35.88Y-51.7
X35.88Y-52.5
X38.08Y-50.9
X38.58Y-51.4
X39.575Y-57.1
X42.7Y-45.55
X43.375Y-48.665
X43.525Y-72.275
X45.5Y-60.38
X45.88Y-59.75
X46.3Y-46.0
X49.675Y-50.585
X49.675Y-51.285
X54.2Y-42.55
X56.375Y-46.175
X56.375Y-46.875
X59.675Y-46.175
X59.675Y-46.875
X71.075Y-37.665
X74.0Y-106.162
X74.725Y-100.155
X75.75Y-110.65
X76.35Y-110.15
X76.95Y-109.65
X77.55Y-109.15
X78.15Y-108.65
X78.75Y-108.15
X79.35Y-107.65
X81.15Y-113.4
X81.65Y-114.0
X82.15Y-114.6
X82.65Y-115.2
X83.15Y-115.8
X83.575Y-39.875
X86.1Y-55.9
X87.295Y-56.225
X87.995Y-56.225
X89.9Y-55.4
X90.905Y-38.875
X93.3Y-53.4
X101.65Y-63.05
X102.37Y-63.873
X102.9Y-65.15
X104.262Y-102.9
X105.1Y-98.975
X105.1Y-100.775
X105.35Y-66.25
X107.562Y-113.2
X107.9Y-108.462
X108.662Y-98.5
X108.725Y-100.155
X109.9Y-108.938
X115.062Y-109.4
X115.235Y-99.275
X117.7Y-86.638
X118.29Y-106.33
X120.0Y-103.275
X120.6Y-99.875
X120.862Y-91.6
X120.862Y-94.6
X121.562Y-107.5
X121.7Y-92.388
X122.4Y-98.275
X122.962Y-91.6
X123.662Y-84.9
X123.9Y-97.987
X123.9Y-100.287
X124.17Y-109.506
X125.162Y-93.0
X125.51Y-106.25
X129.6Y-49.1
X131.312Y-50.734
X131.4Y-95.725
X131.493Y-51.411
X131.9Y-110.587
X132.778Y-51.272
X133.85Y-46.45
X136.25Y-48.95
X136.963Y-71.6
X138.979Y-60.687
X139.329Y-61.293
X139.505Y-48.52
X141.3Y-48.52
X142.162Y-49.1
X142.213Y-46.55
X142.73Y-43.75
X143.65Y-43.812
X144.9Y-43.812
X146.296Y-55.571
X146.65Y-45.212
X147.3Y-45.112
T3
X31.45Y-31.45
X31.45Y-34.45
X31.45Y-37.45
X31.45Y-40.45
X31.45Y-43.45
X31.45Y-46.45
X31.45Y-52.45
X31.45Y-55.45
X31.45Y-58.45
X31.45Y-61.45
X31.45Y-73.45
X31.45Y-76.45
X31.45Y-79.45
X31.45Y-82.45
X31.45Y-85.45
X31.45Y-88.45
X31.45Y-97.45
X31.45Y-100.45
X31.45Y-103.45
X31.45Y-112.45
X31.45Y-115.45
X31.45Y-118.45
X34.45Y-31.45
X34.45Y-40.45
X34.45Y-43.45
X34.45Y-46.45
X34.45Y-49.45
X34.45Y-55.45
X34.45Y-58.45
X34.45Y-64.45
X34.45Y-67.45
X34.45Y-79.45
X34.45Y-82.45
X34.45Y-85.45
X34.45Y-109.45
X34.45Y-118.45
X36.355Y-97.105
X37.013Y-41.055
X37.45Y-31.45
X37.45Y-64.45
X37.45Y-79.45
X37.45Y-82.45
X37.45Y-85.45
X37.45Y-106.45
X37.45Y-118.45
X38.591Y-41.082
X39.27Y-67.58
X39.302Y-60.481
X39.658Y-41.904
X40.0Y-60.95
X40.188Y-44.244
X40.45Y-31.45
X40.45Y-106.45
X40.45Y-109.45
X40.45Y-118.45
X40.5Y-53.959
X40.811Y-73.65
X40.963Y-44.662
X41.09Y-77.691
X41.2Y-42.4
X42.1Y-63.44
X42.125Y-64.592
X42.2Y-38.75
X42.6Y-44.7
X42.8Y-49.25
X43.255Y-73.626
X43.45Y-31.45
X43.45Y-106.45
X43.45Y-109.45
X43.45Y-112.45
X43.45Y-118.45
X43.75Y-50.55
X43.829Y-54.089
X44.111Y-71.575
X44.7Y-46.0
X44.75Y-42.25
X44.75Y-43.05
X44.75Y-43.85
X44.805Y-53.659
X45.0Y-38.9
X45.018Y-100.652
X45.02Y-103.267
X45.05Y-49.3
X45.2Y-34.5
X45.2Y-36.7
X45.35Y-48.55
X45.511Y-57.442
X45.542Y-61.78
X45.6Y-32.3
X45.7Y-55.6
X45.9Y-73.003
X46.0Y-34.5
X46.0Y-36.7
X46.0Y-38.9
X46.25Y-42.25
X46.25Y-43.05
X46.25Y-43.85
X46.45Y-106.45
X46.45Y-109.45
X46.45Y-118.45
X47.192Y-72.968
X47.725Y-45.75
X48.25Y-44.35
X48.4Y-52.5
X48.508Y-85.192
X48.55Y-40.65
X48.55Y-41.45
X48.725Y-46.455
X48.756Y-47.671
X49.125Y-49.355
X49.3Y-58.65
X49.35Y-40.65
X49.35Y-41.45
X49.4Y-45.8
X49.425Y-107.875
X49.45Y-112.45
X49.673Y-87.788
X49.85Y-37.142
X49.95Y-49.45
X50.15Y-40.65
X50.15Y-41.45
X50.157Y-85.192
X50.2Y-48.65
X50.95Y-40.65
X50.95Y-41.45
X51.289Y-96.652
X52.05Y-76.55
X52.45Y-79.45
X52.45Y-82.45
X52.45Y-85.45
X52.45Y-109.45
X52.45Y-115.45
X53.4Y-42.6
X53.4Y-44.8
X54.25Y-41.4
X54.25Y-49.45
X54.262Y-46.15
X54.725Y-50.1
X55.385Y-47.297
X55.45Y-106.45
X55.45Y-109.45
X55.45Y-112.45
X55.5Y-102.287
X56.41Y-59.05
X58.345Y-94.28
X60.5Y-108.763
X60.6Y-81.9
X60.6Y-92.9
X62.25Y-106.125
X62.41Y-59.05
X62.525Y-111.225
X62.684Y-46.869
X63.35Y-98.525
X63.35Y-102.275
X63.45Y-106.675
X63.498Y-46.297
X64.45Y-115.45
X64.825Y-111.725
X65.062Y-44.263
X66.565Y-43.817
X67.5Y-78.0
X67.5Y-89.0
X67.595Y-46.395
X67.912Y-102.75
X67.919Y-43.888
X68.41Y-59.05
X68.546Y-56.666
X69.725Y-38.0
X69.9Y-118.688
X70.148Y-39.575
X70.897Y-39.982
X71.028Y-45.45
X71.141Y-43.489
X71.844Y-45.38
X72.1Y-97.0
X72.1Y-105.0
X72.163Y-46.845
X72.459Y-43.574
X72.511Y-56.666
X73.312Y-106.5
X73.612Y-107.55
X74.3Y-49.2
X74.41Y-59.05
X74.6Y-117.7
X75.44Y-45.405
X75.496Y-106.454
X75.737Y-44.603
X75.838Y-56.338
X76.1Y-107.6
X77.063Y-118.475
X77.1Y-81.9
X77.1Y-92.9
X77.3Y-106.75
X77.305Y-48.596
X77.4Y-116.75
X77.786Y-49.605
X79.0Y-46.575
X79.212Y-103.0
X79.325Y-112.925
X79.562Y-111.4
X79.828Y-44.466
X80.325Y-46.913
X80.325Y-49.212
X80.362Y-113.5
X80.41Y-59.05
X80.5Y-115.337
X80.935Y-44.246
X81.2Y-118.45
X81.307Y-39.273
X81.6Y-51.4
X81.675Y-42.837
X81.927Y-39.876
X81.936Y-46.992
X82.125Y-37.038
X82.635Y-42.888
X83.043Y-47.279
X83.733Y-109.461
X83.927Y-52.061
X84.0Y-78.0
X84.0Y-89.0
X84.174Y-53.835
X84.228Y-42.784
X84.925Y-38.7
X85.025Y-42.413
X85.112Y-103.0
X85.216Y-44.034
X85.327Y-48.804
X85.4Y-115.1
X85.943Y-38.811
X86.23Y-45.05
X86.25Y-114.1
X86.425Y-49.012
X86.5Y-54.537
X86.985Y-44.645
X87.0Y-113.8
X87.087Y-43.02
X87.404Y-39.885
X87.661Y-45.588
X87.7Y-118.137
X87.763Y-113.5
X87.906Y-37.864
X87.932Y-39.255
X88.201Y-50.439
X88.203Y-52.061
X88.333Y-42.392
X88.471Y-36.714
X88.475Y-45.621
X88.6Y-97.0
X88.6Y-105.0
X88.925Y-56.1
X89.045Y-60.28
X89.245Y-53.38
X89.335Y-45.615
X89.445Y-56.98
X89.456Y-38.36
X89.599Y-36.42
X89.65Y-35.054
X90.12Y-34.25
X90.263Y-103.1
X90.45Y-92.005
X90.676Y-54.822
X90.752Y-51.688
X90.844Y-49.789
X91.102Y-53.173
X91.138Y-103.2
X91.138Y-108.0
X91.711Y-45.314
X92.085Y-49.136
X92.1Y-109.0
X92.235Y-47.304
X92.438Y-42.834
X92.477Y-53.474
X92.588Y-43.687
X92.641Y-41.551
X92.693Y-44.507
X92.731Y-38.846
X92.837Y-48.221
X92.95Y-107.6
X93.1Y-40.081
X93.496Y-42.562
X93.6Y-81.9
X93.6Y-92.9
X93.831Y-38.836
X93.962Y-107.5
X94.59Y-36.3
X95.962Y-107.1
X95.962Y-109.5
X96.037Y-50.298
X96.662Y-111.7
X96.913Y-50.297
X97.558Y-39.115
X98.41Y-53.65
X100.002Y-61.575
X100.1Y-63.4
X100.253Y-57.493
X100.5Y-68.5
X100.5Y-78.0
X100.5Y-89.0
X100.59Y-36.3
X101.05Y-100.772
X102.15Y-114.737
X102.57Y-113.638
X102.682Y-56.993
X103.45Y-109.45
X103.762Y-117.0
X103.768Y-60.245
X104.41Y-53.65
X105.062Y-113.0
X105.1Y-97.0
X105.1Y-105.0
X106.307Y-111.125
X106.59Y-36.3
X106.67Y-94.9
X106.9Y-113.987
X106.95Y-101.612
X107.112Y-108.55
X107.462Y-110.9
X107.512Y-104.45
X107.512Y-107.25
X108.016Y-61.585
X108.69Y-106.411
X108.759Y-107.258
X109.375Y-92.4
X109.45Y-67.45
X109.45Y-79.45
X109.45Y-82.45
X109.662Y-114.7
X110.084Y-113.371
X110.41Y-53.65
X110.688Y-107.75
X111.822Y-90.05
X111.855Y-116.424
X111.918Y-92.544
X111.922Y-100.14
X111.967Y-109.27
X111.985Y-97.887
X112.103Y-103.63
X112.4Y-117.037
X112.59Y-36.3
X112.973Y-108.565
X113.3Y-117.037
X113.378Y-112.558
X113.409Y-68.419
X113.419Y-81.668
X113.569Y-66.003
X113.586Y-110.663
X113.826Y-90.054
X113.869Y-97.608
X114.025Y-86.6
X114.052Y-64.554
X114.212Y-75.383
X114.406Y-82.674
X114.411Y-81.807
X114.688Y-95.199
X115.0Y-112.537
X115.122Y-89.05
X115.5Y-101.637
X115.74Y-95.021
X115.745Y-97.162
X115.88Y-103.969
X115.9Y-112.337
X115.925Y-90.2
X116.005Y-98.587
X116.025Y-106.9
X116.134Y-66.629
X116.364Y-91.556
X116.393Y-102.253
X116.41Y-53.65
X116.49Y-88.993
X116.7Y-111.037
X116.953Y-83.787
X117.371Y-80.466
X117.49Y-91.225
X118.0Y-105.1
X118.206Y-102.555
X118.261Y-45.531
X118.825Y-104.55
X118.839Y-95.264
X118.874Y-92.042
X118.885Y-94.402
X118.955Y-89.055
X119.369Y-93.75
X119.691Y-83.199
X119.75Y-98.375
X119.85Y-100.025
X120.12Y-94.966
X120.35Y-92.925
X120.386Y-108.586
X120.696Y-109.426
X120.7Y-96.775
X120.876Y-49.744
X121.333Y-89.026
X121.45Y-31.45
X121.45Y-34.45
X121.45Y-118.45
X121.606Y-103.073
X122.35Y-94.675
X122.379Y-62.463
X122.41Y-85.411
X122.641Y-100.315
X122.85Y-95.565
X123.05Y-89.025
X123.099Y-103.344
X123.112Y-92.4
X123.114Y-107.646
X123.16Y-108.856
X123.624Y-61.352
X123.625Y-112.975
X123.631Y-59.943
X124.248Y-69.117
X124.362Y-92.95
X124.45Y-31.45
X124.45Y-34.45
X124.45Y-115.45
X124.45Y-118.45
X124.712Y-95.55
X124.721Y-100.319
X124.8Y-105.414
X124.814Y-102.975
X124.875Y-65.195
X125.0Y-107.787
X125.25Y-91.607
X125.35Y-96.637
X125.35Y-97.437
X125.57Y-98.573
X125.75Y-88.975
X125.75Y-92.275
X125.868Y-107.878
X126.25Y-91.525
X126.259Y-109.351
X126.5Y-95.438
X126.612Y-107.05
X126.65Y-88.025
X126.65Y-96.237
X126.9Y-94.688
X126.917Y-103.054
X127.012Y-97.45
X127.05Y-92.675
X127.25Y-89.225
X127.312Y-96.75
X127.4Y-98.237
X127.45Y-31.45
X127.45Y-34.45
X127.45Y-91.325
X127.45Y-115.45
X127.45Y-118.45
X127.493Y-52.315
X127.662Y-90.5
X128.01Y-85.594
X128.353Y-105.989
X128.421Y-107.232
X128.572Y-102.145
X129.025Y-110.025
X129.362Y-102.3
X129.94Y-104.718
X130.1Y-98.487
X130.1Y-102.688
X130.25Y-85.775
X130.251Y-96.308
X130.35Y-91.175
X130.45Y-31.45
X130.45Y-34.45
X130.45Y-112.45
X130.45Y-115.45
X130.45Y-118.45
X130.475Y-95.25
X131.382Y-91.171
X131.562Y-85.65
X131.975Y-101.295
X132.084Y-47.566
X132.379Y-93.631
X132.475Y-91.195
X132.758Y-109.05
X132.844Y-97.107
X132.844Y-101.296
X133.45Y-31.45
X133.45Y-34.45
X133.45Y-112.45
X133.45Y-115.45
X133.45Y-118.45
X133.669Y-98.821
X133.775Y-92.495
X133.823Y-100.341
X133.85Y-48.5
X134.126Y-93.353
X134.15Y-90.525
X134.407Y-97.055
X134.523Y-110.264
X135.035Y-90.964
X135.39Y-99.238
X135.635Y-94.064
X135.65Y-86.625
X135.74Y-37.09
X135.775Y-84.35
X136.05Y-98.725
X136.45Y-31.45
X136.45Y-34.45
X136.45Y-64.45
X136.45Y-67.45
X136.45Y-79.45
X136.45Y-103.45
X136.45Y-106.45
X136.45Y-112.45
X136.45Y-115.45
X136.45Y-118.45
X137.725Y-49.35
X138.262Y-67.65
X138.262Y-74.75
X138.952Y-89.856
X139.075Y-46.509
X139.45Y-31.45
X139.45Y-34.45
X139.45Y-40.45
X139.45Y-64.45
X139.45Y-73.45
X139.45Y-82.45
X139.45Y-91.45
X139.45Y-94.45
X139.45Y-97.45
X139.45Y-106.45
X139.45Y-112.45
X139.45Y-115.45
X139.45Y-118.45
X141.312Y-51.25
X142.112Y-51.0
X142.162Y-47.85
X142.45Y-31.45
X142.45Y-34.45
X142.45Y-61.45
X142.45Y-67.45
X142.45Y-70.45
X142.45Y-73.45
X142.45Y-106.45
X142.45Y-118.45
X145.0Y-49.0
X145.45Y-31.45
X145.45Y-34.45
X145.45Y-58.45
X145.45Y-61.45
X145.45Y-67.45
X145.45Y-70.45
X145.45Y-73.45
X145.45Y-76.45
X145.45Y-88.45
X145.45Y-91.45
X145.45Y-94.45
X145.45Y-97.45
X145.45Y-118.45
X145.56Y-41.042
X148.016Y-106.15
X148.056Y-53.122
X148.125Y-84.275
X148.45Y-31.45
X148.45Y-34.45
X148.45Y-58.45
X148.45Y-61.45
X148.45Y-67.45
X148.45Y-70.45
X148.45Y-73.45
X148.45Y-88.45
X148.45Y-91.45
X148.45Y-94.45
X148.45Y-118.45
X149.883Y-46.849
X150.054Y-48.122
X150.808Y-78.221
X150.98Y-50.325
X150.983Y-45.434
X151.0Y-80.0
X151.0Y-81.0
X151.0Y-82.0
X151.0Y-83.0
X151.0Y-84.0
X151.25Y-103.25
X151.25Y-104.75
X151.25Y-106.25
X151.25Y-107.75
X151.44Y-52.495
X151.45Y-31.45
X151.45Y-34.45
X151.45Y-37.45
X151.45Y-58.45
X151.45Y-61.45
X151.45Y-70.45
X151.45Y-73.45
X151.45Y-88.45
X151.45Y-91.45
X151.45Y-94.45
X151.45Y-118.45
X151.98Y-48.625
X152.0Y-80.0
X152.0Y-81.0
X152.0Y-82.0
X152.0Y-83.0
X152.0Y-84.0
X152.63Y-45.604
X152.75Y-103.25
X152.75Y-104.75
X152.75Y-106.25
X152.75Y-107.75
X153.0Y-80.0
X153.0Y-81.0
X153.0Y-82.0
X153.0Y-83.0
X153.0Y-84.0
X153.303Y-51.362
X154.012Y-48.65
X154.45Y-31.45
X154.45Y-34.45
X154.45Y-37.45
X154.45Y-40.45
X154.45Y-58.45
X154.45Y-61.45
X154.45Y-70.45
X154.45Y-73.45
X154.45Y-88.45
X154.45Y-94.45
X154.45Y-118.45
X154.612Y-49.2
X155.82Y-78.025
X155.969Y-106.8
X155.98Y-105.5
X156.658Y-107.26
X157.0Y-50.5
X157.24Y-45.454
X157.45Y-31.45
X157.45Y-34.45
X157.45Y-37.45
X157.45Y-73.45
X157.45Y-88.45
X157.45Y-91.45
X157.45Y-94.45
X157.954Y-112.855
X158.0Y-49.5
X158.0Y-50.5
X158.352Y-47.117
X158.551Y-116.472
X158.98Y-53.928
X159.896Y-81.426
X160.45Y-31.45
X160.45Y-58.45
X160.45Y-82.45
X160.45Y-85.45
X160.45Y-115.45
X160.45Y-118.45
X163.45Y-31.45
X163.45Y-40.45
X163.45Y-43.45
X163.45Y-49.45
X163.45Y-55.45
X163.45Y-58.45
X163.45Y-64.45
X163.45Y-79.45
X163.45Y-85.45
X163.45Y-88.45
X164.518Y-46.963
X164.6Y-93.234
X165.438Y-93.27
X166.45Y-31.45
X166.45Y-40.45
X166.45Y-43.45
X166.45Y-55.45
X166.45Y-58.45
X166.45Y-64.45
X166.45Y-88.45
X166.45Y-97.45
X166.45Y-109.45
X168.672Y-68.694
T4
X38.097Y-58.152
X39.688Y-50.764
X42.6Y-40.55
X45.05Y-73.95
X45.05Y-75.2
X45.05Y-76.45
X48.1Y-31.55
X49.1Y-31.55
X50.1Y-31.55
X51.1Y-31.55
X56.3Y-62.9
X56.3Y-64.1
X57.5Y-61.7
X57.5Y-62.9
X57.5Y-64.1
X58.7Y-61.7
X58.7Y-62.9
X58.7Y-64.1
X61.2Y-63.1
X61.4Y-72.35
X61.4Y-73.55
X61.4Y-74.75
X62.5Y-63.1
X62.6Y-72.35
X62.6Y-73.55
X62.6Y-74.75
X63.8Y-63.1
X63.8Y-72.35
X63.8Y-73.55
X63.8Y-74.75
X64.2Y-107.2
X64.2Y-108.45
X64.2Y-109.7
X64.2Y-110.95
X65.0Y-72.35
X65.0Y-73.55
X65.0Y-74.75
X65.1Y-63.1
X65.45Y-107.2
X65.45Y-108.45
X65.45Y-109.7
X65.45Y-110.95
X66.2Y-72.35
X66.2Y-73.55
X66.2Y-74.75
X66.4Y-63.1
X66.4Y-64.4
X66.4Y-65.7
X66.7Y-107.2
X66.7Y-108.45
X66.7Y-109.7
X66.7Y-110.95
X67.4Y-72.35
X67.4Y-73.55
X67.4Y-74.75
X67.7Y-63.1
X67.7Y-64.4
X67.7Y-65.7
X67.95Y-107.2
X67.95Y-108.45
X67.95Y-109.7
X67.95Y-110.95
X67.95Y-112.2
X68.6Y-72.35
X68.6Y-73.55
X68.6Y-74.75
X69.0Y-63.1
X69.1Y-64.1
X69.8Y-72.35
X69.8Y-73.55
X69.8Y-74.75
X70.3Y-61.7
X70.3Y-63.1
X70.3Y-64.1
X71.0Y-72.35
X71.0Y-73.55
X71.0Y-74.75
X71.5Y-61.7
X71.5Y-64.1
X71.6Y-63.1
X72.2Y-72.35
X72.2Y-73.55
X72.2Y-74.75
X72.9Y-63.1
X73.4Y-72.35
X73.4Y-73.55
X73.4Y-74.75
X74.2Y-63.1
X74.6Y-72.35
X74.6Y-73.55
X74.6Y-74.75
X75.5Y-63.1
X75.8Y-72.35
X75.8Y-73.55
X75.8Y-74.75
X76.8Y-63.1
X77.0Y-72.35
X77.0Y-73.55
X77.0Y-74.75
X78.1Y-63.1
X78.2Y-72.35
X78.2Y-73.55
X78.2Y-74.75
X79.4Y-63.1
X79.4Y-64.4
X79.4Y-65.7
X79.4Y-72.35
X79.4Y-73.55
X79.4Y-74.75
X80.6Y-72.35
X80.6Y-73.55
X80.6Y-74.75
X80.7Y-63.1
X80.7Y-64.4
X80.7Y-65.7
X81.8Y-72.35
X81.8Y-73.55
X81.8Y-74.75
X81.9Y-61.7
X81.9Y-64.1
X82.0Y-63.1
X83.0Y-72.35
X83.0Y-73.55
X83.0Y-74.75
X83.1Y-61.7
X83.1Y-64.1
X83.3Y-63.1
X84.2Y-72.35
X84.2Y-73.55
X84.2Y-74.75
X84.3Y-61.7
X84.3Y-64.1
X84.6Y-63.1
X85.4Y-72.35
X85.4Y-73.55
X85.4Y-74.75
X85.9Y-63.1
X86.6Y-72.35
X86.6Y-73.55
X86.6Y-74.75
X87.2Y-63.1
X87.8Y-72.35
X87.8Y-73.55
X87.8Y-74.75
X88.5Y-63.1
X89.0Y-72.35
X89.0Y-73.55
X89.0Y-74.75
X89.8Y-63.1
X90.2Y-72.35
X90.2Y-73.55
X90.2Y-74.75
X91.1Y-63.1
X91.1Y-64.4
X91.1Y-65.7
X91.4Y-72.35
X91.4Y-73.55
X91.4Y-74.75
X92.4Y-63.1
X92.4Y-64.4
X92.4Y-65.7
X92.6Y-72.35
X92.6Y-73.55
X92.6Y-74.75
X93.7Y-63.1
X93.7Y-64.4
X93.7Y-65.7
X93.8Y-54.1
X93.8Y-72.35
X93.8Y-73.55
X93.8Y-74.75
X94.7Y-61.7
X94.7Y-64.1
X95.0Y-54.1
X95.0Y-63.1
X95.0Y-72.35
X95.0Y-73.55
X95.0Y-74.75
X95.9Y-61.7
X95.9Y-64.1
X96.2Y-54.1
X96.2Y-72.35
X96.2Y-73.55
X96.2Y-74.75
X96.3Y-63.1
X97.1Y-61.7
X97.1Y-64.1
X97.4Y-54.1
X97.4Y-72.35
X97.4Y-73.55
X97.4Y-74.75
X97.6Y-63.1
X98.4Y-107.2
X98.4Y-108.45
X98.4Y-109.7
X98.4Y-110.95
X98.4Y-112.2
X98.6Y-72.35
X98.6Y-73.55
X98.6Y-74.75
X99.65Y-107.2
X99.65Y-108.45
X99.65Y-109.7
X99.65Y-110.95
X99.65Y-112.2
X99.8Y-54.1
X99.8Y-72.35
X99.8Y-73.55
X99.8Y-74.75
X100.9Y-107.2
X100.9Y-108.45
X100.9Y-109.7
X100.9Y-110.95
X100.9Y-112.2
X101.0Y-54.1
X101.0Y-72.35
X101.0Y-73.55
X101.0Y-74.75
X101.5Y-65.7
X102.15Y-107.2
X102.15Y-108.45
X102.15Y-109.7
X102.15Y-110.95
X102.15Y-112.2
X102.2Y-54.1
X102.2Y-72.35
X102.2Y-73.55
X102.2Y-74.75
X103.4Y-54.1
X103.4Y-72.35
X103.4Y-73.55
X103.4Y-74.75
X104.6Y-72.35
X104.6Y-73.55
X104.6Y-74.75
X105.8Y-54.1
X105.8Y-72.35
X105.8Y-73.55
X105.8Y-74.75
X106.7Y-65.7
X107.0Y-54.1
X108.2Y-54.1
X109.4Y-54.1
X111.8Y-54.1
X113.0Y-54.1
X114.2Y-54.1
X115.4Y-54.1
X143.3Y-116.3
X143.786Y-105.138
X144.5Y-116.3
X145.7Y-116.3
X146.4Y-100.7
X146.4Y-101.7
X146.9Y-116.3
X147.16Y-105.469
X147.4Y-96.1
X148.1Y-116.3
X148.6Y-96.1
X149.3Y-116.3
X149.8Y-96.1
X150.5Y-116.3
X151.0Y-96.1
X151.7Y-116.3
X152.2Y-96.1
X152.9Y-116.3
X153.4Y-96.1
X153.857Y-43.617
X154.1Y-116.3
X154.6Y-96.1
X155.3Y-116.3
X155.8Y-96.1
X156.5Y-116.3
X157.0Y-96.1
T5
X33.6Y-36.0
X33.6Y-75.0
X33.6Y-114.0
X34.303Y-34.303
X34.303Y-37.697
X34.303Y-73.303
X34.303Y-76.697
X34.303Y-112.303
X34.303Y-115.697
X36.0Y-33.6
X36.0Y-38.4
X36.0Y-72.6
X36.0Y-77.4
X36.0Y-111.6
X36.0Y-116.4
X37.697Y-34.303
X37.697Y-37.697
X37.697Y-73.303
X37.697Y-76.697
X37.697Y-112.303
X37.697Y-115.697
X38.4Y-36.0
X38.4Y-75.0
X38.4Y-114.0
X53.6Y-36.0
X54.303Y-34.303
X54.303Y-37.697
X56.0Y-33.6
X56.0Y-38.4
X57.66Y-114.94
X57.697Y-34.303
X57.697Y-37.697
X58.363Y-113.243
X58.363Y-116.637
X58.4Y-36.0
X60.06Y-112.54
X60.06Y-117.34
X61.757Y-113.243
X61.757Y-116.637
X62.46Y-114.94
X64.3Y-83.6
X64.3Y-85.4
X65.9Y-83.6
X65.9Y-85.4
X67.5Y-83.6
X67.5Y-85.4
X69.1Y-83.6
X69.1Y-85.4
X70.7Y-83.6
X70.7Y-85.4
X80.8Y-83.6
X80.8Y-85.4
X82.4Y-83.6
X82.4Y-85.4
X84.0Y-83.6
X84.0Y-85.4
X85.6Y-83.6
X85.6Y-85.4
X87.2Y-83.6
X87.2Y-85.4
X97.3Y-83.6
X97.3Y-85.4
X98.9Y-83.6
X98.9Y-85.4
X100.5Y-83.6
X100.5Y-85.4
X102.1Y-83.6
X102.1Y-85.4
X103.7Y-83.6
X103.7Y-85.4
X161.6Y-36.0
X161.6Y-75.0
X162.303Y-34.303
X162.303Y-37.697
X162.303Y-73.303
X162.303Y-76.697
X162.66Y-114.94
X163.363Y-113.243
X163.363Y-116.637
X164.0Y-33.6
X164.0Y-38.4
X164.0Y-72.6
X164.0Y-77.4
X165.06Y-112.54
X165.06Y-117.34
X165.697Y-34.303
X165.697Y-37.697
X165.697Y-73.303
X165.697Y-76.697
X166.4Y-36.0
X166.4Y-75.0
X166.757Y-113.243
X166.757Y-116.637
X167.46Y-114.94
T7
X33.2Y-92.0
X33.2Y-93.5
X33.2Y-95.0
X33.2Y-96.5
X33.2Y-98.0
X33.2Y-99.5
T8
X33.4Y-104.5
X33.4Y-106.5
X36.5Y-60.5
X36.5Y-62.5
T9
X121.5Y-40.0
X124.0Y-40.0
X126.5Y-40.0
X129.0Y-40.0
X131.5Y-40.0
X134.0Y-40.0
X136.5Y-40.0
T10
X41.8Y-96.5
X41.8Y-99.04
X41.8Y-101.58
X41.8Y-104.12
X91.37Y-56.23
X91.37Y-58.77
X93.91Y-56.23
X93.91Y-58.77
X96.45Y-56.23
X96.45Y-58.77
X98.99Y-56.23
X98.99Y-58.77
X101.53Y-56.23
X101.53Y-58.77
X104.07Y-56.23
X104.07Y-58.77
X106.61Y-56.23
X106.61Y-58.77
X109.15Y-56.23
X109.15Y-58.77
X111.69Y-56.23
X111.69Y-58.77
X114.23Y-56.23
X114.23Y-58.77
X116.77Y-56.23
X116.77Y-58.77
X119.31Y-56.23
X119.31Y-58.77
X121.85Y-56.23
X121.85Y-58.77
X124.39Y-56.23
X124.39Y-58.77
X126.93Y-56.23
X126.93Y-58.77
X129.47Y-56.23
X129.47Y-58.77
X132.01Y-56.23
X132.01Y-58.77
X134.55Y-56.23
X134.55Y-58.77
X137.09Y-56.23
X137.09Y-58.77
X139.63Y-56.23
X139.63Y-58.77
X167.2Y-101.0
X167.2Y-103.54
X167.2Y-106.08
T11
X41.7Y-115.5
X44.24Y-115.5
X46.78Y-115.5
X49.32Y-115.5
T12
X166.0Y-81.0
X166.0Y-84.5
T13
X36.0Y-36.0
X36.0Y-75.0
X36.0Y-114.0
X56.0Y-36.0
X60.06Y-114.94
X164.0Y-36.0
X164.0Y-75.0
X165.06Y-114.94
T14
X64.5Y-34.5
X76.5Y-34.5
T6
X32.525Y-48.18G85X31.725Y-48.18
G05
X32.525Y-56.82G85X31.725Y-56.82
G05
X36.855Y-48.18G85X35.755Y-48.18
G05
X36.855Y-56.82G85X35.755Y-56.82
G05
M30
