M48
; DRILL file KiCad 10.0.6 date 2026-09-27T16:01:50
; FORMAT={-:-/ absolute / metric / decimal}
; #@! TF.CreationDate,2026-09-27T16:01:50-04:00
; #@! TF.GenerationSoftware,Kicad,Pcbnew,10.0.6
; #@! TF.FileFunction,Plated,1,8,PTH
FMAT,2
METRIC
; #@! TA.AperFunction,Plated,PTH,ViaDrill
T1C0.200
; #@! TA.AperFunction,Plated,PTH,ComponentDrill
T2C0.200
; #@! TA.AperFunction,Plated,PTH,ViaDrill
T3C0.300
; #@! TA.AperFunction,Plated,PTH,ComponentDrill
T4C0.500
; #@! TA.AperFunction,Plated,PTH,ComponentDrill
T5C0.889
; #@! TA.AperFunction,Plated,PTH,ComponentDrill
T6C1.000
; #@! TA.AperFunction,Plated,PTH,ComponentDrill
T7C1.016
; #@! TA.AperFunction,Plated,PTH,ComponentDrill
T8C1.600
; #@! TA.AperFunction,Plated,PTH,ComponentDrill
T9C1.600
; #@! TA.AperFunction,Plated,PTH,ComponentDrill
T10C3.200
; #@! TA.AperFunction,Plated,PTH,ComponentDrill
T11C3.700
%
G90
G05
T1
X31.205Y-92.383
X31.3Y-71.6
X31.575Y-57.462
X32.3Y-48.55
X32.905Y-97.33
X33.3Y-79.6
X34.538Y-96.0
X34.781Y-103.644
X34.8Y-69.4
X35.151Y-90.564
X35.4Y-51.65
X35.613Y-49.887
X35.687Y-94.113
X36.049Y-100.025
X36.075Y-98.962
X36.5Y-96.343
X36.9Y-50.45
X37.0Y-48.65
X37.041Y-101.696
X37.458Y-97.847
X37.9Y-118.4
X38.3Y-49.5
X38.3Y-114.5
X38.675Y-106.505
X38.75Y-50.25
X38.75Y-51.25
X38.75Y-52.25
X38.893Y-94.319
X38.956Y-100.504
X39.05Y-54.8
X40.3Y-118.4
X40.7Y-82.2
X41.0Y-118.2
X41.175Y-98.996
X41.7Y-49.527
X42.45Y-118.15
X42.9Y-44.9
X43.425Y-95.55
X43.56Y-101.207
X44.05Y-80.85
X44.05Y-81.6
X44.05Y-82.35
X44.08Y-109.73
X44.08Y-123.385
X44.5Y-102.49
X44.65Y-120.6
X44.8Y-80.85
X44.8Y-81.6
X44.8Y-82.35
X46.15Y-105.175
X46.995Y-112.929
X47.34Y-101.296
X47.35Y-98.665
X47.725Y-74.95
X47.95Y-72.775
X47.975Y-80.197
X48.1Y-122.3
X48.3Y-83.0
X48.375Y-123.945
X49.053Y-51.95
X49.512Y-112.974
X49.562Y-110.354
X49.9Y-118.2
X49.9Y-118.8
X49.9Y-119.4
X50.07Y-81.28
X50.16Y-82.24
X50.36Y-81.74
X50.4Y-73.15
X50.41Y-82.75
X50.5Y-118.2
X50.5Y-118.8
X50.5Y-119.4
X50.662Y-81.29
X50.721Y-101.904
X50.73Y-82.25
X50.83Y-80.74
X50.95Y-78.45
X50.95Y-81.73
X50.975Y-74.425
X51.1Y-118.8
X51.1Y-119.4
X51.1Y-119.95
X51.152Y-99.598
X51.241Y-81.298
X51.25Y-77.297
X51.25Y-77.897
X51.38Y-80.74
X51.45Y-116.65
X51.46Y-75.45
X51.5Y-78.45
X51.6Y-70.9
X51.7Y-118.8
X51.7Y-119.4
X51.7Y-119.95
X51.85Y-77.297
X51.85Y-77.897
X52.475Y-79.125
X52.6Y-78.5
X52.9Y-76.2
X52.94Y-83.03
X53.218Y-78.13
X53.45Y-120.1
X54.281Y-74.275
X54.475Y-73.734
X54.48Y-81.312
X54.9Y-76.0
X54.9Y-90.1
X54.9Y-90.85
X54.9Y-107.7
X54.9Y-115.85
X54.95Y-109.899
X54.95Y-110.4
X54.95Y-110.9
X54.95Y-111.4
X55.28Y-78.77
X55.45Y-65.55
X55.45Y-110.4
X55.45Y-110.9
X55.45Y-111.4
X55.605Y-103.735
X55.724Y-81.6
X55.8Y-108.7
X55.95Y-110.4
X55.95Y-110.9
X55.95Y-111.4
X56.174Y-76.827
X56.19Y-96.45
X56.27Y-113.388
X56.36Y-103.52
X56.399Y-96.033
X56.4Y-110.65
X56.4Y-111.15
X56.4Y-111.65
X56.751Y-85.659
X56.76Y-83.06
X56.775Y-91.8
X56.96Y-103.53
X56.963Y-86.7
X56.963Y-87.275
X56.963Y-87.825
X56.963Y-88.375
X57.16Y-84.43
X57.16Y-84.97
X57.2Y-75.525
X57.35Y-91.625
X57.375Y-86.25
X57.45Y-82.8
X57.53Y-96.45
X57.69Y-96.01
X57.725Y-78.225
X57.83Y-85.02
X57.9Y-106.4
X57.99Y-92.22
X58.0Y-107.8
X58.025Y-88.95
X58.075Y-71.775
X58.15Y-104.124
X58.25Y-73.55
X58.26Y-90.108
X58.302Y-89.483
X58.38Y-83.58
X58.4Y-79.0
X58.4Y-111.45
X58.45Y-78.3
X58.7Y-92.2
X58.7Y-93.0
X58.7Y-95.81
X58.8Y-91.15
X58.816Y-67.265
X59.0Y-92.6
X59.054Y-72.747
X59.07Y-90.65
X59.075Y-86.925
X59.3Y-91.15
X59.3Y-92.205
X59.3Y-93.0
X59.381Y-67.904
X59.43Y-90.29
X59.51Y-94.43
X59.6Y-92.6
X59.9Y-92.205
X59.9Y-93.0
X59.999Y-107.712
X60.0Y-108.2
X60.225Y-124.1
X60.32Y-95.22
X60.45Y-90.325
X60.45Y-90.825
X60.45Y-91.375
X60.5Y-107.7
X60.5Y-108.2
X60.849Y-101.897
X61.088Y-65.689
X61.1Y-107.7
X61.17Y-95.22
X61.3Y-110.2
X61.31Y-102.24
X61.55Y-112.55
X61.55Y-113.05
X61.68Y-95.97
X61.68Y-96.61
X61.85Y-90.25
X61.86Y-89.77
X61.88Y-89.28
X61.9Y-77.5
X61.9Y-78.1
X61.9Y-88.74
X61.927Y-67.911
X62.049Y-113.042
X62.05Y-112.55
X62.25Y-81.312
X62.27Y-81.8
X62.33Y-96.61
X62.34Y-95.97
X62.35Y-88.25
X62.35Y-89.75
X62.35Y-90.25
X62.38Y-89.26
X62.39Y-88.75
X62.55Y-73.35
X62.55Y-73.85
X62.55Y-74.35
X62.55Y-112.55
X62.55Y-113.06
X62.75Y-81.312
X62.77Y-81.8
X63.05Y-73.35
X63.05Y-73.85
X63.05Y-74.35
X63.247Y-78.247
X63.25Y-81.312
X63.27Y-81.8
X63.34Y-83.7
X63.46Y-85.06
X63.46Y-85.56
X63.46Y-86.06
X63.535Y-127.1
X63.55Y-73.35
X63.55Y-73.85
X63.55Y-74.35
X63.771Y-66.075
X64.1Y-91.5
X64.1Y-92.0
X64.275Y-93.925
X64.31Y-83.112
X64.48Y-95.32
X64.525Y-81.4
X64.55Y-70.475
X64.56Y-78.941
X64.6Y-77.2
X64.6Y-78.3
X64.6Y-91.5
X64.6Y-92.0
X64.6Y-92.5
X64.6Y-93.0
X64.6Y-93.5
X64.871Y-82.987
X64.874Y-81.856
X65.05Y-62.815
X65.15Y-125.6
X65.2Y-74.3
X65.21Y-81.37
X65.25Y-73.7
X65.3Y-78.1
X65.4Y-126.2
X65.43Y-93.83
X65.565Y-78.983
X65.6Y-70.1
X65.61Y-85.68
X65.925Y-109.145
X65.975Y-59.125
X66.2Y-76.2
X66.288Y-78.2
X66.39Y-94.9
X66.55Y-77.3
X66.59Y-73.27
X66.6Y-111.3
X66.81Y-98.24
X66.862Y-81.75
X66.9Y-120.65
X66.96Y-97.66
X67.065Y-126.755
X67.138Y-76.862
X67.375Y-77.45
X67.422Y-78.023
X67.475Y-63.775
X67.7Y-90.95
X67.75Y-109.2
X67.825Y-90.375
X67.85Y-113.3
X68.197Y-100.427
X68.35Y-89.85
X68.35Y-90.35
X68.38Y-89.36
X68.39Y-88.83
X68.45Y-82.59
X68.85Y-89.85
X68.85Y-90.35
X68.87Y-89.35
X68.89Y-88.82
X69.05Y-82.64
X69.4Y-117.77
X69.4Y-118.27
X69.4Y-118.77
X69.5Y-90.25
X69.55Y-109.435
X69.845Y-126.46
X69.865Y-61.5
X69.912Y-99.475
X69.95Y-106.83
X70.0Y-117.77
X70.0Y-118.27
X70.0Y-118.77
X70.04Y-89.75
X70.04Y-90.25
X70.2Y-114.3
X70.245Y-76.779
X70.35Y-70.41
X70.5Y-99.475
X70.54Y-89.75
X70.54Y-90.25
X70.7Y-81.75
X70.7Y-76.25
X70.7Y-83.388
X70.875Y-76.925
X70.9Y-78.775
X71.04Y-89.75
X71.04Y-90.25
X71.1Y-82.263
X71.1Y-82.95
X71.997Y-77.225
X72.14Y-116.55
X72.212Y-102.65
X72.3Y-73.3
X72.35Y-79.05
X72.425Y-77.7
X72.45Y-84.9
X72.64Y-74.24
X72.66Y-83.084
X72.66Y-83.756
X72.85Y-76.8
X72.95Y-85.45
X72.95Y-85.95
X73.0Y-74.75
X73.0Y-75.35
X73.0Y-77.45
X73.0Y-89.75
X73.0Y-90.25
X73.22Y-93.04
X73.45Y-85.45
X73.45Y-85.95
X73.45Y-86.45
X73.45Y-86.95
X73.49Y-121.66
X73.5Y-89.75
X73.5Y-90.25
X73.9Y-107.9
X73.95Y-86.45
X73.95Y-86.95
X74.1Y-69.8
X74.2Y-81.7
X74.4Y-107.9
X74.5Y-106.28
X74.716Y-76.142
X74.75Y-120.1
X74.99Y-73.299
X75.0Y-114.6
X75.011Y-99.795
X75.074Y-106.267
X75.44Y-112.2
X75.95Y-89.85
X75.95Y-90.35
X76.05Y-59.05
X76.05Y-61.45
X76.15Y-101.15
X76.182Y-76.483
X76.275Y-75.075
X76.3Y-81.9
X76.32Y-74.58
X76.33Y-113.25
X76.342Y-75.808
X76.45Y-89.85
X76.45Y-90.35
X76.49Y-121.49
X76.65Y-76.75
X76.738Y-78.15
X76.758Y-75.392
X76.85Y-81.725
X76.85Y-86.49
X76.95Y-89.85
X76.95Y-90.35
X76.96Y-82.69
X77.0Y-69.45
X77.45Y-89.85
X77.45Y-90.35
X77.55Y-82.66
X77.6Y-101.8
X77.65Y-70.0
X77.65Y-74.55
X77.75Y-117.1
X77.9Y-109.45
X78.0Y-114.625
X78.05Y-69.45
X78.137Y-113.329
X78.17Y-84.32
X78.34Y-111.65
X78.63Y-84.72
X78.65Y-102.95
X79.375Y-91.628
X79.8Y-82.2
X79.84Y-81.52
X80.065Y-106.263
X80.065Y-117.91
X80.1Y-60.85
X80.1Y-70.75
X80.18Y-84.72
X80.323Y-114.127
X80.4Y-78.9
X80.414Y-81.5
X80.452Y-75.002
X80.475Y-60.322
X80.77Y-74.52
X80.805Y-125.325
X80.868Y-75.418
X81.087Y-87.623
X81.33Y-75.0
X81.51Y-74.54
X81.61Y-70.72
X81.87Y-78.9
X81.942Y-81.371
X81.95Y-86.6
X82.121Y-63.517
X82.162Y-58.175
X82.164Y-92.436
X82.356Y-87.1
X82.4Y-59.2
X82.417Y-84.883
X82.625Y-85.5
X82.659Y-66.853
X82.74Y-70.75
X82.833Y-84.467
X82.944Y-87.1
X83.125Y-77.075
X83.25Y-126.7
X83.3Y-77.67
X83.3Y-97.5
X83.315Y-99.08
X83.35Y-61.05
X83.35Y-78.95
X83.353Y-81.347
X83.45Y-84.55
X83.45Y-86.7
X83.475Y-109.251
X83.5Y-74.25
X83.581Y-62.402
X83.72Y-77.25
X83.9Y-75.0
X83.91Y-126.727
X84.125Y-88.4
X84.14Y-76.84
X84.322Y-116.59
X84.375Y-99.99
X84.4Y-74.703
X84.4Y-75.297
X84.5Y-97.49
X84.6Y-70.7
X84.83Y-78.94
X84.85Y-81.36
X85.0Y-74.25
X85.21Y-88.69
X85.292Y-85.558
X85.332Y-123.983
X85.44Y-86.12
X85.708Y-85.142
X85.72Y-75.83
X85.9Y-116.7
X85.95Y-120.85
X86.05Y-118.55
X86.08Y-70.77
X86.275Y-85.025
X86.289Y-89.916
X86.325Y-110.775
X86.34Y-78.94
X86.37Y-121.4
X86.5Y-106.112
X86.775Y-116.55
X86.8Y-93.72
X86.97Y-101.63
X87.0Y-108.87
X87.029Y-74.54
X87.05Y-122.5
X87.34Y-85.88
X87.6Y-65.65
X87.6Y-70.8
X87.6Y-77.3
X87.6Y-108.234
X87.711Y-68.2
X87.85Y-78.9
X87.892Y-86.058
X87.95Y-114.85
X87.975Y-127.401
X88.01Y-81.35
X88.05Y-91.85
X88.308Y-85.642
X88.44Y-96.87
X88.5Y-115.25
X88.551Y-70.92
X88.6Y-76.28
X88.65Y-72.241
X88.67Y-85.16
X88.7Y-81.371
X89.2Y-115.0
X89.3Y-118.9
X89.306Y-72.225
X89.41Y-113.669
X89.75Y-81.3
X89.85Y-84.625
X89.894Y-72.18
X90.15Y-70.7
X90.165Y-65.513
X90.43Y-84.556
X90.43Y-85.144
X90.6Y-76.35
X90.6Y-118.6
X90.7Y-85.675
X90.7Y-89.825
X90.752Y-113.098
X90.9Y-94.9
X91.175Y-77.9
X91.181Y-92.3
X91.664Y-106.101
X91.664Y-106.95
X91.72Y-75.31
X91.75Y-108.8
X91.946Y-117.822
X92.101Y-107.399
X92.15Y-106.538
X92.226Y-70.3
X92.344Y-78.011
X92.35Y-113.148
X92.5Y-108.85
X92.6Y-76.903
X92.6Y-77.497
X92.75Y-122.85
X92.8Y-70.43
X92.857Y-114.088
X93.12Y-76.59
X93.25Y-70.03
X93.325Y-97.407
X93.435Y-81.35
X93.65Y-78.75
X93.75Y-109.548
X93.95Y-96.85
X93.95Y-122.85
X94.2Y-70.395
X94.75Y-78.801
X94.75Y-86.65
X94.8Y-85.428
X94.8Y-86.0
X94.963Y-117.707
X95.1Y-70.37
X95.15Y-122.85
X95.154Y-84.025
X95.3Y-60.698
X95.3Y-85.428
X95.3Y-86.0
X95.352Y-99.757
X95.6Y-113.4
X95.7Y-112.0
X96.1Y-112.975
X96.3Y-114.0
X96.3Y-114.6
X96.3Y-115.2
X96.35Y-122.85
X96.65Y-70.85
X96.75Y-77.05
X96.8Y-114.0
X96.8Y-114.6
X96.8Y-115.2
X96.805Y-61.09
X96.825Y-105.443
X97.112Y-86.55
X97.125Y-86.05
X97.126Y-85.428
X97.303Y-78.5
X97.447Y-63.545
X97.55Y-94.848
X97.897Y-78.5
X98.095Y-63.595
X98.1Y-70.825
X98.2Y-75.9
X98.475Y-73.746
X98.5Y-102.65
X98.5Y-78.75
X99.06Y-59.636
X99.6Y-70.775
X99.75Y-116.0
X99.775Y-68.746
X99.8Y-110.85
X99.9Y-60.698
X100.0Y-75.95
X100.25Y-117.6
X100.25Y-118.6
X100.4Y-78.35
X100.5Y-118.1
X100.732Y-70.688
X100.75Y-117.6
X100.75Y-118.6
X100.853Y-78.703
X100.976Y-68.796
X101.088Y-94.102
X101.15Y-84.0
X101.2Y-94.7
X101.2Y-114.725
X101.6Y-78.36
X101.7Y-122.9
X102.025Y-78.75
X102.15Y-123.95
X102.575Y-78.475
X102.675Y-69.447
X102.78Y-100.562
X103.25Y-108.2
X103.35Y-70.348
X103.5Y-92.45
X103.733Y-78.29
X103.75Y-65.748
X103.944Y-89.225
X104.35Y-101.6
X104.35Y-128.05
X104.67Y-78.77
X105.05Y-88.24
X105.08Y-70.77
X105.65Y-118.725
X105.7Y-116.5
X105.72Y-85.89
X105.72Y-90.95
X105.882Y-78.24
X106.23Y-81.82
X106.3Y-91.3
X106.457Y-78.24
X106.6Y-70.73
X106.6Y-93.8
X106.641Y-86.259
X106.72Y-128.02
X106.736Y-78.897
X106.95Y-107.6
X107.04Y-87.06
X107.075Y-101.525
X107.2Y-84.75
X107.6Y-85.32
X107.71Y-81.45
X108.11Y-73.379
X108.25Y-86.15
X108.4Y-84.0
X108.4Y-93.4
X108.55Y-88.625
X108.676Y-110.887
X108.85Y-91.44
X108.865Y-103.79
X108.9Y-92.15
X109.04Y-87.02
X109.042Y-63.614
X109.108Y-78.785
X109.3Y-48.4
X109.3Y-83.2
X109.3Y-101.4
X109.46Y-81.44
X109.484Y-73.623
X109.5Y-50.65
X109.5Y-51.55
X109.515Y-58.83
X109.55Y-50.05
X109.6Y-89.7
X109.85Y-59.95
X110.495Y-77.354
X110.59Y-78.82
X110.7Y-63.34
X110.8Y-84.7
X110.85Y-81.46
X110.95Y-70.224
X111.52Y-73.56
X111.6Y-56.5
X112.05Y-51.65
X112.1Y-83.0
X112.2Y-61.44
X112.2Y-78.9
X112.226Y-81.461
X112.25Y-73.599
X112.265Y-60.596
X112.35Y-47.3
X112.4Y-56.45
X112.5Y-92.6
X112.5Y-93.1
X112.52Y-86.3
X112.6Y-70.79
X112.7Y-90.3
X112.85Y-78.35
X113.089Y-45.898
X113.15Y-73.5
X113.2Y-90.991
X113.25Y-101.012
X113.35Y-95.72
X113.384Y-96.6
X113.5Y-56.45
X113.55Y-48.0
X113.55Y-114.95
X113.7Y-101.438
X113.76Y-78.6
X113.766Y-103.684
X113.85Y-96.175
X113.86Y-81.46
X113.885Y-98.94
X113.9Y-89.5
X113.92Y-82.97
X114.09Y-70.81
X114.34Y-75.23
X114.4Y-106.35
X114.45Y-45.0
X114.495Y-81.454
X114.5Y-47.25
X114.5Y-56.45
X114.714Y-45.711
X115.15Y-47.95
X115.15Y-59.75
X115.196Y-81.664
X115.25Y-56.45
X115.52Y-78.9
X115.54Y-70.8
X115.61Y-73.41
X115.697Y-89.55
X115.8Y-56.75
X116.1Y-46.0
X116.6Y-75.941
X116.85Y-81.24
X116.95Y-48.4
X117.14Y-70.74
X118.06Y-84.13
X118.15Y-86.95
X118.275Y-85.475
X118.3Y-49.5
X118.3Y-51.0
X118.3Y-52.5
X118.3Y-54.0
X118.3Y-84.785
X118.35Y-78.92
X118.4Y-103.4
X118.4Y-104.0
X118.478Y-81.527
X118.498Y-87.347
X118.55Y-45.8
X118.55Y-70.7
X118.6Y-100.5
X118.75Y-46.4
X118.847Y-84.087
X118.877Y-87.721
X119.0Y-103.7
X119.35Y-86.255
X119.45Y-89.8
X119.45Y-90.45
X119.55Y-103.45
X119.65Y-114.6
X119.777Y-97.559
X119.83Y-103.97
X119.84Y-81.46
X119.869Y-78.661
X119.95Y-127.75
X119.96Y-82.746
X119.96Y-83.334
X120.14Y-70.41
X120.147Y-115.097
X120.15Y-120.8
X120.15Y-121.5
X120.3Y-79.04
X120.342Y-97.442
X120.55Y-43.9
X120.55Y-127.75
X120.559Y-114.6
X120.65Y-98.47
X120.719Y-54.272
X120.724Y-52.775
X120.742Y-51.485
X120.758Y-97.858
X120.894Y-79.04
X121.048Y-50.855
X121.05Y-115.1
X121.066Y-52.165
X121.071Y-53.668
X121.114Y-81.393
X121.14Y-88.76
X121.17Y-99.01
X121.2Y-87.1
X121.2Y-91.462
X121.2Y-92.037
X121.2Y-94.4
X121.2Y-95.1
X121.22Y-78.56
X121.233Y-98.287
X121.25Y-82.75
X121.55Y-46.1
X121.59Y-70.65
X121.59Y-99.43
X121.67Y-92.44
X121.68Y-88.453
X121.68Y-89.047
X121.69Y-94.05
X121.7Y-91.1
X121.73Y-95.51
X121.75Y-82.453
X121.75Y-83.047
X121.85Y-86.975
X121.863Y-85.453
X121.863Y-86.047
X121.92Y-84.84
X122.09Y-89.5
X122.199Y-99.378
X122.47Y-86.34
X122.525Y-103.855
X122.75Y-81.55
X122.891Y-78.891
X122.9Y-125.05
X122.98Y-103.46
X123.01Y-100.86
X123.06Y-70.65
X123.1Y-73.25
X123.1Y-95.441
X123.13Y-87.39
X123.15Y-92.6
X123.15Y-93.95
X123.2Y-83.5
X123.2Y-90.95
X123.2Y-109.25
X123.24Y-85.0
X123.24Y-86.48
X123.25Y-89.49
X123.28Y-88.0
X123.32Y-75.46
X123.32Y-98.43
X123.678Y-108.931
X124.35Y-81.35
X124.59Y-70.89
X124.6Y-73.26
X125.5Y-85.07
X125.51Y-92.55
X125.56Y-83.56
X125.57Y-86.0
X125.58Y-96.83
X125.59Y-95.31
X125.6Y-93.99
X125.63Y-88.1
X125.63Y-89.16
X125.65Y-104.8
X125.67Y-91.35
X125.74Y-100.66
X125.808Y-81.392
X125.81Y-98.01
X125.85Y-76.475
X125.85Y-77.03
X125.85Y-77.6
X125.9Y-127.7
X125.95Y-78.97
X126.08Y-73.34
X126.1Y-70.65
X126.6Y-127.7
X127.55Y-105.8
X127.77Y-88.755
X127.8Y-125.05
X127.82Y-100.6
X127.85Y-81.023
X127.885Y-88.185
X127.935Y-89.315
X127.95Y-96.5
X127.95Y-98.1
X127.96Y-92.52
X128.22Y-90.84
X128.25Y-83.537
X128.3Y-85.0
X128.35Y-94.15
X128.392Y-96.108
X128.4Y-92.953
X128.4Y-93.547
X128.4Y-101.92
X128.45Y-86.45
X128.45Y-88.05
X128.5Y-89.5
X128.7Y-83.95
X128.7Y-84.525
X128.75Y-86.95
X128.75Y-87.525
X128.808Y-95.692
X128.9Y-89.953
X128.9Y-90.547
X129.0Y-95.15
X129.5Y-123.75
X129.8Y-111.0
X129.8Y-127.0
X130.3Y-110.5
X130.3Y-122.5
X130.5Y-91.403
X130.5Y-91.997
X131.3Y-122.5
X131.45Y-95.2
X131.65Y-103.7
X131.75Y-91.25
X131.94Y-84.94
X132.292Y-103.708
X132.35Y-85.75
X132.4Y-118.387
X132.55Y-90.15
X132.55Y-108.71
X132.6Y-87.55
X132.708Y-103.292
X132.73Y-54.88
X132.75Y-86.15
X132.95Y-109.15
X132.95Y-109.75
X133.0Y-118.387
X133.528Y-91.08
X133.6Y-118.387
X133.65Y-128.125
X133.69Y-70.89
X133.9Y-109.5
X133.9Y-110.1
X133.9Y-114.124
X134.07Y-85.27
X134.15Y-88.2
X134.19Y-90.31
X134.3Y-109.2
X134.3Y-109.8
X134.45Y-118.05
X134.45Y-119.35
X135.1Y-118.4
X135.65Y-122.8
X135.7Y-118.4
X136.3Y-118.4
X136.346Y-120.224
X136.9Y-118.4
X137.15Y-91.083
X137.2Y-92.906
X137.2Y-108.025
X137.25Y-113.7
X137.325Y-104.05
X137.7Y-118.0
X137.7Y-122.0
X137.85Y-82.0
X138.539Y-84.975
X138.65Y-85.6
X138.75Y-87.9
X139.36Y-96.87
X139.69Y-94.27
X139.775Y-100.425
X140.4Y-107.15
X140.425Y-87.975
X140.5Y-90.45
X140.51Y-118.9
X140.51Y-119.4
X140.525Y-83.15
X140.525Y-85.55
X140.53Y-53.68
X140.55Y-93.25
X140.55Y-97.55
X140.557Y-55.52
X140.65Y-112.85
X141.0Y-122.2
X141.01Y-118.9
X141.01Y-119.4
X141.3Y-126.0
X141.5Y-124.96
X142.35Y-87.95
X142.38Y-95.52
X142.41Y-97.01
X142.42Y-86.49
X142.45Y-91.0
X142.7Y-111.1
X144.143Y-103.849
X144.375Y-80.2
X144.7Y-113.2
X144.95Y-89.5
X144.988Y-103.487
X145.0Y-107.274
X145.05Y-93.85
X145.1Y-97.65
X145.1Y-111.1
X145.14Y-83.35
X145.175Y-91.125
X145.2Y-86.375
X145.225Y-88.75
X146.85Y-91.175
X146.87Y-84.34
X146.875Y-86.275
X146.875Y-88.775
X146.9Y-83.11
X146.9Y-93.8
X146.95Y-97.64
X147.7Y-120.0
X148.51Y-90.99
X148.6Y-89.41
X148.625Y-85.75
X148.625Y-88.325
X148.65Y-84.175
X148.65Y-86.775
X149.024Y-113.3
T2
X111.35Y-49.85
X111.35Y-51.05
X111.35Y-52.25
X111.35Y-53.45
X111.35Y-54.65
X112.55Y-49.85
X112.55Y-51.05
X112.55Y-52.25
X112.55Y-53.45
X112.55Y-54.65
X113.75Y-49.85
X113.75Y-51.05
X113.75Y-52.25
X113.75Y-53.45
X113.75Y-54.65
X114.95Y-49.85
X114.95Y-51.05
X114.95Y-52.25
X114.95Y-53.45
X114.95Y-54.65
X116.15Y-49.85
X116.15Y-51.05
X116.15Y-52.25
X116.15Y-53.45
X116.15Y-54.65
T3
X31.2Y-40.2
X31.2Y-43.2
X31.2Y-61.2
X33.95Y-66.35
X33.95Y-67.35
X34.2Y-40.2
X34.2Y-61.2
X34.95Y-66.35
X34.95Y-67.35
X35.073Y-57.078
X35.95Y-66.35
X35.95Y-67.35
X36.95Y-66.35
X36.95Y-67.35
X37.2Y-40.2
X37.2Y-61.2
X37.225Y-91.965
X37.549Y-53.287
X39.385Y-47.135
X40.2Y-40.2
X43.2Y-40.2
X46.2Y-40.2
X46.2Y-49.2
X46.2Y-52.2
X46.329Y-92.877
X49.2Y-40.2
X49.2Y-61.2
X52.2Y-40.2
X52.2Y-58.2
X52.2Y-61.2
X55.2Y-40.2
X55.2Y-49.2
X55.2Y-58.2
X55.2Y-61.2
X58.2Y-40.2
X58.2Y-49.2
X58.2Y-55.2
X58.2Y-58.2
X58.2Y-61.2
X61.2Y-40.2
X61.2Y-46.2
X61.2Y-49.2
X61.2Y-55.2
X61.2Y-58.2
X61.2Y-61.2
X64.2Y-40.2
X64.2Y-49.2
X64.2Y-52.2
X64.2Y-55.2
X67.2Y-40.2
X67.2Y-43.2
X67.2Y-46.2
X67.2Y-49.2
X67.2Y-52.2
X67.2Y-55.2
X70.2Y-40.2
X70.2Y-43.2
X70.2Y-46.2
X70.2Y-49.2
X70.2Y-52.2
X70.2Y-55.2
X73.2Y-40.2
X73.2Y-43.2
X73.2Y-46.2
X73.2Y-49.2
X73.2Y-52.2
X73.2Y-55.2
X76.2Y-40.2
X76.2Y-43.2
X76.2Y-46.2
X76.2Y-49.2
X76.2Y-52.2
X76.2Y-55.2
X79.2Y-40.2
X79.2Y-43.2
X79.2Y-46.2
X79.2Y-49.2
X79.2Y-52.2
X79.2Y-55.2
X79.2Y-58.2
X79.2Y-61.2
X82.2Y-40.2
X82.2Y-43.2
X82.2Y-46.2
X82.2Y-49.2
X82.2Y-52.2
X82.2Y-55.2
X85.2Y-40.2
X85.2Y-43.2
X85.2Y-46.2
X85.2Y-49.2
X85.2Y-52.2
X85.2Y-55.2
X88.2Y-40.2
X88.2Y-43.2
X88.2Y-46.2
X88.2Y-49.2
X88.2Y-52.2
X88.2Y-55.2
X88.2Y-61.2
X91.2Y-40.2
X91.2Y-43.2
X91.2Y-46.2
X91.2Y-49.2
X91.2Y-52.2
X91.2Y-55.2
X91.2Y-61.2
X94.2Y-40.2
X94.2Y-43.2
X94.2Y-46.2
X94.2Y-49.2
X94.2Y-52.2
X94.2Y-55.2
X97.2Y-40.2
X97.2Y-43.2
X97.2Y-46.2
X97.2Y-49.2
X97.2Y-52.2
X97.2Y-55.2
X100.2Y-40.2
X100.2Y-43.2
X100.2Y-46.2
X100.2Y-49.2
X100.2Y-52.2
X100.2Y-55.2
X103.2Y-40.2
X103.2Y-43.2
X103.2Y-46.2
X103.2Y-49.2
X103.2Y-52.2
X106.2Y-40.2
X106.2Y-43.2
X106.2Y-46.2
X106.2Y-49.2
X106.2Y-55.2
X106.2Y-61.2
X109.2Y-40.2
X109.2Y-43.2
X109.2Y-46.2
X112.2Y-40.2
X112.2Y-43.2
X115.2Y-40.2
X115.2Y-43.2
X115.2Y-61.2
X118.2Y-40.2
X118.2Y-61.2
X121.2Y-40.2
X121.2Y-58.2
X121.2Y-61.2
X121.2Y-64.2
X121.2Y-67.2
X124.2Y-40.2
X124.2Y-43.2
X124.2Y-61.2
X124.2Y-64.2
X124.2Y-67.2
X127.2Y-40.2
X127.2Y-43.2
X127.2Y-61.2
X127.2Y-64.2
X127.2Y-67.2
X130.2Y-40.2
X130.2Y-43.2
X130.2Y-49.2
X130.2Y-52.2
X130.2Y-61.2
X130.2Y-64.2
X130.2Y-67.2
X133.2Y-40.2
X133.2Y-43.2
X133.2Y-49.2
X133.2Y-64.2
X133.2Y-67.2
X136.2Y-40.2
X136.2Y-43.2
X136.2Y-61.2
X136.2Y-64.2
X136.2Y-67.2
X139.2Y-40.2
X139.2Y-43.2
X139.2Y-49.2
X139.2Y-58.2
X139.2Y-61.2
X139.2Y-64.2
X139.2Y-67.2
X142.2Y-40.2
X142.2Y-58.2
X142.2Y-61.2
X142.2Y-64.2
X142.2Y-67.2
X145.2Y-40.2
X145.2Y-49.2
X145.2Y-55.2
X145.2Y-58.2
X145.2Y-61.2
X145.2Y-64.2
X145.2Y-67.2
X148.2Y-40.2
X148.2Y-43.2
X148.2Y-46.2
X148.2Y-49.2
X148.2Y-52.2
X148.2Y-55.2
X148.2Y-58.2
X148.2Y-61.2
X148.2Y-64.2
X148.2Y-67.2
T4
X33.35Y-44.75
X34.053Y-43.053
X34.053Y-46.447
X35.75Y-42.35
X35.75Y-47.15
X37.447Y-43.053
X37.447Y-46.447
X38.15Y-44.75
X141.35Y-44.75
X142.053Y-43.053
X142.053Y-46.447
X143.75Y-42.35
X143.75Y-47.15
X145.447Y-43.053
X145.447Y-46.447
X146.15Y-44.75
T5
X33.435Y-108.616
X33.435Y-113.694
X34.704Y-111.155
X35.974Y-108.616
X35.974Y-114.955
X37.244Y-111.155
X38.513Y-108.616
X39.784Y-111.155
X41.053Y-108.616
X42.325Y-111.155
X42.325Y-114.955
X43.594Y-108.616
X44.864Y-111.155
X44.864Y-113.686
X125.471Y-53.88
X125.471Y-56.41
X126.741Y-58.95
X128.01Y-52.61
X128.01Y-56.41
X129.282Y-58.95
X130.551Y-56.41
X131.822Y-58.95
X133.091Y-56.41
X134.361Y-52.61
X134.361Y-58.95
X135.631Y-56.41
X136.9Y-53.871
X136.9Y-58.95
T6
X71.12Y-64.98
X71.12Y-67.52
X73.66Y-64.98
X73.66Y-67.52
X76.2Y-64.98
X76.2Y-67.52
X78.74Y-64.98
X78.74Y-67.52
X81.28Y-64.98
X81.28Y-67.52
X83.82Y-64.98
X83.82Y-67.52
X86.36Y-64.98
X86.36Y-67.52
X88.9Y-64.98
X88.9Y-67.52
X91.44Y-64.98
X91.44Y-67.52
X93.98Y-64.98
X93.98Y-67.52
X96.52Y-64.98
X96.52Y-67.52
X99.06Y-64.98
X99.06Y-67.52
X101.6Y-64.98
X101.6Y-67.52
X104.14Y-64.98
X104.14Y-67.52
X106.68Y-64.98
X106.68Y-67.52
X109.22Y-64.98
X109.22Y-67.52
X111.76Y-64.98
X111.76Y-67.52
X114.3Y-64.98
X114.3Y-67.52
X116.84Y-64.98
X116.84Y-67.52
X119.38Y-64.98
X119.38Y-67.52
T7
X32.508Y-121.574
X35.049Y-121.574
X43.249Y-121.574
X45.79Y-121.574
X124.545Y-45.991
X127.086Y-45.991
X135.286Y-45.991
X137.827Y-45.991
T8
X31.299Y-114.466
X139.036Y-53.099
T9
X46.998Y-114.466
X123.337Y-53.099
T10
X35.75Y-44.75
X143.75Y-44.75
T11
X39.75Y-123.75
X40.75Y-86.75
X60.925Y-118.1
X79.25Y-95.15
X124.525Y-118.112
X144.75Y-123.75
M30
