%TF.GenerationSoftware,KiCad,Pcbnew,10.0.6*%
%TF.CreationDate,2026-09-29T05:45:57-04:00*%
%TF.ProjectId,atlas_brain,61746c61-735f-4627-9261-696e2e6b6963,1.3.4*%
%TF.SameCoordinates,Original*%
%TF.FileFunction,Paste,Bot*%
%TF.FilePolarity,Positive*%
%FSLAX46Y46*%
G04 Gerber Fmt 4.6, Leading zero omitted, Abs format (unit mm)*
G04 Created by KiCad (PCBNEW 10.0.6) date 2026-09-29 05:45:57*
%MOMM*%
%LPD*%
G01*
G04 APERTURE LIST*
G04 Aperture macros list*
%AMRoundRect*
0 Rectangle with rounded corners*
0 $1 Rounding radius*
0 $2 $3 $4 $5 $6 $7 $8 $9 X,Y pos of 4 corners*
0 Add a 4 corners polygon primitive as box body*
4,1,4,$2,$3,$4,$5,$6,$7,$8,$9,$2,$3,0*
0 Add four circle primitives for the rounded corners*
1,1,$1+$1,$2,$3*
1,1,$1+$1,$4,$5*
1,1,$1+$1,$6,$7*
1,1,$1+$1,$8,$9*
0 Add four rect primitives between the rounded corners*
20,1,$1+$1,$2,$3,$4,$5,0*
20,1,$1+$1,$4,$5,$6,$7,0*
20,1,$1+$1,$6,$7,$8,$9,0*
20,1,$1+$1,$8,$9,$2,$3,0*%
%AMFreePoly0*
4,1,67,-0.230686,1.377206,-0.224392,1.374598,-0.219740,1.374377,-0.212279,1.369581,-0.194638,1.362274,-0.183351,1.350987,-0.176196,1.346388,-0.173476,1.341112,-0.167048,1.334684,-0.154302,1.303914,-0.152479,1.300377,-0.126926,1.183037,-0.046742,0.956635,0.061309,0.742131,0.195510,0.542938,0.353722,0.362229,0.533428,0.202877,0.731769,0.067421,0.945586,-0.041983,1.171476,-0.123596,
1.288653,-0.149890,1.292905,-0.152116,1.298636,-0.152116,1.334684,-0.167048,1.362274,-0.194638,1.377206,-0.230686,1.379127,-0.250195,1.379127,-1.083663,1.377206,-1.103172,1.362274,-1.139220,1.334684,-1.166810,1.298636,-1.181742,1.259618,-1.181742,1.255346,-1.179972,1.250752,-1.180461,0.950073,-1.116831,0.657748,-1.021950,0.377015,-0.896869,0.110983,-0.742974,-0.137399,-0.561969,
-0.365380,-0.355861,-0.570436,-0.126931,-0.750293,0.122283,-0.902960,0.389021,-1.026745,0.670328,-1.120278,0.963088,-1.181464,1.258948,-1.181742,1.259618,-1.181742,1.260289,-1.182521,1.264056,-1.181742,1.271076,-1.181742,1.298636,-1.177564,1.308720,-1.176812,1.315504,-1.172101,1.321908,-1.166810,1.334684,-1.151300,1.350193,-1.146144,1.357205,-1.142841,1.358652,-1.139220,1.362274,
-1.103172,1.377206,-1.099740,1.377543,-1.098734,1.377985,-1.097101,1.377803,-1.083663,1.379127,-0.250195,1.379127,-0.230686,1.377206,-0.230686,1.377206,$1*%
%AMFreePoly1*
4,1,5,0.300000,-0.300000,-0.300000,-0.300000,-0.300000,0.300000,0.300000,0.300000,0.300000,-0.300000,0.300000,-0.300000,$1*%
G04 Aperture macros list end*
%ADD10RoundRect,0.090000X0.410000X0.210000X-0.410000X0.210000X-0.410000X-0.210000X0.410000X-0.210000X0*%
%ADD11RoundRect,0.147500X0.147500X0.172500X-0.147500X0.172500X-0.147500X-0.172500X0.147500X-0.172500X0*%
%ADD12RoundRect,0.200000X0.250000X-0.200000X0.250000X0.200000X-0.250000X0.200000X-0.250000X-0.200000X0*%
%ADD13RoundRect,0.147500X0.172500X-0.147500X0.172500X0.147500X-0.172500X0.147500X-0.172500X-0.147500X0*%
%ADD14FreePoly0,90.000000*%
%ADD15FreePoly0,180.000000*%
%ADD16FreePoly0,0.000000*%
%ADD17FreePoly0,270.000000*%
%ADD18RoundRect,0.075000X-0.075000X-0.175000X0.075000X-0.175000X0.075000X0.175000X-0.075000X0.175000X0*%
%ADD19RoundRect,0.160000X0.240000X0.340000X-0.240000X0.340000X-0.240000X-0.340000X0.240000X-0.340000X0*%
%ADD20RoundRect,0.160000X0.340000X-0.240000X0.340000X0.240000X-0.340000X0.240000X-0.340000X-0.240000X0*%
%ADD21RoundRect,0.147500X-0.147500X-0.172500X0.147500X-0.172500X0.147500X0.172500X-0.147500X0.172500X0*%
%ADD22RoundRect,0.147500X-0.172500X0.147500X-0.172500X-0.147500X0.172500X-0.147500X0.172500X0.147500X0*%
%ADD23RoundRect,0.140000X0.140000X0.170000X-0.140000X0.170000X-0.140000X-0.170000X0.140000X-0.170000X0*%
%ADD24RoundRect,0.250000X-0.450000X-0.350000X0.450000X-0.350000X0.450000X0.350000X-0.450000X0.350000X0*%
%ADD25R,0.550000X1.000000*%
%ADD26RoundRect,0.140000X-0.140000X-0.170000X0.140000X-0.170000X0.140000X0.170000X-0.140000X0.170000X0*%
%ADD27RoundRect,0.160000X-0.240000X-0.340000X0.240000X-0.340000X0.240000X0.340000X-0.240000X0.340000X0*%
%ADD28RoundRect,0.050000X-0.050000X-0.150000X0.050000X-0.150000X0.050000X0.150000X-0.050000X0.150000X0*%
%ADD29RoundRect,0.160000X-0.340000X0.240000X-0.340000X-0.240000X0.340000X-0.240000X0.340000X0.240000X0*%
%ADD30RoundRect,0.125000X-0.125000X-0.175000X0.125000X-0.175000X0.125000X0.175000X-0.125000X0.175000X0*%
%ADD31RoundRect,0.200000X-0.200000X-0.275000X0.200000X-0.275000X0.200000X0.275000X-0.200000X0.275000X0*%
%ADD32RoundRect,0.125000X0.175000X-0.125000X0.175000X0.125000X-0.175000X0.125000X-0.175000X-0.125000X0*%
%ADD33RoundRect,0.082500X-0.417500X0.192500X-0.417500X-0.192500X0.417500X-0.192500X0.417500X0.192500X0*%
%ADD34RoundRect,0.081250X-0.081250X0.118750X-0.081250X-0.118750X0.081250X-0.118750X0.081250X0.118750X0*%
%ADD35RoundRect,0.150000X-0.150000X-0.625000X0.150000X-0.625000X0.150000X0.625000X-0.150000X0.625000X0*%
%ADD36RoundRect,0.300000X0.300000X0.600000X-0.300000X0.600000X-0.300000X-0.600000X0.300000X-0.600000X0*%
%ADD37FreePoly1,90.000000*%
%ADD38R,0.600000X0.400000*%
%ADD39RoundRect,0.075000X-0.075000X0.225000X-0.075000X-0.225000X0.075000X-0.225000X0.075000X0.225000X0*%
%ADD40RoundRect,0.062500X-0.062500X0.237500X-0.062500X-0.237500X0.062500X-0.237500X0.062500X0.237500X0*%
%ADD41RoundRect,0.090000X-0.210000X0.410000X-0.210000X-0.410000X0.210000X-0.410000X0.210000X0.410000X0*%
%ADD42R,0.510000X0.400000*%
%ADD43R,0.400000X0.510000*%
%ADD44RoundRect,0.082500X0.317500X0.192500X-0.317500X0.192500X-0.317500X-0.192500X0.317500X-0.192500X0*%
%ADD45RoundRect,0.090000X-0.410000X-0.210000X0.410000X-0.210000X0.410000X0.210000X-0.410000X0.210000X0*%
%ADD46RoundRect,0.175000X-0.175000X-0.575000X0.175000X-0.575000X0.175000X0.575000X-0.175000X0.575000X0*%
%ADD47RoundRect,0.200000X-0.300000X-0.200000X0.300000X-0.200000X0.300000X0.200000X-0.300000X0.200000X0*%
%ADD48R,1.800000X0.750000*%
%ADD49RoundRect,0.082500X0.417500X-0.192500X0.417500X0.192500X-0.417500X0.192500X-0.417500X-0.192500X0*%
%ADD50RoundRect,0.135000X-0.135000X-0.185000X0.135000X-0.185000X0.135000X0.185000X-0.135000X0.185000X0*%
%ADD51RoundRect,0.081250X0.081250X-0.118750X0.081250X0.118750X-0.081250X0.118750X-0.081250X-0.118750X0*%
%ADD52R,1.550000X0.300000*%
%ADD53R,2.750000X1.200000*%
%ADD54RoundRect,0.050000X-0.075000X0.250000X-0.075000X-0.250000X0.075000X-0.250000X0.075000X0.250000X0*%
%ADD55RoundRect,0.050000X0.250000X0.075000X-0.250000X0.075000X-0.250000X-0.075000X0.250000X-0.075000X0*%
%ADD56RoundRect,0.050000X0.075000X-0.250000X0.075000X0.250000X-0.075000X0.250000X-0.075000X-0.250000X0*%
%ADD57RoundRect,0.050000X-0.250000X-0.075000X0.250000X-0.075000X0.250000X0.075000X-0.250000X0.075000X0*%
%ADD58RoundRect,0.050000X-0.790000X0.790000X-0.790000X-0.790000X0.790000X-0.790000X0.790000X0.790000X0*%
%ADD59R,0.820000X0.630000*%
%ADD60R,0.650000X0.350000*%
%ADD61RoundRect,0.100000X-0.125000X-0.100000X0.125000X-0.100000X0.125000X0.100000X-0.125000X0.100000X0*%
%ADD62RoundRect,0.112000X-0.448000X-0.748000X0.448000X-0.748000X0.448000X0.748000X-0.448000X0.748000X0*%
%ADD63RoundRect,0.050000X0.050000X0.150000X-0.050000X0.150000X-0.050000X-0.150000X0.050000X-0.150000X0*%
%ADD64RoundRect,0.050000X-0.087500X0.250000X-0.087500X-0.250000X0.087500X-0.250000X0.087500X0.250000X0*%
%ADD65RoundRect,0.050000X-0.275000X0.062500X-0.275000X-0.062500X0.275000X-0.062500X0.275000X0.062500X0*%
%ADD66RoundRect,0.050000X-0.480000X0.090000X-0.480000X-0.090000X0.480000X-0.090000X0.480000X0.090000X0*%
%ADD67RoundRect,0.081250X0.118750X0.081250X-0.118750X0.081250X-0.118750X-0.081250X0.118750X-0.081250X0*%
%ADD68RoundRect,0.300000X-0.300000X-0.350000X0.300000X-0.350000X0.300000X0.350000X-0.300000X0.350000X0*%
%ADD69RoundRect,0.075000X0.075000X0.175000X-0.075000X0.175000X-0.075000X-0.175000X0.075000X-0.175000X0*%
%ADD70RoundRect,0.135000X0.185000X-0.135000X0.185000X0.135000X-0.185000X0.135000X-0.185000X-0.135000X0*%
G04 APERTURE END LIST*
D10*
%TO.C,Q16*%
X43900000Y-77024000D03*
X43900000Y-78924000D03*
X41700000Y-77974500D03*
%TD*%
D11*
%TO.C,C118*%
X65780000Y-76500000D03*
X64820000Y-76500000D03*
%TD*%
D12*
%TO.C,Y1*%
X112941000Y-83783000D03*
X111089000Y-83783000D03*
X111089000Y-82335000D03*
X112941000Y-82335000D03*
%TD*%
D13*
%TO.C,C142*%
X62030000Y-84840000D03*
X62030000Y-83880000D03*
%TD*%
D14*
%TO.C,H3*%
X146450000Y-125450000D03*
D15*
X146450000Y-122050000D03*
D16*
X143050000Y-125450000D03*
D17*
X143050000Y-122050000D03*
%TD*%
D18*
%TO.C,D59*%
X125899000Y-127150000D03*
X126599000Y-127150000D03*
%TD*%
D19*
%TO.C,R273*%
X71600000Y-79400000D03*
X70200000Y-79400000D03*
%TD*%
D20*
%TO.C,C77*%
X38290000Y-113840000D03*
X38290000Y-112440000D03*
%TD*%
D13*
%TO.C,R275*%
X54300000Y-79070000D03*
X54300000Y-78110000D03*
%TD*%
D21*
%TO.C,R17*%
X108520000Y-85420000D03*
X109480000Y-85420000D03*
%TD*%
D19*
%TO.C,C22*%
X115200000Y-91500000D03*
X113800000Y-91500000D03*
%TD*%
D22*
%TO.C,R217*%
X87300000Y-106120000D03*
X87300000Y-107080000D03*
%TD*%
D21*
%TO.C,C50*%
X48550000Y-82190000D03*
X49510000Y-82190000D03*
%TD*%
D13*
%TO.C,R37*%
X111600000Y-88500000D03*
X111600000Y-87540000D03*
%TD*%
D21*
%TO.C,R192*%
X138320000Y-122000000D03*
X139280000Y-122000000D03*
%TD*%
D23*
%TO.C,C1320*%
X110230000Y-59200000D03*
X109270000Y-59200000D03*
%TD*%
D13*
%TO.C,C7*%
X106400000Y-88350000D03*
X106400000Y-87390000D03*
%TD*%
D24*
%TO.C,Y1301*%
X111850000Y-57499999D03*
X114050000Y-57499999D03*
X114050000Y-59199999D03*
X111850000Y-59199999D03*
%TD*%
D25*
%TO.C,U42*%
X60551000Y-85201000D03*
X59600000Y-85201000D03*
X58651000Y-85201000D03*
X58651000Y-82500000D03*
X60551000Y-82500000D03*
%TD*%
D26*
%TO.C,C1311*%
X118870000Y-49500000D03*
X119830000Y-49500000D03*
%TD*%
D21*
%TO.C,C17*%
X126255000Y-84750000D03*
X127215000Y-84750000D03*
%TD*%
D13*
%TO.C,R216*%
X88000000Y-113080000D03*
X88000000Y-112120000D03*
%TD*%
D21*
%TO.C,C16*%
X126270000Y-92750000D03*
X127230000Y-92750000D03*
%TD*%
D27*
%TO.C,R276*%
X62100000Y-82700000D03*
X63500000Y-82700000D03*
%TD*%
D28*
%TO.C,R25*%
X89535000Y-105952000D03*
X89933000Y-105952000D03*
X90335000Y-105952000D03*
X90733000Y-105952000D03*
X90733000Y-106550000D03*
X90335000Y-106550000D03*
X89933000Y-106550000D03*
X89535000Y-106550000D03*
%TD*%
D22*
%TO.C,R183*%
X74120000Y-76550000D03*
X74120000Y-77510000D03*
%TD*%
D29*
%TO.C,D54*%
X136700000Y-126700000D03*
X136700000Y-125300000D03*
%TD*%
D21*
%TO.C,R236*%
X56360000Y-80700000D03*
X57320000Y-80700000D03*
%TD*%
D30*
%TO.C,D37*%
X55899000Y-78800000D03*
X57299000Y-78800000D03*
%TD*%
D13*
%TO.C,R152*%
X41200000Y-119780000D03*
X41200000Y-118820000D03*
%TD*%
D14*
%TO.C,H4*%
X41450000Y-125450000D03*
D15*
X41450000Y-122050000D03*
D16*
X38050000Y-125450000D03*
D17*
X38050000Y-122050000D03*
%TD*%
D31*
%TO.C,R1308*%
X130325000Y-54500000D03*
X131975000Y-54500000D03*
%TD*%
D11*
%TO.C,R251*%
X47020000Y-73475000D03*
X46060000Y-73475000D03*
%TD*%
D32*
%TO.C,D34*%
X55250000Y-81451000D03*
X55250000Y-80051000D03*
%TD*%
D33*
%TO.C,U38*%
X69600000Y-74296000D03*
X69600000Y-75247000D03*
X69600000Y-76197000D03*
X67286000Y-76197000D03*
X67286000Y-75247000D03*
X67286000Y-74296000D03*
%TD*%
D11*
%TO.C,R181*%
X57905000Y-94150000D03*
X56945000Y-94150000D03*
%TD*%
%TO.C,C8*%
X106480000Y-92020000D03*
X105520000Y-92020000D03*
%TD*%
D18*
%TO.C,D55*%
X101149000Y-123800000D03*
X101849000Y-123800000D03*
%TD*%
D11*
%TO.C,C83*%
X60550000Y-86310000D03*
X59590000Y-86310000D03*
%TD*%
D18*
%TO.C,D22*%
X129899000Y-94780000D03*
X130599000Y-94780000D03*
%TD*%
D21*
%TO.C,R38*%
X105520000Y-93020000D03*
X106480000Y-93020000D03*
%TD*%
%TO.C,C14*%
X126255000Y-86750000D03*
X127215000Y-86750000D03*
%TD*%
D31*
%TO.C,R1309*%
X126925000Y-54500000D03*
X128575000Y-54500000D03*
%TD*%
D21*
%TO.C,C13*%
X126255000Y-83750000D03*
X127215000Y-83750000D03*
%TD*%
D22*
%TO.C,R18*%
X106400000Y-89340000D03*
X106400000Y-90300000D03*
%TD*%
D21*
%TO.C,R283*%
X54595000Y-84250000D03*
X55555000Y-84250000D03*
%TD*%
D11*
%TO.C,R80*%
X68580000Y-83300000D03*
X67620000Y-83300000D03*
%TD*%
D34*
%TO.C,D30*%
X69800000Y-80562000D03*
X69800000Y-81436000D03*
%TD*%
D13*
%TO.C,R274*%
X53230000Y-79090000D03*
X53230000Y-78130000D03*
%TD*%
%TO.C,R151*%
X42200000Y-119780000D03*
X42200000Y-118820000D03*
%TD*%
D30*
%TO.C,D36*%
X58249000Y-77350000D03*
X59649000Y-77350000D03*
%TD*%
D35*
%TO.C,J14*%
X133150000Y-123531000D03*
X132150000Y-123531000D03*
X131150000Y-123531000D03*
X130150000Y-123531000D03*
D36*
X134450000Y-127406000D03*
X128850000Y-127406000D03*
%TD*%
D37*
%TO.C,Q14*%
X42752000Y-75427000D03*
D38*
X42752000Y-74677000D03*
D37*
X42752000Y-73930000D03*
X44651000Y-73930000D03*
D38*
X44651000Y-74677000D03*
D37*
X44651000Y-75427000D03*
%TD*%
D39*
%TO.C,U4*%
X67550000Y-80440000D03*
D40*
X67050000Y-80440000D03*
X66550000Y-80440000D03*
D39*
X66050000Y-80440000D03*
X66050000Y-79540000D03*
D40*
X66550000Y-79540000D03*
X67050000Y-79540000D03*
D39*
X67550000Y-79540000D03*
%TD*%
D41*
%TO.C,Q6*%
X57934627Y-90950000D03*
X59834627Y-90950000D03*
X58885127Y-93150000D03*
%TD*%
D13*
%TO.C,R215*%
X87000000Y-113080000D03*
X87000000Y-112120000D03*
%TD*%
D21*
%TO.C,R191*%
X136320000Y-124060000D03*
X137280000Y-124060000D03*
%TD*%
D42*
%TO.C,Q11*%
X64560000Y-74350000D03*
X64560000Y-73352000D03*
X65862000Y-73850000D03*
%TD*%
D22*
%TO.C,R285*%
X50400000Y-73820000D03*
X50400000Y-74780000D03*
%TD*%
D19*
%TO.C,C21*%
X115150000Y-77950000D03*
X113750000Y-77950000D03*
%TD*%
D43*
%TO.C,Q8*%
X70900000Y-70550000D03*
X71898000Y-70550000D03*
X71400000Y-71852000D03*
%TD*%
D11*
%TO.C,C41*%
X68160000Y-78710000D03*
X67200000Y-78710000D03*
%TD*%
D44*
%TO.C,U3*%
X110200000Y-87070000D03*
X110200000Y-88020000D03*
X110200000Y-88970000D03*
X107800000Y-88970000D03*
X107800000Y-88020000D03*
X107800000Y-87070000D03*
%TD*%
D43*
%TO.C,Q5*%
X58860000Y-88250000D03*
X59858000Y-88250000D03*
X59360000Y-89552000D03*
%TD*%
%TO.C,Q1004*%
X59750000Y-65100000D03*
X60748000Y-65100000D03*
X60250000Y-66402000D03*
%TD*%
D45*
%TO.C,Q1001*%
X63150000Y-66701000D03*
X63150000Y-64801000D03*
X65350000Y-65750500D03*
%TD*%
D11*
%TO.C,R190*%
X139280000Y-123000000D03*
X138320000Y-123000000D03*
%TD*%
%TO.C,C137*%
X71680000Y-80600000D03*
X70720000Y-80600000D03*
%TD*%
%TO.C,R294*%
X132080000Y-70900000D03*
X131120000Y-70900000D03*
%TD*%
D43*
%TO.C,Q22*%
X49200000Y-74950000D03*
X48202000Y-74950000D03*
X48700000Y-73648000D03*
%TD*%
D46*
%TO.C,SW1*%
X53139500Y-74496000D03*
X56138500Y-74496000D03*
X57637500Y-74496000D03*
D47*
X51738500Y-73711000D03*
X51738500Y-71783000D03*
X59039500Y-71783000D03*
X59039500Y-73711000D03*
%TD*%
D11*
%TO.C,R255*%
X47020000Y-74475000D03*
X46060000Y-74475000D03*
%TD*%
D13*
%TO.C,R1*%
X90000000Y-113080000D03*
X90000000Y-112120000D03*
%TD*%
%TO.C,C160*%
X55250000Y-83230000D03*
X55250000Y-82270000D03*
%TD*%
%TO.C,R147*%
X38608000Y-118336000D03*
X38608000Y-117376000D03*
%TD*%
D11*
%TO.C,R260*%
X65780000Y-77500000D03*
X64820000Y-77500000D03*
%TD*%
D48*
%TO.C,BT1*%
X132048313Y-72020000D03*
X132048313Y-73520000D03*
%TD*%
D21*
%TO.C,C18*%
X126255000Y-87750000D03*
X127215000Y-87750000D03*
%TD*%
%TO.C,C20*%
X126270000Y-93750000D03*
X127230000Y-93750000D03*
%TD*%
D26*
%TO.C,C1310*%
X118870000Y-51000000D03*
X119830000Y-51000000D03*
%TD*%
D49*
%TO.C,U37*%
X60950000Y-77554000D03*
X60950000Y-76603000D03*
X60950000Y-75653000D03*
X63264000Y-75653000D03*
X63264000Y-76603000D03*
X63264000Y-77554000D03*
%TD*%
D21*
%TO.C,C19*%
X126255000Y-90750000D03*
X127215000Y-90750000D03*
%TD*%
D13*
%TO.C,C150*%
X47300000Y-80580000D03*
X47300000Y-79620000D03*
%TD*%
D19*
%TO.C,C24*%
X115200000Y-95000000D03*
X113800000Y-95000000D03*
%TD*%
D21*
%TO.C,R284*%
X53300000Y-83200000D03*
X54260000Y-83200000D03*
%TD*%
D22*
%TO.C,R219*%
X89000000Y-112120000D03*
X89000000Y-113080000D03*
%TD*%
D21*
%TO.C,R256*%
X58420000Y-79950000D03*
X59380000Y-79950000D03*
%TD*%
D29*
%TO.C,C134*%
X76260000Y-78850000D03*
X76260000Y-80250000D03*
%TD*%
D44*
%TO.C,U2*%
X110200000Y-91070000D03*
X110200000Y-92020000D03*
X110200000Y-92970000D03*
X107800000Y-92970000D03*
X107800000Y-92020000D03*
X107800000Y-91070000D03*
%TD*%
D50*
%TO.C,R1304*%
X115640000Y-59150000D03*
X116660000Y-59150000D03*
%TD*%
D13*
%TO.C,R13*%
X111600000Y-92480000D03*
X111600000Y-91520000D03*
%TD*%
D21*
%TO.C,R19*%
X112020000Y-80400000D03*
X112980000Y-80400000D03*
%TD*%
D51*
%TO.C,D29*%
X53400000Y-77238000D03*
X53400000Y-76364000D03*
%TD*%
D22*
%TO.C,C78*%
X39608000Y-117376000D03*
X39608000Y-118336000D03*
%TD*%
D21*
%TO.C,C15*%
X126255000Y-89750000D03*
X127215000Y-89750000D03*
%TD*%
D18*
%TO.C,D58*%
X119899000Y-127100000D03*
X120599000Y-127100000D03*
%TD*%
D42*
%TO.C,Q7*%
X60350000Y-73600000D03*
X60350000Y-72602000D03*
X61652000Y-73100000D03*
%TD*%
D13*
%TO.C,R261*%
X72300000Y-76180000D03*
X72300000Y-75220000D03*
%TD*%
D21*
%TO.C,R189*%
X140220000Y-123000000D03*
X141180000Y-123000000D03*
%TD*%
%TO.C,R249*%
X58860000Y-74900000D03*
X59820000Y-74900000D03*
%TD*%
D19*
%TO.C,C23*%
X115200000Y-93000000D03*
X113800000Y-93000000D03*
%TD*%
D21*
%TO.C,R257*%
X55820000Y-76200000D03*
X56780000Y-76200000D03*
%TD*%
D27*
%TO.C,R175*%
X48890000Y-77660000D03*
X50290000Y-77660000D03*
%TD*%
D52*
%TO.C,J2*%
X124366000Y-96001000D03*
X116818000Y-95754000D03*
X124366000Y-95504000D03*
X116818000Y-95254000D03*
X124366000Y-95004000D03*
X116818000Y-94752000D03*
X124366000Y-94503000D03*
X116818000Y-94253000D03*
X124366000Y-94003000D03*
X116818000Y-93753000D03*
X124366000Y-93503000D03*
X116818000Y-93253000D03*
X124366000Y-93003000D03*
X116818000Y-92753000D03*
X124366000Y-92503000D03*
X116818000Y-92253000D03*
X124366000Y-92003000D03*
X116818000Y-91753000D03*
X124366000Y-91503000D03*
X116818000Y-91253000D03*
X124366000Y-91003000D03*
X116818000Y-90753000D03*
X124366000Y-90502000D03*
X116818000Y-90252000D03*
X124366000Y-90002000D03*
X116818000Y-89752000D03*
X124366000Y-89502000D03*
X116818000Y-89252000D03*
X124366000Y-89002000D03*
X116818000Y-88752000D03*
X124366000Y-88503000D03*
X116818000Y-88253000D03*
X124366000Y-88003000D03*
X116818000Y-87753000D03*
X124366000Y-87502000D03*
X116818000Y-87252000D03*
X124366000Y-87002000D03*
X116818000Y-86752000D03*
X124366000Y-86503000D03*
X116818000Y-86253000D03*
X124366000Y-86003000D03*
X116818000Y-85753000D03*
X124366000Y-85502000D03*
X116818000Y-85252000D03*
X124366000Y-85002000D03*
X116818000Y-84752000D03*
X124366000Y-84502000D03*
X116818000Y-84252000D03*
X124366000Y-84002000D03*
X116818000Y-83752000D03*
X124366000Y-83502000D03*
X116818000Y-83252000D03*
X124366000Y-83002000D03*
X116818000Y-82752000D03*
X124366000Y-82503000D03*
X116818000Y-82253000D03*
X124366000Y-82003000D03*
X116818000Y-81753000D03*
X124366000Y-79503000D03*
X116818000Y-79253000D03*
X124366000Y-79003000D03*
X116818000Y-78753000D03*
X124366000Y-78504000D03*
X116818000Y-78254000D03*
X124366000Y-78004000D03*
X116818000Y-77754000D03*
X124366000Y-77504000D03*
D53*
X123591000Y-97103000D03*
X123591000Y-76402000D03*
%TD*%
D54*
%TO.C,U34*%
X88750000Y-108100000D03*
X89250000Y-108100000D03*
X89750000Y-108100000D03*
X90250000Y-108100000D03*
D55*
X90900000Y-108750000D03*
X90900000Y-109250000D03*
X90900000Y-109750000D03*
X90900000Y-110250000D03*
D56*
X90250000Y-110900000D03*
X89750000Y-110900000D03*
X89250000Y-110900000D03*
X88750000Y-110900000D03*
D57*
X88100000Y-110250000D03*
X88100000Y-109750000D03*
X88100000Y-109250000D03*
X88100000Y-108750000D03*
D58*
X89500000Y-109500000D03*
%TD*%
D11*
%TO.C,R165*%
X47321428Y-81615000D03*
X46361428Y-81615000D03*
%TD*%
D29*
%TO.C,R143*%
X119560000Y-99290000D03*
X119560000Y-100690000D03*
%TD*%
D59*
%TO.C,U35*%
X139530000Y-124420000D03*
X139530000Y-125222000D03*
D60*
X138479000Y-125472000D03*
X138479000Y-124820000D03*
X138479000Y-124170000D03*
X140580000Y-124170000D03*
X140580000Y-124820000D03*
X140580000Y-125472000D03*
%TD*%
D13*
%TO.C,R268*%
X58650000Y-87250000D03*
X58650000Y-86290000D03*
%TD*%
D21*
%TO.C,C25*%
X114120000Y-80400000D03*
X115080000Y-80400000D03*
%TD*%
D26*
%TO.C,C1321*%
X115670000Y-57500000D03*
X116630000Y-57500000D03*
%TD*%
D21*
%TO.C,C117*%
X55820000Y-77200000D03*
X56780000Y-77200000D03*
%TD*%
D61*
%TO.C,U41*%
X72825000Y-80752000D03*
X72825000Y-80100000D03*
X72825000Y-79450000D03*
X74773000Y-79450000D03*
X74773000Y-80100000D03*
X74773000Y-80752000D03*
D62*
X73800000Y-80100000D03*
%TD*%
D63*
%TO.C,R195*%
X92200000Y-112548000D03*
X91802000Y-112548000D03*
X91400000Y-112548000D03*
X91002000Y-112548000D03*
X91002000Y-111950000D03*
X91400000Y-111950000D03*
X91802000Y-111950000D03*
X92200000Y-111950000D03*
%TD*%
D64*
%TO.C,U48*%
X53562500Y-80175000D03*
X52187500Y-80175000D03*
D65*
X53750000Y-80362500D03*
X52000000Y-80362500D03*
D66*
X53505000Y-80825000D03*
X52245000Y-80825000D03*
X53505000Y-81325000D03*
X52245000Y-81325000D03*
D65*
X53750000Y-81787500D03*
X52000000Y-81787500D03*
D64*
X53562500Y-81975000D03*
X52187500Y-81975000D03*
D54*
X52650000Y-80175000D03*
X53100000Y-80175000D03*
D56*
X53100000Y-81975000D03*
X52650000Y-81975000D03*
%TD*%
D67*
%TO.C,D31*%
X64018000Y-84140000D03*
X63144000Y-84140000D03*
%TD*%
D11*
%TO.C,C40*%
X66940000Y-81310000D03*
X65980000Y-81310000D03*
%TD*%
D26*
%TO.C,C1309*%
X118870000Y-52500000D03*
X119830000Y-52500000D03*
%TD*%
D21*
%TO.C,R259*%
X67220000Y-72900000D03*
X68180000Y-72900000D03*
%TD*%
%TO.C,C119*%
X64820000Y-75500000D03*
X65780000Y-75500000D03*
%TD*%
D14*
%TO.C,SP8*%
X42450000Y-88450000D03*
D15*
X42450000Y-85050000D03*
D16*
X39050000Y-88450000D03*
D17*
X39050000Y-85050000D03*
%TD*%
D13*
%TO.C,C124*%
X71300000Y-76180000D03*
X71300000Y-75220000D03*
%TD*%
D21*
%TO.C,R258*%
X61320000Y-78950000D03*
X62280000Y-78950000D03*
%TD*%
D68*
%TO.C,C5*%
X61575000Y-92950000D03*
X63775000Y-92950000D03*
%TD*%
D11*
%TO.C,R218*%
X87080000Y-108200000D03*
X86120000Y-108200000D03*
%TD*%
D13*
%TO.C,R16*%
X111600000Y-90500000D03*
X111600000Y-89540000D03*
%TD*%
D21*
%TO.C,C116*%
X59420000Y-78950000D03*
X60380000Y-78950000D03*
%TD*%
D11*
%TO.C,C130*%
X140490000Y-126600000D03*
X139530000Y-126600000D03*
%TD*%
D69*
%TO.C,D23*%
X129301000Y-94500000D03*
X128601000Y-94500000D03*
%TD*%
D13*
%TO.C,C104*%
X87000000Y-110780000D03*
X87000000Y-109820000D03*
%TD*%
%TO.C,R164*%
X46300000Y-80580000D03*
X46300000Y-79620000D03*
%TD*%
D26*
%TO.C,C1308*%
X118870000Y-54000000D03*
X119830000Y-54000000D03*
%TD*%
D45*
%TO.C,Q18*%
X48525000Y-81051000D03*
X48525000Y-79151000D03*
X50725000Y-80100500D03*
%TD*%
D70*
%TO.C,R1305*%
X114050000Y-46660000D03*
X114050000Y-45640000D03*
%TD*%
M02*
