%TF.GenerationSoftware,KiCad,Pcbnew,10.0.6*%
%TF.CreationDate,2026-09-29T05:45:57-04:00*%
%TF.ProjectId,atlas_brain,61746c61-735f-4627-9261-696e2e6b6963,1.3.4*%
%TF.SameCoordinates,Original*%
%TF.FileFunction,Soldermask,Bot*%
%TF.FilePolarity,Negative*%
%FSLAX46Y46*%
G04 Gerber Fmt 4.6, Leading zero omitted, Abs format (unit mm)*
G04 Created by KiCad (PCBNEW 10.0.6) date 2026-09-29 05:45:57*
%MOMM*%
%LPD*%
G01*
G04 APERTURE LIST*
G04 Aperture macros list*
%AMRoundRect*
0 Rectangle with rounded corners*
0 $1 Rounding radius*
0 $2 $3 $4 $5 $6 $7 $8 $9 X,Y pos of 4 corners*
0 Add a 4 corners polygon primitive as box body*
4,1,4,$2,$3,$4,$5,$6,$7,$8,$9,$2,$3,0*
0 Add four circle primitives for the rounded corners*
1,1,$1+$1,$2,$3*
1,1,$1+$1,$4,$5*
1,1,$1+$1,$6,$7*
1,1,$1+$1,$8,$9*
0 Add four rect primitives between the rounded corners*
20,1,$1+$1,$2,$3,$4,$5,0*
20,1,$1+$1,$4,$5,$6,$7,0*
20,1,$1+$1,$6,$7,$8,$9,0*
20,1,$1+$1,$8,$9,$2,$3,0*%
%AMFreePoly0*
4,1,5,0.300000,-0.300000,-0.300000,-0.300000,-0.300000,0.300000,0.300000,0.300000,0.300000,-0.300000,0.300000,-0.300000,$1*%
G04 Aperture macros list end*
%ADD10C,0.001395*%
%ADD11C,3.250000*%
%ADD12C,1.397000*%
%ADD13C,1.524000*%
%ADD14C,2.100000*%
%ADD15C,2.108200*%
%ADD16C,6.000000*%
%ADD17C,1.150000*%
%ADD18C,1.650000*%
%ADD19C,0.800000*%
%ADD20C,6.400000*%
%ADD21C,1.100000*%
%ADD22C,1.600000*%
%ADD23C,2.000000*%
%ADD24RoundRect,0.090000X0.410000X0.210000X-0.410000X0.210000X-0.410000X-0.210000X0.410000X-0.210000X0*%
%ADD25C,0.750000*%
%ADD26RoundRect,0.147500X0.147500X0.172500X-0.147500X0.172500X-0.147500X-0.172500X0.147500X-0.172500X0*%
%ADD27RoundRect,0.200000X0.250000X-0.200000X0.250000X0.200000X-0.250000X0.200000X-0.250000X-0.200000X0*%
%ADD28RoundRect,0.147500X0.172500X-0.147500X0.172500X0.147500X-0.172500X0.147500X-0.172500X-0.147500X0*%
%ADD29RoundRect,0.075000X-0.075000X-0.175000X0.075000X-0.175000X0.075000X0.175000X-0.075000X0.175000X0*%
%ADD30RoundRect,0.160000X0.240000X0.340000X-0.240000X0.340000X-0.240000X-0.340000X0.240000X-0.340000X0*%
%ADD31RoundRect,0.160000X0.340000X-0.240000X0.340000X0.240000X-0.340000X0.240000X-0.340000X-0.240000X0*%
%ADD32RoundRect,0.147500X-0.147500X-0.172500X0.147500X-0.172500X0.147500X0.172500X-0.147500X0.172500X0*%
%ADD33RoundRect,0.147500X-0.172500X0.147500X-0.172500X-0.147500X0.172500X-0.147500X0.172500X0.147500X0*%
%ADD34RoundRect,0.140000X0.140000X0.170000X-0.140000X0.170000X-0.140000X-0.170000X0.140000X-0.170000X0*%
%ADD35RoundRect,0.250000X-0.450000X-0.350000X0.450000X-0.350000X0.450000X0.350000X-0.450000X0.350000X0*%
%ADD36R,0.550000X1.000000*%
%ADD37RoundRect,0.140000X-0.140000X-0.170000X0.140000X-0.170000X0.140000X0.170000X-0.140000X0.170000X0*%
%ADD38RoundRect,0.160000X-0.240000X-0.340000X0.240000X-0.340000X0.240000X0.340000X-0.240000X0.340000X0*%
%ADD39RoundRect,0.050000X-0.050000X-0.150000X0.050000X-0.150000X0.050000X0.150000X-0.050000X0.150000X0*%
%ADD40RoundRect,0.160000X-0.340000X0.240000X-0.340000X-0.240000X0.340000X-0.240000X0.340000X0.240000X0*%
%ADD41RoundRect,0.125000X-0.125000X-0.175000X0.125000X-0.175000X0.125000X0.175000X-0.125000X0.175000X0*%
%ADD42RoundRect,0.200000X-0.200000X-0.275000X0.200000X-0.275000X0.200000X0.275000X-0.200000X0.275000X0*%
%ADD43RoundRect,0.125000X0.175000X-0.125000X0.175000X0.125000X-0.175000X0.125000X-0.175000X-0.125000X0*%
%ADD44RoundRect,0.082500X-0.417500X0.192500X-0.417500X-0.192500X0.417500X-0.192500X0.417500X0.192500X0*%
%ADD45RoundRect,0.081250X-0.081250X0.118750X-0.081250X-0.118750X0.081250X-0.118750X0.081250X0.118750X0*%
%ADD46RoundRect,0.150000X-0.150000X-0.625000X0.150000X-0.625000X0.150000X0.625000X-0.150000X0.625000X0*%
%ADD47RoundRect,0.300000X0.300000X0.600000X-0.300000X0.600000X-0.300000X-0.600000X0.300000X-0.600000X0*%
%ADD48FreePoly0,90.000000*%
%ADD49R,0.600000X0.400000*%
%ADD50RoundRect,0.075000X-0.075000X0.225000X-0.075000X-0.225000X0.075000X-0.225000X0.075000X0.225000X0*%
%ADD51RoundRect,0.062500X-0.062500X0.237500X-0.062500X-0.237500X0.062500X-0.237500X0.062500X0.237500X0*%
%ADD52RoundRect,0.090000X-0.210000X0.410000X-0.210000X-0.410000X0.210000X-0.410000X0.210000X0.410000X0*%
%ADD53R,0.510000X0.400000*%
%ADD54R,0.400000X0.510000*%
%ADD55RoundRect,0.082500X0.317500X0.192500X-0.317500X0.192500X-0.317500X-0.192500X0.317500X-0.192500X0*%
%ADD56RoundRect,0.090000X-0.410000X-0.210000X0.410000X-0.210000X0.410000X0.210000X-0.410000X0.210000X0*%
%ADD57C,0.900000*%
%ADD58RoundRect,0.175000X-0.175000X-0.575000X0.175000X-0.575000X0.175000X0.575000X-0.175000X0.575000X0*%
%ADD59RoundRect,0.200000X-0.300000X-0.200000X0.300000X-0.200000X0.300000X0.200000X-0.300000X0.200000X0*%
%ADD60R,1.800000X0.750000*%
%ADD61RoundRect,0.082500X0.417500X-0.192500X0.417500X0.192500X-0.417500X0.192500X-0.417500X-0.192500X0*%
%ADD62RoundRect,0.135000X-0.135000X-0.185000X0.135000X-0.185000X0.135000X0.185000X-0.135000X0.185000X0*%
%ADD63RoundRect,0.081250X0.081250X-0.118750X0.081250X0.118750X-0.081250X0.118750X-0.081250X-0.118750X0*%
%ADD64R,1.550000X0.300000*%
%ADD65R,2.750000X1.200000*%
%ADD66RoundRect,0.050000X-0.075000X0.250000X-0.075000X-0.250000X0.075000X-0.250000X0.075000X0.250000X0*%
%ADD67RoundRect,0.050000X0.250000X0.075000X-0.250000X0.075000X-0.250000X-0.075000X0.250000X-0.075000X0*%
%ADD68RoundRect,0.050000X0.075000X-0.250000X0.075000X0.250000X-0.075000X0.250000X-0.075000X-0.250000X0*%
%ADD69RoundRect,0.050000X-0.250000X-0.075000X0.250000X-0.075000X0.250000X0.075000X-0.250000X0.075000X0*%
%ADD70RoundRect,0.050000X-0.790000X0.790000X-0.790000X-0.790000X0.790000X-0.790000X0.790000X0.790000X0*%
%ADD71R,0.650000X0.350000*%
%ADD72R,1.000000X1.600000*%
%ADD73RoundRect,0.100000X-0.125000X-0.100000X0.125000X-0.100000X0.125000X0.100000X-0.125000X0.100000X0*%
%ADD74RoundRect,0.112000X-0.448000X-0.748000X0.448000X-0.748000X0.448000X0.748000X-0.448000X0.748000X0*%
%ADD75RoundRect,0.050000X0.050000X0.150000X-0.050000X0.150000X-0.050000X-0.150000X0.050000X-0.150000X0*%
%ADD76RoundRect,0.050000X-0.100000X0.250000X-0.100000X-0.250000X0.100000X-0.250000X0.100000X0.250000X0*%
%ADD77RoundRect,0.050000X0.275000X-0.075000X0.275000X0.075000X-0.275000X0.075000X-0.275000X-0.075000X0*%
%ADD78RoundRect,0.075000X-1.125000X0.075000X-1.125000X-0.075000X1.125000X-0.075000X1.125000X0.075000X0*%
%ADD79RoundRect,0.050000X0.100000X-0.250000X0.100000X0.250000X-0.100000X0.250000X-0.100000X-0.250000X0*%
%ADD80RoundRect,0.081250X0.118750X0.081250X-0.118750X0.081250X-0.118750X-0.081250X0.118750X-0.081250X0*%
%ADD81R,1.700000X1.700000*%
%ADD82C,1.700000*%
%ADD83RoundRect,0.300000X-0.300000X-0.350000X0.300000X-0.350000X0.300000X0.350000X-0.300000X0.350000X0*%
%ADD84RoundRect,0.075000X0.075000X0.175000X-0.075000X0.175000X-0.075000X-0.175000X0.075000X-0.175000X0*%
%ADD85RoundRect,0.135000X0.185000X-0.135000X0.185000X0.135000X-0.185000X0.135000X-0.185000X-0.135000X0*%
G04 APERTURE END LIST*
D10*
%TO.C,REF\u002A\u002A*%
X117493500Y-111749000D02*
X117776500Y-111749000D01*
X117776500Y-110071000D01*
X117493500Y-110071000D01*
X117493500Y-111749000D01*
G36*
X117776500Y-111749000D02*
G01*
X117493500Y-111749000D01*
X117493500Y-110071000D01*
X117776500Y-110071000D01*
X117776500Y-111749000D01*
G37*
X115279500Y-110049000D02*
X115258500Y-110052000D01*
X115250500Y-110057000D01*
X115248500Y-110059000D01*
X115253500Y-110077000D01*
X115261500Y-110111000D01*
X115274500Y-110155000D01*
X115280500Y-110173000D01*
X115296500Y-110222000D01*
X115308500Y-110251000D01*
X115319500Y-110265000D01*
X115330500Y-110267000D01*
X115332500Y-110267000D01*
X115405500Y-110251000D01*
X115487500Y-110246000D01*
X115569500Y-110251000D01*
X115639500Y-110266000D01*
X115654500Y-110271000D01*
X115686500Y-110283000D01*
X115686500Y-111749000D01*
X115970500Y-111749000D01*
X115970500Y-110157000D01*
X115883500Y-110126000D01*
X115809500Y-110101000D01*
X115742500Y-110083000D01*
X115673500Y-110068000D01*
X115599500Y-110059000D01*
X115511500Y-110053000D01*
X115447500Y-110051000D01*
X115370500Y-110048000D01*
X115316500Y-110048000D01*
X115279500Y-110049000D01*
G36*
X115447500Y-110051000D02*
G01*
X115511500Y-110053000D01*
X115599500Y-110059000D01*
X115673500Y-110068000D01*
X115742500Y-110083000D01*
X115809500Y-110101000D01*
X115883500Y-110126000D01*
X115970500Y-110157000D01*
X115970500Y-111749000D01*
X115686500Y-111749000D01*
X115686500Y-110283000D01*
X115654500Y-110271000D01*
X115639500Y-110266000D01*
X115569500Y-110251000D01*
X115487500Y-110246000D01*
X115405500Y-110251000D01*
X115332500Y-110267000D01*
X115330500Y-110267000D01*
X115319500Y-110265000D01*
X115308500Y-110251000D01*
X115296500Y-110222000D01*
X115280500Y-110173000D01*
X115274500Y-110155000D01*
X115261500Y-110111000D01*
X115253500Y-110077000D01*
X115248500Y-110059000D01*
X115250500Y-110057000D01*
X115258500Y-110052000D01*
X115279500Y-110049000D01*
X115316500Y-110048000D01*
X115370500Y-110048000D01*
X115447500Y-110051000D01*
G37*
X120806500Y-109622000D02*
X120804500Y-109654000D01*
X120802500Y-109701000D01*
X120801500Y-109761000D01*
X120801500Y-109832000D01*
X120801500Y-109841000D01*
X120801500Y-110071000D01*
X120517500Y-110071000D01*
X120517500Y-110261000D01*
X120801500Y-110261000D01*
X120801500Y-111413000D01*
X120774500Y-111464000D01*
X120739500Y-111514000D01*
X120695500Y-111543000D01*
X120637500Y-111556000D01*
X120591500Y-111557000D01*
X120517500Y-111553000D01*
X120517500Y-111645000D01*
X120519500Y-111700000D01*
X120525500Y-111734000D01*
X120532500Y-111745000D01*
X120548500Y-111749000D01*
X120585500Y-111753000D01*
X120632500Y-111756000D01*
X120665500Y-111758000D01*
X120729500Y-111758000D01*
X120777500Y-111755000D01*
X120818500Y-111747000D01*
X120845500Y-111739000D01*
X120916500Y-111704000D01*
X120974500Y-111658000D01*
X121021500Y-111592000D01*
X121036500Y-111565000D01*
X121078500Y-111486000D01*
X121081500Y-110872000D01*
X121085500Y-110261000D01*
X121273500Y-110261000D01*
X121273500Y-110071000D01*
X121084500Y-110071000D01*
X121084500Y-109695000D01*
X120949500Y-109652000D01*
X120897500Y-109636000D01*
X120852500Y-109622000D01*
X120822500Y-109614000D01*
X120808500Y-109610000D01*
X120806500Y-109622000D01*
G36*
X120822500Y-109614000D02*
G01*
X120852500Y-109622000D01*
X120897500Y-109636000D01*
X120949500Y-109652000D01*
X121084500Y-109695000D01*
X121084500Y-110071000D01*
X121273500Y-110071000D01*
X121273500Y-110261000D01*
X121085500Y-110261000D01*
X121081500Y-110872000D01*
X121078500Y-111486000D01*
X121036500Y-111565000D01*
X121021500Y-111592000D01*
X120974500Y-111658000D01*
X120916500Y-111704000D01*
X120845500Y-111739000D01*
X120818500Y-111747000D01*
X120777500Y-111755000D01*
X120729500Y-111758000D01*
X120665500Y-111758000D01*
X120632500Y-111756000D01*
X120585500Y-111753000D01*
X120548500Y-111749000D01*
X120532500Y-111745000D01*
X120525500Y-111734000D01*
X120519500Y-111700000D01*
X120517500Y-111645000D01*
X120517500Y-111553000D01*
X120591500Y-111557000D01*
X120637500Y-111556000D01*
X120695500Y-111543000D01*
X120739500Y-111514000D01*
X120774500Y-111464000D01*
X120801500Y-111413000D01*
X120801500Y-110261000D01*
X120517500Y-110261000D01*
X120517500Y-110071000D01*
X120801500Y-110071000D01*
X120801500Y-109841000D01*
X120801500Y-109832000D01*
X120801500Y-109761000D01*
X120802500Y-109701000D01*
X120804500Y-109654000D01*
X120806500Y-109622000D01*
X120808500Y-109610000D01*
X120822500Y-109614000D01*
G37*
X122017500Y-110054000D02*
X121954500Y-110055000D01*
X121906500Y-110058000D01*
X121868500Y-110064000D01*
X121834500Y-110071000D01*
X121822500Y-110076000D01*
X121715500Y-110117000D01*
X121629500Y-110167000D01*
X121561500Y-110229000D01*
X121517500Y-110292000D01*
X121504500Y-110319000D01*
X121492500Y-110345000D01*
X121482500Y-110371000D01*
X121473500Y-110399000D01*
X121467500Y-110431000D01*
X121460500Y-110472000D01*
X121456500Y-110520000D01*
X121453500Y-110580000D01*
X121451500Y-110655000D01*
X121450500Y-110742000D01*
X121449500Y-110849000D01*
X121449500Y-110974000D01*
X121449500Y-111119000D01*
X121449500Y-111749000D01*
X121734500Y-111749000D01*
X121734500Y-111124000D01*
X121734500Y-110978000D01*
X121734500Y-110853000D01*
X121735500Y-110747000D01*
X121736500Y-110660000D01*
X121738500Y-110587000D01*
X121741500Y-110529000D01*
X121746500Y-110482000D01*
X121751500Y-110444000D01*
X121758500Y-110415000D01*
X121766500Y-110393000D01*
X121777500Y-110373000D01*
X121790500Y-110356000D01*
X121805500Y-110338000D01*
X121806500Y-110337000D01*
X121856500Y-110292000D01*
X121914500Y-110262000D01*
X121991500Y-110241000D01*
X122019500Y-110237000D01*
X122097500Y-110232000D01*
X122186500Y-110236000D01*
X122271500Y-110249000D01*
X122332500Y-110265000D01*
X122376500Y-110281000D01*
X122380500Y-111014000D01*
X122382500Y-111749000D01*
X122666500Y-111749000D01*
X122666500Y-110157000D01*
X122557500Y-110122000D01*
X122481500Y-110098000D01*
X122418500Y-110080000D01*
X122358500Y-110067000D01*
X122299500Y-110059000D01*
X122231500Y-110055000D01*
X122148500Y-110053000D01*
X122099500Y-110053000D01*
X122017500Y-110054000D01*
G36*
X122231500Y-110055000D02*
G01*
X122299500Y-110059000D01*
X122358500Y-110067000D01*
X122418500Y-110080000D01*
X122481500Y-110098000D01*
X122557500Y-110122000D01*
X122666500Y-110157000D01*
X122666500Y-111749000D01*
X122382500Y-111749000D01*
X122380500Y-111014000D01*
X122376500Y-110281000D01*
X122332500Y-110265000D01*
X122271500Y-110249000D01*
X122186500Y-110236000D01*
X122097500Y-110232000D01*
X122019500Y-110237000D01*
X121991500Y-110241000D01*
X121914500Y-110262000D01*
X121856500Y-110292000D01*
X121806500Y-110337000D01*
X121805500Y-110338000D01*
X121790500Y-110356000D01*
X121777500Y-110373000D01*
X121766500Y-110393000D01*
X121758500Y-110415000D01*
X121751500Y-110444000D01*
X121746500Y-110482000D01*
X121741500Y-110529000D01*
X121738500Y-110587000D01*
X121736500Y-110660000D01*
X121735500Y-110747000D01*
X121734500Y-110853000D01*
X121734500Y-110978000D01*
X121734500Y-111124000D01*
X121734500Y-111749000D01*
X121449500Y-111749000D01*
X121449500Y-111119000D01*
X121449500Y-110974000D01*
X121449500Y-110849000D01*
X121450500Y-110742000D01*
X121451500Y-110655000D01*
X121453500Y-110580000D01*
X121456500Y-110520000D01*
X121460500Y-110472000D01*
X121467500Y-110431000D01*
X121473500Y-110399000D01*
X121482500Y-110371000D01*
X121492500Y-110345000D01*
X121504500Y-110319000D01*
X121517500Y-110292000D01*
X121561500Y-110229000D01*
X121629500Y-110167000D01*
X121715500Y-110117000D01*
X121822500Y-110076000D01*
X121834500Y-110071000D01*
X121868500Y-110064000D01*
X121906500Y-110058000D01*
X121954500Y-110055000D01*
X122017500Y-110054000D01*
X122099500Y-110053000D01*
X122148500Y-110053000D01*
X122231500Y-110055000D01*
G37*
X118585500Y-110056000D02*
X118469500Y-110082000D01*
X118371500Y-110124000D01*
X118288500Y-110180000D01*
X118222500Y-110255000D01*
X118191500Y-110307000D01*
X118178500Y-110333000D01*
X118167500Y-110358000D01*
X118159500Y-110384000D01*
X118151500Y-110412000D01*
X118146500Y-110447000D01*
X118141500Y-110490000D01*
X118137500Y-110542000D01*
X118135500Y-110605000D01*
X118133500Y-110682000D01*
X118131500Y-110774000D01*
X118130500Y-110885000D01*
X118130500Y-111017000D01*
X118130500Y-111123000D01*
X118130500Y-111749000D01*
X118413500Y-111749000D01*
X118417500Y-111095000D01*
X118421500Y-110443000D01*
X118454500Y-110382000D01*
X118501500Y-110319000D01*
X118562500Y-110274000D01*
X118634500Y-110244000D01*
X118712500Y-110232000D01*
X118796500Y-110236000D01*
X118877500Y-110257000D01*
X118957500Y-110294000D01*
X119013500Y-110337000D01*
X119064500Y-110381000D01*
X119064500Y-111749000D01*
X119348500Y-111749000D01*
X119348500Y-111110000D01*
X119348500Y-110949000D01*
X119348500Y-110812000D01*
X119350500Y-110695000D01*
X119350500Y-110602000D01*
X119352500Y-110528000D01*
X119356500Y-110474000D01*
X119358500Y-110438000D01*
X119360500Y-110424000D01*
X119392500Y-110358000D01*
X119443500Y-110304000D01*
X119509500Y-110265000D01*
X119592500Y-110241000D01*
X119689500Y-110231000D01*
X119787500Y-110236000D01*
X119840500Y-110243000D01*
X119878500Y-110249000D01*
X119910500Y-110256000D01*
X119944500Y-110267000D01*
X119965500Y-110275000D01*
X119997500Y-110286000D01*
X119997500Y-111749000D01*
X120268500Y-111749000D01*
X120268500Y-110156000D01*
X120156500Y-110119000D01*
X120029500Y-110084000D01*
X119910500Y-110060000D01*
X119791500Y-110050000D01*
X119666500Y-110050000D01*
X119567500Y-110056000D01*
X119485500Y-110067000D01*
X119415500Y-110086000D01*
X119354500Y-110113000D01*
X119295500Y-110149000D01*
X119269500Y-110166000D01*
X119193500Y-110226000D01*
X119142500Y-110184000D01*
X119048500Y-110122000D01*
X118940500Y-110079000D01*
X118820500Y-110053000D01*
X118715500Y-110048000D01*
X118585500Y-110056000D01*
G36*
X118820500Y-110053000D02*
G01*
X118940500Y-110079000D01*
X119048500Y-110122000D01*
X119142500Y-110184000D01*
X119193500Y-110226000D01*
X119269500Y-110166000D01*
X119295500Y-110149000D01*
X119354500Y-110113000D01*
X119415500Y-110086000D01*
X119485500Y-110067000D01*
X119567500Y-110056000D01*
X119666500Y-110050000D01*
X119791500Y-110050000D01*
X119910500Y-110060000D01*
X120029500Y-110084000D01*
X120156500Y-110119000D01*
X120268500Y-110156000D01*
X120268500Y-111749000D01*
X119997500Y-111749000D01*
X119997500Y-110286000D01*
X119965500Y-110275000D01*
X119944500Y-110267000D01*
X119910500Y-110256000D01*
X119878500Y-110249000D01*
X119840500Y-110243000D01*
X119787500Y-110236000D01*
X119689500Y-110231000D01*
X119592500Y-110241000D01*
X119509500Y-110265000D01*
X119443500Y-110304000D01*
X119392500Y-110358000D01*
X119360500Y-110424000D01*
X119358500Y-110438000D01*
X119356500Y-110474000D01*
X119352500Y-110528000D01*
X119350500Y-110602000D01*
X119350500Y-110695000D01*
X119348500Y-110812000D01*
X119348500Y-110949000D01*
X119348500Y-111110000D01*
X119348500Y-111749000D01*
X119064500Y-111749000D01*
X119064500Y-110381000D01*
X119013500Y-110337000D01*
X118957500Y-110294000D01*
X118877500Y-110257000D01*
X118796500Y-110236000D01*
X118712500Y-110232000D01*
X118634500Y-110244000D01*
X118562500Y-110274000D01*
X118501500Y-110319000D01*
X118454500Y-110382000D01*
X118421500Y-110443000D01*
X118417500Y-111095000D01*
X118413500Y-111749000D01*
X118130500Y-111749000D01*
X118130500Y-111123000D01*
X118130500Y-111017000D01*
X118130500Y-110885000D01*
X118131500Y-110774000D01*
X118133500Y-110682000D01*
X118135500Y-110605000D01*
X118137500Y-110542000D01*
X118141500Y-110490000D01*
X118146500Y-110447000D01*
X118151500Y-110412000D01*
X118159500Y-110384000D01*
X118167500Y-110358000D01*
X118178500Y-110333000D01*
X118191500Y-110307000D01*
X118222500Y-110255000D01*
X118288500Y-110180000D01*
X118371500Y-110124000D01*
X118469500Y-110082000D01*
X118585500Y-110056000D01*
X118715500Y-110048000D01*
X118820500Y-110053000D01*
G37*
X114444500Y-110055000D02*
X114338500Y-110080000D01*
X114245500Y-110122000D01*
X114160500Y-110180000D01*
X114120500Y-110218000D01*
X114047500Y-110308000D01*
X113987500Y-110416000D01*
X113942500Y-110541000D01*
X113914500Y-110683000D01*
X113904500Y-110774000D01*
X113899500Y-110940000D01*
X113907500Y-111094000D01*
X113933500Y-111237000D01*
X113971500Y-111366000D01*
X114024500Y-111478000D01*
X114091500Y-111575000D01*
X114170500Y-111655000D01*
X114218500Y-111690000D01*
X114296500Y-111728000D01*
X114389500Y-111758000D01*
X114487500Y-111775000D01*
X114588500Y-111780000D01*
X114678500Y-111772000D01*
X114795500Y-111740000D01*
X114897500Y-111688000D01*
X114987500Y-111619000D01*
X115063500Y-111530000D01*
X115123500Y-111424000D01*
X115170500Y-111300000D01*
X115195500Y-111191000D01*
X115216500Y-111031000D01*
X115220500Y-110903000D01*
X114938500Y-110903000D01*
X114933500Y-111036000D01*
X114917500Y-111163000D01*
X114891500Y-111278000D01*
X114854500Y-111377000D01*
X114809500Y-111454000D01*
X114750500Y-111516000D01*
X114681500Y-111557000D01*
X114607500Y-111580000D01*
X114530500Y-111583000D01*
X114450500Y-111564000D01*
X114425500Y-111552000D01*
X114359500Y-111510000D01*
X114304500Y-111449000D01*
X114260500Y-111373000D01*
X114226500Y-111276000D01*
X114200500Y-111161000D01*
X114187500Y-111040000D01*
X114181500Y-110892000D01*
X114187500Y-110754000D01*
X114205500Y-110627000D01*
X114234500Y-110516000D01*
X114274500Y-110421000D01*
X114324500Y-110345000D01*
X114354500Y-110311000D01*
X114422500Y-110264000D01*
X114495500Y-110238000D01*
X114571500Y-110231000D01*
X114646500Y-110244000D01*
X114716500Y-110276000D01*
X114779500Y-110325000D01*
X114832500Y-110393000D01*
X114853500Y-110430000D01*
X114889500Y-110530000D01*
X114917500Y-110645000D01*
X114933500Y-110771000D01*
X114938500Y-110903000D01*
X115220500Y-110903000D01*
X115221500Y-110877000D01*
X115210500Y-110728000D01*
X115187500Y-110589000D01*
X115147500Y-110462000D01*
X115095500Y-110349000D01*
X115029500Y-110252000D01*
X115010500Y-110230000D01*
X114925500Y-110154000D01*
X114829500Y-110099000D01*
X114721500Y-110063000D01*
X114601500Y-110048000D01*
X114564500Y-110047000D01*
X114444500Y-110055000D01*
G36*
X115216500Y-111031000D02*
G01*
X115195500Y-111191000D01*
X115170500Y-111300000D01*
X115123500Y-111424000D01*
X115063500Y-111530000D01*
X114987500Y-111619000D01*
X114897500Y-111688000D01*
X114795500Y-111740000D01*
X114678500Y-111772000D01*
X114588500Y-111780000D01*
X114487500Y-111775000D01*
X114389500Y-111758000D01*
X114296500Y-111728000D01*
X114218500Y-111690000D01*
X114170500Y-111655000D01*
X114091500Y-111575000D01*
X114024500Y-111478000D01*
X113971500Y-111366000D01*
X113933500Y-111237000D01*
X113907500Y-111094000D01*
X113899500Y-110940000D01*
X113900946Y-110892000D01*
X114181500Y-110892000D01*
X114187500Y-111040000D01*
X114200500Y-111161000D01*
X114226500Y-111276000D01*
X114260500Y-111373000D01*
X114304500Y-111449000D01*
X114359500Y-111510000D01*
X114425500Y-111552000D01*
X114450500Y-111564000D01*
X114530500Y-111583000D01*
X114607500Y-111580000D01*
X114681500Y-111557000D01*
X114750500Y-111516000D01*
X114809500Y-111454000D01*
X114854500Y-111377000D01*
X114891500Y-111278000D01*
X114917500Y-111163000D01*
X114933500Y-111036000D01*
X114938500Y-110903000D01*
X114933500Y-110771000D01*
X114917500Y-110645000D01*
X114889500Y-110530000D01*
X114853500Y-110430000D01*
X114832500Y-110393000D01*
X114779500Y-110325000D01*
X114716500Y-110276000D01*
X114646500Y-110244000D01*
X114571500Y-110231000D01*
X114495500Y-110238000D01*
X114422500Y-110264000D01*
X114354500Y-110311000D01*
X114324500Y-110345000D01*
X114274500Y-110421000D01*
X114234500Y-110516000D01*
X114205500Y-110627000D01*
X114187500Y-110754000D01*
X114181500Y-110892000D01*
X113900946Y-110892000D01*
X113904500Y-110774000D01*
X113914500Y-110683000D01*
X113942500Y-110541000D01*
X113987500Y-110416000D01*
X114047500Y-110308000D01*
X114120500Y-110218000D01*
X114160500Y-110180000D01*
X114245500Y-110122000D01*
X114338500Y-110080000D01*
X114444500Y-110055000D01*
X114564500Y-110047000D01*
X114601500Y-110048000D01*
X114721500Y-110063000D01*
X114829500Y-110099000D01*
X114925500Y-110154000D01*
X115010500Y-110230000D01*
X115029500Y-110252000D01*
X115095500Y-110349000D01*
X115147500Y-110462000D01*
X115187500Y-110589000D01*
X115210500Y-110728000D01*
X115221500Y-110877000D01*
X115220500Y-110903000D01*
X115216500Y-111031000D01*
G37*
X116542500Y-110049000D02*
X116465500Y-110057000D01*
X116421500Y-110065000D01*
X116377500Y-110079000D01*
X116328500Y-110096000D01*
X116284500Y-110116000D01*
X116248500Y-110134000D01*
X116226500Y-110149000D01*
X116226500Y-110151000D01*
X116226500Y-110165000D01*
X116236500Y-110194000D01*
X116248500Y-110231000D01*
X116264500Y-110268000D01*
X116277500Y-110298000D01*
X116288500Y-110315000D01*
X116290500Y-110317000D01*
X116306500Y-110313000D01*
X116335500Y-110301000D01*
X116364500Y-110288000D01*
X116455500Y-110258000D01*
X116543500Y-110246000D01*
X116628500Y-110253000D01*
X116702500Y-110279000D01*
X116764500Y-110322000D01*
X116820500Y-110388000D01*
X116870500Y-110471000D01*
X116912500Y-110568000D01*
X116929500Y-110625000D01*
X116942500Y-110694000D01*
X116952500Y-110781000D01*
X116956500Y-110875000D01*
X116954500Y-110972000D01*
X116949500Y-111063000D01*
X116937500Y-111143000D01*
X116929500Y-111183000D01*
X116889500Y-111301000D01*
X116838500Y-111396000D01*
X116777500Y-111472000D01*
X116705500Y-111528000D01*
X116700500Y-111531000D01*
X116663500Y-111548000D01*
X116633500Y-111559000D01*
X116596500Y-111563000D01*
X116545500Y-111564000D01*
X116543500Y-111564000D01*
X116489500Y-111562000D01*
X116442500Y-111554000D01*
X116394500Y-111538000D01*
X116340500Y-111514000D01*
X116298500Y-111492000D01*
X116293500Y-111495000D01*
X116285500Y-111511000D01*
X116271500Y-111540000D01*
X116250500Y-111587000D01*
X116224500Y-111655000D01*
X116221500Y-111660000D01*
X116229500Y-111673000D01*
X116253500Y-111691000D01*
X116288500Y-111711000D01*
X116333500Y-111731000D01*
X116380500Y-111749000D01*
X116391500Y-111753000D01*
X116455500Y-111767000D01*
X116532500Y-111775000D01*
X116612500Y-111779000D01*
X116684500Y-111776000D01*
X116713500Y-111772000D01*
X116758500Y-111761000D01*
X116811500Y-111742000D01*
X116862500Y-111719000D01*
X116960500Y-111658000D01*
X117044500Y-111578000D01*
X117115500Y-111479000D01*
X117171500Y-111364000D01*
X117214500Y-111229000D01*
X117227500Y-111164000D01*
X117238500Y-111087000D01*
X117244500Y-110995000D01*
X117244500Y-110896000D01*
X117240500Y-110795000D01*
X117232500Y-110700000D01*
X117220500Y-110618000D01*
X117211500Y-110573000D01*
X117165500Y-110442000D01*
X117103500Y-110328000D01*
X117030500Y-110233000D01*
X116942500Y-110155000D01*
X116841500Y-110097000D01*
X116761500Y-110066000D01*
X116700500Y-110054000D01*
X116623500Y-110048000D01*
X116542500Y-110049000D01*
G36*
X116700500Y-110054000D02*
G01*
X116761500Y-110066000D01*
X116841500Y-110097000D01*
X116942500Y-110155000D01*
X117030500Y-110233000D01*
X117103500Y-110328000D01*
X117165500Y-110442000D01*
X117211500Y-110573000D01*
X117220500Y-110618000D01*
X117232500Y-110700000D01*
X117240500Y-110795000D01*
X117244500Y-110896000D01*
X117244500Y-110995000D01*
X117238500Y-111087000D01*
X117227500Y-111164000D01*
X117214500Y-111229000D01*
X117171500Y-111364000D01*
X117115500Y-111479000D01*
X117044500Y-111578000D01*
X116960500Y-111658000D01*
X116862500Y-111719000D01*
X116811500Y-111742000D01*
X116758500Y-111761000D01*
X116713500Y-111772000D01*
X116684500Y-111776000D01*
X116612500Y-111779000D01*
X116532500Y-111775000D01*
X116455500Y-111767000D01*
X116391500Y-111753000D01*
X116380500Y-111749000D01*
X116333500Y-111731000D01*
X116288500Y-111711000D01*
X116253500Y-111691000D01*
X116229500Y-111673000D01*
X116221500Y-111660000D01*
X116224500Y-111655000D01*
X116250500Y-111587000D01*
X116271500Y-111540000D01*
X116285500Y-111511000D01*
X116293500Y-111495000D01*
X116298500Y-111492000D01*
X116340500Y-111514000D01*
X116394500Y-111538000D01*
X116442500Y-111554000D01*
X116489500Y-111562000D01*
X116543500Y-111564000D01*
X116545500Y-111564000D01*
X116596500Y-111563000D01*
X116633500Y-111559000D01*
X116663500Y-111548000D01*
X116700500Y-111531000D01*
X116705500Y-111528000D01*
X116777500Y-111472000D01*
X116838500Y-111396000D01*
X116889500Y-111301000D01*
X116929500Y-111183000D01*
X116937500Y-111143000D01*
X116949500Y-111063000D01*
X116954500Y-110972000D01*
X116956500Y-110875000D01*
X116952500Y-110781000D01*
X116942500Y-110694000D01*
X116929500Y-110625000D01*
X116912500Y-110568000D01*
X116870500Y-110471000D01*
X116820500Y-110388000D01*
X116764500Y-110322000D01*
X116702500Y-110279000D01*
X116628500Y-110253000D01*
X116543500Y-110246000D01*
X116455500Y-110258000D01*
X116364500Y-110288000D01*
X116335500Y-110301000D01*
X116306500Y-110313000D01*
X116290500Y-110317000D01*
X116288500Y-110315000D01*
X116277500Y-110298000D01*
X116264500Y-110268000D01*
X116248500Y-110231000D01*
X116236500Y-110194000D01*
X116226500Y-110165000D01*
X116226500Y-110151000D01*
X116226500Y-110149000D01*
X116248500Y-110134000D01*
X116284500Y-110116000D01*
X116328500Y-110096000D01*
X116377500Y-110079000D01*
X116421500Y-110065000D01*
X116465500Y-110057000D01*
X116542500Y-110049000D01*
X116623500Y-110048000D01*
X116700500Y-110054000D01*
G37*
X123474500Y-110055000D02*
X123400500Y-110069000D01*
X123315500Y-110096000D01*
X123246500Y-110128000D01*
X123186500Y-110170000D01*
X123158500Y-110197000D01*
X123114500Y-110251000D01*
X123077500Y-110319000D01*
X123046500Y-110395000D01*
X123033500Y-110447000D01*
X123029500Y-110475000D01*
X123028500Y-110523000D01*
X123025500Y-110591000D01*
X123024500Y-110677000D01*
X123022500Y-110777000D01*
X123021500Y-110893000D01*
X123021500Y-111020000D01*
X123021500Y-111088000D01*
X123021500Y-111664000D01*
X123075500Y-111689000D01*
X123174500Y-111724000D01*
X123290500Y-111753000D01*
X123413500Y-111771000D01*
X123540500Y-111780000D01*
X123661500Y-111778000D01*
X123724500Y-111772000D01*
X123849500Y-111747000D01*
X123956500Y-111706000D01*
X124045500Y-111653000D01*
X124115500Y-111584000D01*
X124166500Y-111502000D01*
X124198500Y-111405000D01*
X124211500Y-111296000D01*
X124211500Y-111241000D01*
X124210500Y-111231000D01*
X123940500Y-111231000D01*
X123936500Y-111328000D01*
X123916500Y-111412000D01*
X123875500Y-111484000D01*
X123818500Y-111538000D01*
X123742500Y-111579000D01*
X123706500Y-111591000D01*
X123659500Y-111599000D01*
X123597500Y-111602000D01*
X123528500Y-111602000D01*
X123457500Y-111598000D01*
X123393500Y-111590000D01*
X123343500Y-111579000D01*
X123336500Y-111577000D01*
X123280500Y-111557000D01*
X123280500Y-110814000D01*
X123348500Y-110822000D01*
X123392500Y-110829000D01*
X123448500Y-110839000D01*
X123506500Y-110853000D01*
X123525500Y-110857000D01*
X123646500Y-110895000D01*
X123746500Y-110941000D01*
X123823500Y-110996000D01*
X123881500Y-111059000D01*
X123920500Y-111134000D01*
X123939500Y-111218000D01*
X123940500Y-111231000D01*
X124210500Y-111231000D01*
X124195500Y-111135000D01*
X124161500Y-111040000D01*
X124103500Y-110956000D01*
X124072500Y-110921000D01*
X124000500Y-110866000D01*
X123909500Y-110814000D01*
X123800500Y-110767000D01*
X123678500Y-110728000D01*
X123544500Y-110695000D01*
X123401500Y-110673000D01*
X123400500Y-110673000D01*
X123278500Y-110658000D01*
X123284500Y-110558000D01*
X123298500Y-110463000D01*
X123325500Y-110387000D01*
X123367500Y-110328000D01*
X123424500Y-110285000D01*
X123500500Y-110257000D01*
X123536500Y-110249000D01*
X123633500Y-110240000D01*
X123742500Y-110248000D01*
X123856500Y-110272000D01*
X123972500Y-110310000D01*
X123981500Y-110315000D01*
X124017500Y-110329000D01*
X124045500Y-110339000D01*
X124054500Y-110340000D01*
X124061500Y-110327000D01*
X124073500Y-110299000D01*
X124086500Y-110264000D01*
X124101500Y-110226000D01*
X124111500Y-110193000D01*
X124118500Y-110173000D01*
X124118500Y-110170000D01*
X124109500Y-110163000D01*
X124083500Y-110150000D01*
X124054500Y-110136000D01*
X123948500Y-110098000D01*
X123831500Y-110069000D01*
X123708500Y-110053000D01*
X123587500Y-110048000D01*
X123474500Y-110055000D01*
G36*
X124211500Y-111241000D02*
G01*
X124211500Y-111296000D01*
X124198500Y-111405000D01*
X124166500Y-111502000D01*
X124115500Y-111584000D01*
X124045500Y-111653000D01*
X123956500Y-111706000D01*
X123849500Y-111747000D01*
X123724500Y-111772000D01*
X123661500Y-111778000D01*
X123540500Y-111780000D01*
X123413500Y-111771000D01*
X123290500Y-111753000D01*
X123174500Y-111724000D01*
X123075500Y-111689000D01*
X123021500Y-111664000D01*
X123021500Y-111088000D01*
X123021500Y-111020000D01*
X123021500Y-110893000D01*
X123022181Y-110814000D01*
X123280500Y-110814000D01*
X123280500Y-111557000D01*
X123336500Y-111577000D01*
X123343500Y-111579000D01*
X123393500Y-111590000D01*
X123457500Y-111598000D01*
X123528500Y-111602000D01*
X123597500Y-111602000D01*
X123659500Y-111599000D01*
X123706500Y-111591000D01*
X123742500Y-111579000D01*
X123818500Y-111538000D01*
X123875500Y-111484000D01*
X123916500Y-111412000D01*
X123936500Y-111328000D01*
X123940500Y-111231000D01*
X123939500Y-111218000D01*
X123920500Y-111134000D01*
X123881500Y-111059000D01*
X123823500Y-110996000D01*
X123746500Y-110941000D01*
X123646500Y-110895000D01*
X123525500Y-110857000D01*
X123506500Y-110853000D01*
X123448500Y-110839000D01*
X123392500Y-110829000D01*
X123348500Y-110822000D01*
X123280500Y-110814000D01*
X123022181Y-110814000D01*
X123022500Y-110777000D01*
X123024500Y-110677000D01*
X123025500Y-110591000D01*
X123028500Y-110523000D01*
X123029500Y-110475000D01*
X123033500Y-110447000D01*
X123046500Y-110395000D01*
X123077500Y-110319000D01*
X123114500Y-110251000D01*
X123158500Y-110197000D01*
X123186500Y-110170000D01*
X123246500Y-110128000D01*
X123315500Y-110096000D01*
X123400500Y-110069000D01*
X123474500Y-110055000D01*
X123587500Y-110048000D01*
X123708500Y-110053000D01*
X123831500Y-110069000D01*
X123948500Y-110098000D01*
X124054500Y-110136000D01*
X124083500Y-110150000D01*
X124109500Y-110163000D01*
X124118500Y-110170000D01*
X124118500Y-110173000D01*
X124111500Y-110193000D01*
X124101500Y-110226000D01*
X124086500Y-110264000D01*
X124073500Y-110299000D01*
X124061500Y-110327000D01*
X124054500Y-110340000D01*
X124045500Y-110339000D01*
X124017500Y-110329000D01*
X123981500Y-110315000D01*
X123972500Y-110310000D01*
X123856500Y-110272000D01*
X123742500Y-110248000D01*
X123633500Y-110240000D01*
X123536500Y-110249000D01*
X123500500Y-110257000D01*
X123424500Y-110285000D01*
X123367500Y-110328000D01*
X123325500Y-110387000D01*
X123298500Y-110463000D01*
X123284500Y-110558000D01*
X123278500Y-110658000D01*
X123400500Y-110673000D01*
X123401500Y-110673000D01*
X123544500Y-110695000D01*
X123678500Y-110728000D01*
X123800500Y-110767000D01*
X123909500Y-110814000D01*
X124000500Y-110866000D01*
X124072500Y-110921000D01*
X124103500Y-110956000D01*
X124161500Y-111040000D01*
X124195500Y-111135000D01*
X124210500Y-111231000D01*
X124211500Y-111241000D01*
G37*
X126766500Y-108515000D02*
X126718500Y-108527000D01*
X126716500Y-108527000D01*
X126701500Y-108535000D01*
X126668500Y-108554000D01*
X126617500Y-108583000D01*
X126551500Y-108620000D01*
X126471500Y-108664000D01*
X126381500Y-108717000D01*
X126280500Y-108773000D01*
X126173500Y-108836000D01*
X126059500Y-108901000D01*
X125940500Y-108969000D01*
X125820500Y-109037000D01*
X125698500Y-109108000D01*
X125578500Y-109176000D01*
X125463500Y-109243000D01*
X125349500Y-109309000D01*
X125245500Y-109370000D01*
X125147500Y-109426000D01*
X125061500Y-109477000D01*
X124985500Y-109521000D01*
X124924500Y-109555000D01*
X124879500Y-109583000D01*
X124851500Y-109600000D01*
X124847500Y-109602000D01*
X124798500Y-109642000D01*
X124759500Y-109692000D01*
X124727500Y-109747000D01*
X124723500Y-110872000D01*
X124723500Y-111088000D01*
X124723500Y-111282000D01*
X124723500Y-111455000D01*
X124723500Y-111606000D01*
X124724500Y-111735000D01*
X124726500Y-111843000D01*
X124727500Y-111927000D01*
X124730500Y-111989000D01*
X124731500Y-112029000D01*
X124732500Y-112043000D01*
X124738500Y-112061000D01*
X124742500Y-112077000D01*
X124750500Y-112093000D01*
X124758500Y-112107000D01*
X124772500Y-112124000D01*
X124791500Y-112142000D01*
X124816500Y-112162000D01*
X124848500Y-112186000D01*
X124891500Y-112216000D01*
X124943500Y-112248000D01*
X125006500Y-112287000D01*
X125081500Y-112333000D01*
X125171500Y-112386000D01*
X125275500Y-112446000D01*
X125397500Y-112517000D01*
X125535500Y-112596000D01*
X125692500Y-112688000D01*
X125761500Y-112728000D01*
X126711500Y-113277000D01*
X126801500Y-113281000D01*
X126889500Y-113285000D01*
X127237500Y-113086000D01*
X127450500Y-112962000D01*
X127644500Y-112851000D01*
X127820500Y-112750000D01*
X127977500Y-112660000D01*
X128118500Y-112579000D01*
X128243500Y-112505000D01*
X128354500Y-112442000D01*
X128450500Y-112384000D01*
X128535500Y-112335000D01*
X128607500Y-112291000D01*
X128668500Y-112255000D01*
X128718500Y-112221000D01*
X128761500Y-112194000D01*
X128794500Y-112170000D01*
X128822500Y-112150000D01*
X128841500Y-112134000D01*
X128857500Y-112118000D01*
X128868500Y-112104000D01*
X128875500Y-112093000D01*
X128881500Y-112081000D01*
X128884500Y-112069000D01*
X128887500Y-112055000D01*
X128891500Y-112043000D01*
X128894500Y-112021000D01*
X128895500Y-111977000D01*
X128897500Y-111910000D01*
X128899500Y-111820000D01*
X128899500Y-111708000D01*
X128899500Y-111574000D01*
X128900500Y-111417000D01*
X128900500Y-111240000D01*
X128900500Y-111041000D01*
X128899500Y-110899000D01*
X128171500Y-110899000D01*
X128171500Y-111052000D01*
X128169500Y-111183000D01*
X128169500Y-111295000D01*
X128168500Y-111388000D01*
X128168500Y-111465000D01*
X128165500Y-111528000D01*
X128163500Y-111577000D01*
X128160500Y-111617000D01*
X128155500Y-111646000D01*
X128149500Y-111668000D01*
X128141500Y-111684000D01*
X128133500Y-111697000D01*
X128123500Y-111708000D01*
X128110500Y-111718000D01*
X128109500Y-111719000D01*
X128093500Y-111730000D01*
X128059500Y-111752000D01*
X128009500Y-111782000D01*
X127945500Y-111819000D01*
X127870500Y-111863000D01*
X127785500Y-111913000D01*
X127693500Y-111966000D01*
X127597500Y-112023000D01*
X127498500Y-112079000D01*
X127399500Y-112138000D01*
X127301500Y-112194000D01*
X127206500Y-112247000D01*
X127118500Y-112297000D01*
X127040500Y-112341000D01*
X126971500Y-112380000D01*
X126915500Y-112410000D01*
X126875500Y-112432000D01*
X126851500Y-112444000D01*
X126849500Y-112446000D01*
X126818500Y-112454000D01*
X126798500Y-112454000D01*
X126774500Y-112446000D01*
X126759500Y-112440000D01*
X126740500Y-112430000D01*
X126702500Y-112410000D01*
X126649500Y-112380000D01*
X126583500Y-112343000D01*
X126506500Y-112299000D01*
X126421500Y-112251000D01*
X126327500Y-112198000D01*
X126230500Y-112142000D01*
X126131500Y-112085000D01*
X126032500Y-112027000D01*
X125935500Y-111970000D01*
X125843500Y-111917000D01*
X125758500Y-111868000D01*
X125682500Y-111822000D01*
X125618500Y-111784000D01*
X125567500Y-111754000D01*
X125532500Y-111732000D01*
X125514500Y-111720000D01*
X125501500Y-111709000D01*
X125492500Y-111698000D01*
X125482500Y-111685000D01*
X125476500Y-111669000D01*
X125469500Y-111648000D01*
X125464500Y-111619000D01*
X125461500Y-111580000D01*
X125458500Y-111533000D01*
X125456500Y-111470000D01*
X125455500Y-111394000D01*
X125455500Y-111303000D01*
X125453500Y-111192000D01*
X125453500Y-111062000D01*
X125453500Y-110912000D01*
X125453500Y-110899000D01*
X125453500Y-110743000D01*
X125453500Y-110612000D01*
X125455500Y-110500000D01*
X125455500Y-110406000D01*
X125456500Y-110327000D01*
X125458500Y-110265000D01*
X125461500Y-110215000D01*
X125466500Y-110175000D01*
X125471500Y-110146000D01*
X125477500Y-110124000D01*
X125485500Y-110107000D01*
X125495500Y-110094000D01*
X125506500Y-110084000D01*
X125520500Y-110072000D01*
X125527500Y-110068000D01*
X125543500Y-110057000D01*
X125580500Y-110035000D01*
X125631500Y-110005000D01*
X125698500Y-109966000D01*
X125778500Y-109918000D01*
X125868500Y-109866000D01*
X125968500Y-109809000D01*
X126075500Y-109747000D01*
X126163500Y-109696000D01*
X126290500Y-109622000D01*
X126399500Y-109559000D01*
X126492500Y-109507000D01*
X126567500Y-109465000D01*
X126631500Y-109430000D01*
X126681500Y-109402000D01*
X126721500Y-109382000D01*
X126750500Y-109368000D01*
X126774500Y-109358000D01*
X126791500Y-109354000D01*
X126806500Y-109350000D01*
X126810500Y-109350000D01*
X126822500Y-109352000D01*
X126838500Y-109356000D01*
X126859500Y-109364000D01*
X126886500Y-109376000D01*
X126921500Y-109392000D01*
X126966500Y-109416000D01*
X127022500Y-109448000D01*
X127092500Y-109487000D01*
X127176500Y-109533000D01*
X127277500Y-109592000D01*
X127394500Y-109658000D01*
X127476500Y-109707000D01*
X127588500Y-109771000D01*
X127693500Y-109832000D01*
X127790500Y-109888000D01*
X127879500Y-109940000D01*
X127956500Y-109986000D01*
X128020500Y-110024000D01*
X128070500Y-110052000D01*
X128102500Y-110072000D01*
X128115500Y-110082000D01*
X128126500Y-110092000D01*
X128136500Y-110102000D01*
X128144500Y-110115000D01*
X128150500Y-110132000D01*
X128155500Y-110154000D01*
X128160500Y-110184000D01*
X128163500Y-110225000D01*
X128165500Y-110277000D01*
X128168500Y-110341000D01*
X128168500Y-110419000D01*
X128169500Y-110516000D01*
X128169500Y-110630000D01*
X128171500Y-110766000D01*
X128171500Y-110899000D01*
X128899500Y-110899000D01*
X128899500Y-110872000D01*
X128899500Y-110681000D01*
X128899500Y-110511000D01*
X128899500Y-110364000D01*
X128897500Y-110235000D01*
X128897500Y-110123000D01*
X128895500Y-110028000D01*
X128894500Y-109948000D01*
X128892500Y-109882000D01*
X128889500Y-109828000D01*
X128886500Y-109783000D01*
X128882500Y-109749000D01*
X128878500Y-109723000D01*
X128873500Y-109703000D01*
X128865500Y-109686000D01*
X128857500Y-109674000D01*
X128849500Y-109664000D01*
X128838500Y-109656000D01*
X128826500Y-109644000D01*
X128822500Y-109640000D01*
X128806500Y-109630000D01*
X128772500Y-109608000D01*
X128721500Y-109578000D01*
X128653500Y-109537000D01*
X128572500Y-109487000D01*
X128476500Y-109432000D01*
X128370500Y-109370000D01*
X128253500Y-109301000D01*
X128128500Y-109229000D01*
X127996500Y-109152000D01*
X127859500Y-109073000D01*
X127844500Y-109064000D01*
X127684500Y-108971000D01*
X127543500Y-108890000D01*
X127421500Y-108818000D01*
X127314500Y-108757000D01*
X127221500Y-108705000D01*
X127144500Y-108660000D01*
X127078500Y-108624000D01*
X127024500Y-108595000D01*
X126979500Y-108571000D01*
X126943500Y-108552000D01*
X126915500Y-108539000D01*
X126892500Y-108528000D01*
X126875500Y-108523000D01*
X126859500Y-108519000D01*
X126846500Y-108515000D01*
X126833500Y-108515000D01*
X126830500Y-108515000D01*
X126766500Y-108515000D01*
G36*
X128900500Y-111041000D02*
G01*
X128900500Y-111240000D01*
X128900500Y-111417000D01*
X128899500Y-111574000D01*
X128899500Y-111708000D01*
X128899500Y-111820000D01*
X128897500Y-111910000D01*
X128895500Y-111977000D01*
X128894500Y-112021000D01*
X128891500Y-112043000D01*
X128887500Y-112055000D01*
X128884500Y-112069000D01*
X128881500Y-112081000D01*
X128875500Y-112093000D01*
X128868500Y-112104000D01*
X128857500Y-112118000D01*
X128841500Y-112134000D01*
X128822500Y-112150000D01*
X128794500Y-112170000D01*
X128761500Y-112194000D01*
X128718500Y-112221000D01*
X128668500Y-112255000D01*
X128607500Y-112291000D01*
X128535500Y-112335000D01*
X128450500Y-112384000D01*
X128354500Y-112442000D01*
X128243500Y-112505000D01*
X128118500Y-112579000D01*
X127977500Y-112660000D01*
X127820500Y-112750000D01*
X127644500Y-112851000D01*
X127450500Y-112962000D01*
X127237500Y-113086000D01*
X126889500Y-113285000D01*
X126801500Y-113281000D01*
X126711500Y-113277000D01*
X125761500Y-112728000D01*
X125692500Y-112688000D01*
X125535500Y-112596000D01*
X125397500Y-112517000D01*
X125275500Y-112446000D01*
X125171500Y-112386000D01*
X125081500Y-112333000D01*
X125006500Y-112287000D01*
X124943500Y-112248000D01*
X124891500Y-112216000D01*
X124848500Y-112186000D01*
X124816500Y-112162000D01*
X124791500Y-112142000D01*
X124772500Y-112124000D01*
X124758500Y-112107000D01*
X124750500Y-112093000D01*
X124742500Y-112077000D01*
X124738500Y-112061000D01*
X124732500Y-112043000D01*
X124731500Y-112029000D01*
X124730500Y-111989000D01*
X124727500Y-111927000D01*
X124726500Y-111843000D01*
X124724500Y-111735000D01*
X124723500Y-111606000D01*
X124723500Y-111455000D01*
X124723500Y-111282000D01*
X124723500Y-111088000D01*
X124723500Y-110872000D01*
X124724424Y-110612000D01*
X125453500Y-110612000D01*
X125453500Y-110743000D01*
X125453500Y-110899000D01*
X125453500Y-110912000D01*
X125453500Y-111062000D01*
X125453500Y-111192000D01*
X125455500Y-111303000D01*
X125455500Y-111394000D01*
X125456500Y-111470000D01*
X125458500Y-111533000D01*
X125461500Y-111580000D01*
X125464500Y-111619000D01*
X125469500Y-111648000D01*
X125476500Y-111669000D01*
X125482500Y-111685000D01*
X125492500Y-111698000D01*
X125501500Y-111709000D01*
X125514500Y-111720000D01*
X125532500Y-111732000D01*
X125567500Y-111754000D01*
X125618500Y-111784000D01*
X125682500Y-111822000D01*
X125758500Y-111868000D01*
X125843500Y-111917000D01*
X125935500Y-111970000D01*
X126032500Y-112027000D01*
X126131500Y-112085000D01*
X126230500Y-112142000D01*
X126327500Y-112198000D01*
X126421500Y-112251000D01*
X126506500Y-112299000D01*
X126583500Y-112343000D01*
X126649500Y-112380000D01*
X126702500Y-112410000D01*
X126740500Y-112430000D01*
X126759500Y-112440000D01*
X126774500Y-112446000D01*
X126798500Y-112454000D01*
X126818500Y-112454000D01*
X126849500Y-112446000D01*
X126851500Y-112444000D01*
X126875500Y-112432000D01*
X126915500Y-112410000D01*
X126971500Y-112380000D01*
X127040500Y-112341000D01*
X127118500Y-112297000D01*
X127206500Y-112247000D01*
X127301500Y-112194000D01*
X127399500Y-112138000D01*
X127498500Y-112079000D01*
X127597500Y-112023000D01*
X127693500Y-111966000D01*
X127785500Y-111913000D01*
X127870500Y-111863000D01*
X127945500Y-111819000D01*
X128009500Y-111782000D01*
X128059500Y-111752000D01*
X128093500Y-111730000D01*
X128109500Y-111719000D01*
X128110500Y-111718000D01*
X128123500Y-111708000D01*
X128133500Y-111697000D01*
X128141500Y-111684000D01*
X128149500Y-111668000D01*
X128155500Y-111646000D01*
X128160500Y-111617000D01*
X128163500Y-111577000D01*
X128165500Y-111528000D01*
X128168500Y-111465000D01*
X128168500Y-111388000D01*
X128169500Y-111295000D01*
X128169500Y-111183000D01*
X128171500Y-111052000D01*
X128171500Y-110899000D01*
X128171500Y-110766000D01*
X128169500Y-110630000D01*
X128169500Y-110516000D01*
X128168500Y-110419000D01*
X128168500Y-110341000D01*
X128165500Y-110277000D01*
X128163500Y-110225000D01*
X128160500Y-110184000D01*
X128155500Y-110154000D01*
X128150500Y-110132000D01*
X128144500Y-110115000D01*
X128136500Y-110102000D01*
X128126500Y-110092000D01*
X128115500Y-110082000D01*
X128102500Y-110072000D01*
X128070500Y-110052000D01*
X128020500Y-110024000D01*
X127956500Y-109986000D01*
X127879500Y-109940000D01*
X127790500Y-109888000D01*
X127693500Y-109832000D01*
X127588500Y-109771000D01*
X127476500Y-109707000D01*
X127394500Y-109658000D01*
X127277500Y-109592000D01*
X127176500Y-109533000D01*
X127092500Y-109487000D01*
X127022500Y-109448000D01*
X126966500Y-109416000D01*
X126921500Y-109392000D01*
X126886500Y-109376000D01*
X126859500Y-109364000D01*
X126838500Y-109356000D01*
X126822500Y-109352000D01*
X126810500Y-109350000D01*
X126806500Y-109350000D01*
X126791500Y-109354000D01*
X126774500Y-109358000D01*
X126750500Y-109368000D01*
X126721500Y-109382000D01*
X126681500Y-109402000D01*
X126631500Y-109430000D01*
X126567500Y-109465000D01*
X126492500Y-109507000D01*
X126399500Y-109559000D01*
X126290500Y-109622000D01*
X126163500Y-109696000D01*
X126075500Y-109747000D01*
X125968500Y-109809000D01*
X125868500Y-109866000D01*
X125778500Y-109918000D01*
X125698500Y-109966000D01*
X125631500Y-110005000D01*
X125580500Y-110035000D01*
X125543500Y-110057000D01*
X125527500Y-110068000D01*
X125520500Y-110072000D01*
X125506500Y-110084000D01*
X125495500Y-110094000D01*
X125485500Y-110107000D01*
X125477500Y-110124000D01*
X125471500Y-110146000D01*
X125466500Y-110175000D01*
X125461500Y-110215000D01*
X125458500Y-110265000D01*
X125456500Y-110327000D01*
X125455500Y-110406000D01*
X125455500Y-110500000D01*
X125453500Y-110612000D01*
X124724424Y-110612000D01*
X124727500Y-109747000D01*
X124759500Y-109692000D01*
X124798500Y-109642000D01*
X124847500Y-109602000D01*
X124851500Y-109600000D01*
X124879500Y-109583000D01*
X124924500Y-109555000D01*
X124985500Y-109521000D01*
X125061500Y-109477000D01*
X125147500Y-109426000D01*
X125245500Y-109370000D01*
X125349500Y-109309000D01*
X125463500Y-109243000D01*
X125578500Y-109176000D01*
X125698500Y-109108000D01*
X125820500Y-109037000D01*
X125940500Y-108969000D01*
X126059500Y-108901000D01*
X126173500Y-108836000D01*
X126280500Y-108773000D01*
X126381500Y-108717000D01*
X126471500Y-108664000D01*
X126551500Y-108620000D01*
X126617500Y-108583000D01*
X126668500Y-108554000D01*
X126701500Y-108535000D01*
X126716500Y-108527000D01*
X126718500Y-108527000D01*
X126766500Y-108515000D01*
X126830500Y-108515000D01*
X126833500Y-108515000D01*
X126846500Y-108515000D01*
X126859500Y-108519000D01*
X126875500Y-108523000D01*
X126892500Y-108528000D01*
X126915500Y-108539000D01*
X126943500Y-108552000D01*
X126979500Y-108571000D01*
X127024500Y-108595000D01*
X127078500Y-108624000D01*
X127144500Y-108660000D01*
X127221500Y-108705000D01*
X127314500Y-108757000D01*
X127421500Y-108818000D01*
X127543500Y-108890000D01*
X127684500Y-108971000D01*
X127844500Y-109064000D01*
X127859500Y-109073000D01*
X127996500Y-109152000D01*
X128128500Y-109229000D01*
X128253500Y-109301000D01*
X128370500Y-109370000D01*
X128476500Y-109432000D01*
X128572500Y-109487000D01*
X128653500Y-109537000D01*
X128721500Y-109578000D01*
X128772500Y-109608000D01*
X128806500Y-109630000D01*
X128822500Y-109640000D01*
X128826500Y-109644000D01*
X128838500Y-109656000D01*
X128849500Y-109664000D01*
X128857500Y-109674000D01*
X128865500Y-109686000D01*
X128873500Y-109703000D01*
X128878500Y-109723000D01*
X128882500Y-109749000D01*
X128886500Y-109783000D01*
X128889500Y-109828000D01*
X128892500Y-109882000D01*
X128894500Y-109948000D01*
X128895500Y-110028000D01*
X128897500Y-110123000D01*
X128897500Y-110235000D01*
X128899500Y-110364000D01*
X128899500Y-110511000D01*
X128899500Y-110681000D01*
X128899500Y-110872000D01*
X128899500Y-110899000D01*
X128900500Y-111041000D01*
G37*
X126748500Y-109930000D02*
X126737500Y-109934000D01*
X126684500Y-109970000D01*
X126644500Y-110020000D01*
X126621500Y-110080000D01*
X126620500Y-110144000D01*
X126623500Y-110158000D01*
X126645500Y-110220000D01*
X126687500Y-110265000D01*
X126727500Y-110289000D01*
X126777500Y-110313000D01*
X126777500Y-110591000D01*
X126570500Y-110591000D01*
X126485500Y-110506000D01*
X126400500Y-110422000D01*
X126407500Y-110362000D01*
X126407500Y-110361000D01*
X126327500Y-110361000D01*
X126314500Y-110388000D01*
X126285500Y-110401000D01*
X126253500Y-110398000D01*
X126229500Y-110384000D01*
X126211500Y-110356000D01*
X126218500Y-110327000D01*
X126234500Y-110307000D01*
X126256500Y-110288000D01*
X126274500Y-110286000D01*
X126299500Y-110300000D01*
X126301500Y-110302000D01*
X126322500Y-110328000D01*
X126327500Y-110361000D01*
X126407500Y-110361000D01*
X126408500Y-110322000D01*
X126403500Y-110296000D01*
X126389500Y-110272000D01*
X126381500Y-110264000D01*
X126338500Y-110227000D01*
X126291500Y-110211000D01*
X126243500Y-110212000D01*
X126200500Y-110228000D01*
X126163500Y-110257000D01*
X126139500Y-110297000D01*
X126131500Y-110347000D01*
X126139500Y-110396000D01*
X126165500Y-110442000D01*
X126208500Y-110473000D01*
X126264500Y-110485000D01*
X126274500Y-110485000D01*
X126299500Y-110486000D01*
X126320500Y-110490000D01*
X126341500Y-110501000D01*
X126367500Y-110520000D01*
X126402500Y-110553000D01*
X126431500Y-110579000D01*
X126532500Y-110674000D01*
X126777500Y-110674000D01*
X126777500Y-110863000D01*
X126328500Y-110863000D01*
X126310500Y-110829000D01*
X126278500Y-110791000D01*
X126234500Y-110767000D01*
X126184500Y-110761000D01*
X126136500Y-110770000D01*
X126093500Y-110799000D01*
X126089500Y-110802000D01*
X126059500Y-110851000D01*
X126048500Y-110900000D01*
X126056500Y-110945000D01*
X126077500Y-110987000D01*
X126112500Y-111017000D01*
X126155500Y-111036000D01*
X126203500Y-111039000D01*
X126256500Y-111021000D01*
X126266500Y-111015000D01*
X126294500Y-110995000D01*
X126312500Y-110973000D01*
X126312500Y-110969000D01*
X126315500Y-110961000D01*
X126322500Y-110955000D01*
X126338500Y-110951000D01*
X126362500Y-110948000D01*
X126399500Y-110947000D01*
X126455500Y-110945000D01*
X126528500Y-110945000D01*
X126548500Y-110945000D01*
X126777500Y-110945000D01*
X126777500Y-111122000D01*
X126533500Y-111122000D01*
X126338500Y-111319000D01*
X126282500Y-111314000D01*
X126224500Y-111318000D01*
X126177500Y-111341000D01*
X126145500Y-111382000D01*
X126137500Y-111404000D01*
X126129500Y-111460000D01*
X126144500Y-111510000D01*
X126173500Y-111548000D01*
X126218500Y-111580000D01*
X126267500Y-111591000D01*
X126314500Y-111585000D01*
X126357500Y-111562000D01*
X126387500Y-111526000D01*
X126405500Y-111477000D01*
X126407500Y-111441000D01*
X126325500Y-111441000D01*
X126322500Y-111471000D01*
X126310500Y-111489000D01*
X126283500Y-111509000D01*
X126258500Y-111508000D01*
X126234500Y-111489000D01*
X126213500Y-111459000D01*
X126214500Y-111434000D01*
X126232500Y-111412000D01*
X126261500Y-111397000D01*
X126290500Y-111400000D01*
X126314500Y-111416000D01*
X126325500Y-111441000D01*
X126407500Y-111441000D01*
X126407500Y-111431000D01*
X126399500Y-111375000D01*
X126570500Y-111205000D01*
X126777500Y-111205000D01*
X126777500Y-111485000D01*
X126727500Y-111507000D01*
X126676500Y-111541000D01*
X126641500Y-111588000D01*
X126623500Y-111645000D01*
X126618500Y-111702000D01*
X126633500Y-111760000D01*
X126661500Y-111809000D01*
X126708500Y-111849000D01*
X126718500Y-111855000D01*
X126780500Y-111875000D01*
X126846500Y-111875000D01*
X126907500Y-111855000D01*
X126908500Y-111854000D01*
X126956500Y-111816000D01*
X126988500Y-111768000D01*
X127003500Y-111711000D01*
X127003500Y-111683000D01*
X126923500Y-111683000D01*
X126918500Y-111718000D01*
X126900500Y-111747000D01*
X126884500Y-111762000D01*
X126841500Y-111789000D01*
X126798500Y-111793000D01*
X126754500Y-111775000D01*
X126738500Y-111762000D01*
X126713500Y-111732000D01*
X126701500Y-111702000D01*
X126700500Y-111683000D01*
X126711500Y-111641000D01*
X126740500Y-111603000D01*
X126777500Y-111578000D01*
X126812500Y-111571000D01*
X126854500Y-111581000D01*
X126891500Y-111609000D01*
X126915500Y-111649000D01*
X126923500Y-111683000D01*
X127003500Y-111683000D01*
X127003500Y-111653000D01*
X126985500Y-111596000D01*
X126952500Y-111547000D01*
X126905500Y-111511000D01*
X126895500Y-111507000D01*
X126847500Y-111485000D01*
X126847500Y-111205000D01*
X127054500Y-111205000D01*
X127224500Y-111375000D01*
X127217500Y-111431000D01*
X127219500Y-111487000D01*
X127240500Y-111533000D01*
X127274500Y-111567000D01*
X127317500Y-111587000D01*
X127365500Y-111591000D01*
X127413500Y-111576000D01*
X127450500Y-111548000D01*
X127484500Y-111504000D01*
X127495500Y-111453000D01*
X127492500Y-111439000D01*
X127411500Y-111439000D01*
X127408500Y-111464000D01*
X127391500Y-111489000D01*
X127362500Y-111510000D01*
X127336500Y-111508000D01*
X127314500Y-111490000D01*
X127299500Y-111458000D01*
X127304500Y-111428000D01*
X127323500Y-111404000D01*
X127338500Y-111398000D01*
X127373500Y-111400000D01*
X127391500Y-111412000D01*
X127411500Y-111439000D01*
X127492500Y-111439000D01*
X127485500Y-111404000D01*
X127460500Y-111357000D01*
X127421500Y-111326000D01*
X127367500Y-111314000D01*
X127341500Y-111314000D01*
X127286500Y-111319000D01*
X127089500Y-111122000D01*
X126847500Y-111122000D01*
X126847500Y-110945000D01*
X127076500Y-110945000D01*
X127155500Y-110945000D01*
X127214500Y-110945000D01*
X127256500Y-110948000D01*
X127283500Y-110949000D01*
X127299500Y-110953000D01*
X127309500Y-110959000D01*
X127312500Y-110967000D01*
X127314500Y-110970000D01*
X127333500Y-110996000D01*
X127367500Y-111021000D01*
X127408500Y-111037000D01*
X127435500Y-111040000D01*
X127490500Y-111029000D01*
X127532500Y-111004000D01*
X127562500Y-110964000D01*
X127575500Y-110917000D01*
X127573500Y-110900000D01*
X127495500Y-110900000D01*
X127492500Y-110918000D01*
X127479500Y-110933000D01*
X127448500Y-110953000D01*
X127418500Y-110953000D01*
X127397500Y-110939000D01*
X127381500Y-110909000D01*
X127383500Y-110888000D01*
X126243500Y-110888000D01*
X126238500Y-110921000D01*
X126226500Y-110939000D01*
X126197500Y-110956000D01*
X126165500Y-110949000D01*
X126144500Y-110933000D01*
X126129500Y-110913000D01*
X126131500Y-110896000D01*
X126139500Y-110877000D01*
X126165500Y-110850000D01*
X126195500Y-110841000D01*
X126224500Y-110854000D01*
X126226500Y-110856000D01*
X126243500Y-110888000D01*
X127383500Y-110888000D01*
X127386500Y-110877000D01*
X127402500Y-110857000D01*
X127431500Y-110841000D01*
X127460500Y-110849000D01*
X127484500Y-110877000D01*
X127495500Y-110900000D01*
X127573500Y-110900000D01*
X127570500Y-110867000D01*
X127546500Y-110818000D01*
X127535500Y-110802000D01*
X127492500Y-110771000D01*
X127443500Y-110760000D01*
X127392500Y-110767000D01*
X127347500Y-110791000D01*
X127315500Y-110828000D01*
X127294500Y-110863000D01*
X126847500Y-110863000D01*
X126847500Y-110674000D01*
X127091500Y-110674000D01*
X127192500Y-110579000D01*
X127237500Y-110539000D01*
X127267500Y-110511000D01*
X127290500Y-110496000D01*
X127312500Y-110488000D01*
X127333500Y-110485000D01*
X127352500Y-110485000D01*
X127410500Y-110477000D01*
X127452500Y-110450000D01*
X127480500Y-110406000D01*
X127487500Y-110391000D01*
X127492500Y-110348000D01*
X127415500Y-110348000D01*
X127405500Y-110375000D01*
X127379500Y-110394000D01*
X127347500Y-110402000D01*
X127318500Y-110395000D01*
X127310500Y-110388000D01*
X127296500Y-110360000D01*
X127301500Y-110328000D01*
X127322500Y-110302000D01*
X127344500Y-110288000D01*
X127357500Y-110283000D01*
X127375500Y-110292000D01*
X127395500Y-110313000D01*
X127410500Y-110337000D01*
X127415500Y-110348000D01*
X127492500Y-110348000D01*
X127492500Y-110336000D01*
X127480500Y-110287000D01*
X127453500Y-110249000D01*
X127415500Y-110223000D01*
X127370500Y-110210000D01*
X127322500Y-110212000D01*
X127275500Y-110233000D01*
X127242500Y-110264000D01*
X127224500Y-110289000D01*
X127216500Y-110313000D01*
X127216500Y-110348000D01*
X127216500Y-110362000D01*
X127224500Y-110422000D01*
X127139500Y-110506000D01*
X127054500Y-110591000D01*
X126847500Y-110591000D01*
X126847500Y-110312000D01*
X126894500Y-110291000D01*
X126950500Y-110256000D01*
X126987500Y-110205000D01*
X127000500Y-110165000D01*
X127006500Y-110111000D01*
X126926500Y-110111000D01*
X126921500Y-110138000D01*
X126913500Y-110158000D01*
X126883500Y-110198000D01*
X126843500Y-110221000D01*
X126798500Y-110223000D01*
X126753500Y-110204000D01*
X126748500Y-110199000D01*
X126713500Y-110162000D01*
X126700500Y-110122000D01*
X126710500Y-110079000D01*
X126738500Y-110033000D01*
X126777500Y-110009000D01*
X126818500Y-110003000D01*
X126860500Y-110015000D01*
X126897500Y-110045000D01*
X126918500Y-110082000D01*
X126926500Y-110111000D01*
X127006500Y-110111000D01*
X127008500Y-110103000D01*
X126993500Y-110043000D01*
X126963500Y-109994000D01*
X126921500Y-109954000D01*
X126868500Y-109928000D01*
X126809500Y-109918000D01*
X126748500Y-109930000D01*
G36*
X127000500Y-110165000D02*
G01*
X126987500Y-110205000D01*
X126950500Y-110256000D01*
X126894500Y-110291000D01*
X126847500Y-110312000D01*
X126847500Y-110591000D01*
X127054500Y-110591000D01*
X127139500Y-110506000D01*
X127224500Y-110422000D01*
X127216500Y-110362000D01*
X127216500Y-110360000D01*
X127296500Y-110360000D01*
X127310500Y-110388000D01*
X127318500Y-110395000D01*
X127347500Y-110402000D01*
X127379500Y-110394000D01*
X127405500Y-110375000D01*
X127415500Y-110348000D01*
X127410500Y-110337000D01*
X127395500Y-110313000D01*
X127375500Y-110292000D01*
X127357500Y-110283000D01*
X127344500Y-110288000D01*
X127322500Y-110302000D01*
X127301500Y-110328000D01*
X127296500Y-110360000D01*
X127216500Y-110360000D01*
X127216500Y-110348000D01*
X127216500Y-110313000D01*
X127224500Y-110289000D01*
X127242500Y-110264000D01*
X127275500Y-110233000D01*
X127322500Y-110212000D01*
X127370500Y-110210000D01*
X127415500Y-110223000D01*
X127453500Y-110249000D01*
X127480500Y-110287000D01*
X127492500Y-110336000D01*
X127492500Y-110348000D01*
X127487500Y-110391000D01*
X127480500Y-110406000D01*
X127452500Y-110450000D01*
X127410500Y-110477000D01*
X127352500Y-110485000D01*
X127333500Y-110485000D01*
X127312500Y-110488000D01*
X127290500Y-110496000D01*
X127267500Y-110511000D01*
X127237500Y-110539000D01*
X127192500Y-110579000D01*
X127091500Y-110674000D01*
X126847500Y-110674000D01*
X126847500Y-110863000D01*
X127294500Y-110863000D01*
X127315500Y-110828000D01*
X127347500Y-110791000D01*
X127392500Y-110767000D01*
X127443500Y-110760000D01*
X127492500Y-110771000D01*
X127535500Y-110802000D01*
X127546500Y-110818000D01*
X127570500Y-110867000D01*
X127573500Y-110900000D01*
X127575500Y-110917000D01*
X127562500Y-110964000D01*
X127532500Y-111004000D01*
X127490500Y-111029000D01*
X127435500Y-111040000D01*
X127408500Y-111037000D01*
X127367500Y-111021000D01*
X127333500Y-110996000D01*
X127314500Y-110970000D01*
X127312500Y-110967000D01*
X127309500Y-110959000D01*
X127299500Y-110953000D01*
X127283500Y-110949000D01*
X127256500Y-110948000D01*
X127214500Y-110945000D01*
X127155500Y-110945000D01*
X127076500Y-110945000D01*
X126847500Y-110945000D01*
X126847500Y-111122000D01*
X127089500Y-111122000D01*
X127286500Y-111319000D01*
X127341500Y-111314000D01*
X127367500Y-111314000D01*
X127421500Y-111326000D01*
X127460500Y-111357000D01*
X127485500Y-111404000D01*
X127492500Y-111439000D01*
X127495500Y-111453000D01*
X127484500Y-111504000D01*
X127450500Y-111548000D01*
X127413500Y-111576000D01*
X127365500Y-111591000D01*
X127317500Y-111587000D01*
X127274500Y-111567000D01*
X127240500Y-111533000D01*
X127219500Y-111487000D01*
X127218464Y-111458000D01*
X127299500Y-111458000D01*
X127314500Y-111490000D01*
X127336500Y-111508000D01*
X127362500Y-111510000D01*
X127391500Y-111489000D01*
X127408500Y-111464000D01*
X127411500Y-111439000D01*
X127391500Y-111412000D01*
X127373500Y-111400000D01*
X127338500Y-111398000D01*
X127323500Y-111404000D01*
X127304500Y-111428000D01*
X127299500Y-111458000D01*
X127218464Y-111458000D01*
X127217500Y-111431000D01*
X127224500Y-111375000D01*
X127054500Y-111205000D01*
X126847500Y-111205000D01*
X126847500Y-111485000D01*
X126895500Y-111507000D01*
X126905500Y-111511000D01*
X126952500Y-111547000D01*
X126985500Y-111596000D01*
X127003500Y-111653000D01*
X127003500Y-111683000D01*
X127003500Y-111711000D01*
X126988500Y-111768000D01*
X126956500Y-111816000D01*
X126908500Y-111854000D01*
X126907500Y-111855000D01*
X126846500Y-111875000D01*
X126780500Y-111875000D01*
X126718500Y-111855000D01*
X126708500Y-111849000D01*
X126661500Y-111809000D01*
X126633500Y-111760000D01*
X126618500Y-111702000D01*
X126620167Y-111683000D01*
X126700500Y-111683000D01*
X126701500Y-111702000D01*
X126713500Y-111732000D01*
X126738500Y-111762000D01*
X126754500Y-111775000D01*
X126798500Y-111793000D01*
X126841500Y-111789000D01*
X126884500Y-111762000D01*
X126900500Y-111747000D01*
X126918500Y-111718000D01*
X126923500Y-111683000D01*
X126915500Y-111649000D01*
X126891500Y-111609000D01*
X126854500Y-111581000D01*
X126812500Y-111571000D01*
X126777500Y-111578000D01*
X126740500Y-111603000D01*
X126711500Y-111641000D01*
X126700500Y-111683000D01*
X126620167Y-111683000D01*
X126623500Y-111645000D01*
X126641500Y-111588000D01*
X126676500Y-111541000D01*
X126727500Y-111507000D01*
X126777500Y-111485000D01*
X126777500Y-111205000D01*
X126570500Y-111205000D01*
X126399500Y-111375000D01*
X126407500Y-111431000D01*
X126407500Y-111441000D01*
X126405500Y-111477000D01*
X126387500Y-111526000D01*
X126357500Y-111562000D01*
X126314500Y-111585000D01*
X126267500Y-111591000D01*
X126218500Y-111580000D01*
X126173500Y-111548000D01*
X126144500Y-111510000D01*
X126129500Y-111460000D01*
X126129643Y-111459000D01*
X126213500Y-111459000D01*
X126234500Y-111489000D01*
X126258500Y-111508000D01*
X126283500Y-111509000D01*
X126310500Y-111489000D01*
X126322500Y-111471000D01*
X126325500Y-111441000D01*
X126314500Y-111416000D01*
X126290500Y-111400000D01*
X126261500Y-111397000D01*
X126232500Y-111412000D01*
X126214500Y-111434000D01*
X126213500Y-111459000D01*
X126129643Y-111459000D01*
X126137500Y-111404000D01*
X126145500Y-111382000D01*
X126177500Y-111341000D01*
X126224500Y-111318000D01*
X126282500Y-111314000D01*
X126338500Y-111319000D01*
X126533500Y-111122000D01*
X126777500Y-111122000D01*
X126777500Y-110945000D01*
X126548500Y-110945000D01*
X126528500Y-110945000D01*
X126455500Y-110945000D01*
X126399500Y-110947000D01*
X126362500Y-110948000D01*
X126338500Y-110951000D01*
X126322500Y-110955000D01*
X126315500Y-110961000D01*
X126312500Y-110969000D01*
X126312500Y-110973000D01*
X126294500Y-110995000D01*
X126266500Y-111015000D01*
X126256500Y-111021000D01*
X126203500Y-111039000D01*
X126155500Y-111036000D01*
X126112500Y-111017000D01*
X126077500Y-110987000D01*
X126056500Y-110945000D01*
X126050811Y-110913000D01*
X126129500Y-110913000D01*
X126144500Y-110933000D01*
X126165500Y-110949000D01*
X126197500Y-110956000D01*
X126226500Y-110939000D01*
X126238500Y-110921000D01*
X126240318Y-110909000D01*
X127381500Y-110909000D01*
X127397500Y-110939000D01*
X127418500Y-110953000D01*
X127448500Y-110953000D01*
X127479500Y-110933000D01*
X127492500Y-110918000D01*
X127495500Y-110900000D01*
X127484500Y-110877000D01*
X127460500Y-110849000D01*
X127431500Y-110841000D01*
X127402500Y-110857000D01*
X127386500Y-110877000D01*
X127383500Y-110888000D01*
X127381500Y-110909000D01*
X126240318Y-110909000D01*
X126243500Y-110888000D01*
X126226500Y-110856000D01*
X126224500Y-110854000D01*
X126195500Y-110841000D01*
X126165500Y-110850000D01*
X126139500Y-110877000D01*
X126131500Y-110896000D01*
X126129500Y-110913000D01*
X126050811Y-110913000D01*
X126048500Y-110900000D01*
X126059500Y-110851000D01*
X126089500Y-110802000D01*
X126093500Y-110799000D01*
X126136500Y-110770000D01*
X126184500Y-110761000D01*
X126234500Y-110767000D01*
X126278500Y-110791000D01*
X126310500Y-110829000D01*
X126328500Y-110863000D01*
X126777500Y-110863000D01*
X126777500Y-110674000D01*
X126532500Y-110674000D01*
X126431500Y-110579000D01*
X126402500Y-110553000D01*
X126367500Y-110520000D01*
X126341500Y-110501000D01*
X126320500Y-110490000D01*
X126299500Y-110486000D01*
X126274500Y-110485000D01*
X126264500Y-110485000D01*
X126208500Y-110473000D01*
X126165500Y-110442000D01*
X126139500Y-110396000D01*
X126132969Y-110356000D01*
X126211500Y-110356000D01*
X126229500Y-110384000D01*
X126253500Y-110398000D01*
X126285500Y-110401000D01*
X126314500Y-110388000D01*
X126327500Y-110361000D01*
X126322500Y-110328000D01*
X126301500Y-110302000D01*
X126299500Y-110300000D01*
X126274500Y-110286000D01*
X126256500Y-110288000D01*
X126234500Y-110307000D01*
X126218500Y-110327000D01*
X126211500Y-110356000D01*
X126132969Y-110356000D01*
X126131500Y-110347000D01*
X126139500Y-110297000D01*
X126163500Y-110257000D01*
X126200500Y-110228000D01*
X126243500Y-110212000D01*
X126291500Y-110211000D01*
X126338500Y-110227000D01*
X126381500Y-110264000D01*
X126389500Y-110272000D01*
X126403500Y-110296000D01*
X126408500Y-110322000D01*
X126407500Y-110361000D01*
X126407500Y-110362000D01*
X126400500Y-110422000D01*
X126485500Y-110506000D01*
X126570500Y-110591000D01*
X126777500Y-110591000D01*
X126777500Y-110313000D01*
X126727500Y-110289000D01*
X126687500Y-110265000D01*
X126645500Y-110220000D01*
X126623500Y-110158000D01*
X126620500Y-110144000D01*
X126620844Y-110122000D01*
X126700500Y-110122000D01*
X126713500Y-110162000D01*
X126748500Y-110199000D01*
X126753500Y-110204000D01*
X126798500Y-110223000D01*
X126843500Y-110221000D01*
X126883500Y-110198000D01*
X126913500Y-110158000D01*
X126921500Y-110138000D01*
X126926500Y-110111000D01*
X126918500Y-110082000D01*
X126897500Y-110045000D01*
X126860500Y-110015000D01*
X126818500Y-110003000D01*
X126777500Y-110009000D01*
X126738500Y-110033000D01*
X126710500Y-110079000D01*
X126700500Y-110122000D01*
X126620844Y-110122000D01*
X126621500Y-110080000D01*
X126644500Y-110020000D01*
X126684500Y-109970000D01*
X126737500Y-109934000D01*
X126748500Y-109930000D01*
X126809500Y-109918000D01*
X126868500Y-109928000D01*
X126921500Y-109954000D01*
X126963500Y-109994000D01*
X126993500Y-110043000D01*
X127008500Y-110103000D01*
X127006500Y-110111000D01*
X127000500Y-110165000D01*
G37*
%TD*%
D11*
%TO.C,J1301*%
X136900000Y-50049500D03*
X125471000Y-50049500D03*
D12*
X136900000Y-58949500D03*
X135631000Y-56410500D03*
X134361000Y-58949500D03*
X133091000Y-56410500D03*
X131822000Y-58949500D03*
X130551000Y-56410500D03*
X129282000Y-58949500D03*
X128010000Y-56410500D03*
X126741000Y-58949500D03*
X125471000Y-56410500D03*
X136900000Y-53871500D03*
X134361000Y-52610500D03*
X128010000Y-52610500D03*
X125471000Y-53879500D03*
D13*
X137827000Y-45991500D03*
X135286000Y-45991500D03*
X127086000Y-45991500D03*
X124545000Y-45991500D03*
D14*
X139036000Y-53099500D03*
D15*
X123337000Y-53099500D03*
%TD*%
D16*
%TO.C,H2*%
X124525000Y-118112500D03*
%TD*%
D17*
%TO.C,J15*%
X58300000Y-76096500D03*
D18*
X127101000Y-76096500D03*
%TD*%
D16*
%TO.C,SP7*%
X79250000Y-95150000D03*
%TD*%
%TO.C,H1*%
X60925000Y-118100000D03*
%TD*%
D11*
%TO.C,J6*%
X33435000Y-117516397D03*
X44864000Y-117516397D03*
D12*
X33435000Y-108616397D03*
X34704000Y-111155397D03*
X35974000Y-108616397D03*
X37244000Y-111155397D03*
X38513000Y-108616397D03*
X39784000Y-111155397D03*
X41053000Y-108616397D03*
X42325000Y-111155397D03*
X43594000Y-108616397D03*
X44864000Y-111155397D03*
X33435000Y-113694397D03*
X35974000Y-114955397D03*
X42325000Y-114955397D03*
X44864000Y-113686397D03*
D13*
X32508000Y-121574397D03*
X35049000Y-121574397D03*
X43249000Y-121574397D03*
X45790000Y-121574397D03*
D14*
X31299000Y-114466397D03*
D15*
X46998000Y-114466397D03*
%TD*%
D19*
%TO.C,H1001*%
X33350000Y-44750000D03*
X34052944Y-43052944D03*
X34052944Y-46447056D03*
X35750000Y-42350000D03*
D20*
X35750000Y-44750000D03*
D19*
X35750000Y-47150000D03*
X37447056Y-43052944D03*
X37447056Y-46447056D03*
X38150000Y-44750000D03*
%TD*%
%TO.C,H1002*%
X141350000Y-44750000D03*
X142052944Y-43052944D03*
X142052944Y-46447056D03*
X143750000Y-42350000D03*
D20*
X143750000Y-44750000D03*
D19*
X143750000Y-47150000D03*
X145447056Y-43052944D03*
X145447056Y-46447056D03*
X146150000Y-44750000D03*
%TD*%
D21*
%TO.C,J1*%
X119231000Y-85121000D03*
D22*
X119231000Y-105119000D03*
%TD*%
D23*
%TO.C,FID6*%
X39300000Y-81500000D03*
%TD*%
D24*
%TO.C,Q16*%
X43900000Y-77024000D03*
X43900000Y-78924000D03*
X41700000Y-77974500D03*
%TD*%
D25*
%TO.C,TP3*%
X77690000Y-75395000D03*
%TD*%
D26*
%TO.C,C118*%
X65780000Y-76500000D03*
X64820000Y-76500000D03*
%TD*%
D27*
%TO.C,Y1*%
X112941000Y-83783000D03*
X111089000Y-83783000D03*
X111089000Y-82335000D03*
X112941000Y-82335000D03*
%TD*%
D28*
%TO.C,C142*%
X62030000Y-84840000D03*
X62030000Y-83880000D03*
%TD*%
D16*
%TO.C,H3*%
X144750000Y-123750000D03*
%TD*%
D29*
%TO.C,D59*%
X125899000Y-127150000D03*
X126599000Y-127150000D03*
%TD*%
D23*
%TO.C,FID7*%
X148200000Y-76250000D03*
%TD*%
D30*
%TO.C,R273*%
X71600000Y-79400000D03*
X70200000Y-79400000D03*
%TD*%
D31*
%TO.C,C77*%
X38290000Y-113840000D03*
X38290000Y-112440000D03*
%TD*%
D28*
%TO.C,R275*%
X54300000Y-79070000D03*
X54300000Y-78110000D03*
%TD*%
D32*
%TO.C,R17*%
X108520000Y-85420000D03*
X109480000Y-85420000D03*
%TD*%
D30*
%TO.C,C22*%
X115200000Y-91500000D03*
X113800000Y-91500000D03*
%TD*%
D33*
%TO.C,R217*%
X87300000Y-106120000D03*
X87300000Y-107080000D03*
%TD*%
D32*
%TO.C,C50*%
X48550000Y-82190000D03*
X49510000Y-82190000D03*
%TD*%
D25*
%TO.C,TP55*%
X68165000Y-126070000D03*
%TD*%
D28*
%TO.C,R37*%
X111600000Y-88500000D03*
X111600000Y-87540000D03*
%TD*%
D25*
%TO.C,TP44*%
X75280000Y-75395000D03*
%TD*%
D32*
%TO.C,R192*%
X138320000Y-122000000D03*
X139280000Y-122000000D03*
%TD*%
D34*
%TO.C,C1320*%
X110230000Y-59200000D03*
X109270000Y-59200000D03*
%TD*%
D28*
%TO.C,C7*%
X106400000Y-88350000D03*
X106400000Y-87390000D03*
%TD*%
D25*
%TO.C,TP54*%
X68165000Y-123070000D03*
%TD*%
%TO.C,TP2*%
X63205000Y-71300000D03*
%TD*%
D35*
%TO.C,Y1301*%
X111850000Y-57499999D03*
X114050000Y-57499999D03*
X114050000Y-59199999D03*
X111850000Y-59199999D03*
%TD*%
D36*
%TO.C,U42*%
X60551000Y-85201000D03*
X59600000Y-85201000D03*
X58651000Y-85201000D03*
X58651000Y-82500000D03*
X60551000Y-82500000D03*
%TD*%
D37*
%TO.C,C1311*%
X118870000Y-49500000D03*
X119830000Y-49500000D03*
%TD*%
D32*
%TO.C,C17*%
X126255000Y-84750000D03*
X127215000Y-84750000D03*
%TD*%
D28*
%TO.C,R216*%
X88000000Y-113080000D03*
X88000000Y-112120000D03*
%TD*%
D32*
%TO.C,C16*%
X126270000Y-92750000D03*
X127230000Y-92750000D03*
%TD*%
D38*
%TO.C,R276*%
X62100000Y-82700000D03*
X63500000Y-82700000D03*
%TD*%
D25*
%TO.C,TP52*%
X68165000Y-124570000D03*
%TD*%
D39*
%TO.C,R25*%
X89535000Y-105952000D03*
X89933000Y-105952000D03*
X90335000Y-105952000D03*
X90733000Y-105952000D03*
X90733000Y-106550000D03*
X90335000Y-106550000D03*
X89933000Y-106550000D03*
X89535000Y-106550000D03*
%TD*%
D33*
%TO.C,R183*%
X74120000Y-76550000D03*
X74120000Y-77510000D03*
%TD*%
D40*
%TO.C,D54*%
X136700000Y-126700000D03*
X136700000Y-125300000D03*
%TD*%
D32*
%TO.C,R236*%
X56360000Y-80700000D03*
X57320000Y-80700000D03*
%TD*%
D25*
%TO.C,TP23*%
X68165000Y-127570000D03*
%TD*%
D41*
%TO.C,D37*%
X55899000Y-78800000D03*
X57299000Y-78800000D03*
%TD*%
D28*
%TO.C,R152*%
X41200000Y-119780000D03*
X41200000Y-118820000D03*
%TD*%
D16*
%TO.C,H4*%
X39750000Y-123750000D03*
%TD*%
D42*
%TO.C,R1308*%
X130325000Y-54500000D03*
X131975000Y-54500000D03*
%TD*%
D26*
%TO.C,R251*%
X47020000Y-73475000D03*
X46060000Y-73475000D03*
%TD*%
D43*
%TO.C,D34*%
X55250000Y-81451000D03*
X55250000Y-80051000D03*
%TD*%
D44*
%TO.C,U38*%
X69600000Y-74296000D03*
X69600000Y-75247000D03*
X69600000Y-76197000D03*
X67286000Y-76197000D03*
X67286000Y-75247000D03*
X67286000Y-74296000D03*
%TD*%
D26*
%TO.C,R181*%
X57905000Y-94150000D03*
X56945000Y-94150000D03*
%TD*%
%TO.C,C8*%
X106480000Y-92020000D03*
X105520000Y-92020000D03*
%TD*%
D29*
%TO.C,D55*%
X101149000Y-123800000D03*
X101849000Y-123800000D03*
%TD*%
D23*
%TO.C,FID8*%
X148450000Y-127450000D03*
%TD*%
D26*
%TO.C,C83*%
X60550000Y-86310000D03*
X59590000Y-86310000D03*
%TD*%
D29*
%TO.C,D22*%
X129899000Y-94780000D03*
X130599000Y-94780000D03*
%TD*%
D32*
%TO.C,R38*%
X105520000Y-93020000D03*
X106480000Y-93020000D03*
%TD*%
%TO.C,C14*%
X126255000Y-86750000D03*
X127215000Y-86750000D03*
%TD*%
D42*
%TO.C,R1309*%
X126925000Y-54500000D03*
X128575000Y-54500000D03*
%TD*%
D32*
%TO.C,C13*%
X126255000Y-83750000D03*
X127215000Y-83750000D03*
%TD*%
D33*
%TO.C,R18*%
X106400000Y-89340000D03*
X106400000Y-90300000D03*
%TD*%
D32*
%TO.C,R283*%
X54595000Y-84250000D03*
X55555000Y-84250000D03*
%TD*%
D25*
%TO.C,TP12*%
X130085000Y-88869999D03*
%TD*%
D26*
%TO.C,R80*%
X68580000Y-83300000D03*
X67620000Y-83300000D03*
%TD*%
D25*
%TO.C,TP53*%
X68165000Y-121570000D03*
%TD*%
D45*
%TO.C,D30*%
X69800000Y-80562000D03*
X69800000Y-81436000D03*
%TD*%
D28*
%TO.C,R274*%
X53230000Y-79090000D03*
X53230000Y-78130000D03*
%TD*%
%TO.C,R151*%
X42200000Y-119780000D03*
X42200000Y-118820000D03*
%TD*%
D41*
%TO.C,D36*%
X58249000Y-77350000D03*
X59649000Y-77350000D03*
%TD*%
D46*
%TO.C,J14*%
X133150000Y-123531000D03*
X132150000Y-123531000D03*
X131150000Y-123531000D03*
X130150000Y-123531000D03*
D47*
X134450000Y-127406000D03*
X128850000Y-127406000D03*
%TD*%
D48*
%TO.C,Q14*%
X42752000Y-75427000D03*
D49*
X42752000Y-74677000D03*
D48*
X42752000Y-73930000D03*
X44651000Y-73930000D03*
D49*
X44651000Y-74677000D03*
D48*
X44651000Y-75427000D03*
%TD*%
D50*
%TO.C,U4*%
X67550000Y-80440000D03*
D51*
X67050000Y-80440000D03*
X66550000Y-80440000D03*
D50*
X66050000Y-80440000D03*
X66050000Y-79540000D03*
D51*
X66550000Y-79540000D03*
X67050000Y-79540000D03*
D50*
X67550000Y-79540000D03*
%TD*%
D52*
%TO.C,Q6*%
X57934627Y-90950000D03*
X59834627Y-90950000D03*
X58885127Y-93150000D03*
%TD*%
D28*
%TO.C,R215*%
X87000000Y-113080000D03*
X87000000Y-112120000D03*
%TD*%
D32*
%TO.C,R191*%
X136320000Y-124060000D03*
X137280000Y-124060000D03*
%TD*%
D53*
%TO.C,Q11*%
X64560000Y-74350000D03*
X64560000Y-73352000D03*
X65862000Y-73850000D03*
%TD*%
D33*
%TO.C,R285*%
X50400000Y-73820000D03*
X50400000Y-74780000D03*
%TD*%
D30*
%TO.C,C21*%
X115150000Y-77950000D03*
X113750000Y-77950000D03*
%TD*%
D54*
%TO.C,Q8*%
X70900000Y-70550000D03*
X71898000Y-70550000D03*
X71400000Y-71852000D03*
%TD*%
D26*
%TO.C,C41*%
X68160000Y-78710000D03*
X67200000Y-78710000D03*
%TD*%
D55*
%TO.C,U3*%
X110200000Y-87070000D03*
X110200000Y-88020000D03*
X110200000Y-88970000D03*
X107800000Y-88970000D03*
X107800000Y-88020000D03*
X107800000Y-87070000D03*
%TD*%
D54*
%TO.C,Q5*%
X58860000Y-88250000D03*
X59858000Y-88250000D03*
X59360000Y-89552000D03*
%TD*%
%TO.C,Q1004*%
X59750000Y-65100000D03*
X60748000Y-65100000D03*
X60250000Y-66402000D03*
%TD*%
D56*
%TO.C,Q1001*%
X63150000Y-66701000D03*
X63150000Y-64801000D03*
X65350000Y-65750500D03*
%TD*%
D26*
%TO.C,R190*%
X139280000Y-123000000D03*
X138320000Y-123000000D03*
%TD*%
%TO.C,C137*%
X71680000Y-80600000D03*
X70720000Y-80600000D03*
%TD*%
%TO.C,R294*%
X132080000Y-70900000D03*
X131120000Y-70900000D03*
%TD*%
D54*
%TO.C,Q22*%
X49200000Y-74950000D03*
X48202000Y-74950000D03*
X48700000Y-73648000D03*
%TD*%
D57*
%TO.C,SW1*%
X53887500Y-72747000D03*
X56888500Y-72747000D03*
D58*
X53139500Y-74496000D03*
X56138500Y-74496000D03*
X57637500Y-74496000D03*
D59*
X51738500Y-73711000D03*
X51738500Y-71783000D03*
X59039500Y-71783000D03*
X59039500Y-73711000D03*
%TD*%
D26*
%TO.C,R255*%
X47020000Y-74475000D03*
X46060000Y-74475000D03*
%TD*%
D28*
%TO.C,R1*%
X90000000Y-113080000D03*
X90000000Y-112120000D03*
%TD*%
%TO.C,C160*%
X55250000Y-83230000D03*
X55250000Y-82270000D03*
%TD*%
%TO.C,R147*%
X38608000Y-118336000D03*
X38608000Y-117376000D03*
%TD*%
D26*
%TO.C,R260*%
X65780000Y-77500000D03*
X64820000Y-77500000D03*
%TD*%
D60*
%TO.C,BT1*%
X132048313Y-72020000D03*
X132048313Y-73520000D03*
%TD*%
D32*
%TO.C,C18*%
X126255000Y-87750000D03*
X127215000Y-87750000D03*
%TD*%
%TO.C,C20*%
X126270000Y-93750000D03*
X127230000Y-93750000D03*
%TD*%
D37*
%TO.C,C1310*%
X118870000Y-51000000D03*
X119830000Y-51000000D03*
%TD*%
D61*
%TO.C,U37*%
X60950000Y-77554000D03*
X60950000Y-76603000D03*
X60950000Y-75653000D03*
X63264000Y-75653000D03*
X63264000Y-76603000D03*
X63264000Y-77554000D03*
%TD*%
D32*
%TO.C,C19*%
X126255000Y-90750000D03*
X127215000Y-90750000D03*
%TD*%
D28*
%TO.C,C150*%
X47300000Y-80580000D03*
X47300000Y-79620000D03*
%TD*%
D30*
%TO.C,C24*%
X115200000Y-95000000D03*
X113800000Y-95000000D03*
%TD*%
D32*
%TO.C,R284*%
X53300000Y-83200000D03*
X54260000Y-83200000D03*
%TD*%
D33*
%TO.C,R219*%
X89000000Y-112120000D03*
X89000000Y-113080000D03*
%TD*%
D25*
%TO.C,TP33*%
X63205000Y-70170000D03*
%TD*%
D32*
%TO.C,R256*%
X58420000Y-79950000D03*
X59380000Y-79950000D03*
%TD*%
D40*
%TO.C,C134*%
X76260000Y-78850000D03*
X76260000Y-80250000D03*
%TD*%
D55*
%TO.C,U2*%
X110200000Y-91070000D03*
X110200000Y-92020000D03*
X110200000Y-92970000D03*
X107800000Y-92970000D03*
X107800000Y-92020000D03*
X107800000Y-91070000D03*
%TD*%
D62*
%TO.C,R1304*%
X115640000Y-59150000D03*
X116660000Y-59150000D03*
%TD*%
D28*
%TO.C,R13*%
X111600000Y-92480000D03*
X111600000Y-91520000D03*
%TD*%
D32*
%TO.C,R19*%
X112020000Y-80400000D03*
X112980000Y-80400000D03*
%TD*%
D63*
%TO.C,D29*%
X53400000Y-77238000D03*
X53400000Y-76364000D03*
%TD*%
D33*
%TO.C,C78*%
X39608000Y-117376000D03*
X39608000Y-118336000D03*
%TD*%
D32*
%TO.C,C15*%
X126255000Y-89750000D03*
X127215000Y-89750000D03*
%TD*%
D29*
%TO.C,D58*%
X119899000Y-127100000D03*
X120599000Y-127100000D03*
%TD*%
D53*
%TO.C,Q7*%
X60350000Y-73600000D03*
X60350000Y-72602000D03*
X61652000Y-73100000D03*
%TD*%
D28*
%TO.C,R261*%
X72300000Y-76180000D03*
X72300000Y-75220000D03*
%TD*%
D25*
%TO.C,TP11*%
X130085000Y-87770000D03*
%TD*%
D32*
%TO.C,R189*%
X140220000Y-123000000D03*
X141180000Y-123000000D03*
%TD*%
%TO.C,R249*%
X58860000Y-74900000D03*
X59820000Y-74900000D03*
%TD*%
D30*
%TO.C,C23*%
X115200000Y-93000000D03*
X113800000Y-93000000D03*
%TD*%
D32*
%TO.C,R257*%
X55820000Y-76200000D03*
X56780000Y-76200000D03*
%TD*%
D38*
%TO.C,R175*%
X48890000Y-77660000D03*
X50290000Y-77660000D03*
%TD*%
D21*
%TO.C,J2*%
X119092000Y-96751000D03*
D22*
X119092000Y-76754000D03*
D64*
X124366000Y-96001000D03*
X116818000Y-95754000D03*
X124366000Y-95504000D03*
X116818000Y-95254000D03*
X124366000Y-95004000D03*
X116818000Y-94752000D03*
X124366000Y-94503000D03*
X116818000Y-94253000D03*
X124366000Y-94003000D03*
X116818000Y-93753000D03*
X124366000Y-93503000D03*
X116818000Y-93253000D03*
X124366000Y-93003000D03*
X116818000Y-92753000D03*
X124366000Y-92503000D03*
X116818000Y-92253000D03*
X124366000Y-92003000D03*
X116818000Y-91753000D03*
X124366000Y-91503000D03*
X116818000Y-91253000D03*
X124366000Y-91003000D03*
X116818000Y-90753000D03*
X124366000Y-90502000D03*
X116818000Y-90252000D03*
X124366000Y-90002000D03*
X116818000Y-89752000D03*
X124366000Y-89502000D03*
X116818000Y-89252000D03*
X124366000Y-89002000D03*
X116818000Y-88752000D03*
X124366000Y-88503000D03*
X116818000Y-88253000D03*
X124366000Y-88003000D03*
X116818000Y-87753000D03*
X124366000Y-87502000D03*
X116818000Y-87252000D03*
X124366000Y-87002000D03*
X116818000Y-86752000D03*
X124366000Y-86503000D03*
X116818000Y-86253000D03*
X124366000Y-86003000D03*
X116818000Y-85753000D03*
X124366000Y-85502000D03*
X116818000Y-85252000D03*
X124366000Y-85002000D03*
X116818000Y-84752000D03*
X124366000Y-84502000D03*
X116818000Y-84252000D03*
X124366000Y-84002000D03*
X116818000Y-83752000D03*
X124366000Y-83502000D03*
X116818000Y-83252000D03*
X124366000Y-83002000D03*
X116818000Y-82752000D03*
X124366000Y-82503000D03*
X116818000Y-82253000D03*
X124366000Y-82003000D03*
X116818000Y-81753000D03*
X124366000Y-79503000D03*
X116818000Y-79253000D03*
X124366000Y-79003000D03*
X116818000Y-78753000D03*
X124366000Y-78504000D03*
X116818000Y-78254000D03*
X124366000Y-78004000D03*
X116818000Y-77754000D03*
X124366000Y-77504000D03*
D65*
X123591000Y-97103000D03*
X123591000Y-76402000D03*
%TD*%
D66*
%TO.C,U34*%
X88750000Y-108100000D03*
X89250000Y-108100000D03*
X89750000Y-108100000D03*
X90250000Y-108100000D03*
D67*
X90900000Y-108750000D03*
X90900000Y-109250000D03*
X90900000Y-109750000D03*
X90900000Y-110250000D03*
D68*
X90250000Y-110900000D03*
X89750000Y-110900000D03*
X89250000Y-110900000D03*
X88750000Y-110900000D03*
D69*
X88100000Y-110250000D03*
X88100000Y-109750000D03*
X88100000Y-109250000D03*
X88100000Y-108750000D03*
D70*
X89500000Y-109500000D03*
%TD*%
D26*
%TO.C,R165*%
X47321428Y-81615000D03*
X46361428Y-81615000D03*
%TD*%
D40*
%TO.C,R143*%
X119560000Y-99290000D03*
X119560000Y-100690000D03*
%TD*%
D71*
%TO.C,U35*%
X138479000Y-125472000D03*
X138479000Y-124820000D03*
X138479000Y-124170000D03*
X140580000Y-124170000D03*
X140580000Y-124820000D03*
X140580000Y-125472000D03*
D72*
X139530000Y-124820000D03*
%TD*%
D28*
%TO.C,R268*%
X58650000Y-87250000D03*
X58650000Y-86290000D03*
%TD*%
D32*
%TO.C,C25*%
X114120000Y-80400000D03*
X115080000Y-80400000D03*
%TD*%
D37*
%TO.C,C1321*%
X115670000Y-57500000D03*
X116630000Y-57500000D03*
%TD*%
D32*
%TO.C,C117*%
X55820000Y-77200000D03*
X56780000Y-77200000D03*
%TD*%
D25*
%TO.C,TP10*%
X130085000Y-86719200D03*
%TD*%
D73*
%TO.C,U41*%
X72825000Y-80752000D03*
X72825000Y-80100000D03*
X72825000Y-79450000D03*
X74773000Y-79450000D03*
X74773000Y-80100000D03*
X74773000Y-80752000D03*
D74*
X73800000Y-80100000D03*
%TD*%
D75*
%TO.C,R195*%
X92200000Y-112548000D03*
X91802000Y-112548000D03*
X91400000Y-112548000D03*
X91002000Y-112548000D03*
X91002000Y-111950000D03*
X91400000Y-111950000D03*
X91802000Y-111950000D03*
X92200000Y-111950000D03*
%TD*%
D23*
%TO.C,FID5*%
X31250000Y-127250000D03*
%TD*%
D76*
%TO.C,U48*%
X52175000Y-80175000D03*
D77*
X52000000Y-80350000D03*
D66*
X52650000Y-80175000D03*
X53100000Y-80175000D03*
D76*
X53575000Y-80175000D03*
D77*
X53750000Y-80350000D03*
D78*
X52875000Y-80825000D03*
X52875000Y-81325000D03*
D77*
X53750000Y-81800000D03*
D79*
X53575000Y-81975000D03*
D68*
X53100000Y-81975000D03*
X52650000Y-81975000D03*
D77*
X52000000Y-81800000D03*
D79*
X52175000Y-81975000D03*
%TD*%
D80*
%TO.C,D31*%
X64018000Y-84140000D03*
X63144000Y-84140000D03*
%TD*%
D26*
%TO.C,C40*%
X66940000Y-81310000D03*
X65980000Y-81310000D03*
%TD*%
D37*
%TO.C,C1309*%
X118870000Y-52500000D03*
X119830000Y-52500000D03*
%TD*%
D32*
%TO.C,R259*%
X67220000Y-72900000D03*
X68180000Y-72900000D03*
%TD*%
%TO.C,C119*%
X64820000Y-75500000D03*
X65780000Y-75500000D03*
%TD*%
D16*
%TO.C,SP8*%
X40750000Y-86750000D03*
%TD*%
D28*
%TO.C,C124*%
X71300000Y-76180000D03*
X71300000Y-75220000D03*
%TD*%
D32*
%TO.C,R258*%
X61320000Y-78950000D03*
X62280000Y-78950000D03*
%TD*%
D81*
%TO.C,J1001*%
X71120000Y-64979999D03*
D82*
X71120000Y-67519999D03*
X73660000Y-64979999D03*
X73660000Y-67519999D03*
X76200000Y-64979999D03*
X76200000Y-67519999D03*
X78740000Y-64979999D03*
X78740000Y-67519999D03*
X81280000Y-64979999D03*
X81280000Y-67519999D03*
X83820000Y-64979999D03*
X83820000Y-67519999D03*
X86360000Y-64979999D03*
X86360000Y-67519999D03*
X88900000Y-64979999D03*
X88900000Y-67519999D03*
X91440000Y-64979999D03*
X91440000Y-67519999D03*
X93980000Y-64979999D03*
X93980000Y-67519999D03*
X96520000Y-64979999D03*
X96520000Y-67519999D03*
X99060000Y-64979999D03*
X99060000Y-67519999D03*
X101600000Y-64979999D03*
X101600000Y-67519999D03*
X104140000Y-64979999D03*
X104140000Y-67519999D03*
X106680000Y-64979999D03*
X106680000Y-67519999D03*
X109220000Y-64979999D03*
X109220000Y-67519999D03*
X111760000Y-64979999D03*
X111760000Y-67519999D03*
X114300000Y-64979999D03*
X114300000Y-67519999D03*
X116840000Y-64979999D03*
X116840000Y-67519999D03*
X119380000Y-64979999D03*
X119380000Y-67519999D03*
%TD*%
D83*
%TO.C,C5*%
X61575000Y-92950000D03*
X63775000Y-92950000D03*
%TD*%
D26*
%TO.C,R218*%
X87080000Y-108200000D03*
X86120000Y-108200000D03*
%TD*%
D28*
%TO.C,R16*%
X111600000Y-90500000D03*
X111600000Y-89540000D03*
%TD*%
D32*
%TO.C,C116*%
X59420000Y-78950000D03*
X60380000Y-78950000D03*
%TD*%
D26*
%TO.C,C130*%
X140490000Y-126600000D03*
X139530000Y-126600000D03*
%TD*%
D25*
%TO.C,TP14*%
X68165000Y-120070000D03*
%TD*%
D84*
%TO.C,D23*%
X129301000Y-94500000D03*
X128601000Y-94500000D03*
%TD*%
D28*
%TO.C,C104*%
X87000000Y-110780000D03*
X87000000Y-109820000D03*
%TD*%
%TO.C,R164*%
X46300000Y-80580000D03*
X46300000Y-79620000D03*
%TD*%
D37*
%TO.C,C1308*%
X118870000Y-54000000D03*
X119830000Y-54000000D03*
%TD*%
D56*
%TO.C,Q18*%
X48525000Y-81051000D03*
X48525000Y-79151000D03*
X50725000Y-80100500D03*
%TD*%
D85*
%TO.C,R1305*%
X114050000Y-46660000D03*
X114050000Y-45640000D03*
%TD*%
M02*
