%TF.GenerationSoftware,KiCad,Pcbnew,10.0.6*%
%TF.CreationDate,2026-09-29T05:45:57-04:00*%
%TF.ProjectId,atlas_brain,61746c61-735f-4627-9261-696e2e6b6963,1.3.4*%
%TF.SameCoordinates,Original*%
%TF.FileFunction,Soldermask,Top*%
%TF.FilePolarity,Negative*%
%FSLAX46Y46*%
G04 Gerber Fmt 4.6, Leading zero omitted, Abs format (unit mm)*
G04 Created by KiCad (PCBNEW 10.0.6) date 2026-09-29 05:45:57*
%MOMM*%
%LPD*%
G01*
G04 APERTURE LIST*
G04 Aperture macros list*
%AMRoundRect*
0 Rectangle with rounded corners*
0 $1 Rounding radius*
0 $2 $3 $4 $5 $6 $7 $8 $9 X,Y pos of 4 corners*
0 Add a 4 corners polygon primitive as box body*
4,1,4,$2,$3,$4,$5,$6,$7,$8,$9,$2,$3,0*
0 Add four circle primitives for the rounded corners*
1,1,$1+$1,$2,$3*
1,1,$1+$1,$4,$5*
1,1,$1+$1,$6,$7*
1,1,$1+$1,$8,$9*
0 Add four rect primitives between the rounded corners*
20,1,$1+$1,$2,$3,$4,$5,0*
20,1,$1+$1,$4,$5,$6,$7,0*
20,1,$1+$1,$6,$7,$8,$9,0*
20,1,$1+$1,$8,$9,$2,$3,0*%
%AMFreePoly0*
4,1,15,2.200000,0.087500,0.150000,0.087500,0.150000,-0.287500,0.144291,-0.316201,0.128033,-0.340533,0.103701,-0.356791,0.075000,-0.362500,-0.075000,-0.362500,-0.103701,-0.356791,-0.128033,-0.340533,-0.144291,-0.316201,-0.150000,-0.287500,-0.150000,0.362500,2.200000,0.362500,2.200000,0.087500,2.200000,0.087500,$1*%
%AMFreePoly1*
4,1,9,1.825000,0.245000,1.175000,0.245000,1.175000,-0.500000,0.500000,-0.500000,-0.500000,-0.500000,-1.000000,-0.500000,-1.000000,0.700000,1.825000,0.700000,1.825000,0.245000,1.825000,0.245000,$1*%
%AMFreePoly2*
4,1,17,1.371000,0.720000,0.950000,0.720000,0.950000,0.580000,1.370000,0.580000,1.370000,0.080000,0.950000,0.080000,0.950000,-0.080000,1.370000,-0.080000,1.370000,-0.580000,0.950000,-0.580000,0.950000,-0.720000,1.370000,-0.720000,1.370000,-1.225000,-0.950000,-1.225000,-0.950000,1.225000,1.371000,1.225000,1.371000,0.720000,1.371000,0.720000,$1*%
G04 Aperture macros list end*
%ADD10C,0.125000*%
%ADD11C,0.001395*%
%ADD12C,0.010000*%
%ADD13RoundRect,0.140000X-0.140000X-0.170000X0.140000X-0.170000X0.140000X0.170000X-0.140000X0.170000X0*%
%ADD14RoundRect,0.160000X-0.240000X-0.340000X0.240000X-0.340000X0.240000X0.340000X-0.240000X0.340000X0*%
%ADD15RoundRect,0.140000X-0.170000X0.140000X-0.170000X-0.140000X0.170000X-0.140000X0.170000X0.140000X0*%
%ADD16RoundRect,0.135000X0.185000X-0.135000X0.185000X0.135000X-0.185000X0.135000X-0.185000X-0.135000X0*%
%ADD17R,0.400000X0.510000*%
%ADD18RoundRect,0.147500X-0.172500X0.147500X-0.172500X-0.147500X0.172500X-0.147500X0.172500X0.147500X0*%
%ADD19RoundRect,0.250000X-0.325000X-1.100000X0.325000X-1.100000X0.325000X1.100000X-0.325000X1.100000X0*%
%ADD20RoundRect,0.250000X-0.375000X-0.850000X0.375000X-0.850000X0.375000X0.850000X-0.375000X0.850000X0*%
%ADD21RoundRect,0.147500X0.172500X-0.147500X0.172500X0.147500X-0.172500X0.147500X-0.172500X-0.147500X0*%
%ADD22RoundRect,0.250000X-0.325000X-0.650000X0.325000X-0.650000X0.325000X0.650000X-0.325000X0.650000X0*%
%ADD23RoundRect,0.075000X0.175000X-0.075000X0.175000X0.075000X-0.175000X0.075000X-0.175000X-0.075000X0*%
%ADD24RoundRect,0.160000X0.390000X-0.240000X0.390000X0.240000X-0.390000X0.240000X-0.390000X-0.240000X0*%
%ADD25RoundRect,0.250000X0.625000X-0.312500X0.625000X0.312500X-0.625000X0.312500X-0.625000X-0.312500X0*%
%ADD26C,3.250000*%
%ADD27C,1.397000*%
%ADD28C,1.524000*%
%ADD29C,2.100000*%
%ADD30C,2.108200*%
%ADD31RoundRect,0.225000X0.250000X-0.225000X0.250000X0.225000X-0.250000X0.225000X-0.250000X-0.225000X0*%
%ADD32RoundRect,0.135000X-0.185000X0.135000X-0.185000X-0.135000X0.185000X-0.135000X0.185000X0.135000X0*%
%ADD33RoundRect,0.155000X0.620000X2.645000X-0.620000X2.645000X-0.620000X-2.645000X0.620000X-2.645000X0*%
%ADD34RoundRect,0.147500X-0.147500X-0.172500X0.147500X-0.172500X0.147500X0.172500X-0.147500X0.172500X0*%
%ADD35RoundRect,0.300000X-0.300000X-0.350000X0.300000X-0.350000X0.300000X0.350000X-0.300000X0.350000X0*%
%ADD36RoundRect,0.160000X-0.340000X0.240000X-0.340000X-0.240000X0.340000X-0.240000X0.340000X0.240000X0*%
%ADD37RoundRect,0.140000X0.140000X0.170000X-0.140000X0.170000X-0.140000X-0.170000X0.140000X-0.170000X0*%
%ADD38C,6.000000*%
%ADD39C,0.750000*%
%ADD40RoundRect,0.250000X0.650000X-0.325000X0.650000X0.325000X-0.650000X0.325000X-0.650000X-0.325000X0*%
%ADD41RoundRect,0.135000X-0.135000X-0.185000X0.135000X-0.185000X0.135000X0.185000X-0.135000X0.185000X0*%
%ADD42RoundRect,0.135000X0.135000X0.185000X-0.135000X0.185000X-0.135000X-0.185000X0.135000X-0.185000X0*%
%ADD43RoundRect,0.147500X0.147500X0.172500X-0.147500X0.172500X-0.147500X-0.172500X0.147500X-0.172500X0*%
%ADD44RoundRect,0.140000X0.170000X-0.140000X0.170000X0.140000X-0.170000X0.140000X-0.170000X-0.140000X0*%
%ADD45R,0.900000X1.000000*%
%ADD46RoundRect,0.250000X-1.950000X-1.000000X1.950000X-1.000000X1.950000X1.000000X-1.950000X1.000000X0*%
%ADD47C,2.000000*%
%ADD48C,1.150000*%
%ADD49C,1.650000*%
%ADD50R,0.300000X1.750000*%
%ADD51R,2.000000X3.500000*%
%ADD52RoundRect,0.160000X-0.390000X0.240000X-0.390000X-0.240000X0.390000X-0.240000X0.390000X0.240000X0*%
%ADD53RoundRect,0.250000X0.325000X1.100000X-0.325000X1.100000X-0.325000X-1.100000X0.325000X-1.100000X0*%
%ADD54RoundRect,0.250000X-0.250000X-0.475000X0.250000X-0.475000X0.250000X0.475000X-0.250000X0.475000X0*%
%ADD55RoundRect,0.225000X-0.225000X-0.250000X0.225000X-0.250000X0.225000X0.250000X-0.225000X0.250000X0*%
%ADD56RoundRect,0.075000X-0.075000X0.225000X-0.075000X-0.225000X0.075000X-0.225000X0.075000X0.225000X0*%
%ADD57RoundRect,0.062500X-0.062500X0.237500X-0.062500X-0.237500X0.062500X-0.237500X0.062500X0.237500X0*%
%ADD58RoundRect,0.062500X-0.212500X0.062500X-0.212500X-0.062500X0.212500X-0.062500X0.212500X0.062500X0*%
%ADD59RoundRect,0.100000X-0.175000X0.100000X-0.175000X-0.100000X0.175000X-0.100000X0.175000X0.100000X0*%
%ADD60RoundRect,0.160000X0.240000X0.340000X-0.240000X0.340000X-0.240000X-0.340000X0.240000X-0.340000X0*%
%ADD61RoundRect,0.250000X-0.262500X-0.450000X0.262500X-0.450000X0.262500X0.450000X-0.262500X0.450000X0*%
%ADD62RoundRect,0.050000X-0.050000X-0.150000X0.050000X-0.150000X0.050000X0.150000X-0.050000X0.150000X0*%
%ADD63RoundRect,0.160000X0.340000X-0.240000X0.340000X0.240000X-0.340000X0.240000X-0.340000X-0.240000X0*%
%ADD64RoundRect,0.075000X-0.075000X-0.287500X0.075000X-0.287500X0.075000X0.287500X-0.075000X0.287500X0*%
%ADD65FreePoly0,270.000000*%
%ADD66RoundRect,0.075000X-0.287500X0.075000X-0.287500X-0.075000X0.287500X-0.075000X0.287500X0.075000X0*%
%ADD67R,1.050000X1.575000*%
%ADD68R,1.050000X1.150000*%
%ADD69FreePoly1,270.000000*%
%ADD70R,0.380000X0.580000*%
%ADD71RoundRect,0.250000X-1.000000X-0.900000X1.000000X-0.900000X1.000000X0.900000X-1.000000X0.900000X0*%
%ADD72RoundRect,0.250000X0.450000X-0.262500X0.450000X0.262500X-0.450000X0.262500X-0.450000X-0.262500X0*%
%ADD73RoundRect,0.200000X-0.200000X-0.275000X0.200000X-0.275000X0.200000X0.275000X-0.200000X0.275000X0*%
%ADD74RoundRect,0.250000X0.475000X-0.250000X0.475000X0.250000X-0.475000X0.250000X-0.475000X-0.250000X0*%
%ADD75RoundRect,0.200000X0.275000X-0.200000X0.275000X0.200000X-0.275000X0.200000X-0.275000X-0.200000X0*%
%ADD76RoundRect,0.075000X-0.225000X-0.075000X0.225000X-0.075000X0.225000X0.075000X-0.225000X0.075000X0*%
%ADD77RoundRect,0.062500X-0.237500X-0.062500X0.237500X-0.062500X0.237500X0.062500X-0.237500X0.062500X0*%
%ADD78RoundRect,0.233000X-1.017000X-0.932000X1.017000X-0.932000X1.017000X0.932000X-1.017000X0.932000X0*%
%ADD79RoundRect,0.125000X-0.125000X0.190000X-0.125000X-0.190000X0.125000X-0.190000X0.125000X0.190000X0*%
%ADD80FreePoly2,270.000000*%
%ADD81RoundRect,0.249999X3.000001X-0.710001X3.000001X0.710001X-3.000001X0.710001X-3.000001X-0.710001X0*%
%ADD82RoundRect,0.081250X0.081250X-0.118750X0.081250X0.118750X-0.081250X0.118750X-0.081250X-0.118750X0*%
%ADD83RoundRect,0.125000X-0.190000X-0.125000X0.190000X-0.125000X0.190000X0.125000X-0.190000X0.125000X0*%
%ADD84FreePoly2,0.000000*%
%ADD85C,0.800000*%
%ADD86C,6.400000*%
%ADD87RoundRect,0.062500X0.187500X0.062500X-0.187500X0.062500X-0.187500X-0.062500X0.187500X-0.062500X0*%
%ADD88R,1.000000X2.650000*%
%ADD89RoundRect,0.250000X-0.625000X0.312500X-0.625000X-0.312500X0.625000X-0.312500X0.625000X0.312500X0*%
%ADD90RoundRect,0.200000X-0.450000X0.200000X-0.450000X-0.200000X0.450000X-0.200000X0.450000X0.200000X0*%
%ADD91RoundRect,0.250001X-1.249999X0.799999X-1.249999X-0.799999X1.249999X-0.799999X1.249999X0.799999X0*%
%ADD92RoundRect,0.081250X-0.118750X-0.081250X0.118750X-0.081250X0.118750X0.081250X-0.118750X0.081250X0*%
%ADD93RoundRect,0.050000X0.100000X-0.250000X0.100000X0.250000X-0.100000X0.250000X-0.100000X-0.250000X0*%
%ADD94RoundRect,0.050000X-0.275000X0.075000X-0.275000X-0.075000X0.275000X-0.075000X0.275000X0.075000X0*%
%ADD95RoundRect,0.050000X0.075000X-0.250000X0.075000X0.250000X-0.075000X0.250000X-0.075000X-0.250000X0*%
%ADD96RoundRect,0.075000X1.125000X-0.075000X1.125000X0.075000X-1.125000X0.075000X-1.125000X-0.075000X0*%
%ADD97RoundRect,0.050000X-0.100000X0.250000X-0.100000X-0.250000X0.100000X-0.250000X0.100000X0.250000X0*%
%ADD98RoundRect,0.050000X-0.075000X0.250000X-0.075000X-0.250000X0.075000X-0.250000X0.075000X0.250000X0*%
%ADD99RoundRect,0.100000X0.100000X-0.637500X0.100000X0.637500X-0.100000X0.637500X-0.100000X-0.637500X0*%
%ADD100RoundRect,0.050000X-0.150000X0.050000X-0.150000X-0.050000X0.150000X-0.050000X0.150000X0.050000X0*%
%ADD101RoundRect,0.075000X0.287500X-0.075000X0.287500X0.075000X-0.287500X0.075000X-0.287500X-0.075000X0*%
%ADD102FreePoly0,0.000000*%
%ADD103R,1.575000X1.050000*%
%ADD104R,1.150000X1.050000*%
%ADD105FreePoly1,0.000000*%
%ADD106R,0.580000X0.380000*%
%ADD107RoundRect,0.125000X0.500000X2.225000X-0.500000X2.225000X-0.500000X-2.225000X0.500000X-2.225000X0*%
%ADD108RoundRect,0.062500X0.337500X0.062500X-0.337500X0.062500X-0.337500X-0.062500X0.337500X-0.062500X0*%
%ADD109RoundRect,0.062500X0.062500X0.337500X-0.062500X0.337500X-0.062500X-0.337500X0.062500X-0.337500X0*%
%ADD110R,5.300000X5.300000*%
%ADD111RoundRect,0.225000X0.225000X0.250000X-0.225000X0.250000X-0.225000X-0.250000X0.225000X-0.250000X0*%
%ADD112RoundRect,0.250000X1.000000X0.900000X-1.000000X0.900000X-1.000000X-0.900000X1.000000X-0.900000X0*%
%ADD113C,1.100000*%
%ADD114C,1.600000*%
%ADD115R,1.550000X0.300000*%
%ADD116R,2.750000X1.200000*%
%ADD117RoundRect,0.050000X0.250000X0.100000X-0.250000X0.100000X-0.250000X-0.100000X0.250000X-0.100000X0*%
%ADD118RoundRect,0.050000X-0.075000X-0.275000X0.075000X-0.275000X0.075000X0.275000X-0.075000X0.275000X0*%
%ADD119RoundRect,0.050000X0.250000X0.075000X-0.250000X0.075000X-0.250000X-0.075000X0.250000X-0.075000X0*%
%ADD120RoundRect,0.075000X0.075000X1.125000X-0.075000X1.125000X-0.075000X-1.125000X0.075000X-1.125000X0*%
%ADD121RoundRect,0.050000X-0.250000X-0.100000X0.250000X-0.100000X0.250000X0.100000X-0.250000X0.100000X0*%
%ADD122RoundRect,0.050000X-0.250000X-0.075000X0.250000X-0.075000X0.250000X0.075000X-0.250000X0.075000X0*%
%ADD123C,0.900000*%
%ADD124R,1.700000X1.700000*%
%ADD125C,1.700000*%
G04 APERTURE END LIST*
D10*
X136344140Y-77822323D02*
X136344140Y-78179466D01*
X136344140Y-78179466D02*
X136320331Y-78250894D01*
X136320331Y-78250894D02*
X136272712Y-78298514D01*
X136272712Y-78298514D02*
X136201283Y-78322323D01*
X136201283Y-78322323D02*
X136153664Y-78322323D01*
X136772711Y-78298514D02*
X136725092Y-78322323D01*
X136725092Y-78322323D02*
X136629854Y-78322323D01*
X136629854Y-78322323D02*
X136582235Y-78298514D01*
X136582235Y-78298514D02*
X136558426Y-78250894D01*
X136558426Y-78250894D02*
X136558426Y-78060418D01*
X136558426Y-78060418D02*
X136582235Y-78012799D01*
X136582235Y-78012799D02*
X136629854Y-77988990D01*
X136629854Y-77988990D02*
X136725092Y-77988990D01*
X136725092Y-77988990D02*
X136772711Y-78012799D01*
X136772711Y-78012799D02*
X136796521Y-78060418D01*
X136796521Y-78060418D02*
X136796521Y-78108037D01*
X136796521Y-78108037D02*
X136558426Y-78155656D01*
X136939378Y-77988990D02*
X137129854Y-77988990D01*
X137010806Y-77822323D02*
X137010806Y-78250894D01*
X137010806Y-78250894D02*
X137034616Y-78298514D01*
X137034616Y-78298514D02*
X137082235Y-78322323D01*
X137082235Y-78322323D02*
X137129854Y-78322323D01*
X137272711Y-78298514D02*
X137320330Y-78322323D01*
X137320330Y-78322323D02*
X137415568Y-78322323D01*
X137415568Y-78322323D02*
X137463187Y-78298514D01*
X137463187Y-78298514D02*
X137486996Y-78250894D01*
X137486996Y-78250894D02*
X137486996Y-78227085D01*
X137486996Y-78227085D02*
X137463187Y-78179466D01*
X137463187Y-78179466D02*
X137415568Y-78155656D01*
X137415568Y-78155656D02*
X137344139Y-78155656D01*
X137344139Y-78155656D02*
X137296520Y-78131847D01*
X137296520Y-78131847D02*
X137272711Y-78084228D01*
X137272711Y-78084228D02*
X137272711Y-78060418D01*
X137272711Y-78060418D02*
X137296520Y-78012799D01*
X137296520Y-78012799D02*
X137344139Y-77988990D01*
X137344139Y-77988990D02*
X137415568Y-77988990D01*
X137415568Y-77988990D02*
X137463187Y-78012799D01*
X137772711Y-78322323D02*
X137725092Y-78298514D01*
X137725092Y-78298514D02*
X137701282Y-78274704D01*
X137701282Y-78274704D02*
X137677473Y-78227085D01*
X137677473Y-78227085D02*
X137677473Y-78084228D01*
X137677473Y-78084228D02*
X137701282Y-78036609D01*
X137701282Y-78036609D02*
X137725092Y-78012799D01*
X137725092Y-78012799D02*
X137772711Y-77988990D01*
X137772711Y-77988990D02*
X137844139Y-77988990D01*
X137844139Y-77988990D02*
X137891758Y-78012799D01*
X137891758Y-78012799D02*
X137915568Y-78036609D01*
X137915568Y-78036609D02*
X137939377Y-78084228D01*
X137939377Y-78084228D02*
X137939377Y-78227085D01*
X137939377Y-78227085D02*
X137915568Y-78274704D01*
X137915568Y-78274704D02*
X137891758Y-78298514D01*
X137891758Y-78298514D02*
X137844139Y-78322323D01*
X137844139Y-78322323D02*
X137772711Y-78322323D01*
X138153663Y-77988990D02*
X138153663Y-78322323D01*
X138153663Y-78036609D02*
X138177473Y-78012799D01*
X138177473Y-78012799D02*
X138225092Y-77988990D01*
X138225092Y-77988990D02*
X138296520Y-77988990D01*
X138296520Y-77988990D02*
X138344139Y-78012799D01*
X138344139Y-78012799D02*
X138367949Y-78060418D01*
X138367949Y-78060418D02*
X138367949Y-78322323D01*
X139082234Y-77822323D02*
X139177472Y-77822323D01*
X139177472Y-77822323D02*
X139225091Y-77846133D01*
X139225091Y-77846133D02*
X139272710Y-77893752D01*
X139272710Y-77893752D02*
X139296520Y-77988990D01*
X139296520Y-77988990D02*
X139296520Y-78155656D01*
X139296520Y-78155656D02*
X139272710Y-78250894D01*
X139272710Y-78250894D02*
X139225091Y-78298514D01*
X139225091Y-78298514D02*
X139177472Y-78322323D01*
X139177472Y-78322323D02*
X139082234Y-78322323D01*
X139082234Y-78322323D02*
X139034615Y-78298514D01*
X139034615Y-78298514D02*
X138986996Y-78250894D01*
X138986996Y-78250894D02*
X138963187Y-78155656D01*
X138963187Y-78155656D02*
X138963187Y-77988990D01*
X138963187Y-77988990D02*
X138986996Y-77893752D01*
X138986996Y-77893752D02*
X139034615Y-77846133D01*
X139034615Y-77846133D02*
X139082234Y-77822323D01*
X139510806Y-78322323D02*
X139510806Y-77988990D01*
X139510806Y-78084228D02*
X139534616Y-78036609D01*
X139534616Y-78036609D02*
X139558425Y-78012799D01*
X139558425Y-78012799D02*
X139606044Y-77988990D01*
X139606044Y-77988990D02*
X139653663Y-77988990D01*
X139820330Y-78322323D02*
X139820330Y-77988990D01*
X139820330Y-77822323D02*
X139796521Y-77846133D01*
X139796521Y-77846133D02*
X139820330Y-77869942D01*
X139820330Y-77869942D02*
X139844140Y-77846133D01*
X139844140Y-77846133D02*
X139820330Y-77822323D01*
X139820330Y-77822323D02*
X139820330Y-77869942D01*
X140058425Y-77988990D02*
X140058425Y-78322323D01*
X140058425Y-78036609D02*
X140082235Y-78012799D01*
X140082235Y-78012799D02*
X140129854Y-77988990D01*
X140129854Y-77988990D02*
X140201282Y-77988990D01*
X140201282Y-77988990D02*
X140248901Y-78012799D01*
X140248901Y-78012799D02*
X140272711Y-78060418D01*
X140272711Y-78060418D02*
X140272711Y-78322323D01*
X141058425Y-78060418D02*
X141129853Y-78084228D01*
X141129853Y-78084228D02*
X141153663Y-78108037D01*
X141153663Y-78108037D02*
X141177472Y-78155656D01*
X141177472Y-78155656D02*
X141177472Y-78227085D01*
X141177472Y-78227085D02*
X141153663Y-78274704D01*
X141153663Y-78274704D02*
X141129853Y-78298514D01*
X141129853Y-78298514D02*
X141082234Y-78322323D01*
X141082234Y-78322323D02*
X140891758Y-78322323D01*
X140891758Y-78322323D02*
X140891758Y-77822323D01*
X140891758Y-77822323D02*
X141058425Y-77822323D01*
X141058425Y-77822323D02*
X141106044Y-77846133D01*
X141106044Y-77846133D02*
X141129853Y-77869942D01*
X141129853Y-77869942D02*
X141153663Y-77917561D01*
X141153663Y-77917561D02*
X141153663Y-77965180D01*
X141153663Y-77965180D02*
X141129853Y-78012799D01*
X141129853Y-78012799D02*
X141106044Y-78036609D01*
X141106044Y-78036609D02*
X141058425Y-78060418D01*
X141058425Y-78060418D02*
X140891758Y-78060418D01*
X141606044Y-78322323D02*
X141606044Y-78060418D01*
X141606044Y-78060418D02*
X141582234Y-78012799D01*
X141582234Y-78012799D02*
X141534615Y-77988990D01*
X141534615Y-77988990D02*
X141439377Y-77988990D01*
X141439377Y-77988990D02*
X141391758Y-78012799D01*
X141606044Y-78298514D02*
X141558425Y-78322323D01*
X141558425Y-78322323D02*
X141439377Y-78322323D01*
X141439377Y-78322323D02*
X141391758Y-78298514D01*
X141391758Y-78298514D02*
X141367949Y-78250894D01*
X141367949Y-78250894D02*
X141367949Y-78203275D01*
X141367949Y-78203275D02*
X141391758Y-78155656D01*
X141391758Y-78155656D02*
X141439377Y-78131847D01*
X141439377Y-78131847D02*
X141558425Y-78131847D01*
X141558425Y-78131847D02*
X141606044Y-78108037D01*
X141820330Y-78298514D02*
X141867949Y-78322323D01*
X141867949Y-78322323D02*
X141963187Y-78322323D01*
X141963187Y-78322323D02*
X142010806Y-78298514D01*
X142010806Y-78298514D02*
X142034615Y-78250894D01*
X142034615Y-78250894D02*
X142034615Y-78227085D01*
X142034615Y-78227085D02*
X142010806Y-78179466D01*
X142010806Y-78179466D02*
X141963187Y-78155656D01*
X141963187Y-78155656D02*
X141891758Y-78155656D01*
X141891758Y-78155656D02*
X141844139Y-78131847D01*
X141844139Y-78131847D02*
X141820330Y-78084228D01*
X141820330Y-78084228D02*
X141820330Y-78060418D01*
X141820330Y-78060418D02*
X141844139Y-78012799D01*
X141844139Y-78012799D02*
X141891758Y-77988990D01*
X141891758Y-77988990D02*
X141963187Y-77988990D01*
X141963187Y-77988990D02*
X142010806Y-78012799D01*
X142439377Y-78298514D02*
X142391758Y-78322323D01*
X142391758Y-78322323D02*
X142296520Y-78322323D01*
X142296520Y-78322323D02*
X142248901Y-78298514D01*
X142248901Y-78298514D02*
X142225092Y-78250894D01*
X142225092Y-78250894D02*
X142225092Y-78060418D01*
X142225092Y-78060418D02*
X142248901Y-78012799D01*
X142248901Y-78012799D02*
X142296520Y-77988990D01*
X142296520Y-77988990D02*
X142391758Y-77988990D01*
X142391758Y-77988990D02*
X142439377Y-78012799D01*
X142439377Y-78012799D02*
X142463187Y-78060418D01*
X142463187Y-78060418D02*
X142463187Y-78108037D01*
X142463187Y-78108037D02*
X142225092Y-78155656D01*
X142677472Y-78322323D02*
X142677472Y-77822323D01*
X142677472Y-78012799D02*
X142725091Y-77988990D01*
X142725091Y-77988990D02*
X142820329Y-77988990D01*
X142820329Y-77988990D02*
X142867948Y-78012799D01*
X142867948Y-78012799D02*
X142891758Y-78036609D01*
X142891758Y-78036609D02*
X142915567Y-78084228D01*
X142915567Y-78084228D02*
X142915567Y-78227085D01*
X142915567Y-78227085D02*
X142891758Y-78274704D01*
X142891758Y-78274704D02*
X142867948Y-78298514D01*
X142867948Y-78298514D02*
X142820329Y-78322323D01*
X142820329Y-78322323D02*
X142725091Y-78322323D01*
X142725091Y-78322323D02*
X142677472Y-78298514D01*
X143201282Y-78322323D02*
X143153663Y-78298514D01*
X143153663Y-78298514D02*
X143129853Y-78274704D01*
X143129853Y-78274704D02*
X143106044Y-78227085D01*
X143106044Y-78227085D02*
X143106044Y-78084228D01*
X143106044Y-78084228D02*
X143129853Y-78036609D01*
X143129853Y-78036609D02*
X143153663Y-78012799D01*
X143153663Y-78012799D02*
X143201282Y-77988990D01*
X143201282Y-77988990D02*
X143272710Y-77988990D01*
X143272710Y-77988990D02*
X143320329Y-78012799D01*
X143320329Y-78012799D02*
X143344139Y-78036609D01*
X143344139Y-78036609D02*
X143367948Y-78084228D01*
X143367948Y-78084228D02*
X143367948Y-78227085D01*
X143367948Y-78227085D02*
X143344139Y-78274704D01*
X143344139Y-78274704D02*
X143320329Y-78298514D01*
X143320329Y-78298514D02*
X143272710Y-78322323D01*
X143272710Y-78322323D02*
X143201282Y-78322323D01*
X143796520Y-78322323D02*
X143796520Y-78060418D01*
X143796520Y-78060418D02*
X143772710Y-78012799D01*
X143772710Y-78012799D02*
X143725091Y-77988990D01*
X143725091Y-77988990D02*
X143629853Y-77988990D01*
X143629853Y-77988990D02*
X143582234Y-78012799D01*
X143796520Y-78298514D02*
X143748901Y-78322323D01*
X143748901Y-78322323D02*
X143629853Y-78322323D01*
X143629853Y-78322323D02*
X143582234Y-78298514D01*
X143582234Y-78298514D02*
X143558425Y-78250894D01*
X143558425Y-78250894D02*
X143558425Y-78203275D01*
X143558425Y-78203275D02*
X143582234Y-78155656D01*
X143582234Y-78155656D02*
X143629853Y-78131847D01*
X143629853Y-78131847D02*
X143748901Y-78131847D01*
X143748901Y-78131847D02*
X143796520Y-78108037D01*
X144034615Y-78322323D02*
X144034615Y-77988990D01*
X144034615Y-78084228D02*
X144058425Y-78036609D01*
X144058425Y-78036609D02*
X144082234Y-78012799D01*
X144082234Y-78012799D02*
X144129853Y-77988990D01*
X144129853Y-77988990D02*
X144177472Y-77988990D01*
X144558425Y-78322323D02*
X144558425Y-77822323D01*
X144558425Y-78298514D02*
X144510806Y-78322323D01*
X144510806Y-78322323D02*
X144415568Y-78322323D01*
X144415568Y-78322323D02*
X144367949Y-78298514D01*
X144367949Y-78298514D02*
X144344139Y-78274704D01*
X144344139Y-78274704D02*
X144320330Y-78227085D01*
X144320330Y-78227085D02*
X144320330Y-78084228D01*
X144320330Y-78084228D02*
X144344139Y-78036609D01*
X144344139Y-78036609D02*
X144367949Y-78012799D01*
X144367949Y-78012799D02*
X144415568Y-77988990D01*
X144415568Y-77988990D02*
X144510806Y-77988990D01*
X144510806Y-77988990D02*
X144558425Y-78012799D01*
X136486997Y-79127295D02*
X136320331Y-78889200D01*
X136201283Y-79127295D02*
X136201283Y-78627295D01*
X136201283Y-78627295D02*
X136391759Y-78627295D01*
X136391759Y-78627295D02*
X136439378Y-78651105D01*
X136439378Y-78651105D02*
X136463188Y-78674914D01*
X136463188Y-78674914D02*
X136486997Y-78722533D01*
X136486997Y-78722533D02*
X136486997Y-78793962D01*
X136486997Y-78793962D02*
X136463188Y-78841581D01*
X136463188Y-78841581D02*
X136439378Y-78865390D01*
X136439378Y-78865390D02*
X136391759Y-78889200D01*
X136391759Y-78889200D02*
X136201283Y-78889200D01*
X136891759Y-79103486D02*
X136844140Y-79127295D01*
X136844140Y-79127295D02*
X136748902Y-79127295D01*
X136748902Y-79127295D02*
X136701283Y-79103486D01*
X136701283Y-79103486D02*
X136677474Y-79055866D01*
X136677474Y-79055866D02*
X136677474Y-78865390D01*
X136677474Y-78865390D02*
X136701283Y-78817771D01*
X136701283Y-78817771D02*
X136748902Y-78793962D01*
X136748902Y-78793962D02*
X136844140Y-78793962D01*
X136844140Y-78793962D02*
X136891759Y-78817771D01*
X136891759Y-78817771D02*
X136915569Y-78865390D01*
X136915569Y-78865390D02*
X136915569Y-78913009D01*
X136915569Y-78913009D02*
X136677474Y-78960628D01*
X137082235Y-78793962D02*
X137201283Y-79127295D01*
X137201283Y-79127295D02*
X137320330Y-78793962D01*
X137510806Y-79079676D02*
X137534616Y-79103486D01*
X137534616Y-79103486D02*
X137510806Y-79127295D01*
X137510806Y-79127295D02*
X137486997Y-79103486D01*
X137486997Y-79103486D02*
X137510806Y-79079676D01*
X137510806Y-79079676D02*
X137510806Y-79127295D01*
X138391758Y-79127295D02*
X138106044Y-79127295D01*
X138248901Y-79127295D02*
X138248901Y-78627295D01*
X138248901Y-78627295D02*
X138201282Y-78698724D01*
X138201282Y-78698724D02*
X138153663Y-78746343D01*
X138153663Y-78746343D02*
X138106044Y-78770152D01*
X138606043Y-79079676D02*
X138629853Y-79103486D01*
X138629853Y-79103486D02*
X138606043Y-79127295D01*
X138606043Y-79127295D02*
X138582234Y-79103486D01*
X138582234Y-79103486D02*
X138606043Y-79079676D01*
X138606043Y-79079676D02*
X138606043Y-79127295D01*
X138796519Y-78627295D02*
X139106043Y-78627295D01*
X139106043Y-78627295D02*
X138939376Y-78817771D01*
X138939376Y-78817771D02*
X139010805Y-78817771D01*
X139010805Y-78817771D02*
X139058424Y-78841581D01*
X139058424Y-78841581D02*
X139082233Y-78865390D01*
X139082233Y-78865390D02*
X139106043Y-78913009D01*
X139106043Y-78913009D02*
X139106043Y-79032057D01*
X139106043Y-79032057D02*
X139082233Y-79079676D01*
X139082233Y-79079676D02*
X139058424Y-79103486D01*
X139058424Y-79103486D02*
X139010805Y-79127295D01*
X139010805Y-79127295D02*
X138867948Y-79127295D01*
X138867948Y-79127295D02*
X138820329Y-79103486D01*
X138820329Y-79103486D02*
X138796519Y-79079676D01*
X139320328Y-79079676D02*
X139344138Y-79103486D01*
X139344138Y-79103486D02*
X139320328Y-79127295D01*
X139320328Y-79127295D02*
X139296519Y-79103486D01*
X139296519Y-79103486D02*
X139320328Y-79079676D01*
X139320328Y-79079676D02*
X139320328Y-79127295D01*
X139772709Y-78793962D02*
X139772709Y-79127295D01*
X139653661Y-78603486D02*
X139534614Y-78960628D01*
X139534614Y-78960628D02*
X139844137Y-78960628D01*
X141129850Y-78627295D02*
X141439374Y-78627295D01*
X141439374Y-78627295D02*
X141272707Y-78817771D01*
X141272707Y-78817771D02*
X141344136Y-78817771D01*
X141344136Y-78817771D02*
X141391755Y-78841581D01*
X141391755Y-78841581D02*
X141415564Y-78865390D01*
X141415564Y-78865390D02*
X141439374Y-78913009D01*
X141439374Y-78913009D02*
X141439374Y-79032057D01*
X141439374Y-79032057D02*
X141415564Y-79079676D01*
X141415564Y-79079676D02*
X141391755Y-79103486D01*
X141391755Y-79103486D02*
X141344136Y-79127295D01*
X141344136Y-79127295D02*
X141201279Y-79127295D01*
X141201279Y-79127295D02*
X141153660Y-79103486D01*
X141153660Y-79103486D02*
X141129850Y-79079676D01*
X142010802Y-78603486D02*
X141582231Y-79246343D01*
X142153660Y-78674914D02*
X142177469Y-78651105D01*
X142177469Y-78651105D02*
X142225088Y-78627295D01*
X142225088Y-78627295D02*
X142344136Y-78627295D01*
X142344136Y-78627295D02*
X142391755Y-78651105D01*
X142391755Y-78651105D02*
X142415564Y-78674914D01*
X142415564Y-78674914D02*
X142439374Y-78722533D01*
X142439374Y-78722533D02*
X142439374Y-78770152D01*
X142439374Y-78770152D02*
X142415564Y-78841581D01*
X142415564Y-78841581D02*
X142129850Y-79127295D01*
X142129850Y-79127295D02*
X142439374Y-79127295D01*
X142748897Y-78627295D02*
X142796516Y-78627295D01*
X142796516Y-78627295D02*
X142844135Y-78651105D01*
X142844135Y-78651105D02*
X142867945Y-78674914D01*
X142867945Y-78674914D02*
X142891754Y-78722533D01*
X142891754Y-78722533D02*
X142915564Y-78817771D01*
X142915564Y-78817771D02*
X142915564Y-78936819D01*
X142915564Y-78936819D02*
X142891754Y-79032057D01*
X142891754Y-79032057D02*
X142867945Y-79079676D01*
X142867945Y-79079676D02*
X142844135Y-79103486D01*
X142844135Y-79103486D02*
X142796516Y-79127295D01*
X142796516Y-79127295D02*
X142748897Y-79127295D01*
X142748897Y-79127295D02*
X142701278Y-79103486D01*
X142701278Y-79103486D02*
X142677469Y-79079676D01*
X142677469Y-79079676D02*
X142653659Y-79032057D01*
X142653659Y-79032057D02*
X142629850Y-78936819D01*
X142629850Y-78936819D02*
X142629850Y-78817771D01*
X142629850Y-78817771D02*
X142653659Y-78722533D01*
X142653659Y-78722533D02*
X142677469Y-78674914D01*
X142677469Y-78674914D02*
X142701278Y-78651105D01*
X142701278Y-78651105D02*
X142748897Y-78627295D01*
X143106040Y-78674914D02*
X143129849Y-78651105D01*
X143129849Y-78651105D02*
X143177468Y-78627295D01*
X143177468Y-78627295D02*
X143296516Y-78627295D01*
X143296516Y-78627295D02*
X143344135Y-78651105D01*
X143344135Y-78651105D02*
X143367944Y-78674914D01*
X143367944Y-78674914D02*
X143391754Y-78722533D01*
X143391754Y-78722533D02*
X143391754Y-78770152D01*
X143391754Y-78770152D02*
X143367944Y-78841581D01*
X143367944Y-78841581D02*
X143082230Y-79127295D01*
X143082230Y-79127295D02*
X143391754Y-79127295D01*
X143844134Y-78627295D02*
X143606039Y-78627295D01*
X143606039Y-78627295D02*
X143582230Y-78865390D01*
X143582230Y-78865390D02*
X143606039Y-78841581D01*
X143606039Y-78841581D02*
X143653658Y-78817771D01*
X143653658Y-78817771D02*
X143772706Y-78817771D01*
X143772706Y-78817771D02*
X143820325Y-78841581D01*
X143820325Y-78841581D02*
X143844134Y-78865390D01*
X143844134Y-78865390D02*
X143867944Y-78913009D01*
X143867944Y-78913009D02*
X143867944Y-79032057D01*
X143867944Y-79032057D02*
X143844134Y-79079676D01*
X143844134Y-79079676D02*
X143820325Y-79103486D01*
X143820325Y-79103486D02*
X143772706Y-79127295D01*
X143772706Y-79127295D02*
X143653658Y-79127295D01*
X143653658Y-79127295D02*
X143606039Y-79103486D01*
X143606039Y-79103486D02*
X143582230Y-79079676D01*
D11*
%TO.C,REF\u002A\u002A*%
X141255000Y-77578000D02*
X140972000Y-77578000D01*
X140972000Y-75900000D01*
X141255000Y-75900000D01*
X141255000Y-77578000D01*
G36*
X141255000Y-77578000D02*
G01*
X140972000Y-77578000D01*
X140972000Y-75900000D01*
X141255000Y-75900000D01*
X141255000Y-77578000D01*
G37*
X143469000Y-75878000D02*
X143490000Y-75881000D01*
X143498000Y-75886000D01*
X143500000Y-75888000D01*
X143495000Y-75906000D01*
X143487000Y-75940000D01*
X143474000Y-75984000D01*
X143468000Y-76002000D01*
X143452000Y-76051000D01*
X143440000Y-76080000D01*
X143429000Y-76094000D01*
X143418000Y-76096000D01*
X143416000Y-76096000D01*
X143343000Y-76080000D01*
X143261000Y-76075000D01*
X143179000Y-76080000D01*
X143109000Y-76095000D01*
X143094000Y-76100000D01*
X143062000Y-76112000D01*
X143062000Y-77578000D01*
X142778000Y-77578000D01*
X142778000Y-75986000D01*
X142865000Y-75955000D01*
X142939000Y-75930000D01*
X143006000Y-75912000D01*
X143075000Y-75897000D01*
X143149000Y-75888000D01*
X143237000Y-75882000D01*
X143301000Y-75880000D01*
X143378000Y-75877000D01*
X143432000Y-75877000D01*
X143469000Y-75878000D01*
G36*
X143469000Y-75878000D02*
G01*
X143490000Y-75881000D01*
X143498000Y-75886000D01*
X143500000Y-75888000D01*
X143495000Y-75906000D01*
X143487000Y-75940000D01*
X143474000Y-75984000D01*
X143468000Y-76002000D01*
X143452000Y-76051000D01*
X143440000Y-76080000D01*
X143429000Y-76094000D01*
X143418000Y-76096000D01*
X143416000Y-76096000D01*
X143343000Y-76080000D01*
X143261000Y-76075000D01*
X143179000Y-76080000D01*
X143109000Y-76095000D01*
X143094000Y-76100000D01*
X143062000Y-76112000D01*
X143062000Y-77578000D01*
X142778000Y-77578000D01*
X142778000Y-75986000D01*
X142865000Y-75955000D01*
X142939000Y-75930000D01*
X143006000Y-75912000D01*
X143075000Y-75897000D01*
X143149000Y-75888000D01*
X143237000Y-75882000D01*
X143301000Y-75880000D01*
X143378000Y-75877000D01*
X143432000Y-75877000D01*
X143469000Y-75878000D01*
G37*
X137942000Y-75451000D02*
X137944000Y-75483000D01*
X137946000Y-75530000D01*
X137947000Y-75590000D01*
X137947000Y-75661000D01*
X137947000Y-75670000D01*
X137947000Y-75900000D01*
X138231000Y-75900000D01*
X138231000Y-76090000D01*
X137947000Y-76090000D01*
X137947000Y-77242000D01*
X137974000Y-77293000D01*
X138009000Y-77343000D01*
X138053000Y-77372000D01*
X138111000Y-77385000D01*
X138157000Y-77386000D01*
X138231000Y-77382000D01*
X138231000Y-77474000D01*
X138229000Y-77529000D01*
X138223000Y-77563000D01*
X138216000Y-77574000D01*
X138200000Y-77578000D01*
X138163000Y-77582000D01*
X138116000Y-77585000D01*
X138083000Y-77587000D01*
X138019000Y-77587000D01*
X137971000Y-77584000D01*
X137930000Y-77576000D01*
X137903000Y-77568000D01*
X137832000Y-77533000D01*
X137774000Y-77487000D01*
X137727000Y-77421000D01*
X137712000Y-77394000D01*
X137670000Y-77315000D01*
X137667000Y-76701000D01*
X137663000Y-76090000D01*
X137475000Y-76090000D01*
X137475000Y-75900000D01*
X137664000Y-75900000D01*
X137664000Y-75524000D01*
X137799000Y-75481000D01*
X137851000Y-75465000D01*
X137896000Y-75451000D01*
X137926000Y-75443000D01*
X137940000Y-75439000D01*
X137942000Y-75451000D01*
G36*
X137942000Y-75451000D02*
G01*
X137944000Y-75483000D01*
X137946000Y-75530000D01*
X137947000Y-75590000D01*
X137947000Y-75661000D01*
X137947000Y-75670000D01*
X137947000Y-75900000D01*
X138231000Y-75900000D01*
X138231000Y-76090000D01*
X137947000Y-76090000D01*
X137947000Y-77242000D01*
X137974000Y-77293000D01*
X138009000Y-77343000D01*
X138053000Y-77372000D01*
X138111000Y-77385000D01*
X138157000Y-77386000D01*
X138231000Y-77382000D01*
X138231000Y-77474000D01*
X138229000Y-77529000D01*
X138223000Y-77563000D01*
X138216000Y-77574000D01*
X138200000Y-77578000D01*
X138163000Y-77582000D01*
X138116000Y-77585000D01*
X138083000Y-77587000D01*
X138019000Y-77587000D01*
X137971000Y-77584000D01*
X137930000Y-77576000D01*
X137903000Y-77568000D01*
X137832000Y-77533000D01*
X137774000Y-77487000D01*
X137727000Y-77421000D01*
X137712000Y-77394000D01*
X137670000Y-77315000D01*
X137667000Y-76701000D01*
X137663000Y-76090000D01*
X137475000Y-76090000D01*
X137475000Y-75900000D01*
X137664000Y-75900000D01*
X137664000Y-75524000D01*
X137799000Y-75481000D01*
X137851000Y-75465000D01*
X137896000Y-75451000D01*
X137926000Y-75443000D01*
X137940000Y-75439000D01*
X137942000Y-75451000D01*
G37*
X136731000Y-75883000D02*
X136794000Y-75884000D01*
X136842000Y-75887000D01*
X136880000Y-75893000D01*
X136914000Y-75900000D01*
X136926000Y-75905000D01*
X137033000Y-75946000D01*
X137119000Y-75996000D01*
X137187000Y-76058000D01*
X137231000Y-76121000D01*
X137244000Y-76148000D01*
X137256000Y-76174000D01*
X137266000Y-76200000D01*
X137275000Y-76228000D01*
X137281000Y-76260000D01*
X137288000Y-76301000D01*
X137292000Y-76349000D01*
X137295000Y-76409000D01*
X137297000Y-76484000D01*
X137298000Y-76571000D01*
X137299000Y-76678000D01*
X137299000Y-76803000D01*
X137299000Y-76948000D01*
X137299000Y-77578000D01*
X137014000Y-77578000D01*
X137014000Y-76953000D01*
X137014000Y-76807000D01*
X137014000Y-76682000D01*
X137013000Y-76576000D01*
X137012000Y-76489000D01*
X137010000Y-76416000D01*
X137007000Y-76358000D01*
X137002000Y-76311000D01*
X136997000Y-76273000D01*
X136990000Y-76244000D01*
X136982000Y-76222000D01*
X136971000Y-76202000D01*
X136958000Y-76185000D01*
X136943000Y-76167000D01*
X136942000Y-76166000D01*
X136892000Y-76121000D01*
X136834000Y-76091000D01*
X136757000Y-76070000D01*
X136729000Y-76066000D01*
X136651000Y-76061000D01*
X136562000Y-76065000D01*
X136477000Y-76078000D01*
X136416000Y-76094000D01*
X136372000Y-76110000D01*
X136368000Y-76843000D01*
X136366000Y-77578000D01*
X136082000Y-77578000D01*
X136082000Y-75986000D01*
X136191000Y-75951000D01*
X136267000Y-75927000D01*
X136330000Y-75909000D01*
X136390000Y-75896000D01*
X136449000Y-75888000D01*
X136517000Y-75884000D01*
X136600000Y-75882000D01*
X136649000Y-75882000D01*
X136731000Y-75883000D01*
G36*
X136731000Y-75883000D02*
G01*
X136794000Y-75884000D01*
X136842000Y-75887000D01*
X136880000Y-75893000D01*
X136914000Y-75900000D01*
X136926000Y-75905000D01*
X137033000Y-75946000D01*
X137119000Y-75996000D01*
X137187000Y-76058000D01*
X137231000Y-76121000D01*
X137244000Y-76148000D01*
X137256000Y-76174000D01*
X137266000Y-76200000D01*
X137275000Y-76228000D01*
X137281000Y-76260000D01*
X137288000Y-76301000D01*
X137292000Y-76349000D01*
X137295000Y-76409000D01*
X137297000Y-76484000D01*
X137298000Y-76571000D01*
X137299000Y-76678000D01*
X137299000Y-76803000D01*
X137299000Y-76948000D01*
X137299000Y-77578000D01*
X137014000Y-77578000D01*
X137014000Y-76953000D01*
X137014000Y-76807000D01*
X137014000Y-76682000D01*
X137013000Y-76576000D01*
X137012000Y-76489000D01*
X137010000Y-76416000D01*
X137007000Y-76358000D01*
X137002000Y-76311000D01*
X136997000Y-76273000D01*
X136990000Y-76244000D01*
X136982000Y-76222000D01*
X136971000Y-76202000D01*
X136958000Y-76185000D01*
X136943000Y-76167000D01*
X136942000Y-76166000D01*
X136892000Y-76121000D01*
X136834000Y-76091000D01*
X136757000Y-76070000D01*
X136729000Y-76066000D01*
X136651000Y-76061000D01*
X136562000Y-76065000D01*
X136477000Y-76078000D01*
X136416000Y-76094000D01*
X136372000Y-76110000D01*
X136368000Y-76843000D01*
X136366000Y-77578000D01*
X136082000Y-77578000D01*
X136082000Y-75986000D01*
X136191000Y-75951000D01*
X136267000Y-75927000D01*
X136330000Y-75909000D01*
X136390000Y-75896000D01*
X136449000Y-75888000D01*
X136517000Y-75884000D01*
X136600000Y-75882000D01*
X136649000Y-75882000D01*
X136731000Y-75883000D01*
G37*
X140163000Y-75885000D02*
X140279000Y-75911000D01*
X140377000Y-75953000D01*
X140460000Y-76009000D01*
X140526000Y-76084000D01*
X140557000Y-76136000D01*
X140570000Y-76162000D01*
X140581000Y-76187000D01*
X140589000Y-76213000D01*
X140597000Y-76241000D01*
X140602000Y-76276000D01*
X140607000Y-76319000D01*
X140611000Y-76371000D01*
X140613000Y-76434000D01*
X140615000Y-76511000D01*
X140617000Y-76603000D01*
X140618000Y-76714000D01*
X140618000Y-76846000D01*
X140618000Y-76952000D01*
X140618000Y-77578000D01*
X140335000Y-77578000D01*
X140331000Y-76924000D01*
X140327000Y-76272000D01*
X140294000Y-76211000D01*
X140247000Y-76148000D01*
X140186000Y-76103000D01*
X140114000Y-76073000D01*
X140036000Y-76061000D01*
X139952000Y-76065000D01*
X139871000Y-76086000D01*
X139791000Y-76123000D01*
X139735000Y-76166000D01*
X139684000Y-76210000D01*
X139684000Y-77578000D01*
X139400000Y-77578000D01*
X139400000Y-76939000D01*
X139400000Y-76778000D01*
X139400000Y-76641000D01*
X139398000Y-76524000D01*
X139398000Y-76431000D01*
X139396000Y-76357000D01*
X139392000Y-76303000D01*
X139390000Y-76267000D01*
X139388000Y-76253000D01*
X139356000Y-76187000D01*
X139305000Y-76133000D01*
X139239000Y-76094000D01*
X139156000Y-76070000D01*
X139059000Y-76060000D01*
X138961000Y-76065000D01*
X138908000Y-76072000D01*
X138870000Y-76078000D01*
X138838000Y-76085000D01*
X138804000Y-76096000D01*
X138783000Y-76104000D01*
X138751000Y-76115000D01*
X138751000Y-77578000D01*
X138480000Y-77578000D01*
X138480000Y-75985000D01*
X138592000Y-75948000D01*
X138719000Y-75913000D01*
X138838000Y-75889000D01*
X138957000Y-75879000D01*
X139082000Y-75879000D01*
X139181000Y-75885000D01*
X139263000Y-75896000D01*
X139333000Y-75915000D01*
X139394000Y-75942000D01*
X139453000Y-75978000D01*
X139479000Y-75995000D01*
X139555000Y-76055000D01*
X139606000Y-76013000D01*
X139700000Y-75951000D01*
X139808000Y-75908000D01*
X139928000Y-75882000D01*
X140033000Y-75877000D01*
X140163000Y-75885000D01*
G36*
X140163000Y-75885000D02*
G01*
X140279000Y-75911000D01*
X140377000Y-75953000D01*
X140460000Y-76009000D01*
X140526000Y-76084000D01*
X140557000Y-76136000D01*
X140570000Y-76162000D01*
X140581000Y-76187000D01*
X140589000Y-76213000D01*
X140597000Y-76241000D01*
X140602000Y-76276000D01*
X140607000Y-76319000D01*
X140611000Y-76371000D01*
X140613000Y-76434000D01*
X140615000Y-76511000D01*
X140617000Y-76603000D01*
X140618000Y-76714000D01*
X140618000Y-76846000D01*
X140618000Y-76952000D01*
X140618000Y-77578000D01*
X140335000Y-77578000D01*
X140331000Y-76924000D01*
X140327000Y-76272000D01*
X140294000Y-76211000D01*
X140247000Y-76148000D01*
X140186000Y-76103000D01*
X140114000Y-76073000D01*
X140036000Y-76061000D01*
X139952000Y-76065000D01*
X139871000Y-76086000D01*
X139791000Y-76123000D01*
X139735000Y-76166000D01*
X139684000Y-76210000D01*
X139684000Y-77578000D01*
X139400000Y-77578000D01*
X139400000Y-76939000D01*
X139400000Y-76778000D01*
X139400000Y-76641000D01*
X139398000Y-76524000D01*
X139398000Y-76431000D01*
X139396000Y-76357000D01*
X139392000Y-76303000D01*
X139390000Y-76267000D01*
X139388000Y-76253000D01*
X139356000Y-76187000D01*
X139305000Y-76133000D01*
X139239000Y-76094000D01*
X139156000Y-76070000D01*
X139059000Y-76060000D01*
X138961000Y-76065000D01*
X138908000Y-76072000D01*
X138870000Y-76078000D01*
X138838000Y-76085000D01*
X138804000Y-76096000D01*
X138783000Y-76104000D01*
X138751000Y-76115000D01*
X138751000Y-77578000D01*
X138480000Y-77578000D01*
X138480000Y-75985000D01*
X138592000Y-75948000D01*
X138719000Y-75913000D01*
X138838000Y-75889000D01*
X138957000Y-75879000D01*
X139082000Y-75879000D01*
X139181000Y-75885000D01*
X139263000Y-75896000D01*
X139333000Y-75915000D01*
X139394000Y-75942000D01*
X139453000Y-75978000D01*
X139479000Y-75995000D01*
X139555000Y-76055000D01*
X139606000Y-76013000D01*
X139700000Y-75951000D01*
X139808000Y-75908000D01*
X139928000Y-75882000D01*
X140033000Y-75877000D01*
X140163000Y-75885000D01*
G37*
X144304000Y-75884000D02*
X144410000Y-75909000D01*
X144503000Y-75951000D01*
X144588000Y-76009000D01*
X144628000Y-76047000D01*
X144701000Y-76137000D01*
X144761000Y-76245000D01*
X144806000Y-76370000D01*
X144834000Y-76512000D01*
X144844000Y-76603000D01*
X144849000Y-76769000D01*
X144841000Y-76923000D01*
X144815000Y-77066000D01*
X144777000Y-77195000D01*
X144724000Y-77307000D01*
X144657000Y-77404000D01*
X144578000Y-77484000D01*
X144530000Y-77519000D01*
X144452000Y-77557000D01*
X144359000Y-77587000D01*
X144261000Y-77604000D01*
X144160000Y-77609000D01*
X144070000Y-77601000D01*
X143953000Y-77569000D01*
X143851000Y-77517000D01*
X143761000Y-77448000D01*
X143685000Y-77359000D01*
X143625000Y-77253000D01*
X143578000Y-77129000D01*
X143553000Y-77020000D01*
X143532000Y-76860000D01*
X143528000Y-76732000D01*
X143810000Y-76732000D01*
X143815000Y-76865000D01*
X143831000Y-76992000D01*
X143857000Y-77107000D01*
X143894000Y-77206000D01*
X143939000Y-77283000D01*
X143998000Y-77345000D01*
X144067000Y-77386000D01*
X144141000Y-77409000D01*
X144218000Y-77412000D01*
X144298000Y-77393000D01*
X144323000Y-77381000D01*
X144389000Y-77339000D01*
X144444000Y-77278000D01*
X144488000Y-77202000D01*
X144522000Y-77105000D01*
X144548000Y-76990000D01*
X144561000Y-76869000D01*
X144567000Y-76721000D01*
X144561000Y-76583000D01*
X144543000Y-76456000D01*
X144514000Y-76345000D01*
X144474000Y-76250000D01*
X144424000Y-76174000D01*
X144394000Y-76140000D01*
X144326000Y-76093000D01*
X144253000Y-76067000D01*
X144177000Y-76060000D01*
X144102000Y-76073000D01*
X144032000Y-76105000D01*
X143969000Y-76154000D01*
X143916000Y-76222000D01*
X143895000Y-76259000D01*
X143859000Y-76359000D01*
X143831000Y-76474000D01*
X143815000Y-76600000D01*
X143810000Y-76732000D01*
X143528000Y-76732000D01*
X143527000Y-76706000D01*
X143538000Y-76557000D01*
X143561000Y-76418000D01*
X143601000Y-76291000D01*
X143653000Y-76178000D01*
X143719000Y-76081000D01*
X143738000Y-76059000D01*
X143823000Y-75983000D01*
X143919000Y-75928000D01*
X144027000Y-75892000D01*
X144147000Y-75877000D01*
X144184000Y-75876000D01*
X144304000Y-75884000D01*
G36*
X144304000Y-75884000D02*
G01*
X144410000Y-75909000D01*
X144503000Y-75951000D01*
X144588000Y-76009000D01*
X144628000Y-76047000D01*
X144701000Y-76137000D01*
X144761000Y-76245000D01*
X144806000Y-76370000D01*
X144834000Y-76512000D01*
X144844000Y-76603000D01*
X144849000Y-76769000D01*
X144841000Y-76923000D01*
X144815000Y-77066000D01*
X144777000Y-77195000D01*
X144724000Y-77307000D01*
X144657000Y-77404000D01*
X144578000Y-77484000D01*
X144530000Y-77519000D01*
X144452000Y-77557000D01*
X144359000Y-77587000D01*
X144261000Y-77604000D01*
X144160000Y-77609000D01*
X144070000Y-77601000D01*
X143953000Y-77569000D01*
X143851000Y-77517000D01*
X143761000Y-77448000D01*
X143685000Y-77359000D01*
X143625000Y-77253000D01*
X143578000Y-77129000D01*
X143553000Y-77020000D01*
X143532000Y-76860000D01*
X143528000Y-76732000D01*
X143810000Y-76732000D01*
X143815000Y-76865000D01*
X143831000Y-76992000D01*
X143857000Y-77107000D01*
X143894000Y-77206000D01*
X143939000Y-77283000D01*
X143998000Y-77345000D01*
X144067000Y-77386000D01*
X144141000Y-77409000D01*
X144218000Y-77412000D01*
X144298000Y-77393000D01*
X144323000Y-77381000D01*
X144389000Y-77339000D01*
X144444000Y-77278000D01*
X144488000Y-77202000D01*
X144522000Y-77105000D01*
X144548000Y-76990000D01*
X144561000Y-76869000D01*
X144567000Y-76721000D01*
X144561000Y-76583000D01*
X144543000Y-76456000D01*
X144514000Y-76345000D01*
X144474000Y-76250000D01*
X144424000Y-76174000D01*
X144394000Y-76140000D01*
X144326000Y-76093000D01*
X144253000Y-76067000D01*
X144177000Y-76060000D01*
X144102000Y-76073000D01*
X144032000Y-76105000D01*
X143969000Y-76154000D01*
X143916000Y-76222000D01*
X143895000Y-76259000D01*
X143859000Y-76359000D01*
X143831000Y-76474000D01*
X143815000Y-76600000D01*
X143810000Y-76732000D01*
X143528000Y-76732000D01*
X143527000Y-76706000D01*
X143538000Y-76557000D01*
X143561000Y-76418000D01*
X143601000Y-76291000D01*
X143653000Y-76178000D01*
X143719000Y-76081000D01*
X143738000Y-76059000D01*
X143823000Y-75983000D01*
X143919000Y-75928000D01*
X144027000Y-75892000D01*
X144147000Y-75877000D01*
X144184000Y-75876000D01*
X144304000Y-75884000D01*
G37*
X142206000Y-75878000D02*
X142283000Y-75886000D01*
X142327000Y-75894000D01*
X142371000Y-75908000D01*
X142420000Y-75925000D01*
X142464000Y-75945000D01*
X142500000Y-75963000D01*
X142522000Y-75978000D01*
X142522000Y-75980000D01*
X142522000Y-75994000D01*
X142512000Y-76023000D01*
X142500000Y-76060000D01*
X142484000Y-76097000D01*
X142471000Y-76127000D01*
X142460000Y-76144000D01*
X142458000Y-76146000D01*
X142442000Y-76142000D01*
X142413000Y-76130000D01*
X142384000Y-76117000D01*
X142293000Y-76087000D01*
X142205000Y-76075000D01*
X142120000Y-76082000D01*
X142046000Y-76108000D01*
X141984000Y-76151000D01*
X141928000Y-76217000D01*
X141878000Y-76300000D01*
X141836000Y-76397000D01*
X141819000Y-76454000D01*
X141806000Y-76523000D01*
X141796000Y-76610000D01*
X141792000Y-76704000D01*
X141794000Y-76801000D01*
X141799000Y-76892000D01*
X141811000Y-76972000D01*
X141819000Y-77012000D01*
X141859000Y-77130000D01*
X141910000Y-77225000D01*
X141971000Y-77301000D01*
X142043000Y-77357000D01*
X142048000Y-77360000D01*
X142085000Y-77377000D01*
X142115000Y-77388000D01*
X142152000Y-77392000D01*
X142203000Y-77393000D01*
X142205000Y-77393000D01*
X142259000Y-77391000D01*
X142306000Y-77383000D01*
X142354000Y-77367000D01*
X142408000Y-77343000D01*
X142450000Y-77321000D01*
X142455000Y-77324000D01*
X142463000Y-77340000D01*
X142477000Y-77369000D01*
X142498000Y-77416000D01*
X142524000Y-77484000D01*
X142527000Y-77489000D01*
X142519000Y-77502000D01*
X142495000Y-77520000D01*
X142460000Y-77540000D01*
X142415000Y-77560000D01*
X142368000Y-77578000D01*
X142357000Y-77582000D01*
X142293000Y-77596000D01*
X142216000Y-77604000D01*
X142136000Y-77608000D01*
X142064000Y-77605000D01*
X142035000Y-77601000D01*
X141990000Y-77590000D01*
X141937000Y-77571000D01*
X141886000Y-77548000D01*
X141788000Y-77487000D01*
X141704000Y-77407000D01*
X141633000Y-77308000D01*
X141577000Y-77193000D01*
X141534000Y-77058000D01*
X141521000Y-76993000D01*
X141510000Y-76916000D01*
X141504000Y-76824000D01*
X141504000Y-76725000D01*
X141508000Y-76624000D01*
X141516000Y-76529000D01*
X141528000Y-76447000D01*
X141537000Y-76402000D01*
X141583000Y-76271000D01*
X141645000Y-76157000D01*
X141718000Y-76062000D01*
X141806000Y-75984000D01*
X141907000Y-75926000D01*
X141987000Y-75895000D01*
X142048000Y-75883000D01*
X142125000Y-75877000D01*
X142206000Y-75878000D01*
G36*
X142206000Y-75878000D02*
G01*
X142283000Y-75886000D01*
X142327000Y-75894000D01*
X142371000Y-75908000D01*
X142420000Y-75925000D01*
X142464000Y-75945000D01*
X142500000Y-75963000D01*
X142522000Y-75978000D01*
X142522000Y-75980000D01*
X142522000Y-75994000D01*
X142512000Y-76023000D01*
X142500000Y-76060000D01*
X142484000Y-76097000D01*
X142471000Y-76127000D01*
X142460000Y-76144000D01*
X142458000Y-76146000D01*
X142442000Y-76142000D01*
X142413000Y-76130000D01*
X142384000Y-76117000D01*
X142293000Y-76087000D01*
X142205000Y-76075000D01*
X142120000Y-76082000D01*
X142046000Y-76108000D01*
X141984000Y-76151000D01*
X141928000Y-76217000D01*
X141878000Y-76300000D01*
X141836000Y-76397000D01*
X141819000Y-76454000D01*
X141806000Y-76523000D01*
X141796000Y-76610000D01*
X141792000Y-76704000D01*
X141794000Y-76801000D01*
X141799000Y-76892000D01*
X141811000Y-76972000D01*
X141819000Y-77012000D01*
X141859000Y-77130000D01*
X141910000Y-77225000D01*
X141971000Y-77301000D01*
X142043000Y-77357000D01*
X142048000Y-77360000D01*
X142085000Y-77377000D01*
X142115000Y-77388000D01*
X142152000Y-77392000D01*
X142203000Y-77393000D01*
X142205000Y-77393000D01*
X142259000Y-77391000D01*
X142306000Y-77383000D01*
X142354000Y-77367000D01*
X142408000Y-77343000D01*
X142450000Y-77321000D01*
X142455000Y-77324000D01*
X142463000Y-77340000D01*
X142477000Y-77369000D01*
X142498000Y-77416000D01*
X142524000Y-77484000D01*
X142527000Y-77489000D01*
X142519000Y-77502000D01*
X142495000Y-77520000D01*
X142460000Y-77540000D01*
X142415000Y-77560000D01*
X142368000Y-77578000D01*
X142357000Y-77582000D01*
X142293000Y-77596000D01*
X142216000Y-77604000D01*
X142136000Y-77608000D01*
X142064000Y-77605000D01*
X142035000Y-77601000D01*
X141990000Y-77590000D01*
X141937000Y-77571000D01*
X141886000Y-77548000D01*
X141788000Y-77487000D01*
X141704000Y-77407000D01*
X141633000Y-77308000D01*
X141577000Y-77193000D01*
X141534000Y-77058000D01*
X141521000Y-76993000D01*
X141510000Y-76916000D01*
X141504000Y-76824000D01*
X141504000Y-76725000D01*
X141508000Y-76624000D01*
X141516000Y-76529000D01*
X141528000Y-76447000D01*
X141537000Y-76402000D01*
X141583000Y-76271000D01*
X141645000Y-76157000D01*
X141718000Y-76062000D01*
X141806000Y-75984000D01*
X141907000Y-75926000D01*
X141987000Y-75895000D01*
X142048000Y-75883000D01*
X142125000Y-75877000D01*
X142206000Y-75878000D01*
G37*
X135274000Y-75884000D02*
X135348000Y-75898000D01*
X135433000Y-75925000D01*
X135502000Y-75957000D01*
X135562000Y-75999000D01*
X135590000Y-76026000D01*
X135634000Y-76080000D01*
X135671000Y-76148000D01*
X135702000Y-76224000D01*
X135715000Y-76276000D01*
X135719000Y-76304000D01*
X135720000Y-76352000D01*
X135723000Y-76420000D01*
X135724000Y-76506000D01*
X135726000Y-76606000D01*
X135727000Y-76722000D01*
X135727000Y-76849000D01*
X135727000Y-76917000D01*
X135727000Y-77493000D01*
X135673000Y-77518000D01*
X135574000Y-77553000D01*
X135458000Y-77582000D01*
X135335000Y-77600000D01*
X135208000Y-77609000D01*
X135087000Y-77607000D01*
X135024000Y-77601000D01*
X134899000Y-77576000D01*
X134792000Y-77535000D01*
X134703000Y-77482000D01*
X134633000Y-77413000D01*
X134582000Y-77331000D01*
X134550000Y-77234000D01*
X134537000Y-77125000D01*
X134537000Y-77070000D01*
X134538000Y-77060000D01*
X134808000Y-77060000D01*
X134812000Y-77157000D01*
X134832000Y-77241000D01*
X134873000Y-77313000D01*
X134930000Y-77367000D01*
X135006000Y-77408000D01*
X135042000Y-77420000D01*
X135089000Y-77428000D01*
X135151000Y-77431000D01*
X135220000Y-77431000D01*
X135291000Y-77427000D01*
X135355000Y-77419000D01*
X135405000Y-77408000D01*
X135412000Y-77406000D01*
X135468000Y-77386000D01*
X135468000Y-76643000D01*
X135400000Y-76651000D01*
X135356000Y-76658000D01*
X135300000Y-76668000D01*
X135242000Y-76682000D01*
X135223000Y-76686000D01*
X135102000Y-76724000D01*
X135002000Y-76770000D01*
X134925000Y-76825000D01*
X134867000Y-76888000D01*
X134828000Y-76963000D01*
X134809000Y-77047000D01*
X134808000Y-77060000D01*
X134538000Y-77060000D01*
X134553000Y-76964000D01*
X134587000Y-76869000D01*
X134645000Y-76785000D01*
X134676000Y-76750000D01*
X134748000Y-76695000D01*
X134839000Y-76643000D01*
X134948000Y-76596000D01*
X135070000Y-76557000D01*
X135204000Y-76524000D01*
X135347000Y-76502000D01*
X135348000Y-76502000D01*
X135470000Y-76487000D01*
X135464000Y-76387000D01*
X135450000Y-76292000D01*
X135423000Y-76216000D01*
X135381000Y-76157000D01*
X135324000Y-76114000D01*
X135248000Y-76086000D01*
X135212000Y-76078000D01*
X135115000Y-76069000D01*
X135006000Y-76077000D01*
X134892000Y-76101000D01*
X134776000Y-76139000D01*
X134767000Y-76144000D01*
X134731000Y-76158000D01*
X134703000Y-76168000D01*
X134694000Y-76169000D01*
X134687000Y-76156000D01*
X134675000Y-76128000D01*
X134662000Y-76093000D01*
X134647000Y-76055000D01*
X134637000Y-76022000D01*
X134630000Y-76002000D01*
X134630000Y-75999000D01*
X134639000Y-75992000D01*
X134665000Y-75979000D01*
X134694000Y-75965000D01*
X134800000Y-75927000D01*
X134917000Y-75898000D01*
X135040000Y-75882000D01*
X135161000Y-75877000D01*
X135274000Y-75884000D01*
G36*
X135274000Y-75884000D02*
G01*
X135348000Y-75898000D01*
X135433000Y-75925000D01*
X135502000Y-75957000D01*
X135562000Y-75999000D01*
X135590000Y-76026000D01*
X135634000Y-76080000D01*
X135671000Y-76148000D01*
X135702000Y-76224000D01*
X135715000Y-76276000D01*
X135719000Y-76304000D01*
X135720000Y-76352000D01*
X135723000Y-76420000D01*
X135724000Y-76506000D01*
X135726000Y-76606000D01*
X135727000Y-76722000D01*
X135727000Y-76849000D01*
X135727000Y-76917000D01*
X135727000Y-77493000D01*
X135673000Y-77518000D01*
X135574000Y-77553000D01*
X135458000Y-77582000D01*
X135335000Y-77600000D01*
X135208000Y-77609000D01*
X135087000Y-77607000D01*
X135024000Y-77601000D01*
X134899000Y-77576000D01*
X134792000Y-77535000D01*
X134703000Y-77482000D01*
X134633000Y-77413000D01*
X134582000Y-77331000D01*
X134550000Y-77234000D01*
X134537000Y-77125000D01*
X134537000Y-77070000D01*
X134538000Y-77060000D01*
X134808000Y-77060000D01*
X134812000Y-77157000D01*
X134832000Y-77241000D01*
X134873000Y-77313000D01*
X134930000Y-77367000D01*
X135006000Y-77408000D01*
X135042000Y-77420000D01*
X135089000Y-77428000D01*
X135151000Y-77431000D01*
X135220000Y-77431000D01*
X135291000Y-77427000D01*
X135355000Y-77419000D01*
X135405000Y-77408000D01*
X135412000Y-77406000D01*
X135468000Y-77386000D01*
X135468000Y-76643000D01*
X135400000Y-76651000D01*
X135356000Y-76658000D01*
X135300000Y-76668000D01*
X135242000Y-76682000D01*
X135223000Y-76686000D01*
X135102000Y-76724000D01*
X135002000Y-76770000D01*
X134925000Y-76825000D01*
X134867000Y-76888000D01*
X134828000Y-76963000D01*
X134809000Y-77047000D01*
X134808000Y-77060000D01*
X134538000Y-77060000D01*
X134553000Y-76964000D01*
X134587000Y-76869000D01*
X134645000Y-76785000D01*
X134676000Y-76750000D01*
X134748000Y-76695000D01*
X134839000Y-76643000D01*
X134948000Y-76596000D01*
X135070000Y-76557000D01*
X135204000Y-76524000D01*
X135347000Y-76502000D01*
X135348000Y-76502000D01*
X135470000Y-76487000D01*
X135464000Y-76387000D01*
X135450000Y-76292000D01*
X135423000Y-76216000D01*
X135381000Y-76157000D01*
X135324000Y-76114000D01*
X135248000Y-76086000D01*
X135212000Y-76078000D01*
X135115000Y-76069000D01*
X135006000Y-76077000D01*
X134892000Y-76101000D01*
X134776000Y-76139000D01*
X134767000Y-76144000D01*
X134731000Y-76158000D01*
X134703000Y-76168000D01*
X134694000Y-76169000D01*
X134687000Y-76156000D01*
X134675000Y-76128000D01*
X134662000Y-76093000D01*
X134647000Y-76055000D01*
X134637000Y-76022000D01*
X134630000Y-76002000D01*
X134630000Y-75999000D01*
X134639000Y-75992000D01*
X134665000Y-75979000D01*
X134694000Y-75965000D01*
X134800000Y-75927000D01*
X134917000Y-75898000D01*
X135040000Y-75882000D01*
X135161000Y-75877000D01*
X135274000Y-75884000D01*
G37*
X131982000Y-74344000D02*
X132030000Y-74356000D01*
X132032000Y-74356000D01*
X132047000Y-74364000D01*
X132080000Y-74383000D01*
X132131000Y-74412000D01*
X132197000Y-74449000D01*
X132277000Y-74493000D01*
X132367000Y-74546000D01*
X132468000Y-74602000D01*
X132575000Y-74665000D01*
X132689000Y-74730000D01*
X132808000Y-74798000D01*
X132928000Y-74866000D01*
X133050000Y-74937000D01*
X133170000Y-75005000D01*
X133285000Y-75072000D01*
X133399000Y-75138000D01*
X133503000Y-75199000D01*
X133601000Y-75255000D01*
X133687000Y-75306000D01*
X133763000Y-75350000D01*
X133824000Y-75384000D01*
X133869000Y-75412000D01*
X133897000Y-75429000D01*
X133901000Y-75431000D01*
X133950000Y-75471000D01*
X133989000Y-75521000D01*
X134021000Y-75576000D01*
X134025000Y-76701000D01*
X134025000Y-76917000D01*
X134025000Y-77111000D01*
X134025000Y-77284000D01*
X134025000Y-77435000D01*
X134024000Y-77564000D01*
X134022000Y-77672000D01*
X134021000Y-77756000D01*
X134018000Y-77818000D01*
X134017000Y-77858000D01*
X134016000Y-77872000D01*
X134010000Y-77890000D01*
X134006000Y-77906000D01*
X133998000Y-77922000D01*
X133990000Y-77936000D01*
X133976000Y-77953000D01*
X133957000Y-77971000D01*
X133932000Y-77991000D01*
X133900000Y-78015000D01*
X133857000Y-78045000D01*
X133805000Y-78077000D01*
X133742000Y-78116000D01*
X133667000Y-78162000D01*
X133577000Y-78215000D01*
X133473000Y-78275000D01*
X133351000Y-78346000D01*
X133213000Y-78425000D01*
X133056000Y-78517000D01*
X132987000Y-78557000D01*
X132037000Y-79106000D01*
X131947000Y-79110000D01*
X131859000Y-79114000D01*
X131511000Y-78915000D01*
X131298000Y-78791000D01*
X131104000Y-78680000D01*
X130928000Y-78579000D01*
X130771000Y-78489000D01*
X130630000Y-78408000D01*
X130505000Y-78334000D01*
X130394000Y-78271000D01*
X130298000Y-78213000D01*
X130213000Y-78164000D01*
X130141000Y-78120000D01*
X130080000Y-78084000D01*
X130030000Y-78050000D01*
X129987000Y-78023000D01*
X129954000Y-77999000D01*
X129926000Y-77979000D01*
X129907000Y-77963000D01*
X129891000Y-77947000D01*
X129880000Y-77933000D01*
X129873000Y-77922000D01*
X129867000Y-77910000D01*
X129864000Y-77898000D01*
X129861000Y-77884000D01*
X129857000Y-77872000D01*
X129854000Y-77850000D01*
X129853000Y-77806000D01*
X129851000Y-77739000D01*
X129849000Y-77649000D01*
X129849000Y-77537000D01*
X129849000Y-77403000D01*
X129848000Y-77246000D01*
X129848000Y-77069000D01*
X129848000Y-76870000D01*
X129849000Y-76728000D01*
X130577000Y-76728000D01*
X130577000Y-76881000D01*
X130579000Y-77012000D01*
X130579000Y-77124000D01*
X130580000Y-77217000D01*
X130580000Y-77294000D01*
X130583000Y-77357000D01*
X130585000Y-77406000D01*
X130588000Y-77446000D01*
X130593000Y-77475000D01*
X130599000Y-77497000D01*
X130607000Y-77513000D01*
X130615000Y-77526000D01*
X130625000Y-77537000D01*
X130638000Y-77547000D01*
X130639000Y-77548000D01*
X130655000Y-77559000D01*
X130689000Y-77581000D01*
X130739000Y-77611000D01*
X130803000Y-77648000D01*
X130878000Y-77692000D01*
X130963000Y-77742000D01*
X131055000Y-77795000D01*
X131151000Y-77852000D01*
X131250000Y-77908000D01*
X131349000Y-77967000D01*
X131447000Y-78023000D01*
X131542000Y-78076000D01*
X131630000Y-78126000D01*
X131708000Y-78170000D01*
X131777000Y-78209000D01*
X131833000Y-78239000D01*
X131873000Y-78261000D01*
X131897000Y-78273000D01*
X131899000Y-78275000D01*
X131930000Y-78283000D01*
X131950000Y-78283000D01*
X131974000Y-78275000D01*
X131989000Y-78269000D01*
X132008000Y-78259000D01*
X132046000Y-78239000D01*
X132099000Y-78209000D01*
X132165000Y-78172000D01*
X132242000Y-78128000D01*
X132327000Y-78080000D01*
X132421000Y-78027000D01*
X132518000Y-77971000D01*
X132617000Y-77914000D01*
X132716000Y-77856000D01*
X132813000Y-77799000D01*
X132905000Y-77746000D01*
X132990000Y-77697000D01*
X133066000Y-77651000D01*
X133130000Y-77613000D01*
X133181000Y-77583000D01*
X133216000Y-77561000D01*
X133234000Y-77549000D01*
X133247000Y-77538000D01*
X133256000Y-77527000D01*
X133266000Y-77514000D01*
X133272000Y-77498000D01*
X133279000Y-77477000D01*
X133284000Y-77448000D01*
X133287000Y-77409000D01*
X133290000Y-77362000D01*
X133292000Y-77299000D01*
X133293000Y-77223000D01*
X133293000Y-77132000D01*
X133295000Y-77021000D01*
X133295000Y-76891000D01*
X133295000Y-76741000D01*
X133295000Y-76728000D01*
X133295000Y-76572000D01*
X133295000Y-76441000D01*
X133293000Y-76329000D01*
X133293000Y-76235000D01*
X133292000Y-76156000D01*
X133290000Y-76094000D01*
X133287000Y-76044000D01*
X133282000Y-76004000D01*
X133277000Y-75975000D01*
X133271000Y-75953000D01*
X133263000Y-75936000D01*
X133253000Y-75923000D01*
X133242000Y-75913000D01*
X133228000Y-75901000D01*
X133221000Y-75897000D01*
X133205000Y-75886000D01*
X133168000Y-75864000D01*
X133117000Y-75834000D01*
X133050000Y-75795000D01*
X132970000Y-75747000D01*
X132880000Y-75695000D01*
X132780000Y-75638000D01*
X132673000Y-75576000D01*
X132585000Y-75525000D01*
X132458000Y-75451000D01*
X132349000Y-75388000D01*
X132256000Y-75336000D01*
X132181000Y-75294000D01*
X132117000Y-75259000D01*
X132067000Y-75231000D01*
X132027000Y-75211000D01*
X131998000Y-75197000D01*
X131974000Y-75187000D01*
X131957000Y-75183000D01*
X131942000Y-75179000D01*
X131938000Y-75179000D01*
X131926000Y-75181000D01*
X131910000Y-75185000D01*
X131889000Y-75193000D01*
X131862000Y-75205000D01*
X131827000Y-75221000D01*
X131782000Y-75245000D01*
X131726000Y-75277000D01*
X131656000Y-75316000D01*
X131572000Y-75362000D01*
X131471000Y-75421000D01*
X131354000Y-75487000D01*
X131272000Y-75536000D01*
X131160000Y-75600000D01*
X131055000Y-75661000D01*
X130958000Y-75717000D01*
X130869000Y-75769000D01*
X130792000Y-75815000D01*
X130728000Y-75853000D01*
X130678000Y-75881000D01*
X130646000Y-75901000D01*
X130633000Y-75911000D01*
X130622000Y-75921000D01*
X130612000Y-75931000D01*
X130604000Y-75944000D01*
X130598000Y-75961000D01*
X130593000Y-75983000D01*
X130588000Y-76013000D01*
X130585000Y-76054000D01*
X130583000Y-76106000D01*
X130580000Y-76170000D01*
X130580000Y-76248000D01*
X130579000Y-76345000D01*
X130579000Y-76459000D01*
X130577000Y-76595000D01*
X130577000Y-76728000D01*
X129849000Y-76728000D01*
X129849000Y-76701000D01*
X129849000Y-76510000D01*
X129849000Y-76340000D01*
X129849000Y-76193000D01*
X129851000Y-76064000D01*
X129851000Y-75952000D01*
X129853000Y-75857000D01*
X129854000Y-75777000D01*
X129856000Y-75711000D01*
X129859000Y-75657000D01*
X129862000Y-75612000D01*
X129866000Y-75578000D01*
X129870000Y-75552000D01*
X129875000Y-75532000D01*
X129883000Y-75515000D01*
X129891000Y-75503000D01*
X129899000Y-75493000D01*
X129910000Y-75485000D01*
X129922000Y-75473000D01*
X129926000Y-75469000D01*
X129942000Y-75459000D01*
X129976000Y-75437000D01*
X130027000Y-75407000D01*
X130095000Y-75366000D01*
X130176000Y-75316000D01*
X130272000Y-75261000D01*
X130378000Y-75199000D01*
X130495000Y-75130000D01*
X130620000Y-75058000D01*
X130752000Y-74981000D01*
X130889000Y-74902000D01*
X130904000Y-74893000D01*
X131064000Y-74800000D01*
X131205000Y-74719000D01*
X131327000Y-74647000D01*
X131434000Y-74586000D01*
X131527000Y-74534000D01*
X131604000Y-74489000D01*
X131670000Y-74453000D01*
X131724000Y-74424000D01*
X131769000Y-74400000D01*
X131805000Y-74381000D01*
X131833000Y-74368000D01*
X131856000Y-74357000D01*
X131873000Y-74352000D01*
X131889000Y-74348000D01*
X131902000Y-74344000D01*
X131915000Y-74344000D01*
X131918000Y-74344000D01*
X131982000Y-74344000D01*
G36*
X132030000Y-74356000D02*
G01*
X132032000Y-74356000D01*
X132047000Y-74364000D01*
X132080000Y-74383000D01*
X132131000Y-74412000D01*
X132197000Y-74449000D01*
X132277000Y-74493000D01*
X132367000Y-74546000D01*
X132468000Y-74602000D01*
X132575000Y-74665000D01*
X132689000Y-74730000D01*
X132808000Y-74798000D01*
X132928000Y-74866000D01*
X133050000Y-74937000D01*
X133170000Y-75005000D01*
X133285000Y-75072000D01*
X133399000Y-75138000D01*
X133503000Y-75199000D01*
X133601000Y-75255000D01*
X133687000Y-75306000D01*
X133763000Y-75350000D01*
X133824000Y-75384000D01*
X133869000Y-75412000D01*
X133897000Y-75429000D01*
X133901000Y-75431000D01*
X133950000Y-75471000D01*
X133989000Y-75521000D01*
X134021000Y-75576000D01*
X134025000Y-76701000D01*
X134025000Y-76917000D01*
X134025000Y-77111000D01*
X134025000Y-77284000D01*
X134025000Y-77435000D01*
X134024000Y-77564000D01*
X134022000Y-77672000D01*
X134021000Y-77756000D01*
X134018000Y-77818000D01*
X134017000Y-77858000D01*
X134016000Y-77872000D01*
X134010000Y-77890000D01*
X134006000Y-77906000D01*
X133998000Y-77922000D01*
X133990000Y-77936000D01*
X133976000Y-77953000D01*
X133957000Y-77971000D01*
X133932000Y-77991000D01*
X133900000Y-78015000D01*
X133857000Y-78045000D01*
X133805000Y-78077000D01*
X133742000Y-78116000D01*
X133667000Y-78162000D01*
X133577000Y-78215000D01*
X133473000Y-78275000D01*
X133351000Y-78346000D01*
X133213000Y-78425000D01*
X133056000Y-78517000D01*
X132987000Y-78557000D01*
X132037000Y-79106000D01*
X131947000Y-79110000D01*
X131859000Y-79114000D01*
X131511000Y-78915000D01*
X131298000Y-78791000D01*
X131104000Y-78680000D01*
X130928000Y-78579000D01*
X130771000Y-78489000D01*
X130630000Y-78408000D01*
X130505000Y-78334000D01*
X130394000Y-78271000D01*
X130298000Y-78213000D01*
X130213000Y-78164000D01*
X130141000Y-78120000D01*
X130080000Y-78084000D01*
X130030000Y-78050000D01*
X129987000Y-78023000D01*
X129954000Y-77999000D01*
X129926000Y-77979000D01*
X129907000Y-77963000D01*
X129891000Y-77947000D01*
X129880000Y-77933000D01*
X129873000Y-77922000D01*
X129867000Y-77910000D01*
X129864000Y-77898000D01*
X129861000Y-77884000D01*
X129857000Y-77872000D01*
X129854000Y-77850000D01*
X129853000Y-77806000D01*
X129851000Y-77739000D01*
X129849000Y-77649000D01*
X129849000Y-77537000D01*
X129849000Y-77403000D01*
X129848000Y-77246000D01*
X129848000Y-77069000D01*
X129848000Y-76881000D01*
X130577000Y-76881000D01*
X130579000Y-77012000D01*
X130579000Y-77124000D01*
X130580000Y-77217000D01*
X130580000Y-77294000D01*
X130583000Y-77357000D01*
X130585000Y-77406000D01*
X130588000Y-77446000D01*
X130593000Y-77475000D01*
X130599000Y-77497000D01*
X130607000Y-77513000D01*
X130615000Y-77526000D01*
X130625000Y-77537000D01*
X130638000Y-77547000D01*
X130639000Y-77548000D01*
X130655000Y-77559000D01*
X130689000Y-77581000D01*
X130739000Y-77611000D01*
X130803000Y-77648000D01*
X130878000Y-77692000D01*
X130963000Y-77742000D01*
X131055000Y-77795000D01*
X131151000Y-77852000D01*
X131250000Y-77908000D01*
X131349000Y-77967000D01*
X131447000Y-78023000D01*
X131542000Y-78076000D01*
X131630000Y-78126000D01*
X131708000Y-78170000D01*
X131777000Y-78209000D01*
X131833000Y-78239000D01*
X131873000Y-78261000D01*
X131897000Y-78273000D01*
X131899000Y-78275000D01*
X131930000Y-78283000D01*
X131950000Y-78283000D01*
X131974000Y-78275000D01*
X131989000Y-78269000D01*
X132008000Y-78259000D01*
X132046000Y-78239000D01*
X132099000Y-78209000D01*
X132165000Y-78172000D01*
X132242000Y-78128000D01*
X132327000Y-78080000D01*
X132421000Y-78027000D01*
X132518000Y-77971000D01*
X132617000Y-77914000D01*
X132716000Y-77856000D01*
X132813000Y-77799000D01*
X132905000Y-77746000D01*
X132990000Y-77697000D01*
X133066000Y-77651000D01*
X133130000Y-77613000D01*
X133181000Y-77583000D01*
X133216000Y-77561000D01*
X133234000Y-77549000D01*
X133247000Y-77538000D01*
X133256000Y-77527000D01*
X133266000Y-77514000D01*
X133272000Y-77498000D01*
X133279000Y-77477000D01*
X133284000Y-77448000D01*
X133287000Y-77409000D01*
X133290000Y-77362000D01*
X133292000Y-77299000D01*
X133293000Y-77223000D01*
X133293000Y-77132000D01*
X133295000Y-77021000D01*
X133295000Y-76891000D01*
X133295000Y-76741000D01*
X133295000Y-76728000D01*
X133295000Y-76572000D01*
X133295000Y-76441000D01*
X133293000Y-76329000D01*
X133293000Y-76235000D01*
X133292000Y-76156000D01*
X133290000Y-76094000D01*
X133287000Y-76044000D01*
X133282000Y-76004000D01*
X133277000Y-75975000D01*
X133271000Y-75953000D01*
X133263000Y-75936000D01*
X133253000Y-75923000D01*
X133242000Y-75913000D01*
X133228000Y-75901000D01*
X133221000Y-75897000D01*
X133205000Y-75886000D01*
X133168000Y-75864000D01*
X133117000Y-75834000D01*
X133050000Y-75795000D01*
X132970000Y-75747000D01*
X132880000Y-75695000D01*
X132780000Y-75638000D01*
X132673000Y-75576000D01*
X132585000Y-75525000D01*
X132458000Y-75451000D01*
X132349000Y-75388000D01*
X132256000Y-75336000D01*
X132181000Y-75294000D01*
X132117000Y-75259000D01*
X132067000Y-75231000D01*
X132027000Y-75211000D01*
X131998000Y-75197000D01*
X131974000Y-75187000D01*
X131957000Y-75183000D01*
X131942000Y-75179000D01*
X131938000Y-75179000D01*
X131926000Y-75181000D01*
X131910000Y-75185000D01*
X131889000Y-75193000D01*
X131862000Y-75205000D01*
X131827000Y-75221000D01*
X131782000Y-75245000D01*
X131726000Y-75277000D01*
X131656000Y-75316000D01*
X131572000Y-75362000D01*
X131471000Y-75421000D01*
X131354000Y-75487000D01*
X131272000Y-75536000D01*
X131160000Y-75600000D01*
X131055000Y-75661000D01*
X130958000Y-75717000D01*
X130869000Y-75769000D01*
X130792000Y-75815000D01*
X130728000Y-75853000D01*
X130678000Y-75881000D01*
X130646000Y-75901000D01*
X130633000Y-75911000D01*
X130622000Y-75921000D01*
X130612000Y-75931000D01*
X130604000Y-75944000D01*
X130598000Y-75961000D01*
X130593000Y-75983000D01*
X130588000Y-76013000D01*
X130585000Y-76054000D01*
X130583000Y-76106000D01*
X130580000Y-76170000D01*
X130580000Y-76248000D01*
X130579000Y-76345000D01*
X130579000Y-76459000D01*
X130577000Y-76595000D01*
X130577000Y-76728000D01*
X130577000Y-76881000D01*
X129848000Y-76881000D01*
X129848000Y-76870000D01*
X129849000Y-76728000D01*
X129849000Y-76701000D01*
X129849000Y-76510000D01*
X129849000Y-76340000D01*
X129849000Y-76193000D01*
X129851000Y-76064000D01*
X129851000Y-75952000D01*
X129853000Y-75857000D01*
X129854000Y-75777000D01*
X129856000Y-75711000D01*
X129859000Y-75657000D01*
X129862000Y-75612000D01*
X129866000Y-75578000D01*
X129870000Y-75552000D01*
X129875000Y-75532000D01*
X129883000Y-75515000D01*
X129891000Y-75503000D01*
X129899000Y-75493000D01*
X129910000Y-75485000D01*
X129922000Y-75473000D01*
X129926000Y-75469000D01*
X129942000Y-75459000D01*
X129976000Y-75437000D01*
X130027000Y-75407000D01*
X130095000Y-75366000D01*
X130176000Y-75316000D01*
X130272000Y-75261000D01*
X130378000Y-75199000D01*
X130495000Y-75130000D01*
X130620000Y-75058000D01*
X130752000Y-74981000D01*
X130889000Y-74902000D01*
X130904000Y-74893000D01*
X131064000Y-74800000D01*
X131205000Y-74719000D01*
X131327000Y-74647000D01*
X131434000Y-74586000D01*
X131527000Y-74534000D01*
X131604000Y-74489000D01*
X131670000Y-74453000D01*
X131724000Y-74424000D01*
X131769000Y-74400000D01*
X131805000Y-74381000D01*
X131833000Y-74368000D01*
X131856000Y-74357000D01*
X131873000Y-74352000D01*
X131889000Y-74348000D01*
X131902000Y-74344000D01*
X131915000Y-74344000D01*
X131918000Y-74344000D01*
X131982000Y-74344000D01*
X132030000Y-74356000D01*
G37*
X132000000Y-75759000D02*
X132011000Y-75763000D01*
X132064000Y-75799000D01*
X132104000Y-75849000D01*
X132127000Y-75909000D01*
X132128000Y-75973000D01*
X132125000Y-75987000D01*
X132103000Y-76049000D01*
X132061000Y-76094000D01*
X132021000Y-76118000D01*
X131971000Y-76142000D01*
X131971000Y-76420000D01*
X132178000Y-76420000D01*
X132263000Y-76335000D01*
X132348000Y-76251000D01*
X132341000Y-76191000D01*
X132341000Y-76190000D01*
X132421000Y-76190000D01*
X132434000Y-76217000D01*
X132463000Y-76230000D01*
X132495000Y-76227000D01*
X132519000Y-76213000D01*
X132537000Y-76185000D01*
X132530000Y-76156000D01*
X132514000Y-76136000D01*
X132492000Y-76117000D01*
X132474000Y-76115000D01*
X132449000Y-76129000D01*
X132447000Y-76131000D01*
X132426000Y-76157000D01*
X132421000Y-76190000D01*
X132341000Y-76190000D01*
X132340000Y-76151000D01*
X132345000Y-76125000D01*
X132359000Y-76101000D01*
X132367000Y-76093000D01*
X132410000Y-76056000D01*
X132457000Y-76040000D01*
X132505000Y-76041000D01*
X132548000Y-76057000D01*
X132585000Y-76086000D01*
X132609000Y-76126000D01*
X132617000Y-76176000D01*
X132609000Y-76225000D01*
X132583000Y-76271000D01*
X132540000Y-76302000D01*
X132484000Y-76314000D01*
X132474000Y-76314000D01*
X132449000Y-76315000D01*
X132428000Y-76319000D01*
X132407000Y-76330000D01*
X132381000Y-76349000D01*
X132346000Y-76382000D01*
X132317000Y-76408000D01*
X132216000Y-76503000D01*
X131971000Y-76503000D01*
X131971000Y-76692000D01*
X132420000Y-76692000D01*
X132438000Y-76658000D01*
X132470000Y-76620000D01*
X132514000Y-76596000D01*
X132564000Y-76590000D01*
X132612000Y-76599000D01*
X132655000Y-76628000D01*
X132659000Y-76631000D01*
X132689000Y-76680000D01*
X132700000Y-76729000D01*
X132692000Y-76774000D01*
X132671000Y-76816000D01*
X132636000Y-76846000D01*
X132593000Y-76865000D01*
X132545000Y-76868000D01*
X132492000Y-76850000D01*
X132482000Y-76844000D01*
X132454000Y-76824000D01*
X132436000Y-76802000D01*
X132436000Y-76798000D01*
X132433000Y-76790000D01*
X132426000Y-76784000D01*
X132410000Y-76780000D01*
X132386000Y-76777000D01*
X132349000Y-76776000D01*
X132293000Y-76774000D01*
X132220000Y-76774000D01*
X132200000Y-76774000D01*
X131971000Y-76774000D01*
X131971000Y-76951000D01*
X132215000Y-76951000D01*
X132410000Y-77148000D01*
X132466000Y-77143000D01*
X132524000Y-77147000D01*
X132571000Y-77170000D01*
X132603000Y-77211000D01*
X132611000Y-77233000D01*
X132619000Y-77289000D01*
X132604000Y-77339000D01*
X132575000Y-77377000D01*
X132530000Y-77409000D01*
X132481000Y-77420000D01*
X132434000Y-77414000D01*
X132391000Y-77391000D01*
X132361000Y-77355000D01*
X132343000Y-77306000D01*
X132341000Y-77270000D01*
X132423000Y-77270000D01*
X132426000Y-77300000D01*
X132438000Y-77318000D01*
X132465000Y-77338000D01*
X132490000Y-77337000D01*
X132514000Y-77318000D01*
X132535000Y-77288000D01*
X132534000Y-77263000D01*
X132516000Y-77241000D01*
X132487000Y-77226000D01*
X132458000Y-77229000D01*
X132434000Y-77245000D01*
X132423000Y-77270000D01*
X132341000Y-77270000D01*
X132341000Y-77260000D01*
X132349000Y-77204000D01*
X132178000Y-77034000D01*
X131971000Y-77034000D01*
X131971000Y-77314000D01*
X132021000Y-77336000D01*
X132072000Y-77370000D01*
X132107000Y-77417000D01*
X132125000Y-77474000D01*
X132130000Y-77531000D01*
X132115000Y-77589000D01*
X132087000Y-77638000D01*
X132040000Y-77678000D01*
X132030000Y-77684000D01*
X131968000Y-77704000D01*
X131902000Y-77704000D01*
X131841000Y-77684000D01*
X131840000Y-77683000D01*
X131792000Y-77645000D01*
X131760000Y-77597000D01*
X131745000Y-77540000D01*
X131745000Y-77512000D01*
X131825000Y-77512000D01*
X131830000Y-77547000D01*
X131848000Y-77576000D01*
X131864000Y-77591000D01*
X131907000Y-77618000D01*
X131950000Y-77622000D01*
X131994000Y-77604000D01*
X132010000Y-77591000D01*
X132035000Y-77561000D01*
X132047000Y-77531000D01*
X132048000Y-77512000D01*
X132037000Y-77470000D01*
X132008000Y-77432000D01*
X131971000Y-77407000D01*
X131936000Y-77400000D01*
X131894000Y-77410000D01*
X131857000Y-77438000D01*
X131833000Y-77478000D01*
X131825000Y-77512000D01*
X131745000Y-77512000D01*
X131745000Y-77482000D01*
X131763000Y-77425000D01*
X131796000Y-77376000D01*
X131843000Y-77340000D01*
X131853000Y-77336000D01*
X131901000Y-77314000D01*
X131901000Y-77034000D01*
X131694000Y-77034000D01*
X131524000Y-77204000D01*
X131531000Y-77260000D01*
X131529000Y-77316000D01*
X131508000Y-77362000D01*
X131474000Y-77396000D01*
X131431000Y-77416000D01*
X131383000Y-77420000D01*
X131335000Y-77405000D01*
X131298000Y-77377000D01*
X131264000Y-77333000D01*
X131253000Y-77282000D01*
X131256000Y-77268000D01*
X131337000Y-77268000D01*
X131340000Y-77293000D01*
X131357000Y-77318000D01*
X131386000Y-77339000D01*
X131412000Y-77337000D01*
X131434000Y-77319000D01*
X131449000Y-77287000D01*
X131444000Y-77257000D01*
X131425000Y-77233000D01*
X131410000Y-77227000D01*
X131375000Y-77229000D01*
X131357000Y-77241000D01*
X131337000Y-77268000D01*
X131256000Y-77268000D01*
X131263000Y-77233000D01*
X131288000Y-77186000D01*
X131327000Y-77155000D01*
X131381000Y-77143000D01*
X131407000Y-77143000D01*
X131462000Y-77148000D01*
X131659000Y-76951000D01*
X131901000Y-76951000D01*
X131901000Y-76774000D01*
X131672000Y-76774000D01*
X131593000Y-76774000D01*
X131534000Y-76774000D01*
X131492000Y-76777000D01*
X131465000Y-76778000D01*
X131449000Y-76782000D01*
X131439000Y-76788000D01*
X131436000Y-76796000D01*
X131434000Y-76799000D01*
X131415000Y-76825000D01*
X131381000Y-76850000D01*
X131340000Y-76866000D01*
X131313000Y-76869000D01*
X131258000Y-76858000D01*
X131216000Y-76833000D01*
X131186000Y-76793000D01*
X131173000Y-76746000D01*
X131175000Y-76729000D01*
X131253000Y-76729000D01*
X131256000Y-76747000D01*
X131269000Y-76762000D01*
X131300000Y-76782000D01*
X131330000Y-76782000D01*
X131351000Y-76768000D01*
X131367000Y-76738000D01*
X131365000Y-76717000D01*
X132505000Y-76717000D01*
X132510000Y-76750000D01*
X132522000Y-76768000D01*
X132551000Y-76785000D01*
X132583000Y-76778000D01*
X132604000Y-76762000D01*
X132619000Y-76742000D01*
X132617000Y-76725000D01*
X132609000Y-76706000D01*
X132583000Y-76679000D01*
X132553000Y-76670000D01*
X132524000Y-76683000D01*
X132522000Y-76685000D01*
X132505000Y-76717000D01*
X131365000Y-76717000D01*
X131362000Y-76706000D01*
X131346000Y-76686000D01*
X131317000Y-76670000D01*
X131288000Y-76678000D01*
X131264000Y-76706000D01*
X131253000Y-76729000D01*
X131175000Y-76729000D01*
X131178000Y-76696000D01*
X131202000Y-76647000D01*
X131213000Y-76631000D01*
X131256000Y-76600000D01*
X131305000Y-76589000D01*
X131356000Y-76596000D01*
X131401000Y-76620000D01*
X131433000Y-76657000D01*
X131454000Y-76692000D01*
X131901000Y-76692000D01*
X131901000Y-76503000D01*
X131657000Y-76503000D01*
X131556000Y-76408000D01*
X131511000Y-76368000D01*
X131481000Y-76340000D01*
X131458000Y-76325000D01*
X131436000Y-76317000D01*
X131415000Y-76314000D01*
X131396000Y-76314000D01*
X131338000Y-76306000D01*
X131296000Y-76279000D01*
X131268000Y-76235000D01*
X131261000Y-76220000D01*
X131256000Y-76177000D01*
X131333000Y-76177000D01*
X131343000Y-76204000D01*
X131369000Y-76223000D01*
X131401000Y-76231000D01*
X131430000Y-76224000D01*
X131438000Y-76217000D01*
X131452000Y-76189000D01*
X131447000Y-76157000D01*
X131426000Y-76131000D01*
X131404000Y-76117000D01*
X131391000Y-76112000D01*
X131373000Y-76121000D01*
X131353000Y-76142000D01*
X131338000Y-76166000D01*
X131333000Y-76177000D01*
X131256000Y-76177000D01*
X131256000Y-76165000D01*
X131268000Y-76116000D01*
X131295000Y-76078000D01*
X131333000Y-76052000D01*
X131378000Y-76039000D01*
X131426000Y-76041000D01*
X131473000Y-76062000D01*
X131506000Y-76093000D01*
X131524000Y-76118000D01*
X131532000Y-76142000D01*
X131532000Y-76177000D01*
X131532000Y-76191000D01*
X131524000Y-76251000D01*
X131609000Y-76335000D01*
X131694000Y-76420000D01*
X131901000Y-76420000D01*
X131901000Y-76141000D01*
X131854000Y-76120000D01*
X131798000Y-76085000D01*
X131761000Y-76034000D01*
X131748000Y-75994000D01*
X131742000Y-75940000D01*
X131822000Y-75940000D01*
X131827000Y-75967000D01*
X131835000Y-75987000D01*
X131865000Y-76027000D01*
X131905000Y-76050000D01*
X131950000Y-76052000D01*
X131995000Y-76033000D01*
X132000000Y-76028000D01*
X132035000Y-75991000D01*
X132048000Y-75951000D01*
X132038000Y-75908000D01*
X132010000Y-75862000D01*
X131971000Y-75838000D01*
X131930000Y-75832000D01*
X131888000Y-75844000D01*
X131851000Y-75874000D01*
X131830000Y-75911000D01*
X131822000Y-75940000D01*
X131742000Y-75940000D01*
X131740000Y-75932000D01*
X131755000Y-75872000D01*
X131785000Y-75823000D01*
X131827000Y-75783000D01*
X131880000Y-75757000D01*
X131939000Y-75747000D01*
X132000000Y-75759000D01*
G36*
X132000000Y-75759000D02*
G01*
X132011000Y-75763000D01*
X132064000Y-75799000D01*
X132104000Y-75849000D01*
X132127000Y-75909000D01*
X132128000Y-75973000D01*
X132125000Y-75987000D01*
X132103000Y-76049000D01*
X132061000Y-76094000D01*
X132021000Y-76118000D01*
X131971000Y-76142000D01*
X131971000Y-76420000D01*
X132178000Y-76420000D01*
X132263000Y-76335000D01*
X132348000Y-76251000D01*
X132341000Y-76191000D01*
X132341000Y-76190000D01*
X132421000Y-76190000D01*
X132434000Y-76217000D01*
X132463000Y-76230000D01*
X132495000Y-76227000D01*
X132519000Y-76213000D01*
X132537000Y-76185000D01*
X132530000Y-76156000D01*
X132514000Y-76136000D01*
X132492000Y-76117000D01*
X132474000Y-76115000D01*
X132449000Y-76129000D01*
X132447000Y-76131000D01*
X132426000Y-76157000D01*
X132421000Y-76190000D01*
X132341000Y-76190000D01*
X132340000Y-76151000D01*
X132345000Y-76125000D01*
X132359000Y-76101000D01*
X132367000Y-76093000D01*
X132410000Y-76056000D01*
X132457000Y-76040000D01*
X132505000Y-76041000D01*
X132548000Y-76057000D01*
X132585000Y-76086000D01*
X132609000Y-76126000D01*
X132617000Y-76176000D01*
X132609000Y-76225000D01*
X132583000Y-76271000D01*
X132540000Y-76302000D01*
X132484000Y-76314000D01*
X132474000Y-76314000D01*
X132449000Y-76315000D01*
X132428000Y-76319000D01*
X132407000Y-76330000D01*
X132381000Y-76349000D01*
X132346000Y-76382000D01*
X132317000Y-76408000D01*
X132216000Y-76503000D01*
X131971000Y-76503000D01*
X131971000Y-76692000D01*
X132420000Y-76692000D01*
X132438000Y-76658000D01*
X132470000Y-76620000D01*
X132514000Y-76596000D01*
X132564000Y-76590000D01*
X132612000Y-76599000D01*
X132655000Y-76628000D01*
X132659000Y-76631000D01*
X132689000Y-76680000D01*
X132700000Y-76729000D01*
X132692000Y-76774000D01*
X132671000Y-76816000D01*
X132636000Y-76846000D01*
X132593000Y-76865000D01*
X132545000Y-76868000D01*
X132492000Y-76850000D01*
X132482000Y-76844000D01*
X132454000Y-76824000D01*
X132436000Y-76802000D01*
X132436000Y-76798000D01*
X132433000Y-76790000D01*
X132426000Y-76784000D01*
X132410000Y-76780000D01*
X132386000Y-76777000D01*
X132349000Y-76776000D01*
X132293000Y-76774000D01*
X132220000Y-76774000D01*
X132200000Y-76774000D01*
X131971000Y-76774000D01*
X131971000Y-76951000D01*
X132215000Y-76951000D01*
X132410000Y-77148000D01*
X132466000Y-77143000D01*
X132524000Y-77147000D01*
X132571000Y-77170000D01*
X132603000Y-77211000D01*
X132611000Y-77233000D01*
X132619000Y-77289000D01*
X132604000Y-77339000D01*
X132575000Y-77377000D01*
X132530000Y-77409000D01*
X132481000Y-77420000D01*
X132434000Y-77414000D01*
X132391000Y-77391000D01*
X132361000Y-77355000D01*
X132343000Y-77306000D01*
X132341000Y-77270000D01*
X132423000Y-77270000D01*
X132426000Y-77300000D01*
X132438000Y-77318000D01*
X132465000Y-77338000D01*
X132490000Y-77337000D01*
X132514000Y-77318000D01*
X132535000Y-77288000D01*
X132534000Y-77263000D01*
X132516000Y-77241000D01*
X132487000Y-77226000D01*
X132458000Y-77229000D01*
X132434000Y-77245000D01*
X132423000Y-77270000D01*
X132341000Y-77270000D01*
X132341000Y-77260000D01*
X132349000Y-77204000D01*
X132178000Y-77034000D01*
X131971000Y-77034000D01*
X131971000Y-77314000D01*
X132021000Y-77336000D01*
X132072000Y-77370000D01*
X132107000Y-77417000D01*
X132125000Y-77474000D01*
X132130000Y-77531000D01*
X132115000Y-77589000D01*
X132087000Y-77638000D01*
X132040000Y-77678000D01*
X132030000Y-77684000D01*
X131968000Y-77704000D01*
X131902000Y-77704000D01*
X131841000Y-77684000D01*
X131840000Y-77683000D01*
X131792000Y-77645000D01*
X131760000Y-77597000D01*
X131745000Y-77540000D01*
X131745000Y-77512000D01*
X131825000Y-77512000D01*
X131830000Y-77547000D01*
X131848000Y-77576000D01*
X131864000Y-77591000D01*
X131907000Y-77618000D01*
X131950000Y-77622000D01*
X131994000Y-77604000D01*
X132010000Y-77591000D01*
X132035000Y-77561000D01*
X132047000Y-77531000D01*
X132048000Y-77512000D01*
X132037000Y-77470000D01*
X132008000Y-77432000D01*
X131971000Y-77407000D01*
X131936000Y-77400000D01*
X131894000Y-77410000D01*
X131857000Y-77438000D01*
X131833000Y-77478000D01*
X131825000Y-77512000D01*
X131745000Y-77512000D01*
X131745000Y-77482000D01*
X131763000Y-77425000D01*
X131796000Y-77376000D01*
X131843000Y-77340000D01*
X131853000Y-77336000D01*
X131901000Y-77314000D01*
X131901000Y-77034000D01*
X131694000Y-77034000D01*
X131524000Y-77204000D01*
X131531000Y-77260000D01*
X131529000Y-77316000D01*
X131508000Y-77362000D01*
X131474000Y-77396000D01*
X131431000Y-77416000D01*
X131383000Y-77420000D01*
X131335000Y-77405000D01*
X131298000Y-77377000D01*
X131264000Y-77333000D01*
X131253000Y-77282000D01*
X131256000Y-77268000D01*
X131337000Y-77268000D01*
X131340000Y-77293000D01*
X131357000Y-77318000D01*
X131386000Y-77339000D01*
X131412000Y-77337000D01*
X131434000Y-77319000D01*
X131449000Y-77287000D01*
X131444000Y-77257000D01*
X131425000Y-77233000D01*
X131410000Y-77227000D01*
X131375000Y-77229000D01*
X131357000Y-77241000D01*
X131337000Y-77268000D01*
X131256000Y-77268000D01*
X131263000Y-77233000D01*
X131288000Y-77186000D01*
X131327000Y-77155000D01*
X131381000Y-77143000D01*
X131407000Y-77143000D01*
X131462000Y-77148000D01*
X131659000Y-76951000D01*
X131901000Y-76951000D01*
X131901000Y-76774000D01*
X131672000Y-76774000D01*
X131593000Y-76774000D01*
X131534000Y-76774000D01*
X131492000Y-76777000D01*
X131465000Y-76778000D01*
X131449000Y-76782000D01*
X131439000Y-76788000D01*
X131436000Y-76796000D01*
X131434000Y-76799000D01*
X131415000Y-76825000D01*
X131381000Y-76850000D01*
X131340000Y-76866000D01*
X131313000Y-76869000D01*
X131258000Y-76858000D01*
X131216000Y-76833000D01*
X131186000Y-76793000D01*
X131173000Y-76746000D01*
X131175000Y-76729000D01*
X131253000Y-76729000D01*
X131256000Y-76747000D01*
X131269000Y-76762000D01*
X131300000Y-76782000D01*
X131330000Y-76782000D01*
X131351000Y-76768000D01*
X131367000Y-76738000D01*
X131365000Y-76717000D01*
X132505000Y-76717000D01*
X132510000Y-76750000D01*
X132522000Y-76768000D01*
X132551000Y-76785000D01*
X132583000Y-76778000D01*
X132604000Y-76762000D01*
X132619000Y-76742000D01*
X132617000Y-76725000D01*
X132609000Y-76706000D01*
X132583000Y-76679000D01*
X132553000Y-76670000D01*
X132524000Y-76683000D01*
X132522000Y-76685000D01*
X132505000Y-76717000D01*
X131365000Y-76717000D01*
X131362000Y-76706000D01*
X131346000Y-76686000D01*
X131317000Y-76670000D01*
X131288000Y-76678000D01*
X131264000Y-76706000D01*
X131253000Y-76729000D01*
X131175000Y-76729000D01*
X131178000Y-76696000D01*
X131202000Y-76647000D01*
X131213000Y-76631000D01*
X131256000Y-76600000D01*
X131305000Y-76589000D01*
X131356000Y-76596000D01*
X131401000Y-76620000D01*
X131433000Y-76657000D01*
X131454000Y-76692000D01*
X131901000Y-76692000D01*
X131901000Y-76503000D01*
X131657000Y-76503000D01*
X131556000Y-76408000D01*
X131511000Y-76368000D01*
X131481000Y-76340000D01*
X131458000Y-76325000D01*
X131436000Y-76317000D01*
X131415000Y-76314000D01*
X131396000Y-76314000D01*
X131338000Y-76306000D01*
X131296000Y-76279000D01*
X131268000Y-76235000D01*
X131261000Y-76220000D01*
X131256000Y-76177000D01*
X131333000Y-76177000D01*
X131343000Y-76204000D01*
X131369000Y-76223000D01*
X131401000Y-76231000D01*
X131430000Y-76224000D01*
X131438000Y-76217000D01*
X131452000Y-76189000D01*
X131447000Y-76157000D01*
X131426000Y-76131000D01*
X131404000Y-76117000D01*
X131391000Y-76112000D01*
X131373000Y-76121000D01*
X131353000Y-76142000D01*
X131338000Y-76166000D01*
X131333000Y-76177000D01*
X131256000Y-76177000D01*
X131256000Y-76165000D01*
X131268000Y-76116000D01*
X131295000Y-76078000D01*
X131333000Y-76052000D01*
X131378000Y-76039000D01*
X131426000Y-76041000D01*
X131473000Y-76062000D01*
X131506000Y-76093000D01*
X131524000Y-76118000D01*
X131532000Y-76142000D01*
X131532000Y-76177000D01*
X131532000Y-76191000D01*
X131524000Y-76251000D01*
X131609000Y-76335000D01*
X131694000Y-76420000D01*
X131901000Y-76420000D01*
X131901000Y-76141000D01*
X131854000Y-76120000D01*
X131798000Y-76085000D01*
X131761000Y-76034000D01*
X131748000Y-75994000D01*
X131742000Y-75940000D01*
X131822000Y-75940000D01*
X131827000Y-75967000D01*
X131835000Y-75987000D01*
X131865000Y-76027000D01*
X131905000Y-76050000D01*
X131950000Y-76052000D01*
X131995000Y-76033000D01*
X132000000Y-76028000D01*
X132035000Y-75991000D01*
X132048000Y-75951000D01*
X132038000Y-75908000D01*
X132010000Y-75862000D01*
X131971000Y-75838000D01*
X131930000Y-75832000D01*
X131888000Y-75844000D01*
X131851000Y-75874000D01*
X131830000Y-75911000D01*
X131822000Y-75940000D01*
X131742000Y-75940000D01*
X131740000Y-75932000D01*
X131755000Y-75872000D01*
X131785000Y-75823000D01*
X131827000Y-75783000D01*
X131880000Y-75757000D01*
X131939000Y-75747000D01*
X132000000Y-75759000D01*
G37*
D12*
X140404000Y-126758000D02*
X140447000Y-126771000D01*
X140475000Y-126787000D01*
X140484000Y-126801000D01*
X140482000Y-126816000D01*
X140465000Y-126841000D01*
X140452000Y-126858000D01*
X140423000Y-126890000D01*
X140402000Y-126903000D01*
X140384000Y-126902000D01*
X140331000Y-126889000D01*
X140291000Y-126889000D01*
X140259000Y-126905000D01*
X140248000Y-126914000D01*
X140214000Y-126946000D01*
X140214000Y-127362000D01*
X140076000Y-127362000D01*
X140076000Y-126758000D01*
X140145000Y-126758000D01*
X140186000Y-126760000D01*
X140208000Y-126766000D01*
X140214000Y-126777000D01*
X140217000Y-126789000D01*
X140230000Y-126788000D01*
X140249000Y-126779000D01*
X140287000Y-126763000D01*
X140317000Y-126753000D01*
X140357000Y-126751000D01*
X140404000Y-126758000D01*
G36*
X140404000Y-126758000D02*
G01*
X140447000Y-126771000D01*
X140475000Y-126787000D01*
X140484000Y-126801000D01*
X140482000Y-126816000D01*
X140465000Y-126841000D01*
X140452000Y-126858000D01*
X140423000Y-126890000D01*
X140402000Y-126903000D01*
X140384000Y-126902000D01*
X140331000Y-126889000D01*
X140291000Y-126889000D01*
X140259000Y-126905000D01*
X140248000Y-126914000D01*
X140214000Y-126946000D01*
X140214000Y-127362000D01*
X140076000Y-127362000D01*
X140076000Y-126758000D01*
X140145000Y-126758000D01*
X140186000Y-126760000D01*
X140208000Y-126766000D01*
X140214000Y-126777000D01*
X140217000Y-126789000D01*
X140230000Y-126788000D01*
X140249000Y-126779000D01*
X140287000Y-126763000D01*
X140317000Y-126753000D01*
X140357000Y-126751000D01*
X140404000Y-126758000D01*
G37*
X140240000Y-127701000D02*
X140288000Y-127711000D01*
X140316000Y-127725000D01*
X140345000Y-127748000D01*
X140303000Y-127800000D01*
X140278000Y-127832000D01*
X140261000Y-127847000D01*
X140244000Y-127849000D01*
X140219000Y-127842000D01*
X140207000Y-127837000D01*
X140159000Y-127831000D01*
X140115000Y-127845000D01*
X140083000Y-127875000D01*
X140077000Y-127885000D01*
X140072000Y-127911000D01*
X140067000Y-127958000D01*
X140064000Y-128024000D01*
X140063000Y-128105000D01*
X140063000Y-128117000D01*
X140063000Y-128317000D01*
X139925000Y-128317000D01*
X139925000Y-127701000D01*
X139994000Y-127701000D01*
X140034000Y-127702000D01*
X140055000Y-127707000D01*
X140062000Y-127717000D01*
X140063000Y-127727000D01*
X140063000Y-127753000D01*
X140096000Y-127727000D01*
X140134000Y-127709000D01*
X140185000Y-127701000D01*
X140240000Y-127701000D01*
G36*
X140034000Y-127702000D02*
G01*
X140055000Y-127707000D01*
X140062000Y-127717000D01*
X140063000Y-127727000D01*
X140063000Y-127753000D01*
X140096000Y-127727000D01*
X140134000Y-127709000D01*
X140185000Y-127701000D01*
X140240000Y-127701000D01*
X140288000Y-127711000D01*
X140316000Y-127725000D01*
X140345000Y-127748000D01*
X140303000Y-127800000D01*
X140278000Y-127832000D01*
X140261000Y-127847000D01*
X140244000Y-127849000D01*
X140219000Y-127842000D01*
X140207000Y-127837000D01*
X140159000Y-127831000D01*
X140115000Y-127845000D01*
X140083000Y-127875000D01*
X140077000Y-127885000D01*
X140072000Y-127911000D01*
X140067000Y-127958000D01*
X140064000Y-128024000D01*
X140063000Y-128105000D01*
X140063000Y-128117000D01*
X140063000Y-128317000D01*
X139925000Y-128317000D01*
X139925000Y-127701000D01*
X139994000Y-127701000D01*
X140034000Y-127702000D01*
G37*
X137611000Y-127703000D02*
X137630000Y-127708000D01*
X137636000Y-127721000D01*
X137636000Y-127726000D01*
X137637000Y-127742000D01*
X137645000Y-127744000D01*
X137665000Y-127733000D01*
X137677000Y-127726000D01*
X137715000Y-127711000D01*
X137760000Y-127703000D01*
X137808000Y-127702000D01*
X137853000Y-127708000D01*
X137889000Y-127719000D01*
X137912000Y-127736000D01*
X137917000Y-127756000D01*
X137914000Y-127761000D01*
X137897000Y-127784000D01*
X137872000Y-127812000D01*
X137867000Y-127817000D01*
X137842000Y-127838000D01*
X137821000Y-127844000D01*
X137791000Y-127840000D01*
X137779000Y-127836000D01*
X137742000Y-127829000D01*
X137716000Y-127832000D01*
X137694000Y-127844000D01*
X137673000Y-127860000D01*
X137658000Y-127880000D01*
X137648000Y-127908000D01*
X137641000Y-127948000D01*
X137638000Y-128003000D01*
X137636000Y-128078000D01*
X137636000Y-128123000D01*
X137636000Y-128317000D01*
X137511000Y-128317000D01*
X137511000Y-127701000D01*
X137573000Y-127701000D01*
X137611000Y-127703000D01*
G36*
X137611000Y-127703000D02*
G01*
X137630000Y-127708000D01*
X137636000Y-127721000D01*
X137636000Y-127726000D01*
X137637000Y-127742000D01*
X137645000Y-127744000D01*
X137665000Y-127733000D01*
X137677000Y-127726000D01*
X137715000Y-127711000D01*
X137760000Y-127703000D01*
X137808000Y-127702000D01*
X137853000Y-127708000D01*
X137889000Y-127719000D01*
X137912000Y-127736000D01*
X137917000Y-127756000D01*
X137914000Y-127761000D01*
X137897000Y-127784000D01*
X137872000Y-127812000D01*
X137867000Y-127817000D01*
X137842000Y-127838000D01*
X137821000Y-127844000D01*
X137791000Y-127840000D01*
X137779000Y-127836000D01*
X137742000Y-127829000D01*
X137716000Y-127832000D01*
X137694000Y-127844000D01*
X137673000Y-127860000D01*
X137658000Y-127880000D01*
X137648000Y-127908000D01*
X137641000Y-127948000D01*
X137638000Y-128003000D01*
X137636000Y-128078000D01*
X137636000Y-128123000D01*
X137636000Y-128317000D01*
X137511000Y-128317000D01*
X137511000Y-127701000D01*
X137573000Y-127701000D01*
X137611000Y-127703000D01*
G37*
X139598000Y-126954000D02*
X139599000Y-127046000D01*
X139603000Y-127116000D01*
X139612000Y-127167000D01*
X139626000Y-127201000D01*
X139647000Y-127222000D01*
X139676000Y-127233000D01*
X139711000Y-127235000D01*
X139748000Y-127232000D01*
X139776000Y-127221000D01*
X139797000Y-127200000D01*
X139811000Y-127165000D01*
X139819000Y-127113000D01*
X139823000Y-127042000D01*
X139824000Y-126954000D01*
X139824000Y-126758000D01*
X139963000Y-126758000D01*
X139963000Y-127362000D01*
X139893000Y-127362000D01*
X139852000Y-127360000D01*
X139830000Y-127354000D01*
X139824000Y-127343000D01*
X139821000Y-127333000D01*
X139806000Y-127335000D01*
X139777000Y-127349000D01*
X139711000Y-127371000D01*
X139640000Y-127369000D01*
X139573000Y-127346000D01*
X139541000Y-127327000D01*
X139516000Y-127307000D01*
X139498000Y-127281000D01*
X139486000Y-127247000D01*
X139478000Y-127201000D01*
X139474000Y-127139000D01*
X139472000Y-127057000D01*
X139472000Y-126994000D01*
X139472000Y-126758000D01*
X139598000Y-126758000D01*
X139598000Y-126954000D01*
G36*
X139598000Y-126954000D02*
G01*
X139599000Y-127046000D01*
X139603000Y-127116000D01*
X139612000Y-127167000D01*
X139626000Y-127201000D01*
X139647000Y-127222000D01*
X139676000Y-127233000D01*
X139711000Y-127235000D01*
X139748000Y-127232000D01*
X139776000Y-127221000D01*
X139797000Y-127200000D01*
X139811000Y-127165000D01*
X139819000Y-127113000D01*
X139823000Y-127042000D01*
X139824000Y-126954000D01*
X139824000Y-126758000D01*
X139963000Y-126758000D01*
X139963000Y-127362000D01*
X139893000Y-127362000D01*
X139852000Y-127360000D01*
X139830000Y-127354000D01*
X139824000Y-127343000D01*
X139821000Y-127333000D01*
X139806000Y-127335000D01*
X139777000Y-127349000D01*
X139711000Y-127371000D01*
X139640000Y-127369000D01*
X139573000Y-127346000D01*
X139541000Y-127327000D01*
X139516000Y-127307000D01*
X139498000Y-127281000D01*
X139486000Y-127247000D01*
X139478000Y-127201000D01*
X139474000Y-127139000D01*
X139472000Y-127057000D01*
X139472000Y-126994000D01*
X139472000Y-126758000D01*
X139598000Y-126758000D01*
X139598000Y-126954000D01*
G37*
X137850000Y-126769000D02*
X137882000Y-126783000D01*
X137912000Y-126805000D01*
X137935000Y-126830000D01*
X137952000Y-126862000D01*
X137963000Y-126904000D01*
X137971000Y-126960000D01*
X137974000Y-127034000D01*
X137975000Y-127129000D01*
X137976000Y-127138000D01*
X137976000Y-127362000D01*
X137837000Y-127362000D01*
X137837000Y-127156000D01*
X137837000Y-127080000D01*
X137837000Y-127024000D01*
X137835000Y-126986000D01*
X137831000Y-126960000D01*
X137825000Y-126943000D01*
X137817000Y-126930000D01*
X137804000Y-126917000D01*
X137761000Y-126889000D01*
X137715000Y-126884000D01*
X137670000Y-126902000D01*
X137655000Y-126915000D01*
X137643000Y-126927000D01*
X137635000Y-126940000D01*
X137630000Y-126958000D01*
X137626000Y-126985000D01*
X137624000Y-127026000D01*
X137624000Y-127083000D01*
X137624000Y-127154000D01*
X137624000Y-127362000D01*
X137485000Y-127362000D01*
X137485000Y-126758000D01*
X137555000Y-126758000D01*
X137596000Y-126760000D01*
X137617000Y-126766000D01*
X137624000Y-126777000D01*
X137627000Y-126788000D01*
X137639000Y-126787000D01*
X137665000Y-126775000D01*
X137722000Y-126757000D01*
X137787000Y-126755000D01*
X137850000Y-126769000D01*
G36*
X137850000Y-126769000D02*
G01*
X137882000Y-126783000D01*
X137912000Y-126805000D01*
X137935000Y-126830000D01*
X137952000Y-126862000D01*
X137963000Y-126904000D01*
X137971000Y-126960000D01*
X137974000Y-127034000D01*
X137975000Y-127129000D01*
X137976000Y-127138000D01*
X137976000Y-127362000D01*
X137837000Y-127362000D01*
X137837000Y-127156000D01*
X137837000Y-127080000D01*
X137837000Y-127024000D01*
X137835000Y-126986000D01*
X137831000Y-126960000D01*
X137825000Y-126943000D01*
X137817000Y-126930000D01*
X137804000Y-126917000D01*
X137761000Y-126889000D01*
X137715000Y-126884000D01*
X137670000Y-126902000D01*
X137655000Y-126915000D01*
X137643000Y-126927000D01*
X137635000Y-126940000D01*
X137630000Y-126958000D01*
X137626000Y-126985000D01*
X137624000Y-127026000D01*
X137624000Y-127083000D01*
X137624000Y-127154000D01*
X137624000Y-127362000D01*
X137485000Y-127362000D01*
X137485000Y-126758000D01*
X137555000Y-126758000D01*
X137596000Y-126760000D01*
X137617000Y-126766000D01*
X137624000Y-126777000D01*
X137627000Y-126788000D01*
X137639000Y-126787000D01*
X137665000Y-126775000D01*
X137722000Y-126757000D01*
X137787000Y-126755000D01*
X137850000Y-126769000D01*
G37*
X140822000Y-126763000D02*
X140895000Y-126794000D01*
X140918000Y-126809000D01*
X140947000Y-126833000D01*
X140965000Y-126851000D01*
X140968000Y-126857000D01*
X140959000Y-126870000D01*
X140936000Y-126892000D01*
X140918000Y-126908000D01*
X140867000Y-126948000D01*
X140827000Y-126915000D01*
X140796000Y-126893000D01*
X140766000Y-126886000D01*
X140732000Y-126887000D01*
X140677000Y-126901000D01*
X140639000Y-126929000D01*
X140616000Y-126975000D01*
X140606000Y-127041000D01*
X140607000Y-127114000D01*
X140621000Y-127168000D01*
X140649000Y-127205000D01*
X140668000Y-127218000D01*
X140718000Y-127233000D01*
X140772000Y-127233000D01*
X140819000Y-127218000D01*
X140830000Y-127211000D01*
X140858000Y-127192000D01*
X140880000Y-127189000D01*
X140903000Y-127203000D01*
X140929000Y-127228000D01*
X140970000Y-127270000D01*
X140925000Y-127308000D01*
X140854000Y-127350000D01*
X140775000Y-127371000D01*
X140692000Y-127370000D01*
X140637000Y-127356000D01*
X140573000Y-127322000D01*
X140523000Y-127268000D01*
X140499000Y-127230000D01*
X140481000Y-127175000D01*
X140471000Y-127106000D01*
X140471000Y-127031000D01*
X140480000Y-126959000D01*
X140499000Y-126899000D01*
X140502000Y-126892000D01*
X140544000Y-126832000D01*
X140602000Y-126788000D01*
X140671000Y-126761000D01*
X140746000Y-126753000D01*
X140822000Y-126763000D01*
G36*
X140822000Y-126763000D02*
G01*
X140895000Y-126794000D01*
X140918000Y-126809000D01*
X140947000Y-126833000D01*
X140965000Y-126851000D01*
X140968000Y-126857000D01*
X140959000Y-126870000D01*
X140936000Y-126892000D01*
X140918000Y-126908000D01*
X140867000Y-126948000D01*
X140827000Y-126915000D01*
X140796000Y-126893000D01*
X140766000Y-126886000D01*
X140732000Y-126887000D01*
X140677000Y-126901000D01*
X140639000Y-126929000D01*
X140616000Y-126975000D01*
X140606000Y-127041000D01*
X140607000Y-127114000D01*
X140621000Y-127168000D01*
X140649000Y-127205000D01*
X140668000Y-127218000D01*
X140718000Y-127233000D01*
X140772000Y-127233000D01*
X140819000Y-127218000D01*
X140830000Y-127211000D01*
X140858000Y-127192000D01*
X140880000Y-127189000D01*
X140903000Y-127203000D01*
X140929000Y-127228000D01*
X140970000Y-127270000D01*
X140925000Y-127308000D01*
X140854000Y-127350000D01*
X140775000Y-127371000D01*
X140692000Y-127370000D01*
X140637000Y-127356000D01*
X140573000Y-127322000D01*
X140523000Y-127268000D01*
X140499000Y-127230000D01*
X140481000Y-127175000D01*
X140471000Y-127106000D01*
X140471000Y-127031000D01*
X140480000Y-126959000D01*
X140499000Y-126899000D01*
X140502000Y-126892000D01*
X140544000Y-126832000D01*
X140602000Y-126788000D01*
X140671000Y-126761000D01*
X140746000Y-126753000D01*
X140822000Y-126763000D01*
G37*
X139215000Y-126766000D02*
X139279000Y-126800000D01*
X139329000Y-126855000D01*
X139352000Y-126899000D01*
X139362000Y-126939000D01*
X139369000Y-126995000D01*
X139371000Y-127059000D01*
X139370000Y-127124000D01*
X139365000Y-127181000D01*
X139359000Y-127211000D01*
X139339000Y-127253000D01*
X139303000Y-127297000D01*
X139260000Y-127336000D01*
X139218000Y-127361000D01*
X139217000Y-127361000D01*
X139164000Y-127372000D01*
X139102000Y-127372000D01*
X139042000Y-127362000D01*
X139020000Y-127354000D01*
X138961000Y-127321000D01*
X138918000Y-127277000D01*
X138891000Y-127219000D01*
X138875000Y-127143000D01*
X138872000Y-127103000D01*
X138872000Y-127053000D01*
X139007000Y-127053000D01*
X139011000Y-127126000D01*
X139024000Y-127182000D01*
X139045000Y-127217000D01*
X139060000Y-127228000D01*
X139098000Y-127235000D01*
X139143000Y-127233000D01*
X139182000Y-127222000D01*
X139192000Y-127217000D01*
X139219000Y-127184000D01*
X139237000Y-127134000D01*
X139245000Y-127073000D01*
X139241000Y-127008000D01*
X139233000Y-126969000D01*
X139209000Y-126923000D01*
X139171000Y-126895000D01*
X139126000Y-126885000D01*
X139080000Y-126895000D01*
X139044000Y-126921000D01*
X139025000Y-126941000D01*
X139014000Y-126962000D01*
X139009000Y-126990000D01*
X139007000Y-127032000D01*
X139007000Y-127053000D01*
X138872000Y-127053000D01*
X138873000Y-126997000D01*
X138890000Y-126910000D01*
X138924000Y-126842000D01*
X138974000Y-126793000D01*
X139040000Y-126763000D01*
X139054000Y-126760000D01*
X139140000Y-126752000D01*
X139215000Y-126766000D01*
G36*
X139215000Y-126766000D02*
G01*
X139279000Y-126800000D01*
X139329000Y-126855000D01*
X139352000Y-126899000D01*
X139362000Y-126939000D01*
X139369000Y-126995000D01*
X139371000Y-127059000D01*
X139370000Y-127124000D01*
X139365000Y-127181000D01*
X139359000Y-127211000D01*
X139339000Y-127253000D01*
X139303000Y-127297000D01*
X139260000Y-127336000D01*
X139218000Y-127361000D01*
X139217000Y-127361000D01*
X139164000Y-127372000D01*
X139102000Y-127372000D01*
X139042000Y-127362000D01*
X139020000Y-127354000D01*
X138961000Y-127321000D01*
X138918000Y-127277000D01*
X138891000Y-127219000D01*
X138875000Y-127143000D01*
X138872000Y-127103000D01*
X138872000Y-127053000D01*
X138872375Y-127032000D01*
X139007000Y-127032000D01*
X139007000Y-127053000D01*
X139011000Y-127126000D01*
X139024000Y-127182000D01*
X139045000Y-127217000D01*
X139060000Y-127228000D01*
X139098000Y-127235000D01*
X139143000Y-127233000D01*
X139182000Y-127222000D01*
X139192000Y-127217000D01*
X139219000Y-127184000D01*
X139237000Y-127134000D01*
X139245000Y-127073000D01*
X139241000Y-127008000D01*
X139233000Y-126969000D01*
X139209000Y-126923000D01*
X139171000Y-126895000D01*
X139126000Y-126885000D01*
X139080000Y-126895000D01*
X139044000Y-126921000D01*
X139025000Y-126941000D01*
X139014000Y-126962000D01*
X139009000Y-126990000D01*
X139007000Y-127032000D01*
X138872375Y-127032000D01*
X138873000Y-126997000D01*
X138890000Y-126910000D01*
X138924000Y-126842000D01*
X138974000Y-126793000D01*
X139040000Y-126763000D01*
X139054000Y-126760000D01*
X139140000Y-126752000D01*
X139215000Y-126766000D01*
G37*
X138886000Y-127704000D02*
X138936000Y-127707000D01*
X139066000Y-128097000D01*
X139086000Y-128028000D01*
X139098000Y-127985000D01*
X139115000Y-127928000D01*
X139132000Y-127864000D01*
X139141000Y-127830000D01*
X139176000Y-127701000D01*
X139319000Y-127701000D01*
X139276000Y-127836000D01*
X139255000Y-127903000D01*
X139230000Y-127983000D01*
X139203000Y-128067000D01*
X139179000Y-128141000D01*
X139125000Y-128311000D01*
X139067000Y-128315000D01*
X139009000Y-128319000D01*
X138977000Y-128214000D01*
X138958000Y-128149000D01*
X138936000Y-128078000D01*
X138918000Y-128015000D01*
X138917000Y-128012000D01*
X138903000Y-127969000D01*
X138891000Y-127940000D01*
X138882000Y-127929000D01*
X138881000Y-127931000D01*
X138874000Y-127948000D01*
X138863000Y-127984000D01*
X138847000Y-128036000D01*
X138828000Y-128098000D01*
X138818000Y-128132000D01*
X138764000Y-128317000D01*
X138648000Y-128317000D01*
X138555000Y-128025000D01*
X138529000Y-127943000D01*
X138506000Y-127868000D01*
X138485000Y-127805000D01*
X138470000Y-127756000D01*
X138460000Y-127725000D01*
X138457000Y-127716000D01*
X138459000Y-127707000D01*
X138478000Y-127703000D01*
X138517000Y-127703000D01*
X138523000Y-127704000D01*
X138597000Y-127707000D01*
X138644000Y-127884000D01*
X138662000Y-127948000D01*
X138678000Y-128004000D01*
X138690000Y-128048000D01*
X138698000Y-128074000D01*
X138700000Y-128078000D01*
X138706000Y-128073000D01*
X138718000Y-128048000D01*
X138734000Y-128005000D01*
X138755000Y-127949000D01*
X138772000Y-127899000D01*
X138836000Y-127700000D01*
X138886000Y-127704000D01*
G36*
X138886000Y-127704000D02*
G01*
X138936000Y-127707000D01*
X139066000Y-128097000D01*
X139086000Y-128028000D01*
X139098000Y-127985000D01*
X139115000Y-127928000D01*
X139132000Y-127864000D01*
X139141000Y-127830000D01*
X139176000Y-127701000D01*
X139319000Y-127701000D01*
X139276000Y-127836000D01*
X139255000Y-127903000D01*
X139230000Y-127983000D01*
X139203000Y-128067000D01*
X139179000Y-128141000D01*
X139125000Y-128311000D01*
X139067000Y-128315000D01*
X139009000Y-128319000D01*
X138977000Y-128214000D01*
X138958000Y-128149000D01*
X138936000Y-128078000D01*
X138918000Y-128015000D01*
X138917000Y-128012000D01*
X138903000Y-127969000D01*
X138891000Y-127940000D01*
X138882000Y-127929000D01*
X138881000Y-127931000D01*
X138874000Y-127948000D01*
X138863000Y-127984000D01*
X138847000Y-128036000D01*
X138828000Y-128098000D01*
X138818000Y-128132000D01*
X138764000Y-128317000D01*
X138648000Y-128317000D01*
X138555000Y-128025000D01*
X138529000Y-127943000D01*
X138506000Y-127868000D01*
X138485000Y-127805000D01*
X138470000Y-127756000D01*
X138460000Y-127725000D01*
X138457000Y-127716000D01*
X138459000Y-127707000D01*
X138478000Y-127703000D01*
X138517000Y-127703000D01*
X138523000Y-127704000D01*
X138597000Y-127707000D01*
X138644000Y-127884000D01*
X138662000Y-127948000D01*
X138678000Y-128004000D01*
X138690000Y-128048000D01*
X138698000Y-128074000D01*
X138700000Y-128078000D01*
X138706000Y-128073000D01*
X138718000Y-128048000D01*
X138734000Y-128005000D01*
X138755000Y-127949000D01*
X138772000Y-127899000D01*
X138836000Y-127700000D01*
X138886000Y-127704000D01*
G37*
X136066000Y-126765000D02*
X136132000Y-126794000D01*
X136182000Y-126842000D01*
X136216000Y-126910000D01*
X136235000Y-126998000D01*
X136236000Y-127012000D01*
X136237000Y-127108000D01*
X136224000Y-127193000D01*
X136196000Y-127262000D01*
X136182000Y-127284000D01*
X136131000Y-127331000D01*
X136067000Y-127361000D01*
X135995000Y-127373000D01*
X135921000Y-127367000D01*
X135865000Y-127347000D01*
X135817000Y-127314000D01*
X135778000Y-127271000D01*
X135777000Y-127270000D01*
X135761000Y-127243000D01*
X135751000Y-127216000D01*
X135745000Y-127182000D01*
X135741000Y-127134000D01*
X135740000Y-127094000D01*
X135739000Y-127059000D01*
X135865000Y-127059000D01*
X135866000Y-127094000D01*
X135870000Y-127142000D01*
X135878000Y-127172000D01*
X135892000Y-127194000D01*
X135906000Y-127206000D01*
X135953000Y-127233000D01*
X136002000Y-127236000D01*
X136048000Y-127217000D01*
X136071000Y-127196000D01*
X136087000Y-127174000D01*
X136097000Y-127154000D01*
X136101000Y-127127000D01*
X136102000Y-127087000D01*
X136100000Y-127050000D01*
X136097000Y-126997000D01*
X136093000Y-126963000D01*
X136085000Y-126941000D01*
X136071000Y-126924000D01*
X136061000Y-126914000D01*
X136016000Y-126889000D01*
X135967000Y-126887000D01*
X135927000Y-126902000D01*
X135892000Y-126934000D01*
X135871000Y-126986000D01*
X135865000Y-127059000D01*
X135739000Y-127059000D01*
X135738000Y-127016000D01*
X135741000Y-126958000D01*
X135748000Y-126914000D01*
X135762000Y-126879000D01*
X135783000Y-126848000D01*
X135790000Y-126839000D01*
X135839000Y-126794000D01*
X135890000Y-126767000D01*
X135954000Y-126756000D01*
X135985000Y-126755000D01*
X136066000Y-126765000D01*
G36*
X136066000Y-126765000D02*
G01*
X136132000Y-126794000D01*
X136182000Y-126842000D01*
X136216000Y-126910000D01*
X136235000Y-126998000D01*
X136236000Y-127012000D01*
X136237000Y-127108000D01*
X136224000Y-127193000D01*
X136196000Y-127262000D01*
X136182000Y-127284000D01*
X136131000Y-127331000D01*
X136067000Y-127361000D01*
X135995000Y-127373000D01*
X135921000Y-127367000D01*
X135865000Y-127347000D01*
X135817000Y-127314000D01*
X135778000Y-127271000D01*
X135777000Y-127270000D01*
X135761000Y-127243000D01*
X135751000Y-127216000D01*
X135745000Y-127182000D01*
X135741000Y-127134000D01*
X135740000Y-127094000D01*
X135739000Y-127059000D01*
X135865000Y-127059000D01*
X135866000Y-127094000D01*
X135870000Y-127142000D01*
X135878000Y-127172000D01*
X135892000Y-127194000D01*
X135906000Y-127206000D01*
X135953000Y-127233000D01*
X136002000Y-127236000D01*
X136048000Y-127217000D01*
X136071000Y-127196000D01*
X136087000Y-127174000D01*
X136097000Y-127154000D01*
X136101000Y-127127000D01*
X136102000Y-127087000D01*
X136100000Y-127050000D01*
X136097000Y-126997000D01*
X136093000Y-126963000D01*
X136085000Y-126941000D01*
X136071000Y-126924000D01*
X136061000Y-126914000D01*
X136016000Y-126889000D01*
X135967000Y-126887000D01*
X135927000Y-126902000D01*
X135892000Y-126934000D01*
X135871000Y-126986000D01*
X135865000Y-127059000D01*
X135739000Y-127059000D01*
X135738000Y-127016000D01*
X135741000Y-126958000D01*
X135748000Y-126914000D01*
X135762000Y-126879000D01*
X135783000Y-126848000D01*
X135790000Y-126839000D01*
X135839000Y-126794000D01*
X135890000Y-126767000D01*
X135954000Y-126756000D01*
X135985000Y-126755000D01*
X136066000Y-126765000D01*
G37*
X138403000Y-128317000D02*
X138334000Y-128317000D01*
X138294000Y-128316000D01*
X138273000Y-128311000D01*
X138266000Y-128301000D01*
X138265000Y-128294000D01*
X138264000Y-128279000D01*
X138256000Y-128276000D01*
X138235000Y-128285000D01*
X138218000Y-128294000D01*
X138156000Y-128313000D01*
X138087000Y-128314000D01*
X138032000Y-128300000D01*
X137980000Y-128264000D01*
X137941000Y-128212000D01*
X137919000Y-128151000D01*
X137919000Y-128148000D01*
X137915000Y-128110000D01*
X137914000Y-128056000D01*
X137914000Y-128016000D01*
X138051000Y-128016000D01*
X138054000Y-128070000D01*
X138062000Y-128114000D01*
X138071000Y-128139000D01*
X138109000Y-128174000D01*
X138153000Y-128186000D01*
X138198000Y-128176000D01*
X138237000Y-128146000D01*
X138251000Y-128126000D01*
X138260000Y-128103000D01*
X138264000Y-128068000D01*
X138265000Y-128015000D01*
X138263000Y-127964000D01*
X138259000Y-127918000D01*
X138252000Y-127888000D01*
X138251000Y-127885000D01*
X138224000Y-127852000D01*
X138185000Y-127835000D01*
X138141000Y-127832000D01*
X138100000Y-127844000D01*
X138070000Y-127872000D01*
X138067000Y-127878000D01*
X138058000Y-127912000D01*
X138052000Y-127960000D01*
X138051000Y-128016000D01*
X137914000Y-128016000D01*
X137914000Y-127995000D01*
X137915000Y-127962000D01*
X137921000Y-127880000D01*
X137934000Y-127819000D01*
X137955000Y-127774000D01*
X137987000Y-127740000D01*
X138017000Y-127721000D01*
X138060000Y-127707000D01*
X138113000Y-127702000D01*
X138168000Y-127706000D01*
X138215000Y-127718000D01*
X138239000Y-127732000D01*
X138265000Y-127755000D01*
X138265000Y-127462000D01*
X138403000Y-127462000D01*
X138403000Y-128317000D01*
G36*
X138403000Y-128317000D02*
G01*
X138334000Y-128317000D01*
X138294000Y-128316000D01*
X138273000Y-128311000D01*
X138266000Y-128301000D01*
X138265000Y-128294000D01*
X138264000Y-128279000D01*
X138256000Y-128276000D01*
X138235000Y-128285000D01*
X138218000Y-128294000D01*
X138156000Y-128313000D01*
X138087000Y-128314000D01*
X138032000Y-128300000D01*
X137980000Y-128264000D01*
X137941000Y-128212000D01*
X137919000Y-128151000D01*
X137919000Y-128148000D01*
X137915000Y-128110000D01*
X137914000Y-128056000D01*
X137914000Y-128016000D01*
X138051000Y-128016000D01*
X138054000Y-128070000D01*
X138062000Y-128114000D01*
X138071000Y-128139000D01*
X138109000Y-128174000D01*
X138153000Y-128186000D01*
X138198000Y-128176000D01*
X138237000Y-128146000D01*
X138251000Y-128126000D01*
X138260000Y-128103000D01*
X138264000Y-128068000D01*
X138265000Y-128015000D01*
X138263000Y-127964000D01*
X138259000Y-127918000D01*
X138252000Y-127888000D01*
X138251000Y-127885000D01*
X138224000Y-127852000D01*
X138185000Y-127835000D01*
X138141000Y-127832000D01*
X138100000Y-127844000D01*
X138070000Y-127872000D01*
X138067000Y-127878000D01*
X138058000Y-127912000D01*
X138052000Y-127960000D01*
X138051000Y-128016000D01*
X137914000Y-128016000D01*
X137914000Y-127995000D01*
X137915000Y-127962000D01*
X137921000Y-127880000D01*
X137934000Y-127819000D01*
X137955000Y-127774000D01*
X137987000Y-127740000D01*
X138017000Y-127721000D01*
X138060000Y-127707000D01*
X138113000Y-127702000D01*
X138168000Y-127706000D01*
X138215000Y-127718000D01*
X138239000Y-127732000D01*
X138265000Y-127755000D01*
X138265000Y-127462000D01*
X138403000Y-127462000D01*
X138403000Y-128317000D01*
G37*
X141282000Y-126756000D02*
X141315000Y-126764000D01*
X141376000Y-126792000D01*
X141429000Y-126836000D01*
X141466000Y-126889000D01*
X141471000Y-126900000D01*
X141478000Y-126931000D01*
X141482000Y-126977000D01*
X141484000Y-127023000D01*
X141484000Y-127110000D01*
X141302000Y-127110000D01*
X141226000Y-127110000D01*
X141174000Y-127112000D01*
X141140000Y-127117000D01*
X141123000Y-127125000D01*
X141119000Y-127139000D01*
X141125000Y-127160000D01*
X141137000Y-127184000D01*
X141171000Y-127224000D01*
X141217000Y-127244000D01*
X141273000Y-127243000D01*
X141338000Y-127222000D01*
X141393000Y-127195000D01*
X141439000Y-127231000D01*
X141485000Y-127267000D01*
X141442000Y-127307000D01*
X141384000Y-127345000D01*
X141313000Y-127368000D01*
X141237000Y-127374000D01*
X141163000Y-127363000D01*
X141151000Y-127359000D01*
X141086000Y-127325000D01*
X141038000Y-127274000D01*
X141005000Y-127206000D01*
X140987000Y-127118000D01*
X140987000Y-127116000D01*
X140985000Y-127019000D01*
X140992000Y-126985000D01*
X141119000Y-126985000D01*
X141131000Y-126990000D01*
X141163000Y-126994000D01*
X141210000Y-126997000D01*
X141240000Y-126997000D01*
X141295000Y-126997000D01*
X141330000Y-126995000D01*
X141348000Y-126992000D01*
X141354000Y-126985000D01*
X141353000Y-126973000D01*
X141351000Y-126969000D01*
X141329000Y-126927000D01*
X141294000Y-126893000D01*
X141262000Y-126878000D01*
X141221000Y-126879000D01*
X141179000Y-126898000D01*
X141144000Y-126928000D01*
X141122000Y-126966000D01*
X141119000Y-126985000D01*
X140992000Y-126985000D01*
X141001000Y-126935000D01*
X141033000Y-126864000D01*
X141079000Y-126808000D01*
X141137000Y-126771000D01*
X141206000Y-126752000D01*
X141282000Y-126756000D01*
G36*
X141282000Y-126756000D02*
G01*
X141315000Y-126764000D01*
X141376000Y-126792000D01*
X141429000Y-126836000D01*
X141466000Y-126889000D01*
X141471000Y-126900000D01*
X141478000Y-126931000D01*
X141482000Y-126977000D01*
X141484000Y-127023000D01*
X141484000Y-127110000D01*
X141302000Y-127110000D01*
X141226000Y-127110000D01*
X141174000Y-127112000D01*
X141140000Y-127117000D01*
X141123000Y-127125000D01*
X141119000Y-127139000D01*
X141125000Y-127160000D01*
X141137000Y-127184000D01*
X141171000Y-127224000D01*
X141217000Y-127244000D01*
X141273000Y-127243000D01*
X141338000Y-127222000D01*
X141393000Y-127195000D01*
X141439000Y-127231000D01*
X141485000Y-127267000D01*
X141442000Y-127307000D01*
X141384000Y-127345000D01*
X141313000Y-127368000D01*
X141237000Y-127374000D01*
X141163000Y-127363000D01*
X141151000Y-127359000D01*
X141086000Y-127325000D01*
X141038000Y-127274000D01*
X141005000Y-127206000D01*
X140987000Y-127118000D01*
X140987000Y-127116000D01*
X140985000Y-127019000D01*
X140992000Y-126985000D01*
X141119000Y-126985000D01*
X141131000Y-126990000D01*
X141163000Y-126994000D01*
X141210000Y-126997000D01*
X141240000Y-126997000D01*
X141295000Y-126997000D01*
X141330000Y-126995000D01*
X141348000Y-126992000D01*
X141354000Y-126985000D01*
X141353000Y-126973000D01*
X141351000Y-126969000D01*
X141329000Y-126927000D01*
X141294000Y-126893000D01*
X141262000Y-126878000D01*
X141221000Y-126879000D01*
X141179000Y-126898000D01*
X141144000Y-126928000D01*
X141122000Y-126966000D01*
X141119000Y-126985000D01*
X140992000Y-126985000D01*
X141001000Y-126935000D01*
X141033000Y-126864000D01*
X141079000Y-126808000D01*
X141137000Y-126771000D01*
X141206000Y-126752000D01*
X141282000Y-126756000D01*
G37*
X138619000Y-126756000D02*
X138666000Y-126765000D01*
X138716000Y-126784000D01*
X138721000Y-126786000D01*
X138758000Y-126806000D01*
X138784000Y-126824000D01*
X138793000Y-126836000D01*
X138785000Y-126855000D01*
X138765000Y-126883000D01*
X138757000Y-126894000D01*
X138721000Y-126935000D01*
X138675000Y-126908000D01*
X138632000Y-126890000D01*
X138582000Y-126881000D01*
X138533000Y-126880000D01*
X138496000Y-126889000D01*
X138487000Y-126895000D01*
X138470000Y-126921000D01*
X138468000Y-126950000D01*
X138481000Y-126974000D01*
X138488000Y-126978000D01*
X138511000Y-126984000D01*
X138551000Y-126990000D01*
X138600000Y-126997000D01*
X138609000Y-126998000D01*
X138687000Y-127011000D01*
X138745000Y-127034000D01*
X138783000Y-127069000D01*
X138804000Y-127118000D01*
X138810000Y-127177000D01*
X138801000Y-127245000D01*
X138772000Y-127298000D01*
X138722000Y-127336000D01*
X138651000Y-127361000D01*
X138573000Y-127370000D01*
X138509000Y-127370000D01*
X138458000Y-127361000D01*
X138422000Y-127349000D01*
X138378000Y-127328000D01*
X138336000Y-127304000D01*
X138322000Y-127293000D01*
X138284000Y-127263000D01*
X138329000Y-127217000D01*
X138375000Y-127171000D01*
X138427000Y-127205000D01*
X138478000Y-127230000D01*
X138534000Y-127244000D01*
X138587000Y-127245000D01*
X138633000Y-127235000D01*
X138665000Y-127213000D01*
X138675000Y-127194000D01*
X138673000Y-127165000D01*
X138648000Y-127142000D01*
X138598000Y-127126000D01*
X138544000Y-127119000D01*
X138460000Y-127105000D01*
X138398000Y-127079000D01*
X138356000Y-127040000D01*
X138334000Y-126987000D01*
X138331000Y-126925000D01*
X138346000Y-126859000D01*
X138380000Y-126810000D01*
X138433000Y-126776000D01*
X138506000Y-126758000D01*
X138559000Y-126754000D01*
X138619000Y-126756000D01*
G36*
X138619000Y-126756000D02*
G01*
X138666000Y-126765000D01*
X138716000Y-126784000D01*
X138721000Y-126786000D01*
X138758000Y-126806000D01*
X138784000Y-126824000D01*
X138793000Y-126836000D01*
X138785000Y-126855000D01*
X138765000Y-126883000D01*
X138757000Y-126894000D01*
X138721000Y-126935000D01*
X138675000Y-126908000D01*
X138632000Y-126890000D01*
X138582000Y-126881000D01*
X138533000Y-126880000D01*
X138496000Y-126889000D01*
X138487000Y-126895000D01*
X138470000Y-126921000D01*
X138468000Y-126950000D01*
X138481000Y-126974000D01*
X138488000Y-126978000D01*
X138511000Y-126984000D01*
X138551000Y-126990000D01*
X138600000Y-126997000D01*
X138609000Y-126998000D01*
X138687000Y-127011000D01*
X138745000Y-127034000D01*
X138783000Y-127069000D01*
X138804000Y-127118000D01*
X138810000Y-127177000D01*
X138801000Y-127245000D01*
X138772000Y-127298000D01*
X138722000Y-127336000D01*
X138651000Y-127361000D01*
X138573000Y-127370000D01*
X138509000Y-127370000D01*
X138458000Y-127361000D01*
X138422000Y-127349000D01*
X138378000Y-127328000D01*
X138336000Y-127304000D01*
X138322000Y-127293000D01*
X138284000Y-127263000D01*
X138329000Y-127217000D01*
X138375000Y-127171000D01*
X138427000Y-127205000D01*
X138478000Y-127230000D01*
X138534000Y-127244000D01*
X138587000Y-127245000D01*
X138633000Y-127235000D01*
X138665000Y-127213000D01*
X138675000Y-127194000D01*
X138673000Y-127165000D01*
X138648000Y-127142000D01*
X138598000Y-127126000D01*
X138544000Y-127119000D01*
X138460000Y-127105000D01*
X138398000Y-127079000D01*
X138356000Y-127040000D01*
X138334000Y-126987000D01*
X138331000Y-126925000D01*
X138346000Y-126859000D01*
X138380000Y-126810000D01*
X138433000Y-126776000D01*
X138506000Y-126758000D01*
X138559000Y-126754000D01*
X138619000Y-126756000D01*
G37*
X140637000Y-127704000D02*
X140697000Y-127720000D01*
X140748000Y-127752000D01*
X140772000Y-127776000D01*
X140812000Y-127833000D01*
X140835000Y-127899000D01*
X140843000Y-127981000D01*
X140843000Y-127987000D01*
X140843000Y-128053000D01*
X140463000Y-128053000D01*
X140471000Y-128088000D01*
X140485000Y-128119000D01*
X140511000Y-128152000D01*
X140516000Y-128157000D01*
X140562000Y-128185000D01*
X140615000Y-128190000D01*
X140675000Y-128171000D01*
X140686000Y-128166000D01*
X140717000Y-128151000D01*
X140738000Y-128143000D01*
X140742000Y-128142000D01*
X140754000Y-128150000D01*
X140779000Y-128169000D01*
X140791000Y-128179000D01*
X140817000Y-128203000D01*
X140825000Y-128219000D01*
X140820000Y-128233000D01*
X140816000Y-128237000D01*
X140795000Y-128254000D01*
X140760000Y-128275000D01*
X140736000Y-128288000D01*
X140667000Y-128309000D01*
X140590000Y-128316000D01*
X140517000Y-128308000D01*
X140497000Y-128302000D01*
X140434000Y-128268000D01*
X140387000Y-128217000D01*
X140357000Y-128146000D01*
X140342000Y-128056000D01*
X140340000Y-128009000D01*
X140345000Y-127941000D01*
X140465000Y-127941000D01*
X140477000Y-127946000D01*
X140508000Y-127950000D01*
X140554000Y-127952000D01*
X140585000Y-127953000D01*
X140640000Y-127952000D01*
X140676000Y-127950000D01*
X140695000Y-127946000D01*
X140703000Y-127939000D01*
X140704000Y-127928000D01*
X140694000Y-127894000D01*
X140666000Y-127860000D01*
X140631000Y-127835000D01*
X140595000Y-127824000D01*
X140547000Y-127834000D01*
X140505000Y-127861000D01*
X140475000Y-127899000D01*
X140465000Y-127941000D01*
X140345000Y-127941000D01*
X140347000Y-127910000D01*
X140369000Y-127830000D01*
X140405000Y-127771000D01*
X140457000Y-127730000D01*
X140524000Y-127708000D01*
X140561000Y-127703000D01*
X140637000Y-127704000D01*
G36*
X140637000Y-127704000D02*
G01*
X140697000Y-127720000D01*
X140748000Y-127752000D01*
X140772000Y-127776000D01*
X140812000Y-127833000D01*
X140835000Y-127899000D01*
X140843000Y-127981000D01*
X140843000Y-127987000D01*
X140843000Y-128053000D01*
X140463000Y-128053000D01*
X140471000Y-128088000D01*
X140485000Y-128119000D01*
X140511000Y-128152000D01*
X140516000Y-128157000D01*
X140562000Y-128185000D01*
X140615000Y-128190000D01*
X140675000Y-128171000D01*
X140686000Y-128166000D01*
X140717000Y-128151000D01*
X140738000Y-128143000D01*
X140742000Y-128142000D01*
X140754000Y-128150000D01*
X140779000Y-128169000D01*
X140791000Y-128179000D01*
X140817000Y-128203000D01*
X140825000Y-128219000D01*
X140820000Y-128233000D01*
X140816000Y-128237000D01*
X140795000Y-128254000D01*
X140760000Y-128275000D01*
X140736000Y-128288000D01*
X140667000Y-128309000D01*
X140590000Y-128316000D01*
X140517000Y-128308000D01*
X140497000Y-128302000D01*
X140434000Y-128268000D01*
X140387000Y-128217000D01*
X140357000Y-128146000D01*
X140342000Y-128056000D01*
X140340000Y-128009000D01*
X140345000Y-127941000D01*
X140465000Y-127941000D01*
X140477000Y-127946000D01*
X140508000Y-127950000D01*
X140554000Y-127952000D01*
X140585000Y-127953000D01*
X140640000Y-127952000D01*
X140676000Y-127950000D01*
X140695000Y-127946000D01*
X140703000Y-127939000D01*
X140704000Y-127928000D01*
X140694000Y-127894000D01*
X140666000Y-127860000D01*
X140631000Y-127835000D01*
X140595000Y-127824000D01*
X140547000Y-127834000D01*
X140505000Y-127861000D01*
X140475000Y-127899000D01*
X140465000Y-127941000D01*
X140345000Y-127941000D01*
X140347000Y-127910000D01*
X140369000Y-127830000D01*
X140405000Y-127771000D01*
X140457000Y-127730000D01*
X140524000Y-127708000D01*
X140561000Y-127703000D01*
X140637000Y-127704000D01*
G37*
X137248000Y-126772000D02*
X137260000Y-126778000D01*
X137304000Y-126810000D01*
X137345000Y-126856000D01*
X137375000Y-126907000D01*
X137384000Y-126931000D01*
X137392000Y-126973000D01*
X137397000Y-127023000D01*
X137397000Y-127044000D01*
X137397000Y-127110000D01*
X137017000Y-127110000D01*
X137026000Y-127145000D01*
X137045000Y-127186000D01*
X137080000Y-127221000D01*
X137122000Y-127244000D01*
X137148000Y-127249000D01*
X137184000Y-127243000D01*
X137226000Y-127228000D01*
X137241000Y-127222000D01*
X137294000Y-127195000D01*
X137340000Y-127230000D01*
X137366000Y-127253000D01*
X137380000Y-127273000D01*
X137381000Y-127279000D01*
X137369000Y-127292000D01*
X137341000Y-127314000D01*
X137316000Y-127330000D01*
X137249000Y-127359000D01*
X137173000Y-127373000D01*
X137099000Y-127369000D01*
X137039000Y-127351000D01*
X136978000Y-127312000D01*
X136934000Y-127261000D01*
X136907000Y-127195000D01*
X136894000Y-127111000D01*
X136893000Y-127072000D01*
X136897000Y-126984000D01*
X136898000Y-126982000D01*
X137024000Y-126982000D01*
X137027000Y-126990000D01*
X137042000Y-126995000D01*
X137071000Y-126997000D01*
X137120000Y-126997000D01*
X137139000Y-126997000D01*
X137196000Y-126996000D01*
X137232000Y-126994000D01*
X137252000Y-126989000D01*
X137259000Y-126981000D01*
X137259000Y-126978000D01*
X137251000Y-126958000D01*
X137231000Y-126929000D01*
X137223000Y-126919000D01*
X137191000Y-126891000D01*
X137159000Y-126880000D01*
X137141000Y-126879000D01*
X137093000Y-126890000D01*
X137053000Y-126922000D01*
X137027000Y-126967000D01*
X137027000Y-126969000D01*
X137024000Y-126982000D01*
X136898000Y-126982000D01*
X136912000Y-126915000D01*
X136938000Y-126860000D01*
X136971000Y-126820000D01*
X137030000Y-126777000D01*
X137100000Y-126755000D01*
X137175000Y-126753000D01*
X137248000Y-126772000D01*
G36*
X137248000Y-126772000D02*
G01*
X137260000Y-126778000D01*
X137304000Y-126810000D01*
X137345000Y-126856000D01*
X137375000Y-126907000D01*
X137384000Y-126931000D01*
X137392000Y-126973000D01*
X137397000Y-127023000D01*
X137397000Y-127044000D01*
X137397000Y-127110000D01*
X137017000Y-127110000D01*
X137026000Y-127145000D01*
X137045000Y-127186000D01*
X137080000Y-127221000D01*
X137122000Y-127244000D01*
X137148000Y-127249000D01*
X137184000Y-127243000D01*
X137226000Y-127228000D01*
X137241000Y-127222000D01*
X137294000Y-127195000D01*
X137340000Y-127230000D01*
X137366000Y-127253000D01*
X137380000Y-127273000D01*
X137381000Y-127279000D01*
X137369000Y-127292000D01*
X137341000Y-127314000D01*
X137316000Y-127330000D01*
X137249000Y-127359000D01*
X137173000Y-127373000D01*
X137099000Y-127369000D01*
X137039000Y-127351000D01*
X136978000Y-127312000D01*
X136934000Y-127261000D01*
X136907000Y-127195000D01*
X136894000Y-127111000D01*
X136893000Y-127072000D01*
X136897000Y-126984000D01*
X136898000Y-126982000D01*
X137024000Y-126982000D01*
X137027000Y-126990000D01*
X137042000Y-126995000D01*
X137071000Y-126997000D01*
X137120000Y-126997000D01*
X137139000Y-126997000D01*
X137196000Y-126996000D01*
X137232000Y-126994000D01*
X137252000Y-126989000D01*
X137259000Y-126981000D01*
X137259000Y-126978000D01*
X137251000Y-126958000D01*
X137231000Y-126929000D01*
X137223000Y-126919000D01*
X137191000Y-126891000D01*
X137159000Y-126880000D01*
X137141000Y-126879000D01*
X137093000Y-126890000D01*
X137053000Y-126922000D01*
X137027000Y-126967000D01*
X137027000Y-126969000D01*
X137024000Y-126982000D01*
X136898000Y-126982000D01*
X136912000Y-126915000D01*
X136938000Y-126860000D01*
X136971000Y-126820000D01*
X137030000Y-126777000D01*
X137100000Y-126755000D01*
X137175000Y-126753000D01*
X137248000Y-126772000D01*
G37*
X139643000Y-127705000D02*
X139696000Y-127718000D01*
X139711000Y-127725000D01*
X139741000Y-127742000D01*
X139764000Y-127763000D01*
X139781000Y-127788000D01*
X139792000Y-127824000D01*
X139800000Y-127871000D01*
X139805000Y-127935000D01*
X139808000Y-128019000D01*
X139809000Y-128075000D01*
X139814000Y-128317000D01*
X139743000Y-128317000D01*
X139701000Y-128316000D01*
X139679000Y-128309000D01*
X139673000Y-128299000D01*
X139670000Y-128288000D01*
X139657000Y-128290000D01*
X139639000Y-128299000D01*
X139593000Y-128313000D01*
X139535000Y-128316000D01*
X139473000Y-128310000D01*
X139418000Y-128295000D01*
X139413000Y-128293000D01*
X139363000Y-128258000D01*
X139330000Y-128209000D01*
X139315000Y-128152000D01*
X139316000Y-128131000D01*
X139440000Y-128131000D01*
X139451000Y-128159000D01*
X139483000Y-128179000D01*
X139535000Y-128189000D01*
X139563000Y-128191000D01*
X139610000Y-128187000D01*
X139641000Y-128173000D01*
X139648000Y-128166000D01*
X139669000Y-128130000D01*
X139673000Y-128097000D01*
X139673000Y-128053000D01*
X139612000Y-128053000D01*
X139541000Y-128057000D01*
X139491000Y-128068000D01*
X139459000Y-128088000D01*
X139452000Y-128097000D01*
X139440000Y-128131000D01*
X139316000Y-128131000D01*
X139318000Y-128092000D01*
X139341000Y-128035000D01*
X139372000Y-127996000D01*
X139391000Y-127979000D01*
X139409000Y-127968000D01*
X139433000Y-127962000D01*
X139468000Y-127958000D01*
X139521000Y-127955000D01*
X139542000Y-127955000D01*
X139673000Y-127950000D01*
X139673000Y-127911000D01*
X139668000Y-127869000D01*
X139650000Y-127844000D01*
X139613000Y-127828000D01*
X139612000Y-127827000D01*
X139559000Y-127821000D01*
X139507000Y-127829000D01*
X139469000Y-127849000D01*
X139454000Y-127859000D01*
X139437000Y-127858000D01*
X139412000Y-127843000D01*
X139397000Y-127833000D01*
X139368000Y-127812000D01*
X139349000Y-127795000D01*
X139347000Y-127791000D01*
X139359000Y-127767000D01*
X139394000Y-127738000D01*
X139409000Y-127728000D01*
X139453000Y-127711000D01*
X139513000Y-127702000D01*
X139579000Y-127700000D01*
X139643000Y-127705000D01*
G36*
X139643000Y-127705000D02*
G01*
X139696000Y-127718000D01*
X139711000Y-127725000D01*
X139741000Y-127742000D01*
X139764000Y-127763000D01*
X139781000Y-127788000D01*
X139792000Y-127824000D01*
X139800000Y-127871000D01*
X139805000Y-127935000D01*
X139808000Y-128019000D01*
X139809000Y-128075000D01*
X139814000Y-128317000D01*
X139743000Y-128317000D01*
X139701000Y-128316000D01*
X139679000Y-128309000D01*
X139673000Y-128299000D01*
X139670000Y-128288000D01*
X139657000Y-128290000D01*
X139639000Y-128299000D01*
X139593000Y-128313000D01*
X139535000Y-128316000D01*
X139473000Y-128310000D01*
X139418000Y-128295000D01*
X139413000Y-128293000D01*
X139363000Y-128258000D01*
X139330000Y-128209000D01*
X139315000Y-128152000D01*
X139316000Y-128131000D01*
X139440000Y-128131000D01*
X139451000Y-128159000D01*
X139483000Y-128179000D01*
X139535000Y-128189000D01*
X139563000Y-128191000D01*
X139610000Y-128187000D01*
X139641000Y-128173000D01*
X139648000Y-128166000D01*
X139669000Y-128130000D01*
X139673000Y-128097000D01*
X139673000Y-128053000D01*
X139612000Y-128053000D01*
X139541000Y-128057000D01*
X139491000Y-128068000D01*
X139459000Y-128088000D01*
X139452000Y-128097000D01*
X139440000Y-128131000D01*
X139316000Y-128131000D01*
X139318000Y-128092000D01*
X139341000Y-128035000D01*
X139372000Y-127996000D01*
X139391000Y-127979000D01*
X139409000Y-127968000D01*
X139433000Y-127962000D01*
X139468000Y-127958000D01*
X139521000Y-127955000D01*
X139542000Y-127955000D01*
X139673000Y-127950000D01*
X139673000Y-127911000D01*
X139668000Y-127869000D01*
X139650000Y-127844000D01*
X139613000Y-127828000D01*
X139612000Y-127827000D01*
X139559000Y-127821000D01*
X139507000Y-127829000D01*
X139469000Y-127849000D01*
X139454000Y-127859000D01*
X139437000Y-127858000D01*
X139412000Y-127843000D01*
X139397000Y-127833000D01*
X139368000Y-127812000D01*
X139349000Y-127795000D01*
X139347000Y-127791000D01*
X139359000Y-127767000D01*
X139394000Y-127738000D01*
X139409000Y-127728000D01*
X139453000Y-127711000D01*
X139513000Y-127702000D01*
X139579000Y-127700000D01*
X139643000Y-127705000D01*
G37*
X137220000Y-127706000D02*
X137279000Y-127722000D01*
X137324000Y-127750000D01*
X137356000Y-127788000D01*
X137366000Y-127804000D01*
X137373000Y-127821000D01*
X137379000Y-127842000D01*
X137382000Y-127872000D01*
X137384000Y-127915000D01*
X137385000Y-127974000D01*
X137385000Y-128053000D01*
X137385000Y-128074000D01*
X137385000Y-128317000D01*
X137324000Y-128317000D01*
X137286000Y-128315000D01*
X137257000Y-128308000D01*
X137250000Y-128304000D01*
X137231000Y-128296000D01*
X137211000Y-128304000D01*
X137178000Y-128313000D01*
X137131000Y-128316000D01*
X137078000Y-128315000D01*
X137029000Y-128308000D01*
X137001000Y-128300000D01*
X136947000Y-128265000D01*
X136913000Y-128216000D01*
X136897000Y-128151000D01*
X136897000Y-128150000D01*
X136899000Y-128121000D01*
X137020000Y-128121000D01*
X137031000Y-128154000D01*
X137048000Y-128172000D01*
X137083000Y-128186000D01*
X137129000Y-128191000D01*
X137176000Y-128189000D01*
X137213000Y-128178000D01*
X137223000Y-128171000D01*
X137242000Y-128138000D01*
X137246000Y-128102000D01*
X137246000Y-128053000D01*
X137177000Y-128053000D01*
X137111000Y-128058000D01*
X137061000Y-128073000D01*
X137030000Y-128095000D01*
X137020000Y-128121000D01*
X136899000Y-128121000D01*
X136901000Y-128079000D01*
X136924000Y-128023000D01*
X136968000Y-127981000D01*
X136974000Y-127977000D01*
X137000000Y-127965000D01*
X137032000Y-127957000D01*
X137077000Y-127954000D01*
X137130000Y-127953000D01*
X137246000Y-127953000D01*
X137246000Y-127904000D01*
X137242000Y-127866000D01*
X137229000Y-127841000D01*
X137227000Y-127839000D01*
X137199000Y-127828000D01*
X137157000Y-127824000D01*
X137110000Y-127826000D01*
X137069000Y-127834000D01*
X137045000Y-127846000D01*
X137031000Y-127856000D01*
X137017000Y-127858000D01*
X136998000Y-127850000D01*
X136969000Y-127830000D01*
X136925000Y-127797000D01*
X136921000Y-127793000D01*
X136923000Y-127782000D01*
X136940000Y-127762000D01*
X136966000Y-127741000D01*
X136995000Y-127723000D01*
X137004000Y-127718000D01*
X137037000Y-127710000D01*
X137086000Y-127704000D01*
X137140000Y-127701000D01*
X137142000Y-127701000D01*
X137220000Y-127706000D01*
G36*
X137220000Y-127706000D02*
G01*
X137279000Y-127722000D01*
X137324000Y-127750000D01*
X137356000Y-127788000D01*
X137366000Y-127804000D01*
X137373000Y-127821000D01*
X137379000Y-127842000D01*
X137382000Y-127872000D01*
X137384000Y-127915000D01*
X137385000Y-127974000D01*
X137385000Y-128053000D01*
X137385000Y-128074000D01*
X137385000Y-128317000D01*
X137324000Y-128317000D01*
X137286000Y-128315000D01*
X137257000Y-128308000D01*
X137250000Y-128304000D01*
X137231000Y-128296000D01*
X137211000Y-128304000D01*
X137178000Y-128313000D01*
X137131000Y-128316000D01*
X137078000Y-128315000D01*
X137029000Y-128308000D01*
X137001000Y-128300000D01*
X136947000Y-128265000D01*
X136913000Y-128216000D01*
X136897000Y-128151000D01*
X136897000Y-128150000D01*
X136899000Y-128121000D01*
X137020000Y-128121000D01*
X137031000Y-128154000D01*
X137048000Y-128172000D01*
X137083000Y-128186000D01*
X137129000Y-128191000D01*
X137176000Y-128189000D01*
X137213000Y-128178000D01*
X137223000Y-128171000D01*
X137242000Y-128138000D01*
X137246000Y-128102000D01*
X137246000Y-128053000D01*
X137177000Y-128053000D01*
X137111000Y-128058000D01*
X137061000Y-128073000D01*
X137030000Y-128095000D01*
X137020000Y-128121000D01*
X136899000Y-128121000D01*
X136901000Y-128079000D01*
X136924000Y-128023000D01*
X136968000Y-127981000D01*
X136974000Y-127977000D01*
X137000000Y-127965000D01*
X137032000Y-127957000D01*
X137077000Y-127954000D01*
X137130000Y-127953000D01*
X137246000Y-127953000D01*
X137246000Y-127904000D01*
X137242000Y-127866000D01*
X137229000Y-127841000D01*
X137227000Y-127839000D01*
X137199000Y-127828000D01*
X137157000Y-127824000D01*
X137110000Y-127826000D01*
X137069000Y-127834000D01*
X137045000Y-127846000D01*
X137031000Y-127856000D01*
X137017000Y-127858000D01*
X136998000Y-127850000D01*
X136969000Y-127830000D01*
X136925000Y-127797000D01*
X136921000Y-127793000D01*
X136923000Y-127782000D01*
X136940000Y-127762000D01*
X136966000Y-127741000D01*
X136995000Y-127723000D01*
X137004000Y-127718000D01*
X137037000Y-127710000D01*
X137086000Y-127704000D01*
X137140000Y-127701000D01*
X137142000Y-127701000D01*
X137220000Y-127706000D01*
G37*
X136696000Y-126769000D02*
X136722000Y-126782000D01*
X136755000Y-126805000D01*
X136779000Y-126829000D01*
X136795000Y-126861000D01*
X136805000Y-126903000D01*
X136811000Y-126960000D01*
X136813000Y-127036000D01*
X136813000Y-127068000D01*
X136812000Y-127140000D01*
X136811000Y-127191000D01*
X136808000Y-127227000D01*
X136803000Y-127251000D01*
X136795000Y-127269000D01*
X136787000Y-127281000D01*
X136734000Y-127333000D01*
X136673000Y-127365000D01*
X136606000Y-127374000D01*
X136539000Y-127360000D01*
X136518000Y-127351000D01*
X136467000Y-127324000D01*
X136467000Y-127740000D01*
X136504000Y-127720000D01*
X136553000Y-127706000D01*
X136613000Y-127702000D01*
X136673000Y-127709000D01*
X136718000Y-127725000D01*
X136756000Y-127755000D01*
X136788000Y-127798000D01*
X136790000Y-127802000D01*
X136801000Y-127823000D01*
X136808000Y-127844000D01*
X136813000Y-127869000D01*
X136816000Y-127903000D01*
X136818000Y-127950000D01*
X136819000Y-128014000D01*
X136819000Y-128087000D01*
X136819000Y-128317000D01*
X136681000Y-128317000D01*
X136681000Y-127892000D01*
X136642000Y-127859000D01*
X136602000Y-127833000D01*
X136564000Y-127829000D01*
X136525000Y-127841000D01*
X136505000Y-127853000D01*
X136490000Y-127870000D01*
X136479000Y-127895000D01*
X136472000Y-127933000D01*
X136467000Y-127987000D01*
X136465000Y-128061000D01*
X136464000Y-128110000D01*
X136461000Y-128311000D01*
X136395000Y-128315000D01*
X136329000Y-128319000D01*
X136329000Y-127070000D01*
X136467000Y-127070000D01*
X136470000Y-127140000D01*
X136482000Y-127188000D01*
X136504000Y-127218000D01*
X136539000Y-127233000D01*
X136574000Y-127236000D01*
X136613000Y-127233000D01*
X136639000Y-127219000D01*
X136656000Y-127201000D01*
X136669000Y-127182000D01*
X136676000Y-127161000D01*
X136680000Y-127131000D01*
X136680000Y-127087000D01*
X136679000Y-127049000D01*
X136676000Y-126993000D01*
X136672000Y-126956000D01*
X136665000Y-126933000D01*
X136655000Y-126917000D01*
X136645000Y-126908000D01*
X136603000Y-126888000D01*
X136553000Y-126885000D01*
X136524000Y-126892000D01*
X136496000Y-126916000D01*
X136477000Y-126963000D01*
X136468000Y-127033000D01*
X136467000Y-127070000D01*
X136329000Y-127070000D01*
X136329000Y-126758000D01*
X136398000Y-126758000D01*
X136439000Y-126760000D01*
X136461000Y-126766000D01*
X136467000Y-126777000D01*
X136470000Y-126788000D01*
X136482000Y-126787000D01*
X136508000Y-126775000D01*
X136567000Y-126756000D01*
X136633000Y-126754000D01*
X136696000Y-126769000D01*
G36*
X136696000Y-126769000D02*
G01*
X136722000Y-126782000D01*
X136755000Y-126805000D01*
X136779000Y-126829000D01*
X136795000Y-126861000D01*
X136805000Y-126903000D01*
X136811000Y-126960000D01*
X136813000Y-127036000D01*
X136813000Y-127068000D01*
X136812000Y-127140000D01*
X136811000Y-127191000D01*
X136808000Y-127227000D01*
X136803000Y-127251000D01*
X136795000Y-127269000D01*
X136787000Y-127281000D01*
X136734000Y-127333000D01*
X136673000Y-127365000D01*
X136606000Y-127374000D01*
X136539000Y-127360000D01*
X136518000Y-127351000D01*
X136467000Y-127324000D01*
X136467000Y-127740000D01*
X136504000Y-127720000D01*
X136553000Y-127706000D01*
X136613000Y-127702000D01*
X136673000Y-127709000D01*
X136718000Y-127725000D01*
X136756000Y-127755000D01*
X136788000Y-127798000D01*
X136790000Y-127802000D01*
X136801000Y-127823000D01*
X136808000Y-127844000D01*
X136813000Y-127869000D01*
X136816000Y-127903000D01*
X136818000Y-127950000D01*
X136819000Y-128014000D01*
X136819000Y-128087000D01*
X136819000Y-128317000D01*
X136681000Y-128317000D01*
X136681000Y-127892000D01*
X136642000Y-127859000D01*
X136602000Y-127833000D01*
X136564000Y-127829000D01*
X136525000Y-127841000D01*
X136505000Y-127853000D01*
X136490000Y-127870000D01*
X136479000Y-127895000D01*
X136472000Y-127933000D01*
X136467000Y-127987000D01*
X136465000Y-128061000D01*
X136464000Y-128110000D01*
X136461000Y-128311000D01*
X136395000Y-128315000D01*
X136329000Y-128319000D01*
X136329000Y-127070000D01*
X136467000Y-127070000D01*
X136470000Y-127140000D01*
X136482000Y-127188000D01*
X136504000Y-127218000D01*
X136539000Y-127233000D01*
X136574000Y-127236000D01*
X136613000Y-127233000D01*
X136639000Y-127219000D01*
X136656000Y-127201000D01*
X136669000Y-127182000D01*
X136676000Y-127161000D01*
X136680000Y-127131000D01*
X136680000Y-127087000D01*
X136679000Y-127049000D01*
X136676000Y-126993000D01*
X136672000Y-126956000D01*
X136665000Y-126933000D01*
X136655000Y-126917000D01*
X136645000Y-126908000D01*
X136603000Y-126888000D01*
X136553000Y-126885000D01*
X136524000Y-126892000D01*
X136496000Y-126916000D01*
X136477000Y-126963000D01*
X136468000Y-127033000D01*
X136467000Y-127070000D01*
X136329000Y-127070000D01*
X136329000Y-126758000D01*
X136398000Y-126758000D01*
X136439000Y-126760000D01*
X136461000Y-126766000D01*
X136467000Y-126777000D01*
X136470000Y-126788000D01*
X136482000Y-126787000D01*
X136508000Y-126775000D01*
X136567000Y-126756000D01*
X136633000Y-126754000D01*
X136696000Y-126769000D01*
G37*
X138981000Y-122590000D02*
X139038000Y-122891000D01*
X139458000Y-123064000D01*
X139709000Y-122893000D01*
X139780000Y-122845000D01*
X139844000Y-122803000D01*
X139898000Y-122767000D01*
X139939000Y-122741000D01*
X139964000Y-122725000D01*
X139971000Y-122722000D01*
X139984000Y-122730000D01*
X140011000Y-122754000D01*
X140049000Y-122790000D01*
X140095000Y-122836000D01*
X140147000Y-122887000D01*
X140200000Y-122941000D01*
X140253000Y-122996000D01*
X140303000Y-123047000D01*
X140345000Y-123092000D01*
X140378000Y-123128000D01*
X140398000Y-123152000D01*
X140403000Y-123160000D01*
X140396000Y-123174000D01*
X140377000Y-123207000D01*
X140347000Y-123253000D01*
X140309000Y-123311000D01*
X140265000Y-123376000D01*
X140239000Y-123414000D01*
X140192000Y-123482000D01*
X140151000Y-123544000D01*
X140117000Y-123596000D01*
X140092000Y-123635000D01*
X140078000Y-123658000D01*
X140076000Y-123663000D01*
X140080000Y-123677000D01*
X140093000Y-123710000D01*
X140112000Y-123756000D01*
X140136000Y-123812000D01*
X140161000Y-123872000D01*
X140187000Y-123933000D01*
X140211000Y-123990000D01*
X140232000Y-124037000D01*
X140248000Y-124072000D01*
X140256000Y-124088000D01*
X140256000Y-124089000D01*
X140269000Y-124092000D01*
X140303000Y-124099000D01*
X140355000Y-124109000D01*
X140421000Y-124122000D01*
X140497000Y-124136000D01*
X140542000Y-124144000D01*
X140624000Y-124160000D01*
X140697000Y-124175000D01*
X140760000Y-124188000D01*
X140806000Y-124199000D01*
X140834000Y-124206000D01*
X140840000Y-124209000D01*
X140845000Y-124225000D01*
X140849000Y-124263000D01*
X140853000Y-124316000D01*
X140855000Y-124382000D01*
X140856000Y-124456000D01*
X140857000Y-124532000D01*
X140856000Y-124608000D01*
X140854000Y-124678000D01*
X140851000Y-124739000D01*
X140847000Y-124786000D01*
X140842000Y-124814000D01*
X140839000Y-124819000D01*
X140821000Y-124826000D01*
X140784000Y-124836000D01*
X140731000Y-124848000D01*
X140669000Y-124861000D01*
X140647000Y-124865000D01*
X140543000Y-124884000D01*
X140460000Y-124899000D01*
X140396000Y-124912000D01*
X140349000Y-124922000D01*
X140316000Y-124930000D01*
X140294000Y-124936000D01*
X140280000Y-124942000D01*
X140272000Y-124948000D01*
X140271000Y-124949000D01*
X140259000Y-124968000D01*
X140242000Y-125005000D01*
X140221000Y-125055000D01*
X140196000Y-125115000D01*
X140172000Y-125178000D01*
X140148000Y-125241000D01*
X140126000Y-125300000D01*
X140110000Y-125350000D01*
X140099000Y-125386000D01*
X140096000Y-125403000D01*
X140096000Y-125404000D01*
X140106000Y-125418000D01*
X140127000Y-125450000D01*
X140159000Y-125496000D01*
X140197000Y-125553000D01*
X140241000Y-125617000D01*
X140254000Y-125635000D01*
X140298000Y-125701000D01*
X140338000Y-125762000D01*
X140370000Y-125813000D01*
X140392000Y-125851000D01*
X140402000Y-125873000D01*
X140403000Y-125876000D01*
X140394000Y-125890000D01*
X140370000Y-125919000D01*
X140333000Y-125958000D01*
X140288000Y-126005000D01*
X140236000Y-126057000D01*
X140182000Y-126111000D01*
X140127000Y-126164000D01*
X140076000Y-126213000D01*
X140031000Y-126254000D01*
X139996000Y-126285000D01*
X139972000Y-126303000D01*
X139966000Y-126305000D01*
X139951000Y-126299000D01*
X139921000Y-126280000D01*
X139880000Y-126254000D01*
X139848000Y-126232000D01*
X139791000Y-126193000D01*
X139723000Y-126147000D01*
X139655000Y-126100000D01*
X139619000Y-126076000D01*
X139495000Y-125992000D01*
X139391000Y-126048000D01*
X139344000Y-126073000D01*
X139304000Y-126092000D01*
X139277000Y-126103000D01*
X139270000Y-126104000D01*
X139262000Y-126093000D01*
X139245000Y-126061000D01*
X139222000Y-126012000D01*
X139193000Y-125949000D01*
X139160000Y-125873000D01*
X139123000Y-125789000D01*
X139084000Y-125699000D01*
X139045000Y-125606000D01*
X139006000Y-125513000D01*
X138969000Y-125423000D01*
X138935000Y-125338000D01*
X138905000Y-125263000D01*
X138881000Y-125199000D01*
X138863000Y-125150000D01*
X138852000Y-125118000D01*
X138851000Y-125107000D01*
X138864000Y-125093000D01*
X138892000Y-125070000D01*
X138930000Y-125044000D01*
X138933000Y-125042000D01*
X139031000Y-124964000D01*
X139109000Y-124872000D01*
X139168000Y-124771000D01*
X139207000Y-124663000D01*
X139225000Y-124550000D01*
X139221000Y-124436000D01*
X139195000Y-124324000D01*
X139146000Y-124215000D01*
X139132000Y-124192000D01*
X139057000Y-124096000D01*
X138968000Y-124020000D01*
X138869000Y-123962000D01*
X138762000Y-123924000D01*
X138651000Y-123907000D01*
X138539000Y-123909000D01*
X138428000Y-123932000D01*
X138322000Y-123977000D01*
X138224000Y-124043000D01*
X138194000Y-124070000D01*
X138117000Y-124154000D01*
X138061000Y-124242000D01*
X138022000Y-124342000D01*
X138001000Y-124440000D01*
X137995000Y-124550000D01*
X138013000Y-124661000D01*
X138052000Y-124769000D01*
X138110000Y-124870000D01*
X138186000Y-124960000D01*
X138278000Y-125035000D01*
X138290000Y-125043000D01*
X138328000Y-125069000D01*
X138357000Y-125092000D01*
X138371000Y-125107000D01*
X138368000Y-125123000D01*
X138356000Y-125158000D01*
X138337000Y-125210000D01*
X138311000Y-125277000D01*
X138280000Y-125354000D01*
X138245000Y-125440000D01*
X138208000Y-125531000D01*
X138169000Y-125624000D01*
X138129000Y-125717000D01*
X138091000Y-125806000D01*
X138055000Y-125889000D01*
X138023000Y-125962000D01*
X137995000Y-126023000D01*
X137973000Y-126069000D01*
X137958000Y-126097000D01*
X137952000Y-126104000D01*
X137933000Y-126099000D01*
X137899000Y-126083000D01*
X137855000Y-126061000D01*
X137830000Y-126048000D01*
X137726000Y-125992000D01*
X137603000Y-126076000D01*
X137540000Y-126118000D01*
X137471000Y-126166000D01*
X137406000Y-126210000D01*
X137373000Y-126232000D01*
X137328000Y-126263000D01*
X137289000Y-126287000D01*
X137263000Y-126302000D01*
X137254000Y-126305000D01*
X137241000Y-126297000D01*
X137214000Y-126273000D01*
X137173000Y-126237000D01*
X137123000Y-126190000D01*
X137066000Y-126136000D01*
X137029000Y-126101000D01*
X136966000Y-126038000D01*
X136911000Y-125983000D01*
X136867000Y-125936000D01*
X136836000Y-125900000D01*
X136820000Y-125879000D01*
X136819000Y-125874000D01*
X136826000Y-125857000D01*
X136845000Y-125824000D01*
X136874000Y-125776000D01*
X136912000Y-125718000D01*
X136955000Y-125653000D01*
X136968000Y-125635000D01*
X137013000Y-125570000D01*
X137053000Y-125511000D01*
X137087000Y-125462000D01*
X137111000Y-125426000D01*
X137124000Y-125406000D01*
X137125000Y-125404000D01*
X137123000Y-125388000D01*
X137113000Y-125354000D01*
X137097000Y-125306000D01*
X137076000Y-125248000D01*
X137053000Y-125185000D01*
X137028000Y-125121000D01*
X137003000Y-125061000D01*
X136982000Y-125010000D01*
X136964000Y-124971000D01*
X136952000Y-124950000D01*
X136951000Y-124949000D01*
X136943000Y-124943000D01*
X136931000Y-124937000D01*
X136911000Y-124931000D01*
X136880000Y-124923000D01*
X136836000Y-124914000D01*
X136775000Y-124902000D01*
X136696000Y-124887000D01*
X136596000Y-124869000D01*
X136574000Y-124865000D01*
X136510000Y-124852000D01*
X136453000Y-124840000D01*
X136411000Y-124829000D01*
X136386000Y-124821000D01*
X136382000Y-124819000D01*
X136377000Y-124803000D01*
X136372000Y-124765000D01*
X136369000Y-124711000D01*
X136367000Y-124645000D01*
X136365000Y-124572000D01*
X136365000Y-124495000D01*
X136366000Y-124419000D01*
X136367000Y-124349000D01*
X136370000Y-124289000D01*
X136374000Y-124242000D01*
X136379000Y-124215000D01*
X136382000Y-124209000D01*
X136398000Y-124203000D01*
X136436000Y-124194000D01*
X136491000Y-124182000D01*
X136559000Y-124168000D01*
X136637000Y-124152000D01*
X136680000Y-124144000D01*
X136761000Y-124129000D01*
X136833000Y-124116000D01*
X136892000Y-124104000D01*
X136936000Y-124095000D01*
X136961000Y-124090000D01*
X136965000Y-124089000D01*
X136972000Y-124075000D01*
X136987000Y-124044000D01*
X137007000Y-123998000D01*
X137031000Y-123942000D01*
X137057000Y-123881000D01*
X137082000Y-123820000D01*
X137106000Y-123764000D01*
X137126000Y-123716000D01*
X137140000Y-123681000D01*
X137146000Y-123664000D01*
X137146000Y-123663000D01*
X137139000Y-123649000D01*
X137120000Y-123618000D01*
X137090000Y-123573000D01*
X137052000Y-123516000D01*
X137008000Y-123451000D01*
X136982000Y-123413000D01*
X136936000Y-123345000D01*
X136894000Y-123282000D01*
X136860000Y-123230000D01*
X136835000Y-123189000D01*
X136821000Y-123165000D01*
X136819000Y-123160000D01*
X136827000Y-123147000D01*
X136851000Y-123120000D01*
X136887000Y-123081000D01*
X136931000Y-123034000D01*
X136982000Y-122982000D01*
X137035000Y-122927000D01*
X137089000Y-122873000D01*
X137139000Y-122823000D01*
X137184000Y-122780000D01*
X137219000Y-122747000D01*
X137243000Y-122727000D01*
X137250000Y-122722000D01*
X137263000Y-122729000D01*
X137294000Y-122748000D01*
X137339000Y-122777000D01*
X137396000Y-122815000D01*
X137462000Y-122859000D01*
X137512000Y-122893000D01*
X137764000Y-123064000D01*
X137973000Y-122978000D01*
X138183000Y-122891000D01*
X138240000Y-122590000D01*
X138297000Y-122288000D01*
X138925000Y-122288000D01*
X138981000Y-122590000D01*
G36*
X138981000Y-122590000D02*
G01*
X139038000Y-122891000D01*
X139458000Y-123064000D01*
X139709000Y-122893000D01*
X139780000Y-122845000D01*
X139844000Y-122803000D01*
X139898000Y-122767000D01*
X139939000Y-122741000D01*
X139964000Y-122725000D01*
X139971000Y-122722000D01*
X139984000Y-122730000D01*
X140011000Y-122754000D01*
X140049000Y-122790000D01*
X140095000Y-122836000D01*
X140147000Y-122887000D01*
X140200000Y-122941000D01*
X140253000Y-122996000D01*
X140303000Y-123047000D01*
X140345000Y-123092000D01*
X140378000Y-123128000D01*
X140398000Y-123152000D01*
X140403000Y-123160000D01*
X140396000Y-123174000D01*
X140377000Y-123207000D01*
X140347000Y-123253000D01*
X140309000Y-123311000D01*
X140265000Y-123376000D01*
X140239000Y-123414000D01*
X140192000Y-123482000D01*
X140151000Y-123544000D01*
X140117000Y-123596000D01*
X140092000Y-123635000D01*
X140078000Y-123658000D01*
X140076000Y-123663000D01*
X140080000Y-123677000D01*
X140093000Y-123710000D01*
X140112000Y-123756000D01*
X140136000Y-123812000D01*
X140161000Y-123872000D01*
X140187000Y-123933000D01*
X140211000Y-123990000D01*
X140232000Y-124037000D01*
X140248000Y-124072000D01*
X140256000Y-124088000D01*
X140256000Y-124089000D01*
X140269000Y-124092000D01*
X140303000Y-124099000D01*
X140355000Y-124109000D01*
X140421000Y-124122000D01*
X140497000Y-124136000D01*
X140542000Y-124144000D01*
X140624000Y-124160000D01*
X140697000Y-124175000D01*
X140760000Y-124188000D01*
X140806000Y-124199000D01*
X140834000Y-124206000D01*
X140840000Y-124209000D01*
X140845000Y-124225000D01*
X140849000Y-124263000D01*
X140853000Y-124316000D01*
X140855000Y-124382000D01*
X140856000Y-124456000D01*
X140857000Y-124532000D01*
X140856000Y-124608000D01*
X140854000Y-124678000D01*
X140851000Y-124739000D01*
X140847000Y-124786000D01*
X140842000Y-124814000D01*
X140839000Y-124819000D01*
X140821000Y-124826000D01*
X140784000Y-124836000D01*
X140731000Y-124848000D01*
X140669000Y-124861000D01*
X140647000Y-124865000D01*
X140543000Y-124884000D01*
X140460000Y-124899000D01*
X140396000Y-124912000D01*
X140349000Y-124922000D01*
X140316000Y-124930000D01*
X140294000Y-124936000D01*
X140280000Y-124942000D01*
X140272000Y-124948000D01*
X140271000Y-124949000D01*
X140259000Y-124968000D01*
X140242000Y-125005000D01*
X140221000Y-125055000D01*
X140196000Y-125115000D01*
X140172000Y-125178000D01*
X140148000Y-125241000D01*
X140126000Y-125300000D01*
X140110000Y-125350000D01*
X140099000Y-125386000D01*
X140096000Y-125403000D01*
X140096000Y-125404000D01*
X140106000Y-125418000D01*
X140127000Y-125450000D01*
X140159000Y-125496000D01*
X140197000Y-125553000D01*
X140241000Y-125617000D01*
X140254000Y-125635000D01*
X140298000Y-125701000D01*
X140338000Y-125762000D01*
X140370000Y-125813000D01*
X140392000Y-125851000D01*
X140402000Y-125873000D01*
X140403000Y-125876000D01*
X140394000Y-125890000D01*
X140370000Y-125919000D01*
X140333000Y-125958000D01*
X140288000Y-126005000D01*
X140236000Y-126057000D01*
X140182000Y-126111000D01*
X140127000Y-126164000D01*
X140076000Y-126213000D01*
X140031000Y-126254000D01*
X139996000Y-126285000D01*
X139972000Y-126303000D01*
X139966000Y-126305000D01*
X139951000Y-126299000D01*
X139921000Y-126280000D01*
X139880000Y-126254000D01*
X139848000Y-126232000D01*
X139791000Y-126193000D01*
X139723000Y-126147000D01*
X139655000Y-126100000D01*
X139619000Y-126076000D01*
X139495000Y-125992000D01*
X139391000Y-126048000D01*
X139344000Y-126073000D01*
X139304000Y-126092000D01*
X139277000Y-126103000D01*
X139270000Y-126104000D01*
X139262000Y-126093000D01*
X139245000Y-126061000D01*
X139222000Y-126012000D01*
X139193000Y-125949000D01*
X139160000Y-125873000D01*
X139123000Y-125789000D01*
X139084000Y-125699000D01*
X139045000Y-125606000D01*
X139006000Y-125513000D01*
X138969000Y-125423000D01*
X138935000Y-125338000D01*
X138905000Y-125263000D01*
X138881000Y-125199000D01*
X138863000Y-125150000D01*
X138852000Y-125118000D01*
X138851000Y-125107000D01*
X138864000Y-125093000D01*
X138892000Y-125070000D01*
X138930000Y-125044000D01*
X138933000Y-125042000D01*
X139031000Y-124964000D01*
X139109000Y-124872000D01*
X139168000Y-124771000D01*
X139207000Y-124663000D01*
X139225000Y-124550000D01*
X139221000Y-124436000D01*
X139195000Y-124324000D01*
X139146000Y-124215000D01*
X139132000Y-124192000D01*
X139057000Y-124096000D01*
X138968000Y-124020000D01*
X138869000Y-123962000D01*
X138762000Y-123924000D01*
X138651000Y-123907000D01*
X138539000Y-123909000D01*
X138428000Y-123932000D01*
X138322000Y-123977000D01*
X138224000Y-124043000D01*
X138194000Y-124070000D01*
X138117000Y-124154000D01*
X138061000Y-124242000D01*
X138022000Y-124342000D01*
X138001000Y-124440000D01*
X137995000Y-124550000D01*
X138013000Y-124661000D01*
X138052000Y-124769000D01*
X138110000Y-124870000D01*
X138186000Y-124960000D01*
X138278000Y-125035000D01*
X138290000Y-125043000D01*
X138328000Y-125069000D01*
X138357000Y-125092000D01*
X138371000Y-125107000D01*
X138368000Y-125123000D01*
X138356000Y-125158000D01*
X138337000Y-125210000D01*
X138311000Y-125277000D01*
X138280000Y-125354000D01*
X138245000Y-125440000D01*
X138208000Y-125531000D01*
X138169000Y-125624000D01*
X138129000Y-125717000D01*
X138091000Y-125806000D01*
X138055000Y-125889000D01*
X138023000Y-125962000D01*
X137995000Y-126023000D01*
X137973000Y-126069000D01*
X137958000Y-126097000D01*
X137952000Y-126104000D01*
X137933000Y-126099000D01*
X137899000Y-126083000D01*
X137855000Y-126061000D01*
X137830000Y-126048000D01*
X137726000Y-125992000D01*
X137603000Y-126076000D01*
X137540000Y-126118000D01*
X137471000Y-126166000D01*
X137406000Y-126210000D01*
X137373000Y-126232000D01*
X137328000Y-126263000D01*
X137289000Y-126287000D01*
X137263000Y-126302000D01*
X137254000Y-126305000D01*
X137241000Y-126297000D01*
X137214000Y-126273000D01*
X137173000Y-126237000D01*
X137123000Y-126190000D01*
X137066000Y-126136000D01*
X137029000Y-126101000D01*
X136966000Y-126038000D01*
X136911000Y-125983000D01*
X136867000Y-125936000D01*
X136836000Y-125900000D01*
X136820000Y-125879000D01*
X136819000Y-125874000D01*
X136826000Y-125857000D01*
X136845000Y-125824000D01*
X136874000Y-125776000D01*
X136912000Y-125718000D01*
X136955000Y-125653000D01*
X136968000Y-125635000D01*
X137013000Y-125570000D01*
X137053000Y-125511000D01*
X137087000Y-125462000D01*
X137111000Y-125426000D01*
X137124000Y-125406000D01*
X137125000Y-125404000D01*
X137123000Y-125388000D01*
X137113000Y-125354000D01*
X137097000Y-125306000D01*
X137076000Y-125248000D01*
X137053000Y-125185000D01*
X137028000Y-125121000D01*
X137003000Y-125061000D01*
X136982000Y-125010000D01*
X136964000Y-124971000D01*
X136952000Y-124950000D01*
X136951000Y-124949000D01*
X136943000Y-124943000D01*
X136931000Y-124937000D01*
X136911000Y-124931000D01*
X136880000Y-124923000D01*
X136836000Y-124914000D01*
X136775000Y-124902000D01*
X136696000Y-124887000D01*
X136596000Y-124869000D01*
X136574000Y-124865000D01*
X136510000Y-124852000D01*
X136453000Y-124840000D01*
X136411000Y-124829000D01*
X136386000Y-124821000D01*
X136382000Y-124819000D01*
X136377000Y-124803000D01*
X136372000Y-124765000D01*
X136369000Y-124711000D01*
X136367000Y-124645000D01*
X136365000Y-124572000D01*
X136365000Y-124495000D01*
X136366000Y-124419000D01*
X136367000Y-124349000D01*
X136370000Y-124289000D01*
X136374000Y-124242000D01*
X136379000Y-124215000D01*
X136382000Y-124209000D01*
X136398000Y-124203000D01*
X136436000Y-124194000D01*
X136491000Y-124182000D01*
X136559000Y-124168000D01*
X136637000Y-124152000D01*
X136680000Y-124144000D01*
X136761000Y-124129000D01*
X136833000Y-124116000D01*
X136892000Y-124104000D01*
X136936000Y-124095000D01*
X136961000Y-124090000D01*
X136965000Y-124089000D01*
X136972000Y-124075000D01*
X136987000Y-124044000D01*
X137007000Y-123998000D01*
X137031000Y-123942000D01*
X137057000Y-123881000D01*
X137082000Y-123820000D01*
X137106000Y-123764000D01*
X137126000Y-123716000D01*
X137140000Y-123681000D01*
X137146000Y-123664000D01*
X137146000Y-123663000D01*
X137139000Y-123649000D01*
X137120000Y-123618000D01*
X137090000Y-123573000D01*
X137052000Y-123516000D01*
X137008000Y-123451000D01*
X136982000Y-123413000D01*
X136936000Y-123345000D01*
X136894000Y-123282000D01*
X136860000Y-123230000D01*
X136835000Y-123189000D01*
X136821000Y-123165000D01*
X136819000Y-123160000D01*
X136827000Y-123147000D01*
X136851000Y-123120000D01*
X136887000Y-123081000D01*
X136931000Y-123034000D01*
X136982000Y-122982000D01*
X137035000Y-122927000D01*
X137089000Y-122873000D01*
X137139000Y-122823000D01*
X137184000Y-122780000D01*
X137219000Y-122747000D01*
X137243000Y-122727000D01*
X137250000Y-122722000D01*
X137263000Y-122729000D01*
X137294000Y-122748000D01*
X137339000Y-122777000D01*
X137396000Y-122815000D01*
X137462000Y-122859000D01*
X137512000Y-122893000D01*
X137764000Y-123064000D01*
X137973000Y-122978000D01*
X138183000Y-122891000D01*
X138240000Y-122590000D01*
X138297000Y-122288000D01*
X138925000Y-122288000D01*
X138981000Y-122590000D01*
G37*
%TD*%
D13*
%TO.C,C1215*%
X31520000Y-56750000D03*
X32480000Y-56750000D03*
%TD*%
D14*
%TO.C,R287*%
X56600000Y-87500000D03*
X58000000Y-87500000D03*
%TD*%
D15*
%TO.C,C1318*%
X118000000Y-57869999D03*
X118000000Y-58829999D03*
%TD*%
D16*
%TO.C,R1206*%
X34250000Y-57760000D03*
X34250000Y-56740000D03*
%TD*%
D17*
%TO.C,Q1003*%
X99250000Y-61400000D03*
X100248000Y-61400000D03*
X99750000Y-60098000D03*
%TD*%
D18*
%TO.C,R240*%
X81230000Y-88650000D03*
X81230000Y-89610000D03*
%TD*%
D19*
%TO.C,C1202*%
X50275000Y-51950000D03*
X53225000Y-51950000D03*
%TD*%
D20*
%TO.C,L1301*%
X117575000Y-45349999D03*
X119725000Y-45349999D03*
%TD*%
D21*
%TO.C,R223*%
X134700000Y-121580000D03*
X134700000Y-120620000D03*
%TD*%
D22*
%TO.C,C1103*%
X71775000Y-61450000D03*
X74725000Y-61450000D03*
%TD*%
D23*
%TO.C,D61*%
X87300000Y-127401000D03*
X87300000Y-126701000D03*
%TD*%
D24*
%TO.C,C120*%
X56640000Y-95330000D03*
X56640000Y-93930000D03*
%TD*%
D25*
%TO.C,R1201*%
X43950000Y-49312499D03*
X43950000Y-46387499D03*
%TD*%
D26*
%TO.C,J1301*%
X136900000Y-50049500D03*
X125471000Y-50049500D03*
D27*
X136900000Y-58949500D03*
X135631000Y-56410500D03*
X134361000Y-58949500D03*
X133091000Y-56410500D03*
X131822000Y-58949500D03*
X130551000Y-56410500D03*
X129282000Y-58949500D03*
X128010000Y-56410500D03*
X126741000Y-58949500D03*
X125471000Y-56410500D03*
X136900000Y-53871500D03*
X134361000Y-52610500D03*
X128010000Y-52610500D03*
X125471000Y-53879500D03*
D28*
X137827000Y-45991500D03*
X135286000Y-45991500D03*
X127086000Y-45991500D03*
X124545000Y-45991500D03*
D29*
X139036000Y-53099500D03*
D30*
X123337000Y-53099500D03*
%TD*%
D31*
%TO.C,C1312*%
X115350000Y-46624999D03*
X115350000Y-45074999D03*
%TD*%
D18*
%TO.C,R232*%
X100050000Y-114170000D03*
X100050000Y-115130000D03*
%TD*%
D32*
%TO.C,R1301*%
X110700000Y-57839999D03*
X110700000Y-58859999D03*
%TD*%
D33*
%TO.C,L4*%
X58900000Y-99485000D03*
X54850000Y-99485000D03*
%TD*%
D34*
%TO.C,R173*%
X74940000Y-84340000D03*
X75900000Y-84340000D03*
%TD*%
D35*
%TO.C,C152*%
X61580000Y-92950000D03*
X63780000Y-92950000D03*
%TD*%
D18*
%TO.C,R242*%
X99050000Y-114170000D03*
X99050000Y-115130000D03*
%TD*%
%TO.C,C102*%
X65750000Y-95340000D03*
X65750000Y-96300000D03*
%TD*%
D13*
%TO.C,C1105*%
X68170000Y-61500000D03*
X69130000Y-61500000D03*
%TD*%
D36*
%TO.C,D53*%
X59300000Y-124100000D03*
X59300000Y-122700000D03*
%TD*%
D37*
%TO.C,C1315*%
X108630000Y-55599999D03*
X107670000Y-55599999D03*
%TD*%
D22*
%TO.C,C1217*%
X42875000Y-102490000D03*
X45825000Y-102490000D03*
%TD*%
D38*
%TO.C,H2*%
X124525000Y-118112500D03*
%TD*%
D39*
%TO.C,TP35*%
X104100000Y-82250000D03*
%TD*%
D23*
%TO.C,D56*%
X130190000Y-123691000D03*
X130190000Y-122991000D03*
%TD*%
D40*
%TO.C,C1207*%
X33750000Y-54725000D03*
X33750000Y-51775000D03*
%TD*%
D21*
%TO.C,R177*%
X79230000Y-86360000D03*
X79230000Y-85400000D03*
%TD*%
D41*
%TO.C,R1103*%
X64490000Y-58500000D03*
X65510000Y-58500000D03*
%TD*%
D42*
%TO.C,R1310*%
X122160000Y-44349999D03*
X121140000Y-44349999D03*
%TD*%
D43*
%TO.C,C9*%
X127530000Y-94200000D03*
X126570000Y-94200000D03*
%TD*%
D44*
%TO.C,C1213*%
X37000000Y-100730000D03*
X37000000Y-99770000D03*
%TD*%
D18*
%TO.C,C121*%
X74070000Y-88960000D03*
X74070000Y-89920000D03*
%TD*%
D45*
%TO.C,S2*%
X124948000Y-126700000D03*
X120850000Y-126700000D03*
X124948000Y-125098000D03*
X120850000Y-125098000D03*
%TD*%
D18*
%TO.C,R186*%
X127900000Y-107420000D03*
X127900000Y-108380000D03*
%TD*%
D46*
%TO.C,C1205*%
X56650000Y-44250000D03*
X64050000Y-44250000D03*
%TD*%
D47*
%TO.C,FID4*%
X148250000Y-127250000D03*
%TD*%
D48*
%TO.C,J15*%
X58300000Y-76096500D03*
D49*
X127101000Y-76096500D03*
D50*
X126075000Y-71996500D03*
X125825000Y-80196500D03*
X125575000Y-71996500D03*
X125325000Y-80196500D03*
X125075000Y-71996500D03*
X124825000Y-80196500D03*
X124576000Y-71996500D03*
X124326000Y-80196500D03*
X124076000Y-71996500D03*
X123826000Y-80196500D03*
X123576000Y-71996500D03*
X123326000Y-80196500D03*
X123076000Y-71996500D03*
X122826000Y-80196500D03*
X122576000Y-71996500D03*
X122326000Y-80196500D03*
X122076000Y-71996500D03*
X121826000Y-80196500D03*
X121576000Y-71996500D03*
X121326000Y-80196500D03*
X121076000Y-71996500D03*
X120826000Y-80196500D03*
X120576000Y-71996500D03*
X120326000Y-80196500D03*
X120076000Y-71996500D03*
X119826000Y-80196500D03*
X119576000Y-71996500D03*
X119326000Y-80196500D03*
X119076000Y-71996500D03*
X118826000Y-80196500D03*
X118576000Y-71996500D03*
X118326000Y-80196500D03*
X118076000Y-71996500D03*
X117826000Y-80196500D03*
X117576000Y-71996500D03*
X117326000Y-80196500D03*
X117076000Y-71996500D03*
X116826000Y-80196500D03*
X116576000Y-71996500D03*
X116326000Y-80196500D03*
X116076000Y-71996500D03*
X115826000Y-80196500D03*
X115576000Y-71996500D03*
X115326000Y-80196500D03*
X115076000Y-71996500D03*
X114826000Y-80196500D03*
X114576000Y-71996500D03*
X114326000Y-80196500D03*
X114076000Y-71996500D03*
X113826000Y-80196500D03*
X113576000Y-71996500D03*
X113326000Y-80196500D03*
X113076000Y-71996500D03*
X112826000Y-80196500D03*
X112576000Y-71996500D03*
X112326000Y-80196500D03*
X112076000Y-71996500D03*
X111826000Y-80196500D03*
X111576000Y-71996500D03*
X111326000Y-80196500D03*
X111076000Y-71996500D03*
X110826000Y-80196500D03*
X110576000Y-71996500D03*
X110326000Y-80196500D03*
X110076000Y-71996500D03*
X109826000Y-80196500D03*
X109576000Y-71996500D03*
X109326000Y-80196500D03*
X109076000Y-71996500D03*
X108826000Y-80196500D03*
X108576000Y-71996500D03*
X108326000Y-80196500D03*
X108076000Y-71996500D03*
X107826000Y-80196500D03*
X107576000Y-71996500D03*
X107326000Y-80196500D03*
X107076000Y-71996500D03*
X106826000Y-80196500D03*
X106576000Y-71996500D03*
X106326000Y-80196500D03*
X106076000Y-71996500D03*
X105826000Y-80196500D03*
X105576000Y-71996500D03*
X105326000Y-80196500D03*
X105076000Y-71996500D03*
X104826000Y-80196500D03*
X104576000Y-71996500D03*
X104326000Y-80196500D03*
X104076000Y-71996500D03*
X103826000Y-80196500D03*
X103576000Y-71996500D03*
X103326000Y-80196500D03*
X103076000Y-71996500D03*
X102826000Y-80196500D03*
X102576000Y-71996500D03*
X102326000Y-80196500D03*
X102076000Y-71996500D03*
X101826000Y-80196500D03*
X101576000Y-71996500D03*
X101326000Y-80196500D03*
X101076000Y-71996500D03*
X100826000Y-80196500D03*
X100575000Y-71996500D03*
X100325000Y-80196500D03*
X100075000Y-71996500D03*
X99825000Y-80196500D03*
X99575000Y-71996500D03*
X99325000Y-80196500D03*
X99075000Y-71996500D03*
X98825000Y-80196500D03*
X98575000Y-71996500D03*
X98325000Y-80196500D03*
X98075000Y-71996500D03*
X97826000Y-80196500D03*
X97576000Y-71996500D03*
X97326000Y-80196500D03*
X97076000Y-71996500D03*
X96826000Y-80196500D03*
X96576000Y-71996500D03*
X96326000Y-80196500D03*
X96076000Y-71996500D03*
X95826000Y-80196500D03*
X95576000Y-71996500D03*
X95326000Y-80196500D03*
X95076000Y-71996500D03*
X94826000Y-80196500D03*
X94576000Y-71996500D03*
X94326000Y-80196500D03*
X94076000Y-71996500D03*
X93826000Y-80196500D03*
X93575000Y-71996500D03*
X93325000Y-80196500D03*
X93075000Y-71996500D03*
X92825000Y-80196500D03*
X92575000Y-71996500D03*
X92326000Y-80196500D03*
X92076000Y-71996500D03*
X91826000Y-80196500D03*
X91575000Y-71996500D03*
X91325000Y-80196500D03*
X91075000Y-71996500D03*
X90825000Y-80196500D03*
X90576000Y-71996500D03*
X90326000Y-80196500D03*
X88076000Y-71996500D03*
X87826000Y-80196500D03*
X87576000Y-71996500D03*
X87326000Y-80196500D03*
X87076000Y-71996500D03*
X86826000Y-80196500D03*
X86576000Y-71996500D03*
X86326000Y-80196500D03*
X86076000Y-71996500D03*
X85826000Y-80196500D03*
X85576000Y-71996500D03*
X85326000Y-80196500D03*
X85076000Y-71996500D03*
X84826000Y-80196500D03*
X84575000Y-71996500D03*
X84325000Y-80196500D03*
X84075000Y-71996500D03*
X83825000Y-80196500D03*
X83575000Y-71996500D03*
X83325000Y-80196500D03*
X83075000Y-71996500D03*
X82825000Y-80196500D03*
X82575000Y-71996500D03*
X82325000Y-80196500D03*
X82075000Y-71996500D03*
X81825000Y-80196500D03*
X81575000Y-71996500D03*
X81325000Y-80196500D03*
X81075000Y-71996500D03*
X80825000Y-80196500D03*
X80575000Y-71996500D03*
X80325000Y-80196500D03*
X80075000Y-71996500D03*
X79825000Y-80196500D03*
X79575000Y-71996500D03*
X79325000Y-80196500D03*
X79075000Y-71996500D03*
X78825000Y-80196500D03*
X78575000Y-71996500D03*
X78325000Y-80196500D03*
X78075000Y-71996500D03*
X77825000Y-80196500D03*
X77575000Y-71996500D03*
X77325000Y-80196500D03*
X77075000Y-71996500D03*
X76825000Y-80196500D03*
X76576000Y-71996500D03*
X76326000Y-80196500D03*
X76076000Y-71996500D03*
X75826000Y-80196500D03*
X75576000Y-71996500D03*
X75326000Y-80196500D03*
X75076000Y-71996500D03*
X74826000Y-80196500D03*
X74576000Y-71996500D03*
X74326000Y-80196500D03*
X74076000Y-71996500D03*
X73826000Y-80196500D03*
X73576000Y-71996500D03*
X73326000Y-80196500D03*
X73076000Y-71996500D03*
X72826000Y-80196500D03*
X72576000Y-71996500D03*
X72326000Y-80196500D03*
X72076000Y-71996500D03*
X71826000Y-80196500D03*
X71576000Y-71996500D03*
X71326000Y-80196500D03*
X71076000Y-71996500D03*
X70826000Y-80196500D03*
X70576000Y-71996500D03*
X70326000Y-80196500D03*
X70076000Y-71996500D03*
X69826000Y-80196500D03*
X69576000Y-71996500D03*
X69326000Y-80196500D03*
X69076000Y-71996500D03*
X68826000Y-80196500D03*
X68576000Y-71996500D03*
X68326000Y-80196500D03*
X68076000Y-71996500D03*
X67826000Y-80196500D03*
X67576000Y-71996500D03*
X67326000Y-80196500D03*
X67076000Y-71996500D03*
X66826000Y-80196500D03*
X66576000Y-71996500D03*
X66326000Y-80196500D03*
X66076000Y-71996500D03*
X65826000Y-80196500D03*
X65576000Y-71996500D03*
X65326000Y-80196500D03*
X65076000Y-71996500D03*
X64826000Y-80196500D03*
X64576000Y-71996500D03*
X64326000Y-80196500D03*
X64076000Y-71996500D03*
X63826000Y-80196500D03*
X63576000Y-71996500D03*
X63326000Y-80196500D03*
X63076000Y-71996500D03*
X62826000Y-80196500D03*
X62576000Y-71996500D03*
X62326000Y-80196500D03*
X62076000Y-71996500D03*
X61826000Y-80196500D03*
X61576000Y-71996500D03*
X61326000Y-80196500D03*
X61076000Y-71996500D03*
X60826000Y-80196500D03*
X60575000Y-71996500D03*
X60325000Y-80196500D03*
X60075000Y-71996500D03*
X59825000Y-80196500D03*
X59575000Y-71996500D03*
X59325000Y-80196500D03*
D51*
X54950000Y-84095500D03*
X130450000Y-88095500D03*
%TD*%
D39*
%TO.C,TP5*%
X96950000Y-83100000D03*
%TD*%
D34*
%TO.C,R237*%
X65430000Y-94350000D03*
X66390000Y-94350000D03*
%TD*%
D38*
%TO.C,SP7*%
X79250000Y-95150000D03*
%TD*%
D34*
%TO.C,C125*%
X74940000Y-86340000D03*
X75900000Y-86340000D03*
%TD*%
D52*
%TO.C,C126*%
X71250000Y-90970000D03*
X71250000Y-92370000D03*
%TD*%
D53*
%TO.C,C1107*%
X56625000Y-65550000D03*
X53675000Y-65550000D03*
%TD*%
D47*
%TO.C,FID2*%
X31600000Y-70350000D03*
%TD*%
D41*
%TO.C,R1101*%
X64490000Y-64000000D03*
X65510000Y-64000000D03*
%TD*%
D44*
%TO.C,C1212*%
X46250000Y-47730000D03*
X46250000Y-46770000D03*
%TD*%
D18*
%TO.C,R39*%
X129900000Y-107420000D03*
X129900000Y-108380000D03*
%TD*%
D44*
%TO.C,C1324*%
X121950000Y-50630000D03*
X121950000Y-49670000D03*
%TD*%
D54*
%TO.C,C1216*%
X33300000Y-88750000D03*
X35200000Y-88750000D03*
%TD*%
D15*
%TO.C,C1314*%
X115900000Y-57869999D03*
X115900000Y-58829999D03*
%TD*%
D52*
%TO.C,C128*%
X72575000Y-90970000D03*
X72575000Y-92370000D03*
%TD*%
D55*
%TO.C,C1301*%
X118575000Y-42750000D03*
X120125000Y-42750000D03*
%TD*%
D43*
%TO.C,R14*%
X127530000Y-99550000D03*
X126570000Y-99550000D03*
%TD*%
%TO.C,R52*%
X129780000Y-92200000D03*
X128820000Y-92200000D03*
%TD*%
D56*
%TO.C,U1001*%
X81000000Y-61200000D03*
D57*
X81500000Y-61200000D03*
X82000000Y-61200000D03*
D56*
X82500000Y-61200000D03*
X82500000Y-60300000D03*
D57*
X82000000Y-60300000D03*
X81500000Y-60300000D03*
D56*
X81000000Y-60300000D03*
%TD*%
D43*
%TO.C,R20*%
X129780000Y-91250000D03*
X128820000Y-91250000D03*
%TD*%
D34*
%TO.C,R27*%
X113920000Y-98000000D03*
X114880000Y-98000000D03*
%TD*%
D16*
%TO.C,R1004*%
X112950000Y-61260000D03*
X112950000Y-60240000D03*
%TD*%
D43*
%TO.C,R31*%
X114880000Y-100800000D03*
X113920000Y-100800000D03*
%TD*%
D42*
%TO.C,R1311*%
X122160000Y-45450000D03*
X121140000Y-45450000D03*
%TD*%
D58*
%TO.C,U30*%
X131313000Y-107650000D03*
X131313000Y-108150000D03*
D59*
X131313000Y-108650000D03*
D58*
X131313000Y-109148000D03*
X131313000Y-109648000D03*
X132085000Y-109648000D03*
X132085000Y-109148000D03*
D59*
X132085000Y-108650000D03*
D58*
X132085000Y-108150000D03*
X132085000Y-107650000D03*
%TD*%
D18*
%TO.C,C155*%
X80230000Y-90560000D03*
X80230000Y-91520000D03*
%TD*%
%TO.C,C157*%
X68670000Y-98940000D03*
X68670000Y-99900000D03*
%TD*%
D60*
%TO.C,C11*%
X114650000Y-86650000D03*
X113250000Y-86650000D03*
%TD*%
D40*
%TO.C,C1206*%
X37000000Y-57475000D03*
X37000000Y-54525000D03*
%TD*%
D61*
%TO.C,R1210*%
X31587500Y-96000000D03*
X33412500Y-96000000D03*
%TD*%
D44*
%TO.C,C1101*%
X68250000Y-59730000D03*
X68250000Y-58770000D03*
%TD*%
D41*
%TO.C,R1205*%
X31240000Y-49750000D03*
X32260000Y-49750000D03*
%TD*%
D45*
%TO.C,S3*%
X130948000Y-126700000D03*
X126850000Y-126700000D03*
X130948000Y-125098000D03*
X126850000Y-125098000D03*
%TD*%
D39*
%TO.C,TP8*%
X127905000Y-113220000D03*
%TD*%
D18*
%TO.C,R264*%
X78170000Y-85400000D03*
X78170000Y-86360000D03*
%TD*%
D40*
%TO.C,C1323*%
X143500000Y-54975000D03*
X143500000Y-52025000D03*
%TD*%
D62*
%TO.C,R21*%
X119746800Y-112498000D03*
X120144800Y-112498000D03*
X120546800Y-112498000D03*
X120944800Y-112498000D03*
X120944800Y-111900000D03*
X120546800Y-111900000D03*
X120144800Y-111900000D03*
X119746800Y-111900000D03*
%TD*%
D21*
%TO.C,C44*%
X58180000Y-105690000D03*
X58180000Y-104730000D03*
%TD*%
D34*
%TO.C,R269*%
X65730000Y-99990000D03*
X66690000Y-99990000D03*
%TD*%
D43*
%TO.C,R32*%
X114880000Y-90400000D03*
X113920000Y-90400000D03*
%TD*%
D15*
%TO.C,C1305*%
X113800000Y-57869999D03*
X113800000Y-58829999D03*
%TD*%
D32*
%TO.C,R1302*%
X116950000Y-57839999D03*
X116950000Y-58859999D03*
%TD*%
D63*
%TO.C,D1*%
X132000000Y-101250000D03*
X132000000Y-102650000D03*
%TD*%
D22*
%TO.C,C1104*%
X71775000Y-59050000D03*
X74725000Y-59050000D03*
%TD*%
D45*
%TO.C,S1*%
X101952000Y-125100000D03*
X106050000Y-125100000D03*
X101952000Y-126702000D03*
X106050000Y-126702000D03*
%TD*%
%TO.C,S5*%
X81852000Y-125100000D03*
X85950000Y-125100000D03*
X81852000Y-126702000D03*
X85950000Y-126702000D03*
%TD*%
D43*
%TO.C,C93*%
X63790000Y-100520000D03*
X62830000Y-100520000D03*
%TD*%
D63*
%TO.C,D52*%
X130550000Y-101250000D03*
X130550000Y-102650000D03*
%TD*%
D64*
%TO.C,U1*%
X63495000Y-95495000D03*
X63045000Y-95495000D03*
X62145000Y-95495000D03*
X61695000Y-95495000D03*
D65*
X60730000Y-95960000D03*
D66*
X60730000Y-96410000D03*
X60730000Y-96860000D03*
X60730000Y-97560000D03*
X60730000Y-98010000D03*
X60735000Y-98460000D03*
D64*
X61245000Y-99375000D03*
X61695000Y-99375000D03*
X62145000Y-99375000D03*
X62595000Y-99375000D03*
X63045000Y-99375000D03*
X63495000Y-99375000D03*
X63945000Y-99375000D03*
D66*
X64610000Y-98910000D03*
X64610000Y-98460000D03*
X64610000Y-98010000D03*
X64610000Y-97560000D03*
X64610000Y-96860000D03*
X64610000Y-96410000D03*
X64610000Y-95960000D03*
D67*
X63420000Y-97925000D03*
D68*
X63420000Y-96260000D03*
D69*
X61895000Y-96685000D03*
D70*
X61680000Y-98420000D03*
%TD*%
D71*
%TO.C,D1202*%
X56600000Y-52750000D03*
X60900000Y-52750000D03*
%TD*%
D16*
%TO.C,R1102*%
X67000000Y-65260000D03*
X67000000Y-64240000D03*
%TD*%
D72*
%TO.C,R1211*%
X32000000Y-93412500D03*
X32000000Y-91587500D03*
%TD*%
D73*
%TO.C,R1213*%
X42425000Y-91500000D03*
X44075000Y-91500000D03*
%TD*%
D44*
%TO.C,C1211*%
X46000000Y-44480000D03*
X46000000Y-43520000D03*
%TD*%
D71*
%TO.C,D1203*%
X32600000Y-104350000D03*
X36900000Y-104350000D03*
%TD*%
D24*
%TO.C,C129*%
X58000000Y-95330000D03*
X58000000Y-93930000D03*
%TD*%
D44*
%TO.C,C1210*%
X31750000Y-47980000D03*
X31750000Y-47020000D03*
%TD*%
D38*
%TO.C,H1*%
X60925000Y-118100000D03*
%TD*%
D41*
%TO.C,R1202*%
X39990000Y-48250000D03*
X41010000Y-48250000D03*
%TD*%
D74*
%TO.C,C1214*%
X36500000Y-95200000D03*
X36500000Y-93300000D03*
%TD*%
D41*
%TO.C,R1208*%
X43490000Y-44500000D03*
X44510000Y-44500000D03*
%TD*%
D13*
%TO.C,C1002*%
X80770000Y-58750000D03*
X81730000Y-58750000D03*
%TD*%
D34*
%TO.C,R159*%
X61840000Y-101520000D03*
X62800000Y-101520000D03*
%TD*%
D75*
%TO.C,R1215*%
X43350000Y-106055000D03*
X43350000Y-104405000D03*
%TD*%
D18*
%TO.C,C123*%
X80230000Y-88650000D03*
X80230000Y-89610000D03*
%TD*%
D14*
%TO.C,R172*%
X54640000Y-92590000D03*
X56040000Y-92590000D03*
%TD*%
D76*
%TO.C,U33*%
X57350000Y-105850000D03*
D77*
X57350000Y-105350000D03*
X57350000Y-104850000D03*
D76*
X57350000Y-104350000D03*
X56450000Y-104350000D03*
D77*
X56450000Y-104850000D03*
X56450000Y-105350000D03*
D76*
X56450000Y-105850000D03*
%TD*%
D63*
%TO.C,D27*%
X132800000Y-126500000D03*
X132800000Y-127900000D03*
%TD*%
D78*
%TO.C,C2*%
X60255000Y-88430000D03*
X66755000Y-88430000D03*
%TD*%
D19*
%TO.C,C1203*%
X50275000Y-48450000D03*
X53225000Y-48450000D03*
%TD*%
D79*
%TO.C,Q1201*%
X44220000Y-51010000D03*
X43580000Y-51010000D03*
X42920000Y-51010000D03*
X42280000Y-51010000D03*
D80*
X43250000Y-52835000D03*
%TD*%
D53*
%TO.C,C1106*%
X62225000Y-65550000D03*
X59275000Y-65550000D03*
%TD*%
D13*
%TO.C,C1306*%
X116170000Y-42750000D03*
X117130000Y-42750000D03*
%TD*%
D39*
%TO.C,TP9*%
X127905000Y-112210000D03*
%TD*%
D81*
%TO.C,L1201*%
X43250000Y-61160000D03*
X43250000Y-56340000D03*
%TD*%
D43*
%TO.C,R29*%
X114880000Y-97000000D03*
X113920000Y-97000000D03*
%TD*%
D37*
%TO.C,C1303*%
X108630000Y-48650000D03*
X107670000Y-48650000D03*
%TD*%
D63*
%TO.C,D51*%
X129100000Y-101250000D03*
X129100000Y-102650000D03*
%TD*%
D24*
%TO.C,C103*%
X55280000Y-95330000D03*
X55280000Y-93930000D03*
%TD*%
D36*
%TO.C,R182*%
X59090000Y-90500000D03*
X59090000Y-91900000D03*
%TD*%
D16*
%TO.C,R1003*%
X110550000Y-61260000D03*
X110550000Y-60240000D03*
%TD*%
D82*
%TO.C,D33*%
X68900000Y-88363000D03*
X68900000Y-87489000D03*
%TD*%
D26*
%TO.C,J6*%
X33435000Y-117516397D03*
X44864000Y-117516397D03*
D27*
X33435000Y-108616397D03*
X34704000Y-111155397D03*
X35974000Y-108616397D03*
X37244000Y-111155397D03*
X38513000Y-108616397D03*
X39784000Y-111155397D03*
X41053000Y-108616397D03*
X42325000Y-111155397D03*
X43594000Y-108616397D03*
X44864000Y-111155397D03*
X33435000Y-113694397D03*
X35974000Y-114955397D03*
X42325000Y-114955397D03*
X44864000Y-113686397D03*
D28*
X32508000Y-121574397D03*
X35049000Y-121574397D03*
X43249000Y-121574397D03*
X45790000Y-121574397D03*
D29*
X31299000Y-114466397D03*
D30*
X46998000Y-114466397D03*
%TD*%
D37*
%TO.C,C1304*%
X108630000Y-52000000D03*
X107670000Y-52000000D03*
%TD*%
D75*
%TO.C,R1216*%
X45150000Y-106055000D03*
X45150000Y-104405000D03*
%TD*%
D35*
%TO.C,C122*%
X70480000Y-86820000D03*
X72680000Y-86820000D03*
%TD*%
D16*
%TO.C,R1002*%
X104150000Y-61260000D03*
X104150000Y-60240000D03*
%TD*%
D83*
%TO.C,Q1202*%
X32310000Y-98880000D03*
X32310000Y-99520000D03*
X32310000Y-100180000D03*
X32310000Y-100820000D03*
D84*
X34135000Y-99850000D03*
%TD*%
D85*
%TO.C,H1001*%
X33350000Y-44750000D03*
X34052944Y-43052944D03*
X34052944Y-46447056D03*
X35750000Y-42350000D03*
D86*
X35750000Y-44750000D03*
D85*
X35750000Y-47150000D03*
X37447056Y-43052944D03*
X37447056Y-46447056D03*
X38150000Y-44750000D03*
%TD*%
D16*
%TO.C,R1209*%
X50750000Y-101260000D03*
X50750000Y-100240000D03*
%TD*%
D87*
%TO.C,U1201*%
X39700000Y-52500000D03*
X39700000Y-52000000D03*
X39700000Y-51500000D03*
X39700000Y-51000000D03*
X39700000Y-50500000D03*
X39700000Y-50000000D03*
X37800000Y-50000000D03*
X37800000Y-50500000D03*
X37800000Y-51000000D03*
X37800000Y-51500000D03*
X37800000Y-52000000D03*
X37800000Y-52500000D03*
D88*
X38750000Y-51250000D03*
%TD*%
D34*
%TO.C,R176*%
X74940000Y-85340000D03*
X75900000Y-85340000D03*
%TD*%
D37*
%TO.C,C1108*%
X63230000Y-62450000D03*
X62270000Y-62450000D03*
%TD*%
D44*
%TO.C,C1102*%
X63000000Y-60230000D03*
X63000000Y-59270000D03*
%TD*%
D63*
%TO.C,D62*%
X47000000Y-104325000D03*
X47000000Y-105725000D03*
%TD*%
D39*
%TO.C,TP6*%
X127905000Y-115235000D03*
%TD*%
D89*
%TO.C,R1214*%
X39850000Y-102787500D03*
X39850000Y-105712500D03*
%TD*%
D21*
%TO.C,R169*%
X67670000Y-99900000D03*
X67670000Y-98940000D03*
%TD*%
D44*
%TO.C,C1302*%
X112000000Y-46630000D03*
X112000000Y-45670000D03*
%TD*%
D55*
%TO.C,C1322*%
X131975000Y-62500000D03*
X133525000Y-62500000D03*
%TD*%
D17*
%TO.C,Q10*%
X132600000Y-120690000D03*
X131602000Y-120690000D03*
X132100000Y-121992000D03*
%TD*%
D19*
%TO.C,C1204*%
X50275000Y-44950000D03*
X53225000Y-44950000D03*
%TD*%
D23*
%TO.C,D57*%
X131400000Y-123691000D03*
X131400000Y-122991000D03*
%TD*%
D41*
%TO.C,R1303*%
X107640000Y-54500000D03*
X108660000Y-54500000D03*
%TD*%
D63*
%TO.C,R178*%
X68525000Y-92375000D03*
X68525000Y-90975000D03*
%TD*%
D78*
%TO.C,C1*%
X60255000Y-83590000D03*
X66755000Y-83590000D03*
%TD*%
D17*
%TO.C,Q9*%
X136800000Y-120690000D03*
X135802000Y-120690000D03*
X136300000Y-121992000D03*
%TD*%
D90*
%TO.C,J10*%
X53680000Y-108075000D03*
X53680000Y-109325000D03*
X53680000Y-110573000D03*
X53680000Y-111824000D03*
D91*
X50932000Y-105525000D03*
X50932000Y-114374000D03*
%TD*%
D85*
%TO.C,H1002*%
X141350000Y-44750000D03*
X142052944Y-43052944D03*
X142052944Y-46447056D03*
X143750000Y-42350000D03*
D86*
X143750000Y-44750000D03*
D85*
X143750000Y-47150000D03*
X145447056Y-43052944D03*
X145447056Y-46447056D03*
X146150000Y-44750000D03*
%TD*%
D21*
%TO.C,R238*%
X80230000Y-87700000D03*
X80230000Y-86740000D03*
%TD*%
D63*
%TO.C,C12*%
X114700000Y-103550000D03*
X114700000Y-102150000D03*
%TD*%
D92*
%TO.C,D32*%
X60487000Y-91400000D03*
X61361000Y-91400000D03*
%TD*%
D43*
%TO.C,C156*%
X61870000Y-100520000D03*
X60910000Y-100520000D03*
%TD*%
D73*
%TO.C,R1307*%
X140925000Y-49750000D03*
X142575000Y-49750000D03*
%TD*%
D44*
%TO.C,C1001*%
X84000000Y-61730000D03*
X84000000Y-60770000D03*
%TD*%
D24*
%TO.C,C153*%
X59360000Y-95330000D03*
X59360000Y-93930000D03*
%TD*%
D47*
%TO.C,FID3*%
X148600000Y-69900000D03*
%TD*%
D15*
%TO.C,C1307*%
X114850000Y-57869999D03*
X114850000Y-58829999D03*
%TD*%
D52*
%TO.C,C154*%
X73890000Y-90970000D03*
X73890000Y-92370000D03*
%TD*%
D43*
%TO.C,R170*%
X66690000Y-98930000D03*
X65730000Y-98930000D03*
%TD*%
D45*
%TO.C,S4*%
X62152000Y-125100000D03*
X66250000Y-125100000D03*
X62152000Y-126702000D03*
X66250000Y-126702000D03*
%TD*%
D21*
%TO.C,R286*%
X48300000Y-105780000D03*
X48300000Y-104820000D03*
%TD*%
D16*
%TO.C,R1312*%
X140750000Y-57260000D03*
X140750000Y-56240000D03*
%TD*%
D13*
%TO.C,C1208*%
X40020000Y-46500000D03*
X40980000Y-46500000D03*
%TD*%
D75*
%TO.C,R1204*%
X40750000Y-44325000D03*
X40750000Y-42675000D03*
%TD*%
D18*
%TO.C,C48*%
X55540000Y-104390000D03*
X55540000Y-105350000D03*
%TD*%
D37*
%TO.C,C1319*%
X108630000Y-53400000D03*
X107670000Y-53400000D03*
%TD*%
D44*
%TO.C,C1316*%
X113050000Y-46630000D03*
X113050000Y-45670000D03*
%TD*%
D34*
%TO.C,R272*%
X57030000Y-92770000D03*
X57990000Y-92770000D03*
%TD*%
%TO.C,R230*%
X131605000Y-119700000D03*
X132565000Y-119700000D03*
%TD*%
D47*
%TO.C,FID1*%
X32300000Y-127150000D03*
%TD*%
D44*
%TO.C,C1317*%
X110950000Y-46630000D03*
X110950000Y-45670000D03*
%TD*%
D63*
%TO.C,D26*%
X134700000Y-126500000D03*
X134700000Y-127900000D03*
%TD*%
D93*
%TO.C,U1101*%
X65050000Y-62150000D03*
D94*
X64875000Y-61975000D03*
D95*
X65525000Y-62150000D03*
X65975000Y-62150000D03*
D93*
X66450000Y-62150000D03*
D94*
X66625000Y-61975000D03*
D96*
X65750000Y-61500000D03*
X65750000Y-61000000D03*
D94*
X66625000Y-60525000D03*
D97*
X66450000Y-60350000D03*
D98*
X65975000Y-60350000D03*
X65525000Y-60350000D03*
D94*
X64875000Y-60525000D03*
D97*
X65050000Y-60350000D03*
%TD*%
D17*
%TO.C,Q1002*%
X94650000Y-61400000D03*
X95648000Y-61400000D03*
X95150000Y-60098000D03*
%TD*%
D21*
%TO.C,C161*%
X54810000Y-90105000D03*
X54810000Y-89145000D03*
%TD*%
D23*
%TO.C,D60*%
X67600000Y-126301000D03*
X67600000Y-125601000D03*
%TD*%
D16*
%TO.C,R1001*%
X97500000Y-61260000D03*
X97500000Y-60240000D03*
%TD*%
D99*
%TO.C,U1202*%
X39525000Y-100112500D03*
X40175000Y-100112500D03*
X40825000Y-100112500D03*
X41475000Y-100112500D03*
X42125000Y-100112500D03*
X42775000Y-100112500D03*
X43425000Y-100112500D03*
X44075000Y-100112500D03*
X44725000Y-100112500D03*
X45375000Y-100112500D03*
X46025000Y-100112500D03*
X46675000Y-100112500D03*
X47325000Y-100112500D03*
X47975000Y-100112500D03*
X47975000Y-94387500D03*
X47325000Y-94387500D03*
X46675000Y-94387500D03*
X46025000Y-94387500D03*
X45375000Y-94387500D03*
X44725000Y-94387500D03*
X44075000Y-94387500D03*
X43425000Y-94387500D03*
X42775000Y-94387500D03*
X42125000Y-94387500D03*
X41475000Y-94387500D03*
X40825000Y-94387500D03*
X40175000Y-94387500D03*
X39525000Y-94387500D03*
%TD*%
D100*
%TO.C,R22*%
X114252000Y-93650000D03*
X114252000Y-94048000D03*
X114252000Y-94450000D03*
X114252000Y-94848000D03*
X114850000Y-94848000D03*
X114850000Y-94450000D03*
X114850000Y-94048000D03*
X114850000Y-93650000D03*
%TD*%
D101*
%TO.C,U40*%
X75210000Y-88590000D03*
X75210000Y-89040000D03*
X75210000Y-89940000D03*
X75210000Y-90390000D03*
D102*
X75675000Y-91355000D03*
D64*
X76125000Y-91355000D03*
X76575000Y-91355000D03*
X77275000Y-91355000D03*
X77725000Y-91355000D03*
X78175000Y-91350000D03*
D101*
X79090000Y-90840000D03*
X79090000Y-90390000D03*
X79090000Y-89940000D03*
X79090000Y-89490000D03*
X79090000Y-89040000D03*
X79090000Y-88590000D03*
X79090000Y-88140000D03*
D64*
X78625000Y-87475000D03*
X78175000Y-87475000D03*
X77725000Y-87475000D03*
X77275000Y-87475000D03*
X76575000Y-87475000D03*
X76125000Y-87475000D03*
X75675000Y-87475000D03*
D103*
X77640000Y-88665000D03*
D104*
X75975000Y-88665000D03*
D105*
X76400000Y-90190000D03*
D106*
X78135000Y-90405000D03*
%TD*%
D107*
%TO.C,L1*%
X74870000Y-95970000D03*
X71620000Y-95970000D03*
%TD*%
D108*
%TO.C,U1301*%
X117200000Y-55000000D03*
X117200000Y-54500000D03*
X117200000Y-54000000D03*
X117200000Y-53500000D03*
X117200000Y-53000000D03*
X117200000Y-52500000D03*
X117200000Y-52000000D03*
X117200000Y-51500000D03*
X117200000Y-51000000D03*
X117200000Y-50500000D03*
X117200000Y-50000000D03*
X117200000Y-49500000D03*
D109*
X116500000Y-48800000D03*
X116000000Y-48800000D03*
X115500000Y-48800000D03*
X115000000Y-48800000D03*
X114500000Y-48800000D03*
X114000000Y-48800000D03*
X113500000Y-48800000D03*
X113000000Y-48800000D03*
X112500000Y-48800000D03*
X112000000Y-48800000D03*
X111500000Y-48800000D03*
X111000000Y-48800000D03*
D108*
X110300000Y-49500000D03*
X110300000Y-50000000D03*
X110300000Y-50500000D03*
X110300000Y-51000000D03*
X110300000Y-51500000D03*
X110300000Y-52000000D03*
X110300000Y-52500000D03*
X110300000Y-53000000D03*
X110300000Y-53500000D03*
X110300000Y-54000000D03*
X110300000Y-54500000D03*
X110300000Y-55000000D03*
D109*
X111000000Y-55700000D03*
X111500000Y-55700000D03*
X112000000Y-55700000D03*
X112500000Y-55700000D03*
X113000000Y-55700000D03*
X113500000Y-55700000D03*
X114000000Y-55700000D03*
X114500000Y-55700000D03*
X115000000Y-55700000D03*
X115500000Y-55700000D03*
X116000000Y-55700000D03*
X116500000Y-55700000D03*
D110*
X113750000Y-52250000D03*
%TD*%
D18*
%TO.C,R187*%
X128900000Y-107420000D03*
X128900000Y-108380000D03*
%TD*%
D43*
%TO.C,R28*%
X127530000Y-98600000D03*
X126570000Y-98600000D03*
%TD*%
%TO.C,R30*%
X114880000Y-99800000D03*
X113920000Y-99800000D03*
%TD*%
D111*
%TO.C,C1209*%
X40525000Y-53825000D03*
X38975000Y-53825000D03*
%TD*%
D39*
%TO.C,TP4*%
X95550000Y-82200000D03*
%TD*%
D112*
%TO.C,D1201*%
X53500000Y-56150000D03*
X49200000Y-56150000D03*
%TD*%
D34*
%TO.C,R239*%
X65430000Y-93350000D03*
X66390000Y-93350000D03*
%TD*%
D73*
%TO.C,R1212*%
X46925000Y-91500000D03*
X48575000Y-91500000D03*
%TD*%
D43*
%TO.C,C6*%
X63170000Y-94350000D03*
X62210000Y-94350000D03*
%TD*%
D52*
%TO.C,C127*%
X69925000Y-90970000D03*
X69925000Y-92370000D03*
%TD*%
D43*
%TO.C,C10*%
X127530000Y-95200000D03*
X126570000Y-95200000D03*
%TD*%
D113*
%TO.C,J1*%
X119231000Y-85121000D03*
D114*
X119231000Y-105119000D03*
D115*
X124479000Y-85871000D03*
X116981000Y-86119000D03*
X124479000Y-86369000D03*
X116981000Y-86619000D03*
X124479000Y-86869000D03*
X116981000Y-87120000D03*
X124479000Y-87370000D03*
X116981000Y-87620000D03*
X124479000Y-87870000D03*
X116981000Y-88120000D03*
X124479000Y-88370000D03*
X116981000Y-88620000D03*
X124479000Y-88870000D03*
X116981000Y-89120000D03*
X124479000Y-89370000D03*
X116981000Y-89620000D03*
X124479000Y-89870000D03*
X116981000Y-90119000D03*
X124479000Y-90369000D03*
X116981000Y-90619000D03*
X124479000Y-90869000D03*
X116981000Y-91119000D03*
X124479000Y-91370000D03*
X116981000Y-93620000D03*
X124479000Y-93870000D03*
X116981000Y-94120000D03*
X124479000Y-94370000D03*
X116981000Y-94620000D03*
X124479000Y-94870000D03*
X116981000Y-95120000D03*
X124479000Y-95370000D03*
X116981000Y-95620000D03*
X124479000Y-95870000D03*
X116981000Y-96120000D03*
X124479000Y-96370000D03*
X116981000Y-96620000D03*
X124479000Y-96870000D03*
X116981000Y-97120000D03*
X124479000Y-97370000D03*
X116981000Y-97620000D03*
X124479000Y-97870000D03*
X116981000Y-98120000D03*
X124479000Y-98370000D03*
X116981000Y-98620000D03*
X124479000Y-98870000D03*
X116981000Y-99120000D03*
X124479000Y-99370000D03*
X116981000Y-99620000D03*
X124479000Y-99870000D03*
X116981000Y-100120000D03*
X124479000Y-100370000D03*
X116981000Y-100620000D03*
X124479000Y-100870000D03*
X116981000Y-101120000D03*
X124479000Y-101370000D03*
X116981000Y-101620000D03*
X124479000Y-101870000D03*
X116981000Y-102119000D03*
X124479000Y-102369000D03*
X116981000Y-102619000D03*
X124479000Y-102869000D03*
X116981000Y-103119000D03*
X124479000Y-103369000D03*
X116981000Y-103619000D03*
X124479000Y-103869000D03*
X116981000Y-104119000D03*
X124479000Y-104369000D03*
D116*
X123731000Y-84770000D03*
X123731000Y-105471000D03*
%TD*%
D16*
%TO.C,R1207*%
X31250000Y-54010000D03*
X31250000Y-52990000D03*
%TD*%
D39*
%TO.C,TP7*%
X127905000Y-114225000D03*
%TD*%
D117*
%TO.C,U29*%
X57630000Y-90750000D03*
D118*
X57455000Y-90925000D03*
D119*
X57630000Y-90275000D03*
X57630000Y-89825000D03*
D117*
X57630000Y-89350000D03*
D118*
X57455000Y-89175000D03*
D120*
X56980000Y-90050000D03*
X56480000Y-90050000D03*
D118*
X56005000Y-89175000D03*
D121*
X55830000Y-89350000D03*
D122*
X55830000Y-89825000D03*
X55830000Y-90275000D03*
D118*
X56005000Y-90925000D03*
D121*
X55830000Y-90750000D03*
%TD*%
D21*
%TO.C,R263*%
X68670000Y-97980000D03*
X68670000Y-97020000D03*
%TD*%
%TO.C,R231*%
X133700000Y-121580000D03*
X133700000Y-120620000D03*
%TD*%
D35*
%TO.C,C151*%
X70480000Y-88630000D03*
X72680000Y-88630000D03*
%TD*%
D75*
%TO.C,R1306*%
X141000000Y-54575000D03*
X141000000Y-52925000D03*
%TD*%
D34*
%TO.C,R188*%
X60520000Y-121900000D03*
X61480000Y-121900000D03*
%TD*%
D44*
%TO.C,C1201*%
X36250000Y-50480000D03*
X36250000Y-49520000D03*
%TD*%
D34*
%TO.C,R222*%
X135820000Y-119700000D03*
X136780000Y-119700000D03*
%TD*%
D41*
%TO.C,R1203*%
X33740000Y-49500000D03*
X34760000Y-49500000D03*
%TD*%
D15*
%TO.C,C1313*%
X111750000Y-57869999D03*
X111750000Y-58829999D03*
%TD*%
D38*
%TO.C,H3*%
X144750000Y-123750000D03*
%TD*%
%TO.C,H4*%
X39750000Y-123750000D03*
%TD*%
D123*
%TO.C,SW1*%
X53887500Y-72747000D03*
X56888500Y-72747000D03*
%TD*%
D113*
%TO.C,J2*%
X119092000Y-96751000D03*
D114*
X119092000Y-76754000D03*
%TD*%
D38*
%TO.C,SP8*%
X40750000Y-86750000D03*
%TD*%
D124*
%TO.C,J1001*%
X71120000Y-64979999D03*
D125*
X71120000Y-67519999D03*
X73660000Y-64979999D03*
X73660000Y-67519999D03*
X76200000Y-64979999D03*
X76200000Y-67519999D03*
X78740000Y-64979999D03*
X78740000Y-67519999D03*
X81280000Y-64979999D03*
X81280000Y-67519999D03*
X83820000Y-64979999D03*
X83820000Y-67519999D03*
X86360000Y-64979999D03*
X86360000Y-67519999D03*
X88900000Y-64979999D03*
X88900000Y-67519999D03*
X91440000Y-64979999D03*
X91440000Y-67519999D03*
X93980000Y-64979999D03*
X93980000Y-67519999D03*
X96520000Y-64979999D03*
X96520000Y-67519999D03*
X99060000Y-64979999D03*
X99060000Y-67519999D03*
X101600000Y-64979999D03*
X101600000Y-67519999D03*
X104140000Y-64979999D03*
X104140000Y-67519999D03*
X106680000Y-64979999D03*
X106680000Y-67519999D03*
X109220000Y-64979999D03*
X109220000Y-67519999D03*
X111760000Y-64979999D03*
X111760000Y-67519999D03*
X114300000Y-64979999D03*
X114300000Y-67519999D03*
X116840000Y-64979999D03*
X116840000Y-67519999D03*
X119380000Y-64979999D03*
X119380000Y-67519999D03*
%TD*%
M02*
